%TF.GenerationSoftware,KiCad,Pcbnew,7.0.2-0*%
%TF.CreationDate,2023-05-25T20:57:36-04:00*%
%TF.ProjectId,szg-c2c-txr4,737a672d-6332-4632-9d74-7872342e6b69,A*%
%TF.SameCoordinates,Original*%
%TF.FileFunction,Copper,L4,Inr*%
%TF.FilePolarity,Positive*%
%FSLAX46Y46*%
G04 Gerber Fmt 4.6, Leading zero omitted, Abs format (unit mm)*
G04 Created by KiCad (PCBNEW 7.0.2-0) date 2023-05-25 20:57:36*
%MOMM*%
%LPD*%
G01*
G04 APERTURE LIST*
%TA.AperFunction,ComponentPad*%
%ADD10R,1.700000X1.700000*%
%TD*%
%TA.AperFunction,ComponentPad*%
%ADD11O,1.700000X1.700000*%
%TD*%
%TA.AperFunction,ComponentPad*%
%ADD12C,3.600000*%
%TD*%
%TA.AperFunction,ComponentPad*%
%ADD13C,1.200000*%
%TD*%
%TA.AperFunction,ViaPad*%
%ADD14C,0.450000*%
%TD*%
%TA.AperFunction,Conductor*%
%ADD15C,0.150000*%
%TD*%
G04 APERTURE END LIST*
D10*
%TO.N,GND*%
%TO.C,J4*%
X173500000Y-114500000D03*
D11*
%TO.N,/SS1*%
X170960000Y-114500000D03*
%TD*%
D12*
%TO.N,unconnected-(H1-Pad1)*%
%TO.C,H1*%
X133090000Y-99000000D03*
%TD*%
%TO.N,unconnected-(H2-Pad1)*%
%TO.C,H2*%
X170910000Y-99000000D03*
%TD*%
%TO.N,unconnected-(H4-Pad1)*%
%TO.C,H4*%
X170910000Y-120000000D03*
%TD*%
%TO.N,unconnected-(H3-Pad1)*%
%TO.C,H3*%
X133090000Y-120000000D03*
%TD*%
D13*
%TO.N,N/C*%
%TO.C,J1*%
X141155000Y-99500000D03*
X162845000Y-99500000D03*
%TD*%
%TO.N,N/C*%
%TO.C,J2*%
X162845000Y-119500000D03*
X141155000Y-119500000D03*
%TD*%
D10*
%TO.N,+5V*%
%TO.C,J3*%
X133000000Y-108250000D03*
D11*
%TO.N,/J2_5V*%
X133000000Y-110790000D03*
%TD*%
D14*
%TO.N,GND*%
X163500000Y-107500000D03*
X152250000Y-93000000D03*
X149750000Y-93000000D03*
X161500000Y-107000000D03*
X159500000Y-120000000D03*
X153250000Y-120000000D03*
X147250000Y-99500000D03*
X152500000Y-113250000D03*
X146500000Y-119500000D03*
X154250000Y-126000000D03*
X149250000Y-120000000D03*
X161250000Y-120000000D03*
X164500000Y-104000000D03*
X159750000Y-99000000D03*
X152750000Y-99500000D03*
X154500000Y-114250000D03*
X161250000Y-99000000D03*
X144750000Y-93000000D03*
X144250000Y-120000000D03*
X172500000Y-109000000D03*
X157250000Y-93000000D03*
X161500000Y-108000000D03*
X154750000Y-120000000D03*
X154750000Y-99500000D03*
X151750000Y-126000000D03*
X159250000Y-126000000D03*
X142750000Y-120000000D03*
X157500000Y-98750000D03*
X172500000Y-106000000D03*
X161500000Y-104000000D03*
X175750000Y-108500000D03*
X163500000Y-112010000D03*
X174000000Y-106250000D03*
X146750000Y-126000000D03*
X142750000Y-99000000D03*
X156750000Y-120000000D03*
X149000000Y-99500000D03*
%TO.N,/J2_RX1+*%
X156400000Y-115000000D03*
X154250000Y-93000000D03*
%TO.N,/J2_RX1-*%
X155600000Y-115000000D03*
X153250000Y-93000000D03*
%TO.N,/J2_RX3+*%
X150400000Y-115000000D03*
X148750000Y-93000000D03*
%TO.N,/J2_RX3-*%
X147750000Y-93000000D03*
X149600000Y-115000000D03*
%TO.N,/J2_RX2+*%
X146750000Y-93000000D03*
X148900000Y-115500000D03*
%TO.N,/J2_RX2-*%
X148100000Y-115500000D03*
X145750000Y-93000000D03*
%TO.N,/J1_RX0+*%
X147750000Y-126000000D03*
X146100000Y-103498408D03*
%TO.N,/J1_RX0-*%
X146900000Y-103498408D03*
X148750000Y-126000000D03*
%TO.N,/J1_RX1+*%
X149750000Y-126000000D03*
X147600000Y-103998408D03*
%TO.N,/J1_RX1-*%
X148400000Y-103998408D03*
X150750000Y-126000000D03*
%TO.N,/J1_RX3+*%
X153600000Y-103998408D03*
X155250000Y-126000000D03*
%TO.N,/J1_RX3-*%
X156250000Y-126000000D03*
X154400000Y-103998408D03*
%TO.N,/J1_RX2+*%
X157250000Y-126000000D03*
X155100000Y-103498408D03*
%TO.N,/J1_RX2-*%
X158250000Y-126000000D03*
X155900000Y-103498408D03*
%TO.N,/J2_REFCLK+*%
X154900000Y-115500000D03*
X161500000Y-109000000D03*
%TO.N,/J2_REFCLK-*%
X161500000Y-110000000D03*
X154100000Y-115500000D03*
%TO.N,/J1_REFCLK-*%
X149900000Y-103500000D03*
X161500000Y-106000000D03*
%TO.N,/J1_REFCLK+*%
X149100000Y-103500000D03*
X161500000Y-105000000D03*
%TO.N,/J2_RX0+*%
X156250000Y-93000000D03*
X157900000Y-115500000D03*
%TO.N,/J2_RX0-*%
X157100000Y-115500000D03*
X155250000Y-93000000D03*
%TO.N,/SCL*%
X147250000Y-106750000D03*
X159750000Y-113250000D03*
%TO.N,/SDA*%
X158250000Y-112250000D03*
X147250000Y-105500000D03*
%TO.N,/S0S1+*%
X138967157Y-106032843D03*
X139078135Y-114015502D03*
%TO.N,/S0S1-*%
X139643821Y-114581188D03*
X139532843Y-105467157D03*
%TO.N,/S2S4+*%
X143013040Y-106707916D03*
X143032843Y-112217157D03*
%TO.N,/S3S5+*%
X137678415Y-108682654D03*
X137717157Y-116217157D03*
%TO.N,/S2S4-*%
X142447354Y-107273602D03*
X142467157Y-112782843D03*
%TO.N,/S3S5-*%
X138282843Y-116782843D03*
X138244101Y-109248340D03*
%TO.N,/S6S8+*%
X142032843Y-108467157D03*
X142032843Y-113467157D03*
%TO.N,/S7S9+*%
X138967157Y-121717157D03*
X140217157Y-107717157D03*
%TO.N,/S6S8-*%
X141467157Y-109032843D03*
X141467157Y-114032843D03*
%TO.N,/S7S9-*%
X139532843Y-122282843D03*
X140782843Y-108282843D03*
%TO.N,/J2_C2P_CLK+*%
X147400000Y-124137046D03*
X156600000Y-100743729D03*
%TO.N,/J1_C2P_CLK+*%
X147400000Y-115000000D03*
X156600000Y-94816240D03*
%TO.N,/J2_C2P_CLK-*%
X146600000Y-124137046D03*
X157400000Y-100743729D03*
%TO.N,/J1_C2P_CLK-*%
X157400000Y-94816240D03*
X146600000Y-115000000D03*
%TD*%
D15*
%TO.N,/J2_C2P_CLK+*%
X147150001Y-123887047D02*
X147400000Y-124137046D01*
X152850000Y-98900000D02*
X152594398Y-98900000D01*
X145400000Y-106937866D02*
X146481067Y-108018933D01*
X153600000Y-98450000D02*
G75*
G03*
X154050000Y-98900000I450000J0D01*
G01*
X145400000Y-100312134D02*
X145400000Y-106937866D01*
%TO.N,/J2_C2P_CLK-*%
X154050000Y-98600000D02*
G75*
G03*
X154200000Y-98450000I0J150000D01*
G01*
%TO.N,/J2_C2P_CLK+*%
X147438876Y-108333833D02*
G75*
G03*
X147438919Y-107909610I-212076J212133D01*
G01*
X153600000Y-97900000D02*
G75*
G03*
X153450000Y-97750000I-150000J0D01*
G01*
X147438918Y-107909611D02*
G75*
G03*
X147014656Y-107909611I-212131J-212131D01*
G01*
%TO.N,/J2_C2P_CLK-*%
X155100000Y-98450000D02*
X155100000Y-97900000D01*
X155100000Y-98450000D02*
G75*
G03*
X155250000Y-98600000I150000J0D01*
G01*
%TO.N,/J2_C2P_CLK+*%
X147329566Y-108443168D02*
G75*
G03*
X147329594Y-108867460I212134J-212132D01*
G01*
X147438918Y-108333875D02*
X147438919Y-108333874D01*
X156187866Y-98900000D02*
X155250000Y-98900000D01*
X156600000Y-100743729D02*
X156849999Y-100493730D01*
X152850000Y-98900000D02*
G75*
G03*
X153300000Y-98450000I0J450000D01*
G01*
X147329594Y-108867460D02*
X151650000Y-113187866D01*
X153300000Y-97900000D02*
X153300000Y-98450000D01*
%TO.N,/J2_C2P_CLK-*%
X152594398Y-98600000D02*
X146687866Y-98600000D01*
X156312134Y-98600000D02*
X155250000Y-98600000D01*
%TO.N,/J2_C2P_CLK+*%
X154500000Y-97900000D02*
X154500000Y-98450000D01*
X153600000Y-98450000D02*
X153600000Y-97900000D01*
X154800000Y-98450000D02*
G75*
G03*
X155250000Y-98900000I450000J0D01*
G01*
X156849999Y-99562133D02*
X156187866Y-98900000D01*
X154650000Y-97750000D02*
G75*
G03*
X154500000Y-97900000I0J-150000D01*
G01*
X152594398Y-98900000D02*
X146812134Y-98900000D01*
X147150001Y-120312133D02*
X147150001Y-123887047D01*
X146812134Y-98900000D02*
X145400000Y-100312134D01*
%TO.N,/J2_C2P_CLK-*%
X153900000Y-98450000D02*
X153900000Y-97900000D01*
%TO.N,/J2_C2P_CLK+*%
X154800000Y-98450000D02*
X154800000Y-97900000D01*
X146905332Y-108018932D02*
X146905331Y-108018933D01*
X146905331Y-108018933D02*
X147014655Y-107909610D01*
X147438919Y-108333874D02*
X147329594Y-108443196D01*
X154050000Y-98900000D02*
G75*
G03*
X154500000Y-98450000I0J450000D01*
G01*
%TO.N,/J2_C2P_CLK-*%
X151350000Y-115687866D02*
X146849999Y-120187867D01*
%TO.N,/J2_C2P_CLK+*%
X151650000Y-113187866D02*
X151650000Y-115812134D01*
X146481069Y-108018931D02*
G75*
G03*
X146905331Y-108018931I212131J212131D01*
G01*
X151650000Y-115812134D02*
X147150001Y-120312133D01*
%TO.N,/J2_C2P_CLK-*%
X154650000Y-97450000D02*
G75*
G03*
X154200000Y-97900000I0J-450000D01*
G01*
%TO.N,/J2_C2P_CLK+*%
X153450000Y-97750000D02*
G75*
G03*
X153300000Y-97900000I0J-150000D01*
G01*
%TO.N,/J2_C2P_CLK-*%
X146849999Y-120187867D02*
X146849999Y-123887047D01*
X155100000Y-97900000D02*
G75*
G03*
X154650000Y-97450000I-450000J0D01*
G01*
X153900000Y-98450000D02*
G75*
G03*
X154050000Y-98600000I150000J0D01*
G01*
X153900000Y-97900000D02*
G75*
G03*
X153450000Y-97450000I-450000J0D01*
G01*
X153450000Y-97450000D02*
G75*
G03*
X153000000Y-97900000I0J-450000D01*
G01*
%TO.N,/J2_C2P_CLK+*%
X156849999Y-100493730D02*
X156849999Y-99562133D01*
X154800000Y-97900000D02*
G75*
G03*
X154650000Y-97750000I-150000J0D01*
G01*
%TO.N,/J2_C2P_CLK-*%
X157150001Y-99437867D02*
X156312134Y-98600000D01*
X152850000Y-98600000D02*
G75*
G03*
X153000000Y-98450000I0J150000D01*
G01*
X146849999Y-123887047D02*
X146600000Y-124137046D01*
X157400000Y-100743729D02*
X157150001Y-100493730D01*
X157150001Y-100493730D02*
X157150001Y-99437867D01*
X154200000Y-97900000D02*
X154200000Y-98450000D01*
X153000000Y-97900000D02*
X153000000Y-98450000D01*
X152850000Y-98600000D02*
X152594398Y-98600000D01*
X146687866Y-98600000D02*
X145100000Y-100187866D01*
X145100000Y-100187866D02*
X145100000Y-107062134D01*
X145100000Y-107062134D02*
X151350000Y-113312134D01*
X151350000Y-113312134D02*
X151350000Y-115687866D01*
%TO.N,/J1_C2P_CLK+*%
X147330758Y-93717159D02*
G75*
G03*
X147118628Y-93717159I-106065J-106065D01*
G01*
X147118602Y-93717134D02*
G75*
G03*
X147118626Y-93929290I106098J-106066D01*
G01*
X147118627Y-93717158D02*
X147118626Y-93717158D01*
X148320737Y-95767799D02*
G75*
G03*
X148320709Y-95131373I-318237J318199D01*
G01*
X146482227Y-94565691D02*
G75*
G03*
X146270097Y-94565691I-106065J-106065D01*
G01*
X147604582Y-111699982D02*
G75*
G03*
X147904582Y-111400000I18J299982D01*
G01*
X147118625Y-93929290D02*
X148320709Y-95131373D01*
X146835780Y-96616303D02*
G75*
G03*
X147472176Y-96616303I318198J318203D01*
G01*
X147472175Y-96616299D02*
G75*
G03*
X147472178Y-95979904I-318175J318199D01*
G01*
X148320710Y-95767772D02*
X148320708Y-95767773D01*
X147719668Y-94106067D02*
G75*
G03*
X148356066Y-94106067I318199J318200D01*
G01*
X145633696Y-95414222D02*
G75*
G03*
X145421566Y-95414222I-106065J-106065D01*
G01*
X147904600Y-111400000D02*
G75*
G03*
X147604582Y-111100000I-300000J0D01*
G01*
%TO.N,/J1_C2P_CLK-*%
X146906493Y-94141423D02*
X148108575Y-95343508D01*
%TO.N,/J1_C2P_CLK+*%
X145421579Y-95414235D02*
G75*
G03*
X145421566Y-95626352I106021J-106065D01*
G01*
X146623613Y-97464799D02*
G75*
G03*
X146623647Y-96828435I-318213J318199D01*
G01*
X156600000Y-94816240D02*
X156850000Y-94566240D01*
X147150000Y-110800000D02*
G75*
G03*
X147450001Y-111100000I300000J0D01*
G01*
%TO.N,/J1_C2P_CLK-*%
X147896443Y-95555640D02*
X147896444Y-95555640D01*
%TO.N,/J1_C2P_CLK+*%
X147450001Y-111700001D02*
G75*
G03*
X147150001Y-112000000I-1J-299999D01*
G01*
X147150001Y-112000000D02*
X147150001Y-114750001D01*
X145987249Y-97464834D02*
G75*
G03*
X146623645Y-97464834I318198J318203D01*
G01*
%TO.N,/J1_C2P_CLK-*%
X146906493Y-93505025D02*
X146906494Y-93505025D01*
%TO.N,/J1_C2P_CLK+*%
X148562134Y-93900001D02*
X148356066Y-94106067D01*
%TO.N,/J1_C2P_CLK-*%
X146057962Y-94989955D02*
X147260044Y-96192039D01*
%TO.N,/J1_C2P_CLK+*%
X147719668Y-94106067D02*
X147719667Y-94106067D01*
%TO.N,/J1_C2P_CLK-*%
X148108600Y-95555665D02*
G75*
G03*
X148108574Y-95343509I-106100J106065D01*
G01*
X145174075Y-96863794D02*
X145174075Y-96863795D01*
%TO.N,/J1_C2P_CLK+*%
X144400000Y-98062134D02*
X144400000Y-107937866D01*
X147684310Y-95767773D02*
X147684311Y-95767773D01*
%TO.N,/J1_C2P_CLK-*%
X145209431Y-95838486D02*
X146411513Y-97040570D01*
%TO.N,/J1_C2P_CLK+*%
X147684311Y-95767773D02*
X146482228Y-94565690D01*
X146270141Y-94565735D02*
G75*
G03*
X146270097Y-94777821I106059J-106065D01*
G01*
X146270096Y-94777822D02*
X146270095Y-94777822D01*
X156437866Y-93900000D02*
X148562134Y-93900001D01*
X145421564Y-95626353D02*
X146128671Y-96333462D01*
X146270095Y-94777822D02*
X147472178Y-95979904D01*
X156850000Y-94312134D02*
X156437866Y-93900000D01*
X145598339Y-97075928D02*
G75*
G03*
X145386209Y-97075928I-106065J-106065D01*
G01*
%TO.N,/J1_C2P_CLK-*%
X145209432Y-95838486D02*
X145209431Y-95838486D01*
%TO.N,/J1_C2P_CLK+*%
X147472179Y-96616303D02*
X147472177Y-96616304D01*
%TO.N,/J1_C2P_CLK-*%
X145810472Y-96863795D02*
G75*
G03*
X145174076Y-96863795I-318198J-318203D01*
G01*
X148437866Y-93600000D02*
X148143933Y-93893934D01*
%TO.N,/J1_C2P_CLK+*%
X146835780Y-96616304D02*
X145633697Y-95414221D01*
X156850000Y-94566240D02*
X156850000Y-94312134D01*
X147150001Y-110687867D02*
X147150001Y-110800000D01*
X145421565Y-95626353D02*
X145421564Y-95626353D01*
%TO.N,/J1_C2P_CLK-*%
X147047912Y-96404171D02*
X147047913Y-96404171D01*
%TO.N,/J1_C2P_CLK+*%
X146128671Y-96333462D02*
X146623647Y-96828435D01*
X146623648Y-97464834D02*
X146623646Y-97464835D01*
%TO.N,/J1_C2P_CLK-*%
X147047913Y-96404170D02*
G75*
G03*
X147260043Y-96404170I106065J106065D01*
G01*
%TO.N,/J1_C2P_CLK+*%
X145987248Y-97464835D02*
X145987249Y-97464835D01*
%TO.N,/J1_C2P_CLK-*%
X146849999Y-110812133D02*
X146849999Y-114750001D01*
%TO.N,/J1_C2P_CLK+*%
X145987249Y-97464835D02*
X145598340Y-97075927D01*
X147118626Y-93929290D02*
X147118625Y-93929290D01*
X145386208Y-97075927D02*
X145386207Y-97075926D01*
X145386207Y-97075926D02*
X144400000Y-98062134D01*
X146835779Y-96616304D02*
X146835780Y-96616304D01*
X147719667Y-94106067D02*
X147330759Y-93717158D01*
%TO.N,/J1_C2P_CLK-*%
X146199381Y-97252702D02*
X146199382Y-97252702D01*
%TO.N,/J1_C2P_CLK+*%
X144400000Y-107937866D02*
X147150001Y-110687867D01*
X147684311Y-95767772D02*
G75*
G03*
X148320707Y-95767772I318198J318203D01*
G01*
X147450001Y-111100000D02*
X147604582Y-111100000D01*
X147604582Y-111700000D02*
X147450001Y-111700000D01*
%TO.N,/J1_C2P_CLK-*%
X147931802Y-93893933D02*
G75*
G03*
X148143932Y-93893933I106065J106065D01*
G01*
%TO.N,/J1_C2P_CLK+*%
X147150001Y-114750001D02*
X147400000Y-115000000D01*
%TO.N,/J1_C2P_CLK-*%
X146906470Y-93505001D02*
G75*
G03*
X146906494Y-94141423I318230J-318199D01*
G01*
X147542893Y-93505025D02*
G75*
G03*
X146906493Y-93505025I-318200J-318199D01*
G01*
X147896444Y-95555639D02*
G75*
G03*
X148108574Y-95555639I106065J106065D01*
G01*
X146057963Y-94353556D02*
X146057963Y-94353557D01*
X146694400Y-94353519D02*
G75*
G03*
X146057963Y-94353556I-318200J-318281D01*
G01*
X157400000Y-94816240D02*
X157150000Y-94566240D01*
X146058007Y-94353601D02*
G75*
G03*
X146057963Y-94989955I318193J-318199D01*
G01*
X147260038Y-96404165D02*
G75*
G03*
X147260043Y-96192040I-106038J106065D01*
G01*
X145845800Y-95202119D02*
G75*
G03*
X145209432Y-95202087I-318200J-318181D01*
G01*
X145209445Y-95202101D02*
G75*
G03*
X145209432Y-95838486I318155J-318199D01*
G01*
X146411476Y-97252665D02*
G75*
G03*
X146411512Y-97040571I-106076J106065D01*
G01*
X157150000Y-94187866D02*
X156562134Y-93600000D01*
X146199382Y-97252701D02*
G75*
G03*
X146411512Y-97252701I106065J106065D01*
G01*
X157150000Y-94566240D02*
X157150000Y-94187866D01*
X156562134Y-93600000D02*
X148437866Y-93600000D01*
X146057963Y-94989955D02*
X146057962Y-94989955D01*
X147931801Y-93893934D02*
X147542893Y-93505025D01*
X146906494Y-94141423D02*
X146906493Y-94141423D01*
X147896444Y-95555640D02*
X146694362Y-94353557D01*
X147047913Y-96404171D02*
X145845831Y-95202088D01*
X145209432Y-95202087D02*
X145209432Y-95202088D01*
X146199382Y-97252702D02*
X145810473Y-96863794D01*
X145174075Y-96863795D02*
X144100000Y-97937866D01*
X144100000Y-97937866D02*
X144100000Y-108062134D01*
X144100000Y-108062134D02*
X146849999Y-110812133D01*
X146849999Y-114750001D02*
X146600000Y-115000000D01*
%TO.N,/J2_REFCLK+*%
X155497576Y-116414558D02*
X155662134Y-116414558D01*
X154650001Y-116437867D02*
X155062134Y-116850000D01*
X160100000Y-112062134D02*
X160100000Y-109937866D01*
X159187866Y-116850000D02*
X161100000Y-114937866D01*
X161150001Y-109349999D02*
X161500000Y-109000000D01*
X154650001Y-115749999D02*
X154650001Y-116437867D01*
X160687867Y-109349999D02*
X161150001Y-109349999D01*
X156097576Y-116850000D02*
X156262134Y-116850000D01*
X154900000Y-115500000D02*
X154650001Y-115749999D01*
X161100000Y-113062134D02*
X160100000Y-112062134D01*
X156262134Y-116850000D02*
X159187866Y-116850000D01*
X161100000Y-114937866D02*
X161100000Y-113062134D01*
X160100000Y-109937866D02*
X160687867Y-109349999D01*
X155879842Y-116632279D02*
G75*
G03*
X155662134Y-116414558I-217742J-21D01*
G01*
X155062134Y-116850055D02*
G75*
G03*
X155279855Y-116632279I-34J217755D01*
G01*
X155879900Y-116632279D02*
G75*
G03*
X156097576Y-116850000I217700J-21D01*
G01*
X155497576Y-116414555D02*
G75*
G03*
X155279855Y-116632279I24J-217745D01*
G01*
%TO.N,/J2_REFCLK-*%
X154937866Y-117150000D02*
X154349999Y-116562133D01*
X161400000Y-112937866D02*
X161400000Y-115062134D01*
X160812133Y-109650001D02*
X160400000Y-110062134D01*
X159312134Y-117150000D02*
X154937866Y-117150000D01*
X161500000Y-110000000D02*
X161150001Y-109650001D01*
X160400000Y-111937866D02*
X161400000Y-112937866D01*
X154349999Y-116562133D02*
X154349999Y-115749999D01*
X154349999Y-115749999D02*
X154100000Y-115500000D01*
X160400000Y-110062134D02*
X160400000Y-111937866D01*
X161400000Y-115062134D02*
X159312134Y-117150000D01*
X161150001Y-109650001D02*
X160812133Y-109650001D01*
%TO.N,/J1_REFCLK-*%
X150687865Y-103015799D02*
X150804229Y-103132163D01*
X150062134Y-102400000D02*
X150687866Y-102400000D01*
X152268933Y-104193198D02*
X151880024Y-104582106D01*
X151420029Y-103132162D02*
X151536394Y-103248528D01*
X151112129Y-103132163D02*
X151112129Y-103132162D01*
X151880025Y-105218505D02*
X151880024Y-105218504D01*
X153937867Y-105650001D02*
X161150001Y-105650001D01*
X149650001Y-103250001D02*
X149650001Y-102812133D01*
X153117464Y-104829597D02*
X153937867Y-105650001D01*
X153117462Y-104829595D02*
X153117464Y-104829597D01*
X149650001Y-102812133D02*
X150062134Y-102400000D01*
X149900000Y-103500000D02*
X149650001Y-103250001D01*
X151536394Y-103248528D02*
X152268933Y-103981066D01*
X152516422Y-105218504D02*
X152905330Y-104829595D01*
X161150001Y-105650001D02*
X161500000Y-106000000D01*
X152516423Y-105218503D02*
X152516422Y-105218504D01*
X151880019Y-104582101D02*
G75*
G03*
X151880025Y-105218505I318181J-318199D01*
G01*
X150687816Y-102707850D02*
G75*
G03*
X150687866Y-102400000I-153916J153950D01*
G01*
X152268901Y-104193166D02*
G75*
G03*
X152268933Y-103981066I-106001J106066D01*
G01*
X151880001Y-105218527D02*
G75*
G03*
X152516423Y-105218503I318199J318227D01*
G01*
X150687816Y-102707850D02*
G75*
G03*
X150687865Y-103015799I153984J-153950D01*
G01*
X153117461Y-104829596D02*
G75*
G03*
X152905331Y-104829596I-106065J-106065D01*
G01*
X150804230Y-103132162D02*
G75*
G03*
X151112128Y-103132162I153949J153950D01*
G01*
X151420028Y-103132163D02*
G75*
G03*
X151112130Y-103132163I-153949J-153950D01*
G01*
%TO.N,/J1_REFCLK+*%
X150812134Y-102100000D02*
X152481066Y-103768933D01*
X152481066Y-104405332D02*
X152092157Y-104794240D01*
X149100000Y-103500000D02*
X149349999Y-103250001D01*
X153329596Y-104617464D02*
X153329595Y-104617463D01*
X152304289Y-105006372D02*
X152693197Y-104617463D01*
X161150001Y-105349999D02*
X161500000Y-105000000D01*
X152481066Y-104405331D02*
X152481066Y-104405332D01*
X149937866Y-102100000D02*
X150812134Y-102100000D01*
X153329595Y-104617463D02*
X154062133Y-105349999D01*
X154062133Y-105349999D02*
X161150001Y-105349999D01*
X152304290Y-105006371D02*
X152304289Y-105006372D01*
X149349999Y-102687867D02*
X149937866Y-102100000D01*
X149349999Y-103250001D02*
X149349999Y-102687867D01*
X152481034Y-104405299D02*
G75*
G03*
X152481066Y-103768933I-318134J318199D01*
G01*
X153329600Y-104617460D02*
G75*
G03*
X152693197Y-104617463I-318200J-318240D01*
G01*
X152092134Y-105006395D02*
G75*
G03*
X152304290Y-105006371I106066J106095D01*
G01*
X152092152Y-104794235D02*
G75*
G03*
X152092158Y-105006371I106048J-106065D01*
G01*
%TO.N,/SCL*%
X153750000Y-113250000D02*
X159750000Y-113250000D01*
X147250000Y-106750000D02*
X153750000Y-113250000D01*
%TO.N,/SDA*%
X147250000Y-105500000D02*
X154000000Y-112250000D01*
X154000000Y-112250000D02*
X158250000Y-112250000D01*
%TO.N,/S0S1+*%
X139232842Y-106298528D02*
X139232842Y-112194976D01*
X139850000Y-113597190D02*
X139431688Y-114015502D01*
X139232842Y-112194976D02*
X139850000Y-112812134D01*
X139431688Y-114015502D02*
X139078135Y-114015502D01*
X139850000Y-112812134D02*
X139850000Y-113597190D01*
X138967157Y-106032843D02*
X139232842Y-106298528D01*
%TO.N,/S0S1-*%
X139643821Y-114227635D02*
X139643821Y-114581188D01*
X140150000Y-113721456D02*
X139643821Y-114227635D01*
X140150000Y-112687866D02*
X140150000Y-113721456D01*
X139532843Y-112070709D02*
X140150000Y-112687866D01*
X139532843Y-105467157D02*
X139532843Y-112070709D01*
%TO.N,/S2S4+*%
X143013040Y-106707916D02*
X143013040Y-109949094D01*
X142767158Y-110194976D02*
X142767158Y-111951472D01*
X143013040Y-109949094D02*
X142767158Y-110194976D01*
X142767158Y-111951472D02*
X143032843Y-112217157D01*
%TO.N,/S3S5+*%
X137982842Y-115951472D02*
X137717157Y-116217157D01*
X137678415Y-113140549D02*
X137982842Y-113444976D01*
X137678415Y-108682654D02*
X137678415Y-113140549D01*
X137982842Y-113444976D02*
X137982842Y-115951472D01*
%TO.N,/S2S4-*%
X142713039Y-107539287D02*
X142713039Y-109824827D01*
X142447354Y-107273602D02*
X142713039Y-107539287D01*
X142467157Y-110070709D02*
X142467157Y-112782843D01*
X142713039Y-109824827D02*
X142467157Y-110070709D01*
%TO.N,/S3S5-*%
X137978416Y-109514025D02*
X137978416Y-113016282D01*
X138244101Y-109248340D02*
X137978416Y-109514025D01*
X138282843Y-113320709D02*
X138282843Y-116782843D01*
X137978416Y-113016282D02*
X138282843Y-113320709D01*
%TO.N,/S6S8+*%
X141767158Y-112444976D02*
X142032843Y-112179291D01*
X142032843Y-113467157D02*
X141767158Y-113201472D01*
X142032843Y-112179291D02*
X142032843Y-108467157D01*
X141767158Y-113201472D02*
X141767158Y-112444976D01*
%TO.N,/S7S9+*%
X140600000Y-116187867D02*
X139232842Y-117555025D01*
X140600000Y-112062134D02*
X140600000Y-116187867D01*
X139232842Y-117555025D02*
X139232842Y-121451472D01*
X140217157Y-111679291D02*
X140600000Y-112062134D01*
X140217157Y-107717157D02*
X140217157Y-111679291D01*
X139232842Y-121451472D02*
X138967157Y-121717157D01*
%TO.N,/S6S8-*%
X141732842Y-112055024D02*
X141732842Y-109298528D01*
X141467157Y-114032843D02*
X141467157Y-112320709D01*
X141732842Y-109298528D02*
X141467157Y-109032843D01*
X141467157Y-112320709D02*
X141732842Y-112055024D01*
%TO.N,/S7S9-*%
X140900000Y-116312133D02*
X139532843Y-117679290D01*
X139532843Y-117679290D02*
X139532843Y-122282843D01*
X140782843Y-108282843D02*
X140517158Y-108548528D01*
X140900000Y-111937866D02*
X140900000Y-116312133D01*
X140517158Y-111555024D02*
X140900000Y-111937866D01*
X140517158Y-108548528D02*
X140517158Y-111555024D01*
%TD*%
%TA.AperFunction,Conductor*%
%TO.N,GND*%
G36*
X145295383Y-92220185D02*
G01*
X145341138Y-92272989D01*
X145351082Y-92342147D01*
X145322057Y-92405703D01*
X145295568Y-92428419D01*
X145179193Y-92544794D01*
X145092209Y-92683227D01*
X145038213Y-92837538D01*
X145019908Y-93000000D01*
X145038213Y-93162461D01*
X145092209Y-93316772D01*
X145092211Y-93316775D01*
X145179192Y-93455204D01*
X145294796Y-93570808D01*
X145433225Y-93657789D01*
X145433227Y-93657790D01*
X145587539Y-93711786D01*
X145597166Y-93712871D01*
X145661580Y-93739937D01*
X145701136Y-93797532D01*
X145703273Y-93867369D01*
X145667315Y-93927275D01*
X145658777Y-93934460D01*
X145651703Y-93939888D01*
X145647509Y-93943107D01*
X145629298Y-93966839D01*
X145618607Y-93979029D01*
X145591186Y-94006449D01*
X145590856Y-94006870D01*
X145587636Y-94010089D01*
X145484716Y-94157067D01*
X145408882Y-94319678D01*
X145378106Y-94434512D01*
X145341738Y-94494170D01*
X145290421Y-94522188D01*
X145175583Y-94552953D01*
X145175582Y-94552953D01*
X145175580Y-94552954D01*
X145125186Y-94576449D01*
X145012950Y-94628776D01*
X144865964Y-94731684D01*
X144834916Y-94762725D01*
X144822735Y-94773407D01*
X144798980Y-94791636D01*
X144780779Y-94815354D01*
X144770087Y-94827546D01*
X144742731Y-94854900D01*
X144742630Y-94855028D01*
X144739087Y-94858570D01*
X144636153Y-95005556D01*
X144560307Y-95168187D01*
X144513856Y-95341519D01*
X144498212Y-95520281D01*
X144513849Y-95699038D01*
X144560293Y-95872372D01*
X144636130Y-96035002D01*
X144739060Y-96181997D01*
X144769583Y-96212519D01*
X144770077Y-96213013D01*
X144780765Y-96225199D01*
X144798980Y-96248937D01*
X144798982Y-96248938D01*
X144808918Y-96261887D01*
X144805030Y-96264870D01*
X144827441Y-96295483D01*
X144831681Y-96365224D01*
X144797543Y-96426186D01*
X144786293Y-96435947D01*
X144763623Y-96453343D01*
X144745409Y-96477078D01*
X144734722Y-96489264D01*
X144711498Y-96512490D01*
X144711491Y-96512497D01*
X143725476Y-97498509D01*
X143713283Y-97509202D01*
X143689550Y-97527413D01*
X143659174Y-97566998D01*
X143659164Y-97567013D01*
X143597302Y-97647631D01*
X143591633Y-97661318D01*
X143565493Y-97724427D01*
X143543145Y-97778376D01*
X143539312Y-97787632D01*
X143524500Y-97900146D01*
X143524500Y-97900151D01*
X143519534Y-97937864D01*
X143523439Y-97967518D01*
X143524500Y-97983704D01*
X143524500Y-100412812D01*
X143504815Y-100479851D01*
X143452011Y-100525606D01*
X143382853Y-100535550D01*
X143320794Y-100507801D01*
X143180748Y-100390287D01*
X143021873Y-100310497D01*
X142848892Y-100269500D01*
X142848890Y-100269500D01*
X142715708Y-100269500D01*
X142712142Y-100269916D01*
X142712138Y-100269917D01*
X142583420Y-100284962D01*
X142416366Y-100345765D01*
X142267830Y-100443458D01*
X142145833Y-100572768D01*
X142056943Y-100726730D01*
X142005955Y-100897043D01*
X141995617Y-101074519D01*
X142011212Y-101162958D01*
X142026489Y-101249599D01*
X142087345Y-101390678D01*
X142096904Y-101412838D01*
X142203067Y-101555439D01*
X142339251Y-101669712D01*
X142339252Y-101669712D01*
X142339254Y-101669714D01*
X142498123Y-101749501D01*
X142498124Y-101749501D01*
X142498126Y-101749502D01*
X142671108Y-101790500D01*
X142671110Y-101790500D01*
X142800694Y-101790500D01*
X142804292Y-101790500D01*
X142936577Y-101775038D01*
X143103635Y-101714234D01*
X143252168Y-101616543D01*
X143310306Y-101554919D01*
X143370629Y-101519666D01*
X143440436Y-101522621D01*
X143497564Y-101562848D01*
X143523874Y-101627574D01*
X143524500Y-101640014D01*
X143524500Y-105948094D01*
X143504815Y-106015133D01*
X143452011Y-106060888D01*
X143382853Y-106070832D01*
X143334531Y-106053090D01*
X143329814Y-106050126D01*
X143175501Y-105996129D01*
X143013040Y-105977824D01*
X142850578Y-105996129D01*
X142696267Y-106050125D01*
X142557834Y-106137109D01*
X142442233Y-106252710D01*
X142355249Y-106391143D01*
X142316735Y-106501211D01*
X142276014Y-106557987D01*
X142240649Y-106577297D01*
X142130581Y-106615811D01*
X141992148Y-106702795D01*
X141876547Y-106818396D01*
X141789563Y-106956829D01*
X141735567Y-107111140D01*
X141717262Y-107273602D01*
X141735567Y-107436063D01*
X141789564Y-107590377D01*
X141806392Y-107617158D01*
X141825392Y-107684394D01*
X141805024Y-107751229D01*
X141751756Y-107796443D01*
X141742353Y-107800170D01*
X141716070Y-107809366D01*
X141577634Y-107896352D01*
X141576541Y-107897446D01*
X141571606Y-107900140D01*
X141565809Y-107903783D01*
X141565585Y-107903427D01*
X141515217Y-107930928D01*
X141445525Y-107925941D01*
X141389594Y-107884067D01*
X141383876Y-107875742D01*
X141353651Y-107827639D01*
X141238047Y-107712035D01*
X141099618Y-107625054D01*
X141099617Y-107625053D01*
X141099616Y-107625053D01*
X140989546Y-107586537D01*
X140932771Y-107545815D01*
X140913461Y-107510453D01*
X140874946Y-107400382D01*
X140787965Y-107261953D01*
X140672361Y-107146349D01*
X140533932Y-107059368D01*
X140533929Y-107059366D01*
X140379618Y-107005370D01*
X140218459Y-106987212D01*
X140154045Y-106960145D01*
X140114490Y-106902550D01*
X140108343Y-106863992D01*
X140108343Y-105950617D01*
X140127349Y-105884645D01*
X140138032Y-105867643D01*
X140190632Y-105783932D01*
X140244629Y-105629618D01*
X140262934Y-105467157D01*
X140255995Y-105405571D01*
X140244629Y-105304695D01*
X140190633Y-105150384D01*
X140145825Y-105079073D01*
X140103651Y-105011953D01*
X139988047Y-104896349D01*
X139849618Y-104809368D01*
X139849615Y-104809366D01*
X139695304Y-104755370D01*
X139532843Y-104737065D01*
X139370381Y-104755370D01*
X139216070Y-104809366D01*
X139077637Y-104896350D01*
X138962036Y-105011951D01*
X138875052Y-105150384D01*
X138836538Y-105260452D01*
X138795817Y-105317228D01*
X138760452Y-105336538D01*
X138650384Y-105375052D01*
X138511951Y-105462036D01*
X138396350Y-105577637D01*
X138309366Y-105716070D01*
X138255370Y-105870381D01*
X138237065Y-106032843D01*
X138255370Y-106195304D01*
X138309366Y-106349615D01*
X138309368Y-106349618D01*
X138396349Y-106488047D01*
X138511953Y-106603651D01*
X138599315Y-106658544D01*
X138645605Y-106710878D01*
X138657342Y-106763537D01*
X138657342Y-108449544D01*
X138637657Y-108516583D01*
X138584853Y-108562338D01*
X138515695Y-108572282D01*
X138492385Y-108566585D01*
X138450803Y-108552034D01*
X138394028Y-108511311D01*
X138374719Y-108475950D01*
X138336204Y-108365879D01*
X138249223Y-108227450D01*
X138133619Y-108111846D01*
X137995190Y-108024865D01*
X137995187Y-108024863D01*
X137840876Y-107970867D01*
X137678415Y-107952562D01*
X137515953Y-107970867D01*
X137361642Y-108024863D01*
X137223209Y-108111847D01*
X137107608Y-108227448D01*
X137020624Y-108365881D01*
X136966628Y-108520192D01*
X136948323Y-108682654D01*
X136966628Y-108845115D01*
X137020624Y-108999426D01*
X137083909Y-109100142D01*
X137102915Y-109166114D01*
X137102915Y-113094709D01*
X137101854Y-113110894D01*
X137097949Y-113140548D01*
X137102915Y-113178263D01*
X137102915Y-113178269D01*
X137117727Y-113290784D01*
X137151709Y-113372821D01*
X137175716Y-113430781D01*
X137244803Y-113520817D01*
X137244806Y-113520820D01*
X137267964Y-113551001D01*
X137291701Y-113569215D01*
X137303886Y-113579900D01*
X137371025Y-113647039D01*
X137404508Y-113708358D01*
X137407342Y-113734717D01*
X137407342Y-115486462D01*
X137387657Y-115553501D01*
X137349315Y-115591455D01*
X137261952Y-115646349D01*
X137146350Y-115761951D01*
X137059366Y-115900384D01*
X137005370Y-116054695D01*
X136987065Y-116217156D01*
X137005370Y-116379618D01*
X137059366Y-116533929D01*
X137059368Y-116533932D01*
X137146349Y-116672361D01*
X137261953Y-116787965D01*
X137400382Y-116874946D01*
X137510451Y-116913461D01*
X137567227Y-116954182D01*
X137586537Y-116989546D01*
X137590718Y-117001493D01*
X137625054Y-117099618D01*
X137712035Y-117238047D01*
X137827639Y-117353651D01*
X137966068Y-117440632D01*
X137966070Y-117440633D01*
X138120381Y-117494629D01*
X138282842Y-117512934D01*
X138282842Y-117512933D01*
X138282843Y-117512934D01*
X138445304Y-117494629D01*
X138491673Y-117478404D01*
X138561452Y-117474842D01*
X138622079Y-117509570D01*
X138654307Y-117571564D01*
X138655565Y-117579247D01*
X138656279Y-117584666D01*
X138657342Y-117600864D01*
X138657342Y-120986462D01*
X138637657Y-121053501D01*
X138599315Y-121091455D01*
X138511952Y-121146349D01*
X138396350Y-121261951D01*
X138309366Y-121400384D01*
X138255370Y-121554695D01*
X138237065Y-121717156D01*
X138255370Y-121879618D01*
X138309366Y-122033929D01*
X138309368Y-122033932D01*
X138396349Y-122172361D01*
X138511953Y-122287965D01*
X138650382Y-122374946D01*
X138760451Y-122413461D01*
X138817227Y-122454182D01*
X138836537Y-122489546D01*
X138875053Y-122599615D01*
X138875054Y-122599618D01*
X138962035Y-122738047D01*
X139077639Y-122853651D01*
X139216068Y-122940632D01*
X139216070Y-122940633D01*
X139370381Y-122994629D01*
X139532842Y-123012934D01*
X139532842Y-123012933D01*
X139532843Y-123012934D01*
X139695304Y-122994629D01*
X139849618Y-122940632D01*
X139988047Y-122853651D01*
X140103651Y-122738047D01*
X140190632Y-122599618D01*
X140244629Y-122445304D01*
X140262934Y-122282843D01*
X140256629Y-122226880D01*
X140244629Y-122120381D01*
X140190633Y-121966069D01*
X140127349Y-121865353D01*
X140108343Y-121799381D01*
X140108343Y-120310117D01*
X140128028Y-120243078D01*
X140180832Y-120197323D01*
X140249990Y-120187379D01*
X140313546Y-120216404D01*
X140331295Y-120235388D01*
X140337102Y-120243078D01*
X140338238Y-120244581D01*
X140488958Y-120381981D01*
X140662361Y-120489347D01*
X140662363Y-120489348D01*
X140852544Y-120563024D01*
X141053024Y-120600500D01*
X141053026Y-120600500D01*
X141256974Y-120600500D01*
X141256976Y-120600500D01*
X141457456Y-120563024D01*
X141647637Y-120489348D01*
X141821041Y-120381981D01*
X141971764Y-120244579D01*
X142094673Y-120081821D01*
X142094673Y-120081819D01*
X142094675Y-120081818D01*
X142140313Y-119990161D01*
X142185582Y-119899250D01*
X142241397Y-119703083D01*
X142260215Y-119500000D01*
X142241397Y-119296917D01*
X142185582Y-119100750D01*
X142185209Y-119100001D01*
X142094675Y-118918181D01*
X141971763Y-118755419D01*
X141821041Y-118618018D01*
X141647638Y-118510652D01*
X141457457Y-118436976D01*
X141390629Y-118424483D01*
X141256976Y-118399500D01*
X141053024Y-118399500D01*
X140952783Y-118418238D01*
X140852542Y-118436976D01*
X140662361Y-118510652D01*
X140488958Y-118618018D01*
X140338235Y-118755421D01*
X140331296Y-118764610D01*
X140275186Y-118806245D01*
X140205474Y-118810936D01*
X140144293Y-118777193D01*
X140111067Y-118715729D01*
X140108343Y-118689882D01*
X140108343Y-118014519D01*
X141995617Y-118014519D01*
X142011212Y-118102958D01*
X142026489Y-118189599D01*
X142062581Y-118273269D01*
X142096904Y-118352838D01*
X142203067Y-118495439D01*
X142339251Y-118609712D01*
X142339252Y-118609712D01*
X142339254Y-118609714D01*
X142498123Y-118689501D01*
X142498124Y-118689501D01*
X142498126Y-118689502D01*
X142671108Y-118730500D01*
X142671110Y-118730500D01*
X142800694Y-118730500D01*
X142804292Y-118730500D01*
X142936577Y-118715038D01*
X143103635Y-118654234D01*
X143252168Y-118556543D01*
X143374167Y-118427231D01*
X143463057Y-118273269D01*
X143514045Y-118102958D01*
X143524382Y-117925480D01*
X143493511Y-117750401D01*
X143423096Y-117587162D01*
X143316933Y-117444561D01*
X143269535Y-117404789D01*
X143180748Y-117330287D01*
X143021873Y-117250497D01*
X142848892Y-117209500D01*
X142848890Y-117209500D01*
X142715708Y-117209500D01*
X142712142Y-117209916D01*
X142712138Y-117209917D01*
X142583420Y-117224962D01*
X142416366Y-117285765D01*
X142267830Y-117383458D01*
X142145833Y-117512768D01*
X142056943Y-117666730D01*
X142037862Y-117730465D01*
X142025330Y-117772327D01*
X142005955Y-117837043D01*
X141995617Y-118014519D01*
X140108343Y-118014519D01*
X140108343Y-117969031D01*
X140128028Y-117901992D01*
X140144657Y-117881354D01*
X141274528Y-116751483D01*
X141286706Y-116740803D01*
X141310451Y-116722584D01*
X141321110Y-116708693D01*
X141333610Y-116692402D01*
X141333612Y-116692401D01*
X141402698Y-116602366D01*
X141411696Y-116580644D01*
X141460687Y-116462369D01*
X141475500Y-116349853D01*
X141475500Y-116349847D01*
X141480465Y-116312133D01*
X141476560Y-116282477D01*
X141475500Y-116266293D01*
X141475500Y-114872806D01*
X141495185Y-114805767D01*
X141547989Y-114760012D01*
X141585611Y-114749587D01*
X141629618Y-114744629D01*
X141783932Y-114690632D01*
X141922361Y-114603651D01*
X142037965Y-114488047D01*
X142124946Y-114349618D01*
X142163462Y-114239544D01*
X142204182Y-114182772D01*
X142239541Y-114163463D01*
X142349618Y-114124946D01*
X142488047Y-114037965D01*
X142603651Y-113922361D01*
X142690632Y-113783932D01*
X142744629Y-113629618D01*
X142748484Y-113595405D01*
X142757865Y-113512148D01*
X142784932Y-113447734D01*
X142815106Y-113421043D01*
X142922361Y-113353651D01*
X143037965Y-113238047D01*
X143124946Y-113099618D01*
X143163462Y-112989544D01*
X143204182Y-112932772D01*
X143239541Y-112913463D01*
X143349618Y-112874946D01*
X143488047Y-112787965D01*
X143603651Y-112672361D01*
X143690632Y-112533932D01*
X143744629Y-112379618D01*
X143762934Y-112217157D01*
X143754878Y-112145659D01*
X143744629Y-112054695D01*
X143690633Y-111900384D01*
X143645462Y-111828495D01*
X143603651Y-111761953D01*
X143488047Y-111646349D01*
X143475048Y-111638181D01*
X143400685Y-111591455D01*
X143354394Y-111539120D01*
X143342658Y-111486462D01*
X143342658Y-110484717D01*
X143362343Y-110417678D01*
X143378972Y-110397041D01*
X143387564Y-110388449D01*
X143399746Y-110377764D01*
X143423491Y-110359545D01*
X143427747Y-110353997D01*
X143437175Y-110341712D01*
X143448974Y-110326336D01*
X143515739Y-110239326D01*
X143567211Y-110115060D01*
X143573727Y-110099330D01*
X143588540Y-109986814D01*
X143593506Y-109949094D01*
X143589601Y-109919431D01*
X143588540Y-109903246D01*
X143588540Y-108663916D01*
X143608225Y-108596877D01*
X143661029Y-108551122D01*
X143730187Y-108541178D01*
X143793743Y-108570203D01*
X143800221Y-108576235D01*
X146238180Y-111014194D01*
X146271665Y-111075517D01*
X146274499Y-111101875D01*
X146274499Y-114279161D01*
X146254814Y-114346200D01*
X146216472Y-114384154D01*
X146144795Y-114429192D01*
X146029193Y-114544794D01*
X145942209Y-114683227D01*
X145888213Y-114837538D01*
X145869908Y-115000000D01*
X145888213Y-115162461D01*
X145942209Y-115316772D01*
X145942211Y-115316775D01*
X146029192Y-115455204D01*
X146144796Y-115570808D01*
X146283225Y-115657789D01*
X146283227Y-115657790D01*
X146437538Y-115711786D01*
X146600000Y-115730091D01*
X146762461Y-115711786D01*
X146916775Y-115657789D01*
X146934027Y-115646948D01*
X147001262Y-115627947D01*
X147065972Y-115646948D01*
X147083224Y-115657789D01*
X147083225Y-115657789D01*
X147237538Y-115711786D01*
X147334942Y-115722761D01*
X147399356Y-115749828D01*
X147438099Y-115805024D01*
X147442210Y-115816774D01*
X147483868Y-115883072D01*
X147529192Y-115955204D01*
X147644796Y-116070808D01*
X147774499Y-116152306D01*
X147783227Y-116157790D01*
X147937538Y-116211786D01*
X148100000Y-116230091D01*
X148262461Y-116211786D01*
X148416775Y-116157789D01*
X148434027Y-116146948D01*
X148501262Y-116127947D01*
X148565972Y-116146948D01*
X148574499Y-116152306D01*
X148583225Y-116157789D01*
X148737538Y-116211786D01*
X148900000Y-116230091D01*
X149062461Y-116211786D01*
X149216775Y-116157789D01*
X149355204Y-116070808D01*
X149470808Y-115955204D01*
X149557789Y-115816775D01*
X149561899Y-115805027D01*
X149602619Y-115748252D01*
X149665057Y-115722761D01*
X149762461Y-115711786D01*
X149781194Y-115705231D01*
X149916775Y-115657789D01*
X149934027Y-115646948D01*
X150001262Y-115627947D01*
X150065972Y-115646948D01*
X150083224Y-115657789D01*
X150083225Y-115657789D01*
X150250727Y-115716401D01*
X150249597Y-115719628D01*
X150292917Y-115737824D01*
X150332480Y-115795414D01*
X150334628Y-115865250D01*
X150302314Y-115921670D01*
X146475476Y-119748508D01*
X146463284Y-119759201D01*
X146439548Y-119777414D01*
X146416390Y-119807595D01*
X146416387Y-119807599D01*
X146379001Y-119856322D01*
X146347301Y-119897633D01*
X146289312Y-120037631D01*
X146274499Y-120150147D01*
X146274499Y-120150153D01*
X146269533Y-120187866D01*
X146273438Y-120217520D01*
X146274499Y-120233706D01*
X146274499Y-123416207D01*
X146254814Y-123483246D01*
X146216472Y-123521200D01*
X146144795Y-123566238D01*
X146029193Y-123681840D01*
X145942209Y-123820273D01*
X145888213Y-123974584D01*
X145869908Y-124137046D01*
X145888213Y-124299507D01*
X145942209Y-124453818D01*
X145942211Y-124453821D01*
X146029192Y-124592250D01*
X146144796Y-124707854D01*
X146283225Y-124794835D01*
X146283227Y-124794836D01*
X146437538Y-124848832D01*
X146600000Y-124867137D01*
X146762461Y-124848832D01*
X146916775Y-124794835D01*
X146934027Y-124783994D01*
X147001262Y-124764993D01*
X147065972Y-124783994D01*
X147083225Y-124794834D01*
X147083225Y-124794835D01*
X147237538Y-124848832D01*
X147400000Y-124867137D01*
X147562461Y-124848832D01*
X147716775Y-124794835D01*
X147855204Y-124707854D01*
X147970808Y-124592250D01*
X148057789Y-124453821D01*
X148111786Y-124299507D01*
X148130091Y-124137046D01*
X148111786Y-123974585D01*
X148057789Y-123820271D01*
X147970808Y-123681842D01*
X147855204Y-123566238D01*
X147855203Y-123566237D01*
X147783528Y-123521200D01*
X147737237Y-123468865D01*
X147725501Y-123416207D01*
X147725501Y-120601873D01*
X147745186Y-120534834D01*
X147761815Y-120514197D01*
X148776013Y-119499999D01*
X161739785Y-119499999D01*
X161758602Y-119703083D01*
X161814418Y-119899251D01*
X161905324Y-120081818D01*
X162028236Y-120244580D01*
X162178958Y-120381981D01*
X162352361Y-120489347D01*
X162352363Y-120489348D01*
X162542544Y-120563024D01*
X162743024Y-120600500D01*
X162743026Y-120600500D01*
X162946974Y-120600500D01*
X162946976Y-120600500D01*
X163147456Y-120563024D01*
X163337637Y-120489348D01*
X163511041Y-120381981D01*
X163661764Y-120244579D01*
X163784673Y-120081821D01*
X163784673Y-120081819D01*
X163784675Y-120081818D01*
X163825414Y-120000000D01*
X168604564Y-120000000D01*
X168624287Y-120300920D01*
X168625077Y-120304891D01*
X168625078Y-120304899D01*
X168682327Y-120592707D01*
X168682329Y-120592714D01*
X168683120Y-120596691D01*
X168780055Y-120882252D01*
X168781850Y-120885893D01*
X168781851Y-120885894D01*
X168866197Y-121056932D01*
X168913434Y-121152718D01*
X169080975Y-121403461D01*
X169279811Y-121630189D01*
X169506539Y-121829025D01*
X169757282Y-121996566D01*
X170027748Y-122129945D01*
X170313309Y-122226880D01*
X170609080Y-122285713D01*
X170910000Y-122305436D01*
X171210920Y-122285713D01*
X171506691Y-122226880D01*
X171792252Y-122129945D01*
X172062718Y-121996566D01*
X172313461Y-121829025D01*
X172540189Y-121630189D01*
X172739025Y-121403461D01*
X172906566Y-121152718D01*
X173039945Y-120882252D01*
X173136880Y-120596691D01*
X173195713Y-120300920D01*
X173215436Y-120000000D01*
X173195713Y-119699080D01*
X173136880Y-119403309D01*
X173039945Y-119117748D01*
X172906566Y-118847282D01*
X172845186Y-118755421D01*
X172801140Y-118689501D01*
X172739025Y-118596539D01*
X172540189Y-118369811D01*
X172313461Y-118170975D01*
X172310079Y-118168715D01*
X172066092Y-118005688D01*
X172066087Y-118005685D01*
X172062718Y-118003434D01*
X172059082Y-118001641D01*
X172059077Y-118001638D01*
X171795894Y-117871851D01*
X171795893Y-117871850D01*
X171792252Y-117870055D01*
X171506691Y-117773120D01*
X171502714Y-117772329D01*
X171502707Y-117772327D01*
X171214899Y-117715078D01*
X171214891Y-117715077D01*
X171210920Y-117714287D01*
X170910000Y-117694564D01*
X170905957Y-117694829D01*
X170613122Y-117714022D01*
X170613120Y-117714022D01*
X170609080Y-117714287D01*
X170605110Y-117715076D01*
X170605100Y-117715078D01*
X170317292Y-117772327D01*
X170317281Y-117772329D01*
X170313309Y-117773120D01*
X170309466Y-117774424D01*
X170309464Y-117774425D01*
X170031594Y-117868749D01*
X170031587Y-117868751D01*
X170027748Y-117870055D01*
X170024111Y-117871848D01*
X170024105Y-117871851D01*
X169760922Y-118001638D01*
X169760910Y-118001644D01*
X169757282Y-118003434D01*
X169753919Y-118005681D01*
X169753907Y-118005688D01*
X169509920Y-118168715D01*
X169509911Y-118168721D01*
X169506539Y-118170975D01*
X169503488Y-118173650D01*
X169503481Y-118173656D01*
X169282859Y-118367137D01*
X169282851Y-118367144D01*
X169279811Y-118369811D01*
X169277144Y-118372851D01*
X169277137Y-118372859D01*
X169083656Y-118593481D01*
X169083650Y-118593488D01*
X169080975Y-118596539D01*
X169078721Y-118599911D01*
X169078715Y-118599920D01*
X168915688Y-118843907D01*
X168915681Y-118843919D01*
X168913434Y-118847282D01*
X168911644Y-118850910D01*
X168911638Y-118850922D01*
X168781851Y-119114105D01*
X168781848Y-119114111D01*
X168780055Y-119117748D01*
X168778751Y-119121587D01*
X168778749Y-119121594D01*
X168719235Y-119296917D01*
X168683120Y-119403309D01*
X168682329Y-119407281D01*
X168682327Y-119407292D01*
X168625078Y-119695100D01*
X168625076Y-119695110D01*
X168624287Y-119699080D01*
X168624022Y-119703120D01*
X168624022Y-119703122D01*
X168619153Y-119777414D01*
X168604564Y-120000000D01*
X163825414Y-120000000D01*
X163830313Y-119990161D01*
X163875582Y-119899250D01*
X163931397Y-119703083D01*
X163950215Y-119500000D01*
X163931397Y-119296917D01*
X163875582Y-119100750D01*
X163875209Y-119100001D01*
X163784675Y-118918181D01*
X163661763Y-118755419D01*
X163511041Y-118618018D01*
X163337638Y-118510652D01*
X163147457Y-118436976D01*
X163080629Y-118424483D01*
X162946976Y-118399500D01*
X162743024Y-118399500D01*
X162642783Y-118418238D01*
X162542542Y-118436976D01*
X162352361Y-118510652D01*
X162178958Y-118618018D01*
X162028236Y-118755419D01*
X161905324Y-118918181D01*
X161814418Y-119100748D01*
X161758602Y-119296916D01*
X161739785Y-119499999D01*
X148776013Y-119499999D01*
X150261493Y-118014519D01*
X160475617Y-118014519D01*
X160491212Y-118102958D01*
X160506489Y-118189599D01*
X160542581Y-118273269D01*
X160576904Y-118352838D01*
X160683067Y-118495439D01*
X160819251Y-118609712D01*
X160819252Y-118609712D01*
X160819254Y-118609714D01*
X160978123Y-118689501D01*
X160978124Y-118689501D01*
X160978126Y-118689502D01*
X161151108Y-118730500D01*
X161151110Y-118730500D01*
X161280694Y-118730500D01*
X161284292Y-118730500D01*
X161416577Y-118715038D01*
X161583635Y-118654234D01*
X161732168Y-118556543D01*
X161854167Y-118427231D01*
X161943057Y-118273269D01*
X161994045Y-118102958D01*
X162004382Y-117925480D01*
X161973511Y-117750401D01*
X161903096Y-117587162D01*
X161796933Y-117444561D01*
X161749535Y-117404789D01*
X161660748Y-117330287D01*
X161501873Y-117250497D01*
X161328892Y-117209500D01*
X161328890Y-117209500D01*
X161195708Y-117209500D01*
X161192142Y-117209916D01*
X161192138Y-117209917D01*
X161063420Y-117224962D01*
X160896366Y-117285765D01*
X160747830Y-117383458D01*
X160625833Y-117512768D01*
X160536943Y-117666730D01*
X160517862Y-117730465D01*
X160505330Y-117772327D01*
X160485955Y-117837043D01*
X160475617Y-118014519D01*
X150261493Y-118014519D01*
X152024528Y-116251484D01*
X152036706Y-116240804D01*
X152060451Y-116222585D01*
X152064617Y-116217156D01*
X152071108Y-116208697D01*
X152083610Y-116192402D01*
X152083612Y-116192402D01*
X152152699Y-116102366D01*
X152188408Y-116016157D01*
X152210687Y-115962370D01*
X152225500Y-115849854D01*
X152230466Y-115812134D01*
X152230466Y-115812133D01*
X152226561Y-115782471D01*
X152225500Y-115766286D01*
X152225500Y-113233712D01*
X152226561Y-113217526D01*
X152230466Y-113187865D01*
X152218173Y-113094491D01*
X152215675Y-113075518D01*
X152210687Y-113037630D01*
X152191088Y-112990314D01*
X152171769Y-112943672D01*
X152152699Y-112897632D01*
X152102906Y-112832743D01*
X152083612Y-112807598D01*
X152083609Y-112807595D01*
X152076531Y-112798371D01*
X152076530Y-112798368D01*
X152060452Y-112777415D01*
X152036717Y-112759203D01*
X152024522Y-112748508D01*
X147998393Y-108722379D01*
X147964908Y-108661056D01*
X147969892Y-108591364D01*
X147982977Y-108565799D01*
X148002573Y-108536481D01*
X148002575Y-108536475D01*
X148006769Y-108530201D01*
X148060387Y-108485403D01*
X148129713Y-108476704D01*
X148192737Y-108506867D01*
X148197544Y-108511424D01*
X153310642Y-113624522D01*
X153321337Y-113636717D01*
X153339549Y-113660452D01*
X153355179Y-113672445D01*
X153355184Y-113672448D01*
X153369729Y-113683609D01*
X153369732Y-113683612D01*
X153436975Y-113735209D01*
X153459767Y-113752698D01*
X153599764Y-113810687D01*
X153712280Y-113825500D01*
X153712285Y-113825500D01*
X153750000Y-113830465D01*
X153779654Y-113826561D01*
X153795840Y-113825500D01*
X159266539Y-113825500D01*
X159332511Y-113844506D01*
X159433227Y-113907790D01*
X159587538Y-113961786D01*
X159749999Y-113980091D01*
X159749999Y-113980090D01*
X159750000Y-113980091D01*
X159912461Y-113961786D01*
X160066775Y-113907789D01*
X160205204Y-113820808D01*
X160312822Y-113713189D01*
X160374141Y-113679707D01*
X160443833Y-113684691D01*
X160499767Y-113726562D01*
X160524184Y-113792026D01*
X160524500Y-113800873D01*
X160524500Y-114648123D01*
X160504815Y-114715162D01*
X160488181Y-114735804D01*
X158985805Y-116238181D01*
X158924482Y-116271666D01*
X158898124Y-116274500D01*
X158450874Y-116274500D01*
X158383835Y-116254815D01*
X158338080Y-116202011D01*
X158328136Y-116132853D01*
X158357161Y-116069297D01*
X158363193Y-116062819D01*
X158409855Y-116016157D01*
X158470808Y-115955204D01*
X158557789Y-115816775D01*
X158611786Y-115662461D01*
X158630091Y-115500000D01*
X158623602Y-115442404D01*
X158611786Y-115337538D01*
X158557790Y-115183227D01*
X158505403Y-115099854D01*
X158470808Y-115044796D01*
X158355204Y-114929192D01*
X158216775Y-114842211D01*
X158216772Y-114842209D01*
X158062461Y-114788213D01*
X157900000Y-114769908D01*
X157737538Y-114788213D01*
X157583226Y-114842210D01*
X157565969Y-114853053D01*
X157498732Y-114872051D01*
X157434031Y-114853053D01*
X157416773Y-114842210D01*
X157262461Y-114788213D01*
X157165057Y-114777239D01*
X157100643Y-114750173D01*
X157061899Y-114694972D01*
X157060381Y-114690633D01*
X157057789Y-114683225D01*
X156970808Y-114544796D01*
X156855204Y-114429192D01*
X156725500Y-114347693D01*
X156716772Y-114342209D01*
X156562461Y-114288213D01*
X156400000Y-114269908D01*
X156237538Y-114288213D01*
X156083225Y-114342210D01*
X156065965Y-114353055D01*
X155998727Y-114372050D01*
X155934028Y-114353052D01*
X155925499Y-114347693D01*
X155916775Y-114342211D01*
X155916772Y-114342209D01*
X155762461Y-114288213D01*
X155600000Y-114269908D01*
X155437538Y-114288213D01*
X155283227Y-114342209D01*
X155144794Y-114429193D01*
X155029193Y-114544794D01*
X154942210Y-114683225D01*
X154938099Y-114694976D01*
X154897376Y-114751751D01*
X154834942Y-114777239D01*
X154737538Y-114788213D01*
X154583226Y-114842210D01*
X154565969Y-114853053D01*
X154498732Y-114872051D01*
X154434031Y-114853053D01*
X154416773Y-114842210D01*
X154262461Y-114788213D01*
X154100000Y-114769908D01*
X153937538Y-114788213D01*
X153783227Y-114842209D01*
X153644794Y-114929193D01*
X153529193Y-115044794D01*
X153442209Y-115183227D01*
X153388213Y-115337538D01*
X153369908Y-115499999D01*
X153388213Y-115662461D01*
X153442209Y-115816772D01*
X153456219Y-115839069D01*
X153529192Y-115955204D01*
X153644796Y-116070808D01*
X153716471Y-116115845D01*
X153762762Y-116168179D01*
X153774499Y-116220838D01*
X153774499Y-116516293D01*
X153773438Y-116532478D01*
X153769533Y-116562132D01*
X153771971Y-116580644D01*
X153774499Y-116599847D01*
X153774499Y-116599853D01*
X153789312Y-116712369D01*
X153833121Y-116818135D01*
X153833122Y-116818135D01*
X153847301Y-116852366D01*
X153916387Y-116942401D01*
X153916390Y-116942404D01*
X153939548Y-116972585D01*
X153963285Y-116990799D01*
X153975479Y-117001493D01*
X154498508Y-117524522D01*
X154509203Y-117536717D01*
X154527415Y-117560452D01*
X154543045Y-117572445D01*
X154543050Y-117572448D01*
X154557595Y-117583609D01*
X154557598Y-117583612D01*
X154633131Y-117641570D01*
X154647631Y-117652697D01*
X154647632Y-117652697D01*
X154647633Y-117652698D01*
X154787630Y-117710687D01*
X154900146Y-117725500D01*
X154900151Y-117725500D01*
X154937866Y-117730465D01*
X154967520Y-117726561D01*
X154983706Y-117725500D01*
X159266294Y-117725500D01*
X159282479Y-117726561D01*
X159312134Y-117730465D01*
X159349848Y-117725500D01*
X159349854Y-117725500D01*
X159462370Y-117710687D01*
X159602367Y-117652698D01*
X159616869Y-117641570D01*
X159692402Y-117583612D01*
X159692402Y-117583610D01*
X159708697Y-117571108D01*
X159708698Y-117571106D01*
X159722585Y-117560451D01*
X159740804Y-117536706D01*
X159751484Y-117524528D01*
X161774528Y-115501484D01*
X161786706Y-115490804D01*
X161810451Y-115472585D01*
X161823788Y-115455204D01*
X161833610Y-115442403D01*
X161833612Y-115442402D01*
X161902698Y-115352367D01*
X161960687Y-115212370D01*
X161963255Y-115192866D01*
X161975500Y-115099854D01*
X161975500Y-115099848D01*
X161980465Y-115062134D01*
X161976560Y-115032478D01*
X161975500Y-115016294D01*
X161975500Y-114500000D01*
X169604340Y-114500000D01*
X169624936Y-114735407D01*
X169653554Y-114842209D01*
X169686097Y-114963663D01*
X169785965Y-115177830D01*
X169921505Y-115371401D01*
X170088599Y-115538495D01*
X170282170Y-115674035D01*
X170496337Y-115773903D01*
X170724592Y-115835063D01*
X170960000Y-115855659D01*
X171195408Y-115835063D01*
X171423663Y-115773903D01*
X171637830Y-115674035D01*
X171831401Y-115538495D01*
X171953717Y-115416178D01*
X172015036Y-115382696D01*
X172084728Y-115387680D01*
X172140662Y-115429551D01*
X172157577Y-115460528D01*
X172206647Y-115592088D01*
X172292811Y-115707188D01*
X172407910Y-115793352D01*
X172542628Y-115843599D01*
X172598867Y-115849645D01*
X172605482Y-115850000D01*
X173250000Y-115850000D01*
X173250000Y-114935501D01*
X173357685Y-114984680D01*
X173464237Y-115000000D01*
X173535763Y-115000000D01*
X173642315Y-114984680D01*
X173750000Y-114935501D01*
X173750000Y-115850000D01*
X174394518Y-115850000D01*
X174401132Y-115849645D01*
X174457371Y-115843599D01*
X174592089Y-115793352D01*
X174707188Y-115707188D01*
X174793352Y-115592089D01*
X174843599Y-115457371D01*
X174849645Y-115401132D01*
X174850000Y-115394518D01*
X174850000Y-114750000D01*
X173933686Y-114750000D01*
X173959493Y-114709844D01*
X174000000Y-114571889D01*
X174000000Y-114428111D01*
X173959493Y-114290156D01*
X173933686Y-114250000D01*
X174850000Y-114250000D01*
X174850000Y-113605481D01*
X174849645Y-113598867D01*
X174843599Y-113542628D01*
X174793352Y-113407910D01*
X174707188Y-113292811D01*
X174592089Y-113206647D01*
X174457371Y-113156400D01*
X174401132Y-113150354D01*
X174394518Y-113150000D01*
X173750000Y-113150000D01*
X173750000Y-114064498D01*
X173642315Y-114015320D01*
X173535763Y-114000000D01*
X173464237Y-114000000D01*
X173357685Y-114015320D01*
X173250000Y-114064498D01*
X173250000Y-113150000D01*
X172605482Y-113150000D01*
X172598867Y-113150354D01*
X172542628Y-113156400D01*
X172407910Y-113206647D01*
X172292811Y-113292811D01*
X172206646Y-113407913D01*
X172157576Y-113539472D01*
X172115705Y-113595405D01*
X172050240Y-113619821D01*
X171981967Y-113604969D01*
X171953714Y-113583818D01*
X171831404Y-113461508D01*
X171831404Y-113461507D01*
X171831401Y-113461505D01*
X171637830Y-113325965D01*
X171423663Y-113226097D01*
X171351074Y-113206647D01*
X171195407Y-113164936D01*
X170959999Y-113144340D01*
X170724592Y-113164936D01*
X170496336Y-113226097D01*
X170282170Y-113325965D01*
X170088598Y-113461505D01*
X169921505Y-113628598D01*
X169785965Y-113822170D01*
X169686097Y-114036336D01*
X169624936Y-114264592D01*
X169604340Y-114500000D01*
X161975500Y-114500000D01*
X161975500Y-112983712D01*
X161976561Y-112967526D01*
X161979702Y-112943672D01*
X161980466Y-112937866D01*
X161980025Y-112934520D01*
X161963913Y-112812134D01*
X161962536Y-112801677D01*
X161960687Y-112787630D01*
X161932614Y-112719855D01*
X161905955Y-112655494D01*
X161902700Y-112647636D01*
X161902699Y-112647635D01*
X161902699Y-112647634D01*
X161833612Y-112557598D01*
X161833609Y-112557595D01*
X161826533Y-112548373D01*
X161826532Y-112548371D01*
X161810452Y-112527415D01*
X161786717Y-112509203D01*
X161774522Y-112498508D01*
X161011819Y-111735805D01*
X160978334Y-111674482D01*
X160975500Y-111648124D01*
X160975500Y-110751627D01*
X160995185Y-110684588D01*
X161047989Y-110638833D01*
X161117147Y-110628889D01*
X161165469Y-110646632D01*
X161183225Y-110657789D01*
X161259812Y-110684588D01*
X161337538Y-110711786D01*
X161500000Y-110730091D01*
X161662461Y-110711786D01*
X161816775Y-110657789D01*
X161955204Y-110570808D01*
X162070808Y-110455204D01*
X162157789Y-110316775D01*
X162211786Y-110162461D01*
X162230091Y-110000000D01*
X162211786Y-109837539D01*
X162197486Y-109796673D01*
X162157790Y-109683227D01*
X162135425Y-109647634D01*
X162084112Y-109565970D01*
X162065113Y-109498734D01*
X162084113Y-109434029D01*
X162157789Y-109316775D01*
X162211786Y-109162461D01*
X162230091Y-109000000D01*
X162211786Y-108837539D01*
X162189727Y-108774499D01*
X162157790Y-108683227D01*
X162143859Y-108661056D01*
X162070808Y-108544796D01*
X161955204Y-108429192D01*
X161816775Y-108342211D01*
X161816772Y-108342209D01*
X161662461Y-108288213D01*
X161500000Y-108269908D01*
X161337538Y-108288213D01*
X161183227Y-108342209D01*
X161044794Y-108429193D01*
X160929193Y-108544794D01*
X160842209Y-108683227D01*
X160839832Y-108690022D01*
X160799107Y-108746796D01*
X160734153Y-108772540D01*
X160706607Y-108772001D01*
X160687866Y-108769533D01*
X160650158Y-108774498D01*
X160650135Y-108774500D01*
X160537631Y-108789312D01*
X160397633Y-108847301D01*
X160307599Y-108916387D01*
X160307595Y-108916390D01*
X160277414Y-108939548D01*
X160259201Y-108963284D01*
X160248508Y-108975476D01*
X159725477Y-109498507D01*
X159713285Y-109509200D01*
X159689549Y-109527413D01*
X159666391Y-109557594D01*
X159666388Y-109557598D01*
X159624110Y-109612696D01*
X159597301Y-109647634D01*
X159539313Y-109787630D01*
X159524500Y-109900146D01*
X159524500Y-109900152D01*
X159519534Y-109937865D01*
X159523439Y-109967519D01*
X159524500Y-109983705D01*
X159524500Y-112016294D01*
X159523439Y-112032479D01*
X159519534Y-112062133D01*
X159524500Y-112099847D01*
X159524500Y-112099848D01*
X159524500Y-112099854D01*
X159539313Y-112212370D01*
X159551524Y-112241850D01*
X159578758Y-112307598D01*
X159597302Y-112352367D01*
X159603348Y-112360247D01*
X159628542Y-112425416D01*
X159614503Y-112493861D01*
X159565689Y-112543851D01*
X159545927Y-112552774D01*
X159433227Y-112592209D01*
X159345095Y-112647586D01*
X159333592Y-112654815D01*
X159332511Y-112655494D01*
X159266539Y-112674500D01*
X159044856Y-112674500D01*
X158977817Y-112654815D01*
X158932062Y-112602011D01*
X158922118Y-112532853D01*
X158927815Y-112509545D01*
X158961786Y-112412461D01*
X158980091Y-112250000D01*
X158961786Y-112087538D01*
X158907790Y-111933227D01*
X158907789Y-111933225D01*
X158820808Y-111794796D01*
X158705204Y-111679192D01*
X158566775Y-111592211D01*
X158566772Y-111592209D01*
X158412461Y-111538213D01*
X158249999Y-111519908D01*
X158087538Y-111538213D01*
X157933227Y-111592209D01*
X157860064Y-111638181D01*
X157832696Y-111655378D01*
X157832511Y-111655494D01*
X157766539Y-111674500D01*
X154289742Y-111674500D01*
X154222703Y-111654815D01*
X154202061Y-111638181D01*
X148000132Y-105436252D01*
X147966647Y-105374929D01*
X147964595Y-105362472D01*
X147961786Y-105337539D01*
X147907789Y-105183225D01*
X147820808Y-105044796D01*
X147705204Y-104929192D01*
X147696252Y-104920240D01*
X147662767Y-104858917D01*
X147667751Y-104789225D01*
X147709623Y-104733292D01*
X147750123Y-104717238D01*
X147749273Y-104714809D01*
X147839534Y-104683225D01*
X147916775Y-104656197D01*
X147934027Y-104645356D01*
X148001262Y-104626355D01*
X148065972Y-104645356D01*
X148083224Y-104656197D01*
X148083225Y-104656197D01*
X148237538Y-104710194D01*
X148400000Y-104728499D01*
X148562461Y-104710194D01*
X148716775Y-104656197D01*
X148855204Y-104569216D01*
X148970808Y-104453612D01*
X149057789Y-104315183D01*
X149061320Y-104305090D01*
X149102039Y-104248317D01*
X149164477Y-104222826D01*
X149262461Y-104211786D01*
X149416775Y-104157789D01*
X149434027Y-104146948D01*
X149501262Y-104127947D01*
X149565972Y-104146948D01*
X149580691Y-104156197D01*
X149583225Y-104157789D01*
X149737538Y-104211786D01*
X149900000Y-104230091D01*
X150062461Y-104211786D01*
X150216775Y-104157789D01*
X150355204Y-104070808D01*
X150470808Y-103955204D01*
X150557789Y-103816775D01*
X150559039Y-103813199D01*
X150599756Y-103756426D01*
X150664707Y-103730676D01*
X150723532Y-103739591D01*
X150726808Y-103740948D01*
X150880052Y-103771430D01*
X150880054Y-103771430D01*
X151036305Y-103771430D01*
X151063491Y-103766022D01*
X151145717Y-103749666D01*
X151215306Y-103755893D01*
X151257588Y-103783602D01*
X151473432Y-103999445D01*
X151506917Y-104060768D01*
X151501933Y-104130459D01*
X151473431Y-104174808D01*
X151409646Y-104238590D01*
X151306718Y-104385580D01*
X151230877Y-104548216D01*
X151184433Y-104721550D01*
X151168794Y-104900308D01*
X151184437Y-105079073D01*
X151230884Y-105252403D01*
X151288082Y-105375052D01*
X151306727Y-105415033D01*
X151366226Y-105500000D01*
X151409660Y-105562026D01*
X151417450Y-105569815D01*
X151418449Y-105570909D01*
X151417456Y-105569821D01*
X151436758Y-105589122D01*
X151436813Y-105589223D01*
X151473078Y-105625485D01*
X151473079Y-105625485D01*
X151536524Y-105688924D01*
X151634520Y-105757535D01*
X151683519Y-105791842D01*
X151781526Y-105837538D01*
X151846151Y-105867670D01*
X152019480Y-105914106D01*
X152198239Y-105929738D01*
X152376997Y-105914092D01*
X152550322Y-105867643D01*
X152712949Y-105791802D01*
X152859935Y-105688874D01*
X152923376Y-105625430D01*
X152923587Y-105625218D01*
X152984858Y-105591644D01*
X153054557Y-105596525D01*
X153099076Y-105625089D01*
X153311524Y-105837538D01*
X153498509Y-106024523D01*
X153509204Y-106036718D01*
X153527416Y-106060453D01*
X153543046Y-106072446D01*
X153543051Y-106072449D01*
X153557596Y-106083610D01*
X153557599Y-106083613D01*
X153647634Y-106152699D01*
X153750491Y-106195304D01*
X153787631Y-106210688D01*
X153937866Y-106230467D01*
X153937866Y-106230466D01*
X153937867Y-106230467D01*
X153967529Y-106226561D01*
X153983713Y-106225501D01*
X160722290Y-106225501D01*
X160789329Y-106245186D01*
X160835084Y-106297990D01*
X160839331Y-106308545D01*
X160842211Y-106316775D01*
X160929192Y-106455204D01*
X161044796Y-106570808D01*
X161183225Y-106657789D01*
X161183227Y-106657790D01*
X161337538Y-106711786D01*
X161500000Y-106730091D01*
X161662461Y-106711786D01*
X161816775Y-106657789D01*
X161955204Y-106570808D01*
X162070808Y-106455204D01*
X162157789Y-106316775D01*
X162211786Y-106162461D01*
X162230091Y-106000000D01*
X162220413Y-105914105D01*
X162211786Y-105837538D01*
X162157790Y-105683227D01*
X162117893Y-105619732D01*
X162084112Y-105565970D01*
X162065113Y-105498734D01*
X162084113Y-105434029D01*
X162157789Y-105316775D01*
X162211786Y-105162461D01*
X162230091Y-105000000D01*
X162214195Y-104858917D01*
X162211786Y-104837538D01*
X162157790Y-104683227D01*
X162157789Y-104683225D01*
X162070808Y-104544796D01*
X161955204Y-104429192D01*
X161816775Y-104342211D01*
X161816772Y-104342209D01*
X161662461Y-104288213D01*
X161500000Y-104269908D01*
X161337538Y-104288213D01*
X161183227Y-104342209D01*
X161044794Y-104429193D01*
X160929193Y-104544794D01*
X160842210Y-104683226D01*
X160839331Y-104691455D01*
X160798609Y-104748230D01*
X160733656Y-104773977D01*
X160722290Y-104774499D01*
X154949283Y-104774499D01*
X154882244Y-104754814D01*
X154836489Y-104702010D01*
X154826545Y-104632852D01*
X154855570Y-104569296D01*
X154861602Y-104562818D01*
X154879626Y-104544794D01*
X154970808Y-104453612D01*
X155057789Y-104315183D01*
X155061899Y-104303435D01*
X155102619Y-104246660D01*
X155165057Y-104221169D01*
X155262461Y-104210194D01*
X155416772Y-104156198D01*
X155416771Y-104156198D01*
X155416775Y-104156197D01*
X155434026Y-104145356D01*
X155501259Y-104126355D01*
X155565971Y-104145355D01*
X155583225Y-104156197D01*
X155637401Y-104175154D01*
X155737538Y-104210194D01*
X155900000Y-104228499D01*
X156062461Y-104210194D01*
X156216775Y-104156197D01*
X156355204Y-104069216D01*
X156470808Y-103953612D01*
X156557789Y-103815183D01*
X156611786Y-103660869D01*
X156630091Y-103498408D01*
X156618704Y-103397343D01*
X156611786Y-103335946D01*
X156557790Y-103181635D01*
X156471808Y-103044796D01*
X156470808Y-103043204D01*
X156355204Y-102927600D01*
X156216775Y-102840619D01*
X156216772Y-102840617D01*
X156062461Y-102786621D01*
X155900000Y-102768316D01*
X155737538Y-102786621D01*
X155583225Y-102840618D01*
X155565965Y-102851463D01*
X155498727Y-102870458D01*
X155434028Y-102851460D01*
X155416772Y-102840617D01*
X155262461Y-102786621D01*
X155100000Y-102768316D01*
X154937538Y-102786621D01*
X154783227Y-102840617D01*
X154644794Y-102927601D01*
X154529193Y-103043202D01*
X154442210Y-103181633D01*
X154438099Y-103193384D01*
X154397376Y-103250159D01*
X154334942Y-103275647D01*
X154237538Y-103286621D01*
X154083226Y-103340618D01*
X154065969Y-103351461D01*
X153998732Y-103370459D01*
X153934031Y-103351461D01*
X153916773Y-103340618D01*
X153762461Y-103286621D01*
X153600000Y-103268316D01*
X153437538Y-103286621D01*
X153283227Y-103340617D01*
X153144795Y-103427600D01*
X153136458Y-103435937D01*
X153075134Y-103469420D01*
X153005442Y-103464434D01*
X152961037Y-103431190D01*
X152959120Y-103433108D01*
X152923364Y-103397353D01*
X152923356Y-103397343D01*
X151251494Y-101725480D01*
X151240800Y-101713286D01*
X151222586Y-101689549D01*
X151192408Y-101666393D01*
X151192402Y-101666388D01*
X151102367Y-101597302D01*
X150966126Y-101540869D01*
X150962820Y-101539371D01*
X150849871Y-101524502D01*
X150849861Y-101524500D01*
X150849854Y-101524500D01*
X150849852Y-101524500D01*
X150849843Y-101524499D01*
X150812134Y-101519534D01*
X150782479Y-101523439D01*
X150766294Y-101524500D01*
X149983706Y-101524500D01*
X149967521Y-101523439D01*
X149937864Y-101519534D01*
X149900155Y-101524499D01*
X149900136Y-101524501D01*
X149773823Y-101541129D01*
X149760916Y-101550378D01*
X149647632Y-101597301D01*
X149557598Y-101666388D01*
X149557594Y-101666391D01*
X149527413Y-101689549D01*
X149509200Y-101713285D01*
X149498507Y-101725477D01*
X148975476Y-102248508D01*
X148963284Y-102259201D01*
X148939548Y-102277414D01*
X148916390Y-102307595D01*
X148916387Y-102307599D01*
X148852980Y-102390233D01*
X148847300Y-102397634D01*
X148789312Y-102537631D01*
X148774499Y-102650147D01*
X148774499Y-102650153D01*
X148769533Y-102687866D01*
X148773438Y-102717520D01*
X148774499Y-102733706D01*
X148774499Y-102779161D01*
X148754814Y-102846200D01*
X148716472Y-102884154D01*
X148644795Y-102929192D01*
X148529193Y-103044794D01*
X148442209Y-103183228D01*
X148438678Y-103193319D01*
X148397955Y-103250094D01*
X148335522Y-103275581D01*
X148237539Y-103286621D01*
X148083226Y-103340618D01*
X148065969Y-103351461D01*
X147998732Y-103370459D01*
X147934031Y-103351461D01*
X147916773Y-103340618D01*
X147762461Y-103286621D01*
X147665057Y-103275647D01*
X147600643Y-103248581D01*
X147561899Y-103193380D01*
X147561878Y-103193319D01*
X147557789Y-103181633D01*
X147470808Y-103043204D01*
X147355204Y-102927600D01*
X147216775Y-102840619D01*
X147216772Y-102840617D01*
X147062461Y-102786621D01*
X146900000Y-102768316D01*
X146737538Y-102786621D01*
X146583226Y-102840618D01*
X146565969Y-102851461D01*
X146498732Y-102870459D01*
X146434031Y-102851461D01*
X146416773Y-102840618D01*
X146262461Y-102786621D01*
X146086116Y-102766752D01*
X146086636Y-102762128D01*
X146044488Y-102754717D01*
X145993140Y-102707334D01*
X145975500Y-102643588D01*
X145975500Y-100601875D01*
X145995185Y-100534836D01*
X146011819Y-100514194D01*
X147014195Y-99511819D01*
X147075518Y-99478334D01*
X147101876Y-99475500D01*
X152939720Y-99475500D01*
X153116433Y-99444340D01*
X153285050Y-99382969D01*
X153387999Y-99323530D01*
X153455899Y-99307057D01*
X153512001Y-99323531D01*
X153614947Y-99382968D01*
X153614950Y-99382969D01*
X153783567Y-99444340D01*
X153960280Y-99475500D01*
X154139720Y-99475500D01*
X154316433Y-99444340D01*
X154485050Y-99382969D01*
X154587999Y-99323530D01*
X154655899Y-99307057D01*
X154712001Y-99323531D01*
X154814947Y-99382968D01*
X154814950Y-99382969D01*
X154983567Y-99444340D01*
X155160280Y-99475500D01*
X155212280Y-99475500D01*
X155898124Y-99475500D01*
X155965163Y-99495185D01*
X155985805Y-99511819D01*
X156238180Y-99764194D01*
X156271665Y-99825517D01*
X156274499Y-99851875D01*
X156274499Y-100022890D01*
X156254814Y-100089929D01*
X156216472Y-100127883D01*
X156144795Y-100172921D01*
X156029193Y-100288523D01*
X155942209Y-100426956D01*
X155888213Y-100581267D01*
X155869908Y-100743729D01*
X155888213Y-100906190D01*
X155942209Y-101060501D01*
X155942211Y-101060504D01*
X156029192Y-101198933D01*
X156144796Y-101314537D01*
X156283225Y-101401518D01*
X156283227Y-101401519D01*
X156437538Y-101455515D01*
X156600000Y-101473820D01*
X156762461Y-101455515D01*
X156916775Y-101401518D01*
X156934027Y-101390677D01*
X157001262Y-101371676D01*
X157065972Y-101390677D01*
X157083225Y-101401518D01*
X157237538Y-101455515D01*
X157400000Y-101473820D01*
X157562461Y-101455515D01*
X157716775Y-101401518D01*
X157855204Y-101314537D01*
X157970808Y-101198933D01*
X158048983Y-101074519D01*
X160475617Y-101074519D01*
X160491212Y-101162958D01*
X160506489Y-101249599D01*
X160567345Y-101390678D01*
X160576904Y-101412838D01*
X160683067Y-101555439D01*
X160819251Y-101669712D01*
X160819252Y-101669712D01*
X160819254Y-101669714D01*
X160978123Y-101749501D01*
X160978124Y-101749501D01*
X160978126Y-101749502D01*
X161151108Y-101790500D01*
X161151110Y-101790500D01*
X161280694Y-101790500D01*
X161284292Y-101790500D01*
X161416577Y-101775038D01*
X161583635Y-101714234D01*
X161732168Y-101616543D01*
X161854167Y-101487231D01*
X161943057Y-101333269D01*
X161994045Y-101162958D01*
X162004382Y-100985480D01*
X161973511Y-100810401D01*
X161903096Y-100647162D01*
X161796933Y-100504561D01*
X161724114Y-100443458D01*
X161660748Y-100390287D01*
X161501873Y-100310497D01*
X161328892Y-100269500D01*
X161328890Y-100269500D01*
X161195708Y-100269500D01*
X161192142Y-100269916D01*
X161192138Y-100269917D01*
X161063420Y-100284962D01*
X160896366Y-100345765D01*
X160747830Y-100443458D01*
X160625833Y-100572768D01*
X160536943Y-100726730D01*
X160485955Y-100897043D01*
X160475617Y-101074519D01*
X158048983Y-101074519D01*
X158057789Y-101060504D01*
X158111786Y-100906190D01*
X158130091Y-100743729D01*
X158128176Y-100726730D01*
X158111786Y-100581267D01*
X158057790Y-100426956D01*
X158040902Y-100400079D01*
X157970808Y-100288525D01*
X157855204Y-100172921D01*
X157817257Y-100149077D01*
X157783528Y-100127883D01*
X157737237Y-100075548D01*
X157725501Y-100022890D01*
X157725501Y-99499999D01*
X161739785Y-99499999D01*
X161758602Y-99703083D01*
X161814418Y-99899251D01*
X161905324Y-100081818D01*
X162028236Y-100244580D01*
X162178958Y-100381981D01*
X162352361Y-100489347D01*
X162352363Y-100489348D01*
X162542544Y-100563024D01*
X162743024Y-100600500D01*
X162743026Y-100600500D01*
X162946974Y-100600500D01*
X162946976Y-100600500D01*
X163147456Y-100563024D01*
X163337637Y-100489348D01*
X163511041Y-100381981D01*
X163589455Y-100310497D01*
X163661763Y-100244580D01*
X163661764Y-100244579D01*
X163784673Y-100081821D01*
X163784673Y-100081819D01*
X163784675Y-100081818D01*
X163830313Y-99990161D01*
X163875582Y-99899250D01*
X163931397Y-99703083D01*
X163950215Y-99500000D01*
X163931397Y-99296917D01*
X163930353Y-99293249D01*
X163875581Y-99100748D01*
X163825415Y-99000000D01*
X168604564Y-99000000D01*
X168624287Y-99300920D01*
X168625077Y-99304891D01*
X168625078Y-99304899D01*
X168682327Y-99592707D01*
X168682329Y-99592714D01*
X168683120Y-99596691D01*
X168780055Y-99882252D01*
X168781850Y-99885893D01*
X168781851Y-99885894D01*
X168901186Y-100127883D01*
X168913434Y-100152718D01*
X168915685Y-100156087D01*
X168915688Y-100156092D01*
X169072172Y-100390286D01*
X169080975Y-100403461D01*
X169279811Y-100630189D01*
X169506539Y-100829025D01*
X169509921Y-100831284D01*
X169509920Y-100831284D01*
X169740690Y-100985480D01*
X169757282Y-100996566D01*
X170027748Y-101129945D01*
X170313309Y-101226880D01*
X170609080Y-101285713D01*
X170910000Y-101305436D01*
X171210920Y-101285713D01*
X171506691Y-101226880D01*
X171792252Y-101129945D01*
X172062718Y-100996566D01*
X172313461Y-100829025D01*
X172540189Y-100630189D01*
X172739025Y-100403461D01*
X172906566Y-100152718D01*
X173039945Y-99882252D01*
X173136880Y-99596691D01*
X173195713Y-99300920D01*
X173215436Y-99000000D01*
X173195713Y-98699080D01*
X173136880Y-98403309D01*
X173039945Y-98117748D01*
X172906566Y-97847282D01*
X172739025Y-97596539D01*
X172540189Y-97369811D01*
X172489542Y-97325395D01*
X172316518Y-97173656D01*
X172313461Y-97170975D01*
X172187314Y-97086686D01*
X172066092Y-97005688D01*
X172066087Y-97005685D01*
X172062718Y-97003434D01*
X172059082Y-97001641D01*
X172059077Y-97001638D01*
X171795894Y-96871851D01*
X171795893Y-96871850D01*
X171792252Y-96870055D01*
X171506691Y-96773120D01*
X171502714Y-96772329D01*
X171502707Y-96772327D01*
X171214899Y-96715078D01*
X171214891Y-96715077D01*
X171210920Y-96714287D01*
X170910000Y-96694564D01*
X170905957Y-96694829D01*
X170613122Y-96714022D01*
X170613120Y-96714022D01*
X170609080Y-96714287D01*
X170605110Y-96715076D01*
X170605100Y-96715078D01*
X170317292Y-96772327D01*
X170317281Y-96772329D01*
X170313309Y-96773120D01*
X170309466Y-96774424D01*
X170309464Y-96774425D01*
X170031594Y-96868749D01*
X170031587Y-96868751D01*
X170027748Y-96870055D01*
X170024111Y-96871848D01*
X170024105Y-96871851D01*
X169760922Y-97001638D01*
X169760910Y-97001644D01*
X169757282Y-97003434D01*
X169753919Y-97005681D01*
X169753907Y-97005688D01*
X169509920Y-97168715D01*
X169509911Y-97168721D01*
X169506539Y-97170975D01*
X169503488Y-97173650D01*
X169503481Y-97173656D01*
X169282859Y-97367137D01*
X169282851Y-97367144D01*
X169279811Y-97369811D01*
X169277144Y-97372851D01*
X169277137Y-97372859D01*
X169083656Y-97593481D01*
X169083650Y-97593488D01*
X169080975Y-97596539D01*
X169078721Y-97599911D01*
X169078715Y-97599920D01*
X168915688Y-97843907D01*
X168915681Y-97843919D01*
X168913434Y-97847282D01*
X168911644Y-97850910D01*
X168911638Y-97850922D01*
X168781851Y-98114105D01*
X168781848Y-98114111D01*
X168780055Y-98117748D01*
X168778751Y-98121587D01*
X168778749Y-98121594D01*
X168700614Y-98351773D01*
X168683120Y-98403309D01*
X168682329Y-98407281D01*
X168682327Y-98407292D01*
X168625078Y-98695100D01*
X168625076Y-98695110D01*
X168624287Y-98699080D01*
X168604564Y-99000000D01*
X163825415Y-99000000D01*
X163784675Y-98918181D01*
X163661763Y-98755419D01*
X163511041Y-98618018D01*
X163337638Y-98510652D01*
X163147457Y-98436976D01*
X163080629Y-98424484D01*
X162946976Y-98399500D01*
X162743024Y-98399500D01*
X162642783Y-98418238D01*
X162542542Y-98436976D01*
X162352361Y-98510652D01*
X162178958Y-98618018D01*
X162028236Y-98755419D01*
X161905324Y-98918181D01*
X161814418Y-99100748D01*
X161758602Y-99296916D01*
X161739785Y-99499999D01*
X157725501Y-99499999D01*
X157725501Y-99483706D01*
X157726562Y-99467520D01*
X157730466Y-99437866D01*
X157725501Y-99400153D01*
X157725501Y-99400147D01*
X157715414Y-99323531D01*
X157710688Y-99287631D01*
X157682756Y-99220197D01*
X157652700Y-99147634D01*
X157583613Y-99057599D01*
X157583610Y-99057596D01*
X157576532Y-99048372D01*
X157576531Y-99048369D01*
X157560453Y-99027416D01*
X157536718Y-99009204D01*
X157524523Y-98998509D01*
X156751494Y-98225480D01*
X156740800Y-98213286D01*
X156722586Y-98189549D01*
X156692405Y-98166391D01*
X156692402Y-98166388D01*
X156624092Y-98113972D01*
X156602367Y-98097302D01*
X156602365Y-98097301D01*
X156462370Y-98039313D01*
X156441551Y-98036572D01*
X156349866Y-98024501D01*
X156349842Y-98024499D01*
X156312134Y-98019534D01*
X156282479Y-98023439D01*
X156266294Y-98024500D01*
X155799500Y-98024500D01*
X155732461Y-98004815D01*
X155686706Y-97952011D01*
X155675500Y-97900500D01*
X155675500Y-97810279D01*
X155649233Y-97661317D01*
X155644340Y-97633567D01*
X155597275Y-97504256D01*
X155582969Y-97464949D01*
X155493249Y-97309551D01*
X155482062Y-97296219D01*
X155377908Y-97172092D01*
X155240449Y-97056751D01*
X155240448Y-97056750D01*
X155085050Y-96967030D01*
X154916433Y-96905660D01*
X154739720Y-96874500D01*
X154719878Y-96874500D01*
X154650000Y-96874500D01*
X154560280Y-96874500D01*
X154383566Y-96905660D01*
X154214949Y-96967030D01*
X154112000Y-97026469D01*
X154044100Y-97042942D01*
X153988000Y-97026469D01*
X153885050Y-96967030D01*
X153716433Y-96905660D01*
X153539720Y-96874500D01*
X153519878Y-96874500D01*
X153450000Y-96874500D01*
X153360280Y-96874500D01*
X153183566Y-96905660D01*
X153014949Y-96967030D01*
X152859551Y-97056750D01*
X152722092Y-97172092D01*
X152606750Y-97309551D01*
X152517030Y-97464949D01*
X152455660Y-97633566D01*
X152424500Y-97810279D01*
X152424500Y-97900500D01*
X152404815Y-97967539D01*
X152352011Y-98013294D01*
X152300500Y-98024500D01*
X147177225Y-98024500D01*
X147110186Y-98004815D01*
X147064431Y-97952011D01*
X147054487Y-97882853D01*
X147075070Y-97837781D01*
X147071864Y-97835872D01*
X147071973Y-97835689D01*
X147081781Y-97823086D01*
X147083512Y-97819297D01*
X147089544Y-97812819D01*
X147090574Y-97811788D01*
X147090830Y-97811459D01*
X147093997Y-97808293D01*
X147196909Y-97661317D01*
X147272739Y-97498704D01*
X147303504Y-97383896D01*
X147339870Y-97324238D01*
X147391182Y-97296220D01*
X147506057Y-97265441D01*
X147668684Y-97189607D01*
X147815672Y-97086687D01*
X147831768Y-97070589D01*
X147849997Y-97055547D01*
X147857301Y-97050609D01*
X147863951Y-97042942D01*
X147890679Y-97012123D01*
X147896664Y-97005696D01*
X147928526Y-96973836D01*
X147928526Y-96973834D01*
X147941571Y-96960791D01*
X147941587Y-96960769D01*
X147942544Y-96959813D01*
X148045474Y-96812824D01*
X148121314Y-96650195D01*
X148152087Y-96535354D01*
X148188452Y-96475695D01*
X148239767Y-96447675D01*
X148354588Y-96416910D01*
X148517215Y-96341076D01*
X148664203Y-96238156D01*
X148666286Y-96236072D01*
X148666327Y-96236042D01*
X148678262Y-96224104D01*
X148678266Y-96224102D01*
X148680323Y-96222044D01*
X148698553Y-96206999D01*
X148705832Y-96202078D01*
X148738870Y-96163983D01*
X148744853Y-96157561D01*
X148791137Y-96111271D01*
X148791136Y-96111271D01*
X148791139Y-96111269D01*
X148894054Y-95964274D01*
X148969880Y-95801642D01*
X149016314Y-95628313D01*
X149031945Y-95449555D01*
X149031944Y-95449552D01*
X149031945Y-95449549D01*
X149022488Y-95341517D01*
X149016298Y-95270798D01*
X148969849Y-95097473D01*
X148894008Y-94934848D01*
X148791081Y-94787862D01*
X148748928Y-94745711D01*
X148737041Y-94733824D01*
X148727296Y-94724079D01*
X148693811Y-94662756D01*
X148698795Y-94593064D01*
X148727296Y-94548717D01*
X148764194Y-94511819D01*
X148825517Y-94478334D01*
X148851875Y-94475500D01*
X155775835Y-94475500D01*
X155842874Y-94495185D01*
X155888629Y-94547989D01*
X155898573Y-94617147D01*
X155892876Y-94640455D01*
X155888213Y-94653778D01*
X155869908Y-94816240D01*
X155888213Y-94978701D01*
X155942209Y-95133012D01*
X155942211Y-95133015D01*
X156029192Y-95271444D01*
X156144796Y-95387048D01*
X156283225Y-95474029D01*
X156283227Y-95474030D01*
X156437538Y-95528026D01*
X156600000Y-95546331D01*
X156762461Y-95528026D01*
X156916775Y-95474029D01*
X156934027Y-95463188D01*
X157001262Y-95444187D01*
X157065972Y-95463188D01*
X157083225Y-95474029D01*
X157237538Y-95528026D01*
X157400000Y-95546331D01*
X157562461Y-95528026D01*
X157716775Y-95474029D01*
X157855204Y-95387048D01*
X157970808Y-95271444D01*
X158057789Y-95133015D01*
X158111786Y-94978701D01*
X158130091Y-94816240D01*
X158119707Y-94724079D01*
X158111786Y-94653778D01*
X158057790Y-94499467D01*
X158057789Y-94499465D01*
X157970808Y-94361036D01*
X157855204Y-94245432D01*
X157855203Y-94245431D01*
X157776836Y-94196190D01*
X157730545Y-94143855D01*
X157719870Y-94107384D01*
X157710687Y-94037630D01*
X157652698Y-93897633D01*
X157641602Y-93883173D01*
X157616806Y-93850857D01*
X157602784Y-93832584D01*
X157583612Y-93807598D01*
X157583609Y-93807595D01*
X157576533Y-93798373D01*
X157576532Y-93798371D01*
X157560452Y-93777415D01*
X157536717Y-93759203D01*
X157524522Y-93748508D01*
X157001651Y-93225637D01*
X156968166Y-93164314D01*
X156966112Y-93124072D01*
X156980091Y-93000000D01*
X156961786Y-92837538D01*
X156907790Y-92683227D01*
X156907789Y-92683225D01*
X156820808Y-92544796D01*
X156705204Y-92429192D01*
X156705204Y-92429191D01*
X156695325Y-92419313D01*
X156696043Y-92418594D01*
X156659392Y-92377157D01*
X156648745Y-92308103D01*
X156677121Y-92244255D01*
X156735512Y-92205885D01*
X156771656Y-92200500D01*
X176675500Y-92200500D01*
X176742539Y-92220185D01*
X176788294Y-92272989D01*
X176799500Y-92324500D01*
X176799500Y-126675500D01*
X176779815Y-126742539D01*
X176727011Y-126788294D01*
X176675500Y-126799500D01*
X158771656Y-126799500D01*
X158704617Y-126779815D01*
X158658862Y-126727011D01*
X158648918Y-126657853D01*
X158677943Y-126594297D01*
X158704431Y-126571580D01*
X158705201Y-126570809D01*
X158705204Y-126570808D01*
X158820808Y-126455204D01*
X158907789Y-126316775D01*
X158961786Y-126162461D01*
X158980091Y-126000000D01*
X158961786Y-125837539D01*
X158907789Y-125683225D01*
X158820808Y-125544796D01*
X158705204Y-125429192D01*
X158566775Y-125342211D01*
X158566772Y-125342209D01*
X158412461Y-125288213D01*
X158250000Y-125269908D01*
X158087538Y-125288213D01*
X157933227Y-125342209D01*
X157815972Y-125415886D01*
X157748735Y-125434886D01*
X157684028Y-125415886D01*
X157566772Y-125342209D01*
X157412461Y-125288213D01*
X157249999Y-125269908D01*
X157087538Y-125288213D01*
X156933227Y-125342209D01*
X156815972Y-125415886D01*
X156748735Y-125434886D01*
X156684028Y-125415886D01*
X156566772Y-125342209D01*
X156412461Y-125288213D01*
X156250000Y-125269908D01*
X156087538Y-125288213D01*
X155933227Y-125342209D01*
X155815972Y-125415886D01*
X155748735Y-125434886D01*
X155684028Y-125415886D01*
X155566772Y-125342209D01*
X155412461Y-125288213D01*
X155249999Y-125269908D01*
X155087538Y-125288213D01*
X154933227Y-125342209D01*
X154794794Y-125429193D01*
X154679193Y-125544794D01*
X154592209Y-125683227D01*
X154538213Y-125837538D01*
X154519908Y-126000000D01*
X154538213Y-126162461D01*
X154592209Y-126316772D01*
X154679193Y-126455205D01*
X154804675Y-126580687D01*
X154803956Y-126581405D01*
X154840608Y-126622843D01*
X154851255Y-126691897D01*
X154822879Y-126755745D01*
X154764488Y-126794115D01*
X154728344Y-126799500D01*
X151271656Y-126799500D01*
X151204617Y-126779815D01*
X151158862Y-126727011D01*
X151148918Y-126657853D01*
X151177943Y-126594297D01*
X151204431Y-126571580D01*
X151205201Y-126570809D01*
X151205204Y-126570808D01*
X151320808Y-126455204D01*
X151407789Y-126316775D01*
X151461786Y-126162461D01*
X151480091Y-126000000D01*
X151461786Y-125837539D01*
X151407789Y-125683225D01*
X151320808Y-125544796D01*
X151205204Y-125429192D01*
X151066775Y-125342211D01*
X151066772Y-125342209D01*
X150912461Y-125288213D01*
X150749999Y-125269908D01*
X150587538Y-125288213D01*
X150433224Y-125342210D01*
X150315970Y-125415886D01*
X150248734Y-125434886D01*
X150184028Y-125415886D01*
X150066775Y-125342211D01*
X150066772Y-125342209D01*
X149912461Y-125288213D01*
X149750000Y-125269908D01*
X149587538Y-125288213D01*
X149433227Y-125342209D01*
X149315972Y-125415886D01*
X149248735Y-125434886D01*
X149184028Y-125415886D01*
X149066772Y-125342209D01*
X148912461Y-125288213D01*
X148749999Y-125269908D01*
X148587538Y-125288213D01*
X148433224Y-125342210D01*
X148315970Y-125415886D01*
X148248734Y-125434886D01*
X148184028Y-125415886D01*
X148066775Y-125342211D01*
X148066772Y-125342209D01*
X147912461Y-125288213D01*
X147750000Y-125269908D01*
X147587538Y-125288213D01*
X147433227Y-125342209D01*
X147294794Y-125429193D01*
X147179193Y-125544794D01*
X147092209Y-125683227D01*
X147038213Y-125837538D01*
X147019908Y-126000000D01*
X147038213Y-126162461D01*
X147092209Y-126316772D01*
X147179193Y-126455205D01*
X147304675Y-126580687D01*
X147303956Y-126581405D01*
X147340608Y-126622843D01*
X147351255Y-126691897D01*
X147322879Y-126755745D01*
X147264488Y-126794115D01*
X147228344Y-126799500D01*
X127324500Y-126799500D01*
X127257461Y-126779815D01*
X127211706Y-126727011D01*
X127200500Y-126675500D01*
X127200500Y-120000000D01*
X130784564Y-120000000D01*
X130784828Y-120004027D01*
X130784828Y-120004043D01*
X130799992Y-120235391D01*
X130804287Y-120300920D01*
X130805077Y-120304891D01*
X130805078Y-120304899D01*
X130862327Y-120592707D01*
X130862329Y-120592714D01*
X130863120Y-120596691D01*
X130960055Y-120882252D01*
X130961850Y-120885893D01*
X130961851Y-120885894D01*
X131046197Y-121056932D01*
X131093434Y-121152718D01*
X131260975Y-121403461D01*
X131459811Y-121630189D01*
X131686539Y-121829025D01*
X131937282Y-121996566D01*
X132207748Y-122129945D01*
X132493309Y-122226880D01*
X132789080Y-122285713D01*
X133090000Y-122305436D01*
X133390920Y-122285713D01*
X133686691Y-122226880D01*
X133972252Y-122129945D01*
X134242718Y-121996566D01*
X134493461Y-121829025D01*
X134720189Y-121630189D01*
X134919025Y-121403461D01*
X135086566Y-121152718D01*
X135219945Y-120882252D01*
X135316880Y-120596691D01*
X135375713Y-120300920D01*
X135395436Y-120000000D01*
X135375713Y-119699080D01*
X135316880Y-119403309D01*
X135219945Y-119117748D01*
X135086566Y-118847282D01*
X135025186Y-118755421D01*
X134981140Y-118689501D01*
X134919025Y-118596539D01*
X134720189Y-118369811D01*
X134493461Y-118170975D01*
X134490079Y-118168715D01*
X134246092Y-118005688D01*
X134246087Y-118005685D01*
X134242718Y-118003434D01*
X134239082Y-118001641D01*
X134239077Y-118001638D01*
X133975894Y-117871851D01*
X133975893Y-117871850D01*
X133972252Y-117870055D01*
X133686691Y-117773120D01*
X133682714Y-117772329D01*
X133682707Y-117772327D01*
X133394899Y-117715078D01*
X133394891Y-117715077D01*
X133390920Y-117714287D01*
X133090000Y-117694564D01*
X133085957Y-117694829D01*
X132793122Y-117714022D01*
X132793120Y-117714022D01*
X132789080Y-117714287D01*
X132785110Y-117715076D01*
X132785100Y-117715078D01*
X132497292Y-117772327D01*
X132497281Y-117772329D01*
X132493309Y-117773120D01*
X132489466Y-117774424D01*
X132489464Y-117774425D01*
X132211594Y-117868749D01*
X132211587Y-117868751D01*
X132207748Y-117870055D01*
X132204111Y-117871848D01*
X132204105Y-117871851D01*
X131940922Y-118001638D01*
X131940910Y-118001644D01*
X131937282Y-118003434D01*
X131933919Y-118005681D01*
X131933907Y-118005688D01*
X131689920Y-118168715D01*
X131689911Y-118168721D01*
X131686539Y-118170975D01*
X131683488Y-118173650D01*
X131683481Y-118173656D01*
X131462859Y-118367137D01*
X131462851Y-118367144D01*
X131459811Y-118369811D01*
X131457144Y-118372851D01*
X131457137Y-118372859D01*
X131263656Y-118593481D01*
X131263650Y-118593488D01*
X131260975Y-118596539D01*
X131258721Y-118599911D01*
X131258715Y-118599920D01*
X131095688Y-118843907D01*
X131095681Y-118843919D01*
X131093434Y-118847282D01*
X131091644Y-118850910D01*
X131091638Y-118850922D01*
X130961851Y-119114105D01*
X130961848Y-119114111D01*
X130960055Y-119117748D01*
X130958751Y-119121587D01*
X130958749Y-119121594D01*
X130899235Y-119296917D01*
X130863120Y-119403309D01*
X130862329Y-119407281D01*
X130862327Y-119407292D01*
X130805078Y-119695100D01*
X130805076Y-119695110D01*
X130804287Y-119699080D01*
X130804022Y-119703120D01*
X130804022Y-119703122D01*
X130784828Y-119995956D01*
X130784828Y-119995972D01*
X130784564Y-120000000D01*
X127200500Y-120000000D01*
X127200500Y-110789999D01*
X131644340Y-110789999D01*
X131664936Y-111025407D01*
X131685426Y-111101875D01*
X131726097Y-111253663D01*
X131825965Y-111467830D01*
X131961505Y-111661401D01*
X132128599Y-111828495D01*
X132322170Y-111964035D01*
X132536337Y-112063903D01*
X132764592Y-112125063D01*
X133000000Y-112145659D01*
X133235408Y-112125063D01*
X133463663Y-112063903D01*
X133677830Y-111964035D01*
X133871401Y-111828495D01*
X134038495Y-111661401D01*
X134174035Y-111467830D01*
X134273903Y-111253663D01*
X134335063Y-111025408D01*
X134355659Y-110790000D01*
X134335063Y-110554592D01*
X134273903Y-110326337D01*
X134174035Y-110112171D01*
X134038495Y-109918599D01*
X133916569Y-109796673D01*
X133883084Y-109735350D01*
X133888068Y-109665658D01*
X133929940Y-109609725D01*
X133960915Y-109592810D01*
X134092331Y-109543796D01*
X134207546Y-109457546D01*
X134293796Y-109342331D01*
X134344091Y-109207483D01*
X134350500Y-109147873D01*
X134350499Y-107352128D01*
X134344091Y-107292517D01*
X134293796Y-107157669D01*
X134207546Y-107042454D01*
X134092331Y-106956204D01*
X133957483Y-106905909D01*
X133897873Y-106899500D01*
X133894550Y-106899500D01*
X132105439Y-106899500D01*
X132105420Y-106899500D01*
X132102128Y-106899501D01*
X132098848Y-106899853D01*
X132098840Y-106899854D01*
X132042515Y-106905909D01*
X131907669Y-106956204D01*
X131792454Y-107042454D01*
X131706204Y-107157668D01*
X131655910Y-107292515D01*
X131655909Y-107292517D01*
X131649500Y-107352127D01*
X131649500Y-107355448D01*
X131649500Y-107355449D01*
X131649500Y-109144560D01*
X131649500Y-109144578D01*
X131649501Y-109147872D01*
X131655909Y-109207483D01*
X131706204Y-109342331D01*
X131792454Y-109457546D01*
X131907669Y-109543796D01*
X132019907Y-109585658D01*
X132039082Y-109592810D01*
X132095016Y-109634681D01*
X132119433Y-109700146D01*
X132104581Y-109768419D01*
X132083431Y-109796673D01*
X131961503Y-109918601D01*
X131825965Y-110112170D01*
X131726097Y-110326336D01*
X131664936Y-110554592D01*
X131644340Y-110789999D01*
X127200500Y-110789999D01*
X127200500Y-99000000D01*
X130784564Y-99000000D01*
X130784828Y-99004027D01*
X130784828Y-99004043D01*
X130798996Y-99220196D01*
X130804287Y-99300920D01*
X130805077Y-99304891D01*
X130805078Y-99304899D01*
X130862327Y-99592707D01*
X130862329Y-99592714D01*
X130863120Y-99596691D01*
X130960055Y-99882252D01*
X130961850Y-99885893D01*
X130961851Y-99885894D01*
X131081186Y-100127883D01*
X131093434Y-100152718D01*
X131095685Y-100156087D01*
X131095688Y-100156092D01*
X131252172Y-100390286D01*
X131260975Y-100403461D01*
X131459811Y-100630189D01*
X131686539Y-100829025D01*
X131689921Y-100831284D01*
X131689920Y-100831284D01*
X131920690Y-100985480D01*
X131937282Y-100996566D01*
X132207748Y-101129945D01*
X132493309Y-101226880D01*
X132789080Y-101285713D01*
X133090000Y-101305436D01*
X133390920Y-101285713D01*
X133686691Y-101226880D01*
X133972252Y-101129945D01*
X134242718Y-100996566D01*
X134493461Y-100829025D01*
X134720189Y-100630189D01*
X134919025Y-100403461D01*
X135086566Y-100152718D01*
X135219945Y-99882252D01*
X135316880Y-99596691D01*
X135336113Y-99500000D01*
X140049785Y-99500000D01*
X140068602Y-99703083D01*
X140124418Y-99899251D01*
X140215324Y-100081818D01*
X140338236Y-100244580D01*
X140488958Y-100381981D01*
X140662361Y-100489347D01*
X140662363Y-100489348D01*
X140852544Y-100563024D01*
X141053024Y-100600500D01*
X141053026Y-100600500D01*
X141256974Y-100600500D01*
X141256976Y-100600500D01*
X141457456Y-100563024D01*
X141647637Y-100489348D01*
X141821041Y-100381981D01*
X141899455Y-100310497D01*
X141971763Y-100244580D01*
X141971764Y-100244579D01*
X142094673Y-100081821D01*
X142094673Y-100081819D01*
X142094675Y-100081818D01*
X142140313Y-99990161D01*
X142185582Y-99899250D01*
X142241397Y-99703083D01*
X142260215Y-99500000D01*
X142241397Y-99296917D01*
X142240353Y-99293249D01*
X142185581Y-99100748D01*
X142094675Y-98918181D01*
X141971763Y-98755419D01*
X141821041Y-98618018D01*
X141647638Y-98510652D01*
X141457457Y-98436976D01*
X141390629Y-98424484D01*
X141256976Y-98399500D01*
X141053024Y-98399500D01*
X140952783Y-98418238D01*
X140852542Y-98436976D01*
X140662361Y-98510652D01*
X140488958Y-98618018D01*
X140338236Y-98755419D01*
X140215324Y-98918181D01*
X140124418Y-99100748D01*
X140068602Y-99296916D01*
X140049785Y-99500000D01*
X135336113Y-99500000D01*
X135375713Y-99300920D01*
X135395436Y-99000000D01*
X135375713Y-98699080D01*
X135316880Y-98403309D01*
X135219945Y-98117748D01*
X135086566Y-97847282D01*
X134919025Y-97596539D01*
X134720189Y-97369811D01*
X134669542Y-97325395D01*
X134496518Y-97173656D01*
X134493461Y-97170975D01*
X134367314Y-97086686D01*
X134246092Y-97005688D01*
X134246087Y-97005685D01*
X134242718Y-97003434D01*
X134239082Y-97001641D01*
X134239077Y-97001638D01*
X133975894Y-96871851D01*
X133975893Y-96871850D01*
X133972252Y-96870055D01*
X133686691Y-96773120D01*
X133682714Y-96772329D01*
X133682707Y-96772327D01*
X133394899Y-96715078D01*
X133394891Y-96715077D01*
X133390920Y-96714287D01*
X133090000Y-96694564D01*
X133085957Y-96694829D01*
X132793122Y-96714022D01*
X132793120Y-96714022D01*
X132789080Y-96714287D01*
X132785110Y-96715076D01*
X132785100Y-96715078D01*
X132497292Y-96772327D01*
X132497281Y-96772329D01*
X132493309Y-96773120D01*
X132489466Y-96774424D01*
X132489464Y-96774425D01*
X132211594Y-96868749D01*
X132211587Y-96868751D01*
X132207748Y-96870055D01*
X132204111Y-96871848D01*
X132204105Y-96871851D01*
X131940922Y-97001638D01*
X131940910Y-97001644D01*
X131937282Y-97003434D01*
X131933919Y-97005681D01*
X131933907Y-97005688D01*
X131689920Y-97168715D01*
X131689911Y-97168721D01*
X131686539Y-97170975D01*
X131683488Y-97173650D01*
X131683481Y-97173656D01*
X131462859Y-97367137D01*
X131462851Y-97367144D01*
X131459811Y-97369811D01*
X131457144Y-97372851D01*
X131457137Y-97372859D01*
X131263656Y-97593481D01*
X131263650Y-97593488D01*
X131260975Y-97596539D01*
X131258721Y-97599911D01*
X131258715Y-97599920D01*
X131095688Y-97843907D01*
X131095681Y-97843919D01*
X131093434Y-97847282D01*
X131091644Y-97850910D01*
X131091638Y-97850922D01*
X130961851Y-98114105D01*
X130961848Y-98114111D01*
X130960055Y-98117748D01*
X130958751Y-98121587D01*
X130958749Y-98121594D01*
X130880614Y-98351773D01*
X130863120Y-98403309D01*
X130862329Y-98407281D01*
X130862327Y-98407292D01*
X130805078Y-98695100D01*
X130805076Y-98695110D01*
X130804287Y-98699080D01*
X130804022Y-98703120D01*
X130804022Y-98703122D01*
X130784828Y-98995956D01*
X130784828Y-98995972D01*
X130784564Y-99000000D01*
X127200500Y-99000000D01*
X127200500Y-92324500D01*
X127220185Y-92257461D01*
X127272989Y-92211706D01*
X127324500Y-92200500D01*
X145228344Y-92200500D01*
X145295383Y-92220185D01*
G37*
%TD.AperFunction*%
%TA.AperFunction,Conductor*%
G36*
X152795383Y-92220185D02*
G01*
X152841138Y-92272989D01*
X152851082Y-92342147D01*
X152822057Y-92405703D01*
X152795568Y-92428419D01*
X152679193Y-92544794D01*
X152592209Y-92683227D01*
X152538213Y-92837538D01*
X152529556Y-92914383D01*
X152502490Y-92978797D01*
X152444895Y-93018352D01*
X152406336Y-93024500D01*
X149593664Y-93024500D01*
X149526625Y-93004815D01*
X149480870Y-92952011D01*
X149470444Y-92914383D01*
X149461786Y-92837538D01*
X149407790Y-92683227D01*
X149407789Y-92683225D01*
X149320808Y-92544796D01*
X149205204Y-92429192D01*
X149195325Y-92419313D01*
X149196043Y-92418594D01*
X149159392Y-92377157D01*
X149148745Y-92308103D01*
X149177121Y-92244255D01*
X149235512Y-92205885D01*
X149271656Y-92200500D01*
X152728344Y-92200500D01*
X152795383Y-92220185D01*
G37*
%TD.AperFunction*%
%TD*%
M02*
