%TF.GenerationSoftware,KiCad,Pcbnew,7.0.2-0*%
%TF.CreationDate,2023-05-25T20:57:36-04:00*%
%TF.ProjectId,szg-c2c-txr4,737a672d-6332-4632-9d74-7872342e6b69,A*%
%TF.SameCoordinates,Original*%
%TF.FileFunction,Paste,Bot*%
%TF.FilePolarity,Positive*%
%FSLAX46Y46*%
G04 Gerber Fmt 4.6, Leading zero omitted, Abs format (unit mm)*
G04 Created by KiCad (PCBNEW 7.0.2-0) date 2023-05-25 20:57:36*
%MOMM*%
%LPD*%
G01*
G04 APERTURE LIST*
G04 Aperture macros list*
%AMRoundRect*
0 Rectangle with rounded corners*
0 $1 Rounding radius*
0 $2 $3 $4 $5 $6 $7 $8 $9 X,Y pos of 4 corners*
0 Add a 4 corners polygon primitive as box body*
4,1,4,$2,$3,$4,$5,$6,$7,$8,$9,$2,$3,0*
0 Add four circle primitives for the rounded corners*
1,1,$1+$1,$2,$3*
1,1,$1+$1,$4,$5*
1,1,$1+$1,$6,$7*
1,1,$1+$1,$8,$9*
0 Add four rect primitives between the rounded corners*
20,1,$1+$1,$2,$3,$4,$5,0*
20,1,$1+$1,$4,$5,$6,$7,0*
20,1,$1+$1,$6,$7,$8,$9,0*
20,1,$1+$1,$8,$9,$2,$3,0*%
G04 Aperture macros list end*
%ADD10RoundRect,0.140000X0.170000X-0.140000X0.170000X0.140000X-0.170000X0.140000X-0.170000X-0.140000X0*%
%ADD11RoundRect,0.140000X0.140000X0.170000X-0.140000X0.170000X-0.140000X-0.170000X0.140000X-0.170000X0*%
%ADD12RoundRect,0.135000X0.135000X0.185000X-0.135000X0.185000X-0.135000X-0.185000X0.135000X-0.185000X0*%
%ADD13RoundRect,0.140000X-0.140000X-0.170000X0.140000X-0.170000X0.140000X0.170000X-0.140000X0.170000X0*%
%ADD14RoundRect,0.140000X-0.170000X0.140000X-0.170000X-0.140000X0.170000X-0.140000X0.170000X0.140000X0*%
%ADD15RoundRect,0.100000X0.637500X0.100000X-0.637500X0.100000X-0.637500X-0.100000X0.637500X-0.100000X0*%
%ADD16R,2.540000X0.640000*%
%ADD17R,4.700000X0.640000*%
%ADD18R,0.300000X1.450000*%
%ADD19RoundRect,0.135000X-0.185000X0.135000X-0.185000X-0.135000X0.185000X-0.135000X0.185000X0.135000X0*%
%ADD20R,1.200000X1.400000*%
G04 APERTURE END LIST*
D10*
%TO.C,C2*%
X146750000Y-93980000D03*
X146750000Y-93020000D03*
%TD*%
D11*
%TO.C,C20*%
X162480000Y-109000000D03*
X161520000Y-109000000D03*
%TD*%
D12*
%TO.C,R6*%
X162510000Y-111000000D03*
X161490000Y-111000000D03*
%TD*%
D13*
%TO.C,C17*%
X164520000Y-104000000D03*
X165480000Y-104000000D03*
%TD*%
D14*
%TO.C,C9*%
X158250000Y-125040000D03*
X158250000Y-126000000D03*
%TD*%
D12*
%TO.C,R3*%
X162510000Y-107000000D03*
X161490000Y-107000000D03*
%TD*%
D10*
%TO.C,C5*%
X153250000Y-93980000D03*
X153250000Y-93020000D03*
%TD*%
%TO.C,C1*%
X145750000Y-93980000D03*
X145750000Y-93020000D03*
%TD*%
%TO.C,C8*%
X156250000Y-93980000D03*
X156250000Y-93020000D03*
%TD*%
D15*
%TO.C,U1*%
X170862500Y-105225000D03*
X170862500Y-105875000D03*
X170862500Y-106525000D03*
X170862500Y-107175000D03*
X170862500Y-107825000D03*
X170862500Y-108475000D03*
X170862500Y-109125000D03*
X170862500Y-109775000D03*
X165137500Y-109775000D03*
X165137500Y-109125000D03*
X165137500Y-108475000D03*
X165137500Y-107825000D03*
X165137500Y-107175000D03*
X165137500Y-106525000D03*
X165137500Y-105875000D03*
X165137500Y-105225000D03*
%TD*%
D14*
%TO.C,C10*%
X157250000Y-125040000D03*
X157250000Y-126000000D03*
%TD*%
D11*
%TO.C,C19*%
X162480000Y-106000000D03*
X161520000Y-106000000D03*
%TD*%
D14*
%TO.C,C12*%
X155250000Y-125040000D03*
X155250000Y-126000000D03*
%TD*%
%TO.C,C14*%
X149750000Y-125040000D03*
X149750000Y-126000000D03*
%TD*%
D16*
%TO.C,J1*%
X143560000Y-99000000D03*
D17*
X148830000Y-99000000D03*
X155180000Y-99000000D03*
D16*
X160440000Y-99000000D03*
D18*
X144750000Y-102090000D03*
X144750000Y-95910000D03*
X145250000Y-102090000D03*
X145250000Y-95910000D03*
X146250010Y-102090000D03*
X146250010Y-95910000D03*
X146750000Y-102090000D03*
X146750000Y-95910000D03*
X147750000Y-102090000D03*
X147750000Y-95910000D03*
X148250000Y-102090000D03*
X148250000Y-95910000D03*
X149250000Y-102090000D03*
X149250000Y-95910000D03*
X149750000Y-102090000D03*
X149750000Y-95910000D03*
X150750000Y-102090000D03*
X150750000Y-95910000D03*
X151250000Y-102090000D03*
X151250000Y-95910000D03*
X152250000Y-102090000D03*
X152250000Y-95910000D03*
X152750000Y-102090000D03*
X152750000Y-95910000D03*
X153750000Y-102090000D03*
X153750000Y-95910000D03*
X154250000Y-102090000D03*
X154250000Y-95910000D03*
X155250010Y-102090000D03*
X155250010Y-95910000D03*
X155750000Y-102090000D03*
X155750000Y-95910000D03*
X156750000Y-102090000D03*
X156750000Y-95910000D03*
X157250000Y-102090000D03*
X157250000Y-95910000D03*
X158250000Y-102090000D03*
X158250000Y-95910000D03*
X158750000Y-102090000D03*
X158750000Y-95910000D03*
%TD*%
D14*
%TO.C,C23*%
X172500000Y-108020000D03*
X172500000Y-108980000D03*
%TD*%
D10*
%TO.C,C7*%
X155250000Y-93980000D03*
X155250000Y-93020000D03*
%TD*%
D16*
%TO.C,J2*%
X160440000Y-120000000D03*
D17*
X155170000Y-120000000D03*
X148820000Y-120000000D03*
D16*
X143560000Y-120000000D03*
D18*
X159250000Y-116910000D03*
X159250000Y-123090000D03*
X158750000Y-116910000D03*
X158750000Y-123090000D03*
X157749990Y-116910000D03*
X157749990Y-123090000D03*
X157250000Y-116910000D03*
X157250000Y-123090000D03*
X156250000Y-116910000D03*
X156250000Y-123090000D03*
X155750000Y-116910000D03*
X155750000Y-123090000D03*
X154750000Y-116910000D03*
X154750000Y-123090000D03*
X154250000Y-116910000D03*
X154250000Y-123090000D03*
X153250000Y-116910000D03*
X153250000Y-123090000D03*
X152750000Y-116910000D03*
X152750000Y-123090000D03*
X151750000Y-116910000D03*
X151750000Y-123090000D03*
X151250000Y-116910000D03*
X151250000Y-123090000D03*
X150250000Y-116910000D03*
X150250000Y-123090000D03*
X149750000Y-116910000D03*
X149750000Y-123090000D03*
X148749990Y-116910000D03*
X148749990Y-123090000D03*
X148250000Y-116910000D03*
X148250000Y-123090000D03*
X147250000Y-116910000D03*
X147250000Y-123090000D03*
X146750000Y-116910000D03*
X146750000Y-123090000D03*
X145750000Y-116910000D03*
X145750000Y-123090000D03*
X145250000Y-116910000D03*
X145250000Y-123090000D03*
%TD*%
D14*
%TO.C,C16*%
X147750000Y-125040000D03*
X147750000Y-126000000D03*
%TD*%
D10*
%TO.C,C4*%
X148750000Y-93980000D03*
X148750000Y-93020000D03*
%TD*%
%TO.C,C6*%
X154250000Y-93980000D03*
X154250000Y-93020000D03*
%TD*%
D19*
%TO.C,R7*%
X163500000Y-110990000D03*
X163500000Y-112010000D03*
%TD*%
D12*
%TO.C,R5*%
X162510000Y-108000000D03*
X161490000Y-108000000D03*
%TD*%
D10*
%TO.C,C3*%
X147750000Y-93980000D03*
X147750000Y-93020000D03*
%TD*%
D11*
%TO.C,C21*%
X162480000Y-110000000D03*
X161520000Y-110000000D03*
%TD*%
D14*
%TO.C,C13*%
X150750000Y-125040000D03*
X150750000Y-126000000D03*
%TD*%
%TO.C,C15*%
X148750000Y-125040000D03*
X148750000Y-126000000D03*
%TD*%
D12*
%TO.C,R2*%
X162510000Y-104000000D03*
X161490000Y-104000000D03*
%TD*%
D20*
%TO.C,Y1*%
X174150000Y-108600000D03*
X174150000Y-106400000D03*
X175850000Y-106400000D03*
X175850000Y-108600000D03*
%TD*%
D14*
%TO.C,C11*%
X156250000Y-125020000D03*
X156250000Y-125980000D03*
%TD*%
D19*
%TO.C,R1*%
X163500000Y-104990000D03*
X163500000Y-106010000D03*
%TD*%
D10*
%TO.C,C22*%
X172500000Y-106980000D03*
X172500000Y-106020000D03*
%TD*%
D19*
%TO.C,R4*%
X163500000Y-108980000D03*
X163500000Y-110000000D03*
%TD*%
D11*
%TO.C,C18*%
X162480000Y-105000000D03*
X161520000Y-105000000D03*
%TD*%
M02*
