%TF.GenerationSoftware,KiCad,Pcbnew,7.0.2-0*%
%TF.CreationDate,2023-05-25T20:57:36-04:00*%
%TF.ProjectId,szg-c2c-txr4,737a672d-6332-4632-9d74-7872342e6b69,A*%
%TF.SameCoordinates,Original*%
%TF.FileFunction,Copper,L2,Inr*%
%TF.FilePolarity,Positive*%
%FSLAX46Y46*%
G04 Gerber Fmt 4.6, Leading zero omitted, Abs format (unit mm)*
G04 Created by KiCad (PCBNEW 7.0.2-0) date 2023-05-25 20:57:36*
%MOMM*%
%LPD*%
G01*
G04 APERTURE LIST*
%TA.AperFunction,ComponentPad*%
%ADD10R,1.700000X1.700000*%
%TD*%
%TA.AperFunction,ComponentPad*%
%ADD11O,1.700000X1.700000*%
%TD*%
%TA.AperFunction,ComponentPad*%
%ADD12C,3.600000*%
%TD*%
%TA.AperFunction,ComponentPad*%
%ADD13C,1.200000*%
%TD*%
%TA.AperFunction,ViaPad*%
%ADD14C,0.450000*%
%TD*%
%TA.AperFunction,Conductor*%
%ADD15C,0.150000*%
%TD*%
G04 APERTURE END LIST*
D10*
%TO.N,GND*%
%TO.C,J4*%
X173500000Y-114500000D03*
D11*
%TO.N,/SS1*%
X170960000Y-114500000D03*
%TD*%
D12*
%TO.N,unconnected-(H1-Pad1)*%
%TO.C,H1*%
X133090000Y-99000000D03*
%TD*%
%TO.N,unconnected-(H2-Pad1)*%
%TO.C,H2*%
X170910000Y-99000000D03*
%TD*%
%TO.N,unconnected-(H4-Pad1)*%
%TO.C,H4*%
X170910000Y-120000000D03*
%TD*%
%TO.N,unconnected-(H3-Pad1)*%
%TO.C,H3*%
X133090000Y-120000000D03*
%TD*%
D13*
%TO.N,N/C*%
%TO.C,J1*%
X141155000Y-99500000D03*
X162845000Y-99500000D03*
%TD*%
%TO.N,N/C*%
%TO.C,J2*%
X162845000Y-119500000D03*
X141155000Y-119500000D03*
%TD*%
D10*
%TO.N,+5V*%
%TO.C,J3*%
X133000000Y-108250000D03*
D11*
%TO.N,/J2_5V*%
X133000000Y-110790000D03*
%TD*%
D14*
%TO.N,GND*%
X163500000Y-107500000D03*
X152250000Y-93000000D03*
X149750000Y-93000000D03*
X161500000Y-107000000D03*
X159500000Y-120000000D03*
X153250000Y-120000000D03*
X147250000Y-99500000D03*
X152500000Y-113250000D03*
X146500000Y-119500000D03*
X154250000Y-126000000D03*
X149250000Y-120000000D03*
X161250000Y-120000000D03*
X164500000Y-104000000D03*
X159750000Y-99000000D03*
X152750000Y-99500000D03*
X154500000Y-114250000D03*
X161250000Y-99000000D03*
X144750000Y-93000000D03*
X144250000Y-120000000D03*
X172500000Y-109000000D03*
X157250000Y-93000000D03*
X161500000Y-108000000D03*
X154750000Y-120000000D03*
X154750000Y-99500000D03*
X151750000Y-126000000D03*
X159250000Y-126000000D03*
X142750000Y-120000000D03*
X157500000Y-98750000D03*
X172500000Y-106000000D03*
X161500000Y-104000000D03*
X175750000Y-108500000D03*
X163500000Y-112010000D03*
X174000000Y-106250000D03*
X146750000Y-126000000D03*
X142750000Y-99000000D03*
X156750000Y-120000000D03*
X149000000Y-99500000D03*
%TO.N,/J2_RX1+*%
X156400000Y-115000000D03*
X154250000Y-93000000D03*
%TO.N,/J2_RX1-*%
X155600000Y-115000000D03*
X153250000Y-93000000D03*
%TO.N,/J2_RX3+*%
X150400000Y-115000000D03*
X148750000Y-93000000D03*
%TO.N,/J2_RX3-*%
X147750000Y-93000000D03*
X149600000Y-115000000D03*
%TO.N,/J2_RX2+*%
X146750000Y-93000000D03*
X148900000Y-115500000D03*
%TO.N,/J2_RX2-*%
X148100000Y-115500000D03*
X145750000Y-93000000D03*
%TO.N,/J1_RX0+*%
X147750000Y-126000000D03*
X146100000Y-103498408D03*
%TO.N,/J1_RX0-*%
X146900000Y-103498408D03*
X148750000Y-126000000D03*
%TO.N,/J1_RX1+*%
X149750000Y-126000000D03*
X147600000Y-103998408D03*
%TO.N,/J1_RX1-*%
X148400000Y-103998408D03*
X150750000Y-126000000D03*
%TO.N,/J1_RX3+*%
X153600000Y-103998408D03*
X155250000Y-126000000D03*
%TO.N,/J1_RX3-*%
X156250000Y-126000000D03*
X154400000Y-103998408D03*
%TO.N,/J1_RX2+*%
X157250000Y-126000000D03*
X155100000Y-103498408D03*
%TO.N,/J1_RX2-*%
X158250000Y-126000000D03*
X155900000Y-103498408D03*
%TO.N,/J2_REFCLK+*%
X154900000Y-115500000D03*
X161500000Y-109000000D03*
%TO.N,/J2_REFCLK-*%
X161500000Y-110000000D03*
X154100000Y-115500000D03*
%TO.N,/J1_REFCLK-*%
X149900000Y-103500000D03*
X161500000Y-106000000D03*
%TO.N,/J1_REFCLK+*%
X149100000Y-103500000D03*
X161500000Y-105000000D03*
%TO.N,/J2_RX0+*%
X156250000Y-93000000D03*
X157900000Y-115500000D03*
%TO.N,/J2_RX0-*%
X157100000Y-115500000D03*
X155250000Y-93000000D03*
%TO.N,/SCL*%
X147250000Y-106750000D03*
X159750000Y-113250000D03*
%TO.N,/SDA*%
X158250000Y-112250000D03*
X147250000Y-105500000D03*
%TO.N,/S0S1+*%
X138967157Y-106032843D03*
X139078135Y-114015502D03*
%TO.N,/S0S1-*%
X139643821Y-114581188D03*
X139532843Y-105467157D03*
%TO.N,/S2S4+*%
X143013040Y-106707916D03*
X143032843Y-112217157D03*
%TO.N,/S3S5+*%
X137678415Y-108682654D03*
X137717157Y-116217157D03*
%TO.N,/S2S4-*%
X142447354Y-107273602D03*
X142467157Y-112782843D03*
%TO.N,/S3S5-*%
X138282843Y-116782843D03*
X138244101Y-109248340D03*
%TO.N,/S6S8+*%
X142032843Y-108467157D03*
X142032843Y-113467157D03*
%TO.N,/S7S9+*%
X138967157Y-121717157D03*
X140217157Y-107717157D03*
%TO.N,/S6S8-*%
X141467157Y-109032843D03*
X141467157Y-114032843D03*
%TO.N,/S7S9-*%
X139532843Y-122282843D03*
X140782843Y-108282843D03*
%TO.N,/J2_C2P_CLK+*%
X147400000Y-124137046D03*
X156600000Y-100743729D03*
%TO.N,/J1_C2P_CLK+*%
X147400000Y-115000000D03*
X156600000Y-94816240D03*
%TO.N,/J2_C2P_CLK-*%
X146600000Y-124137046D03*
X157400000Y-100743729D03*
%TO.N,/J1_C2P_CLK-*%
X157400000Y-94816240D03*
X146600000Y-115000000D03*
%TD*%
D15*
%TO.N,/J2_RX1+*%
X151150000Y-107187866D02*
X151150000Y-104062134D01*
X153900001Y-93349999D02*
X154250000Y-93000000D01*
X151150000Y-104062134D02*
X153900001Y-101312133D01*
X156400000Y-115000000D02*
X156150000Y-114750000D01*
X153900001Y-101312133D02*
X153900001Y-93349999D01*
X156150000Y-114750000D02*
X156150000Y-112187866D01*
X156150000Y-112187866D02*
X151150000Y-107187866D01*
%TO.N,/J2_RX1-*%
X155600000Y-115000000D02*
X155850000Y-114750000D01*
X150850000Y-107312134D02*
X150850000Y-103937866D01*
X150850000Y-103937866D02*
X153599999Y-101187867D01*
X155850000Y-114750000D02*
X155850000Y-112312134D01*
X155850000Y-112312134D02*
X150850000Y-107312134D01*
X153599999Y-101187867D02*
X153599999Y-93349999D01*
X153599999Y-93349999D02*
X153250000Y-93000000D01*
%TO.N,/J2_RX3+*%
X145150000Y-103562134D02*
X148400001Y-100312133D01*
X150400000Y-115000000D02*
X150150001Y-114750001D01*
X150150001Y-112687867D02*
X145150000Y-107687866D01*
X150150001Y-114750001D02*
X150150001Y-112687867D01*
X148400001Y-93349999D02*
X148750000Y-93000000D01*
X145150000Y-107687866D02*
X145150000Y-103562134D01*
X148400001Y-100312133D02*
X148400001Y-93349999D01*
%TO.N,/J2_RX3-*%
X149849999Y-114750001D02*
X149849999Y-112812133D01*
X144850000Y-107812134D02*
X144850000Y-103437866D01*
X148099999Y-93349999D02*
X147750000Y-93000000D01*
X144850000Y-103437866D02*
X148099999Y-100187867D01*
X148099999Y-100187867D02*
X148099999Y-93349999D01*
X149849999Y-112812133D02*
X144850000Y-107812134D01*
X149600000Y-115000000D02*
X149849999Y-114750001D01*
%TO.N,/J2_RX2+*%
X146400001Y-97812133D02*
X146400001Y-93349999D01*
X143900000Y-100312134D02*
X146400001Y-97812133D01*
X148650001Y-115250001D02*
X148650001Y-113437867D01*
X148650001Y-113437867D02*
X143900000Y-108687866D01*
X143900000Y-108687866D02*
X143900000Y-100312134D01*
X146400001Y-93349999D02*
X146750000Y-93000000D01*
X148900000Y-115500000D02*
X148650001Y-115250001D01*
%TO.N,/J2_RX2-*%
X148349999Y-115250001D02*
X148349999Y-113562133D01*
X146099999Y-97687867D02*
X146099999Y-93349999D01*
X143600000Y-100187866D02*
X146099999Y-97687867D01*
X148100000Y-115500000D02*
X148349999Y-115250001D01*
X148349999Y-113562133D02*
X143600000Y-108812134D01*
X143600000Y-108812134D02*
X143600000Y-100187866D01*
X146099999Y-93349999D02*
X145750000Y-93000000D01*
%TO.N,/J1_RX0+*%
X146349999Y-103748407D02*
X146100000Y-103498408D01*
X151350000Y-112062134D02*
X146349999Y-107062133D01*
X146349999Y-107062133D02*
X146349999Y-103748407D01*
X151350000Y-114937866D02*
X151350000Y-112062134D01*
X148099999Y-118187867D02*
X151350000Y-114937866D01*
X147750000Y-126000000D02*
X148099999Y-125650001D01*
X148099999Y-125650001D02*
X148099999Y-118187867D01*
%TO.N,/J1_RX0-*%
X151650000Y-111937866D02*
X146650001Y-106937867D01*
X151650000Y-115062134D02*
X151650000Y-111937866D01*
X146650001Y-103748407D02*
X146900000Y-103498408D01*
X148400001Y-118312133D02*
X151650000Y-115062134D01*
X146650001Y-106937867D02*
X146650001Y-103748407D01*
X148750000Y-126000000D02*
X148400001Y-125650001D01*
X148400001Y-125650001D02*
X148400001Y-118312133D01*
%TO.N,/J1_RX1+*%
X153100000Y-111562134D02*
X147849999Y-106312133D01*
X149750000Y-126000000D02*
X150099999Y-125650001D01*
X150099999Y-117687867D02*
X153100000Y-114687866D01*
X147849999Y-106312133D02*
X147849999Y-104248407D01*
X147849999Y-104248407D02*
X147600000Y-103998408D01*
X153100000Y-114687866D02*
X153100000Y-111562134D01*
X150099999Y-125650001D02*
X150099999Y-117687867D01*
%TO.N,/J1_RX1-*%
X153400000Y-111437866D02*
X148150001Y-106187867D01*
X153400000Y-114812134D02*
X153400000Y-111437866D01*
X148150001Y-104248407D02*
X148400000Y-103998408D01*
X150400001Y-125650001D02*
X150400001Y-117812133D01*
X150750000Y-126000000D02*
X150400001Y-125650001D01*
X148150001Y-106187867D02*
X148150001Y-104248407D01*
X150400001Y-117812133D02*
X153400000Y-114812134D01*
%TO.N,/J1_RX3+*%
X153849999Y-104248407D02*
X153600000Y-103998408D01*
X155599999Y-118937867D02*
X158850000Y-115687866D01*
X158850000Y-111312134D02*
X153849999Y-106312133D01*
X153849999Y-106312133D02*
X153849999Y-104248407D01*
X155599999Y-125650001D02*
X155599999Y-118937867D01*
X158850000Y-115687866D02*
X158850000Y-111312134D01*
X155250000Y-126000000D02*
X155599999Y-125650001D01*
%TO.N,/J1_RX3-*%
X159150000Y-111187866D02*
X154150001Y-106187867D01*
X154150001Y-104248407D02*
X154400000Y-103998408D01*
X155900001Y-119062133D02*
X159150000Y-115812134D01*
X155900001Y-125650001D02*
X155900001Y-119062133D01*
X159150000Y-115812134D02*
X159150000Y-111187866D01*
X154150001Y-106187867D02*
X154150001Y-104248407D01*
X156250000Y-126000000D02*
X155900001Y-125650001D01*
%TO.N,/J1_RX2+*%
X157600000Y-118937866D02*
X160350000Y-116187866D01*
X160350000Y-116187866D02*
X160350000Y-110562134D01*
X160350000Y-110562134D02*
X155349999Y-105562133D01*
X155349999Y-105562133D02*
X155349999Y-103748407D01*
X157600000Y-125650000D02*
X157600000Y-118937866D01*
X157250000Y-126000000D02*
X157600000Y-125650000D01*
X155349999Y-103748407D02*
X155100000Y-103498408D01*
%TO.N,/J1_RX2-*%
X160650000Y-110437866D02*
X155650001Y-105437867D01*
X160650000Y-116312134D02*
X160650000Y-110437866D01*
X155650001Y-105437867D02*
X155650001Y-103748407D01*
X157900000Y-125650000D02*
X157900000Y-119062134D01*
X157900000Y-119062134D02*
X160650000Y-116312134D01*
X158250000Y-126000000D02*
X157900000Y-125650000D01*
X155650001Y-103748407D02*
X155900000Y-103498408D01*
%TO.N,/J2_RX0+*%
X152650000Y-106937866D02*
X152650000Y-104062134D01*
X157650001Y-111937867D02*
X152650000Y-106937866D01*
X155900001Y-100812133D02*
X155900001Y-93349999D01*
X155900001Y-93349999D02*
X156250000Y-93000000D01*
X152650000Y-104062134D02*
X155900001Y-100812133D01*
X157900000Y-115500000D02*
X157650001Y-115250001D01*
X157650001Y-115250001D02*
X157650001Y-111937867D01*
%TO.N,/J2_RX0-*%
X155599999Y-93349999D02*
X155250000Y-93000000D01*
X152350000Y-107062134D02*
X152350000Y-103937866D01*
X157100000Y-115500000D02*
X157349999Y-115250001D01*
X157349999Y-115250001D02*
X157349999Y-112062133D01*
X157349999Y-112062133D02*
X152350000Y-107062134D01*
X152350000Y-103937866D02*
X155599999Y-100687867D01*
X155599999Y-100687867D02*
X155599999Y-93349999D01*
%TD*%
%TA.AperFunction,Conductor*%
%TO.N,GND*%
G36*
X145295383Y-92220185D02*
G01*
X145341138Y-92272989D01*
X145351082Y-92342147D01*
X145322057Y-92405703D01*
X145295568Y-92428419D01*
X145179193Y-92544794D01*
X145092209Y-92683227D01*
X145038213Y-92837538D01*
X145019908Y-93000000D01*
X145038213Y-93162461D01*
X145092209Y-93316772D01*
X145092211Y-93316775D01*
X145179192Y-93455204D01*
X145294796Y-93570808D01*
X145433225Y-93657789D01*
X145441452Y-93660668D01*
X145498227Y-93701386D01*
X145523977Y-93766338D01*
X145524499Y-93777709D01*
X145524499Y-97398124D01*
X145504814Y-97465163D01*
X145488180Y-97485805D01*
X143225477Y-99748507D01*
X143213285Y-99759200D01*
X143189549Y-99777413D01*
X143167636Y-99805970D01*
X143167624Y-99805986D01*
X143167493Y-99806157D01*
X143167491Y-99806159D01*
X143166391Y-99807594D01*
X143167402Y-99806229D01*
X143166925Y-99806602D01*
X143166388Y-99807598D01*
X143164978Y-99809436D01*
X143097301Y-99897632D01*
X143039313Y-100037630D01*
X143033496Y-100081818D01*
X143024500Y-100150146D01*
X143024500Y-100150151D01*
X143023718Y-100156092D01*
X143021872Y-100170113D01*
X142993604Y-100234009D01*
X142935278Y-100272479D01*
X142870337Y-100274583D01*
X142848890Y-100269500D01*
X142715708Y-100269500D01*
X142712142Y-100269916D01*
X142712138Y-100269917D01*
X142583420Y-100284962D01*
X142416366Y-100345765D01*
X142267830Y-100443458D01*
X142145833Y-100572768D01*
X142056943Y-100726730D01*
X142005955Y-100897043D01*
X141995617Y-101074519D01*
X142011212Y-101162958D01*
X142026489Y-101249599D01*
X142092021Y-101401518D01*
X142096904Y-101412838D01*
X142203067Y-101555439D01*
X142339251Y-101669712D01*
X142339252Y-101669712D01*
X142339254Y-101669714D01*
X142498123Y-101749501D01*
X142498124Y-101749501D01*
X142498126Y-101749502D01*
X142671108Y-101790500D01*
X142671110Y-101790500D01*
X142800694Y-101790500D01*
X142804292Y-101790500D01*
X142807875Y-101790081D01*
X142807878Y-101790081D01*
X142886104Y-101780938D01*
X142954975Y-101792706D01*
X143006551Y-101839841D01*
X143024500Y-101904099D01*
X143024500Y-105865720D01*
X143004815Y-105932759D01*
X142952011Y-105978514D01*
X142914385Y-105988940D01*
X142850578Y-105996129D01*
X142696267Y-106050125D01*
X142557834Y-106137109D01*
X142442233Y-106252710D01*
X142355249Y-106391143D01*
X142316735Y-106501211D01*
X142276014Y-106557987D01*
X142240649Y-106577297D01*
X142130581Y-106615811D01*
X141992148Y-106702795D01*
X141876547Y-106818396D01*
X141789563Y-106956829D01*
X141735567Y-107111140D01*
X141717262Y-107273602D01*
X141735567Y-107436063D01*
X141789564Y-107590377D01*
X141806392Y-107617158D01*
X141825392Y-107684394D01*
X141805024Y-107751229D01*
X141751756Y-107796443D01*
X141742353Y-107800170D01*
X141716070Y-107809366D01*
X141577634Y-107896352D01*
X141576541Y-107897446D01*
X141571606Y-107900140D01*
X141565809Y-107903783D01*
X141565585Y-107903427D01*
X141515217Y-107930928D01*
X141445525Y-107925941D01*
X141389594Y-107884067D01*
X141383876Y-107875742D01*
X141353651Y-107827639D01*
X141238047Y-107712035D01*
X141099618Y-107625054D01*
X141099617Y-107625053D01*
X141099616Y-107625053D01*
X140989546Y-107586537D01*
X140932771Y-107545815D01*
X140913461Y-107510453D01*
X140874946Y-107400382D01*
X140787965Y-107261953D01*
X140672361Y-107146349D01*
X140566634Y-107079916D01*
X140533929Y-107059366D01*
X140379618Y-107005370D01*
X140217157Y-106987065D01*
X140054695Y-107005370D01*
X139900384Y-107059366D01*
X139761951Y-107146350D01*
X139646350Y-107261951D01*
X139559366Y-107400384D01*
X139505370Y-107554695D01*
X139487065Y-107717157D01*
X139505370Y-107879618D01*
X139559366Y-108033929D01*
X139559368Y-108033932D01*
X139646349Y-108172361D01*
X139761953Y-108287965D01*
X139900382Y-108374946D01*
X140010451Y-108413461D01*
X140067227Y-108454182D01*
X140086537Y-108489546D01*
X140121881Y-108590550D01*
X140125054Y-108599618D01*
X140212035Y-108738047D01*
X140327639Y-108853651D01*
X140466068Y-108940632D01*
X140466070Y-108940633D01*
X140620382Y-108994629D01*
X140635939Y-108996382D01*
X140700354Y-109023448D01*
X140739909Y-109081042D01*
X140745277Y-109105719D01*
X140755370Y-109195303D01*
X140809366Y-109349615D01*
X140809368Y-109349618D01*
X140896349Y-109488047D01*
X141011953Y-109603651D01*
X141149644Y-109690168D01*
X141150384Y-109690633D01*
X141304695Y-109744629D01*
X141467157Y-109762934D01*
X141629618Y-109744629D01*
X141783932Y-109690632D01*
X141922361Y-109603651D01*
X142037965Y-109488047D01*
X142124946Y-109349618D01*
X142163462Y-109239544D01*
X142204182Y-109182772D01*
X142239541Y-109163463D01*
X142349618Y-109124946D01*
X142488047Y-109037965D01*
X142603651Y-108922361D01*
X142690632Y-108783932D01*
X142744629Y-108629618D01*
X142762934Y-108467157D01*
X142758815Y-108430599D01*
X142744629Y-108304695D01*
X142690632Y-108150383D01*
X142690632Y-108150382D01*
X142673804Y-108123601D01*
X142654804Y-108056367D01*
X142675171Y-107989531D01*
X142728438Y-107944317D01*
X142737832Y-107940592D01*
X142764129Y-107931391D01*
X142834529Y-107887155D01*
X142901764Y-107868155D01*
X142968599Y-107888522D01*
X143013813Y-107941790D01*
X143024500Y-107992149D01*
X143024500Y-108766294D01*
X143023439Y-108782479D01*
X143019534Y-108812133D01*
X143024500Y-108849848D01*
X143024500Y-108849854D01*
X143039313Y-108962371D01*
X143060307Y-109013055D01*
X143097301Y-109102367D01*
X143166388Y-109192402D01*
X143166391Y-109192405D01*
X143189549Y-109222586D01*
X143213286Y-109240800D01*
X143225480Y-109251494D01*
X147738180Y-113764194D01*
X147771665Y-113825517D01*
X147774499Y-113851875D01*
X147774499Y-114187647D01*
X147754814Y-114254686D01*
X147702010Y-114300441D01*
X147632852Y-114310385D01*
X147609546Y-114304689D01*
X147562460Y-114288213D01*
X147399999Y-114269908D01*
X147237538Y-114288213D01*
X147083225Y-114342210D01*
X147065965Y-114353055D01*
X146998727Y-114372050D01*
X146934028Y-114353052D01*
X146925499Y-114347693D01*
X146916775Y-114342211D01*
X146916772Y-114342209D01*
X146762461Y-114288213D01*
X146599999Y-114269908D01*
X146437538Y-114288213D01*
X146283227Y-114342209D01*
X146144794Y-114429193D01*
X146029193Y-114544794D01*
X145942209Y-114683227D01*
X145888213Y-114837538D01*
X145869908Y-115000000D01*
X145888213Y-115162461D01*
X145942209Y-115316772D01*
X145942211Y-115316775D01*
X146029192Y-115455204D01*
X146144796Y-115570808D01*
X146283225Y-115657789D01*
X146283227Y-115657790D01*
X146437538Y-115711786D01*
X146600000Y-115730091D01*
X146762461Y-115711786D01*
X146916775Y-115657789D01*
X146934027Y-115646948D01*
X147001262Y-115627947D01*
X147065972Y-115646948D01*
X147083224Y-115657789D01*
X147083225Y-115657789D01*
X147237538Y-115711786D01*
X147334942Y-115722761D01*
X147399356Y-115749828D01*
X147438099Y-115805024D01*
X147442210Y-115816774D01*
X147485701Y-115885989D01*
X147529192Y-115955204D01*
X147644796Y-116070808D01*
X147783225Y-116157789D01*
X147783227Y-116157790D01*
X147937538Y-116211786D01*
X148100000Y-116230091D01*
X148262461Y-116211786D01*
X148416775Y-116157789D01*
X148434027Y-116146948D01*
X148501262Y-116127947D01*
X148565972Y-116146948D01*
X148583224Y-116157789D01*
X148583225Y-116157789D01*
X148737538Y-116211786D01*
X148899997Y-116230091D01*
X148899998Y-116230090D01*
X148900000Y-116230091D01*
X148935417Y-116226100D01*
X149004238Y-116238153D01*
X149055618Y-116285501D01*
X149073244Y-116353111D01*
X149051519Y-116419518D01*
X149036983Y-116437001D01*
X147725476Y-117748508D01*
X147713284Y-117759201D01*
X147689548Y-117777414D01*
X147666390Y-117807595D01*
X147666387Y-117807599D01*
X147618463Y-117870055D01*
X147597300Y-117897635D01*
X147539312Y-118037631D01*
X147524499Y-118150147D01*
X147524499Y-118150153D01*
X147519533Y-118187866D01*
X147523438Y-118217520D01*
X147524499Y-118233706D01*
X147524499Y-123282226D01*
X147504814Y-123349265D01*
X147452010Y-123395020D01*
X147413409Y-123401182D01*
X147413884Y-123405390D01*
X147237538Y-123425259D01*
X147083226Y-123479256D01*
X147065969Y-123490099D01*
X146998732Y-123509097D01*
X146934031Y-123490099D01*
X146916773Y-123479256D01*
X146762461Y-123425259D01*
X146600000Y-123406954D01*
X146437538Y-123425259D01*
X146283227Y-123479255D01*
X146144794Y-123566239D01*
X146029193Y-123681840D01*
X145942209Y-123820273D01*
X145888213Y-123974584D01*
X145869908Y-124137046D01*
X145888213Y-124299507D01*
X145942209Y-124453818D01*
X145942211Y-124453821D01*
X146029192Y-124592250D01*
X146144796Y-124707854D01*
X146283225Y-124794835D01*
X146283227Y-124794836D01*
X146437538Y-124848832D01*
X146600000Y-124867137D01*
X146762461Y-124848832D01*
X146916775Y-124794835D01*
X146934027Y-124783994D01*
X147001262Y-124764993D01*
X147065972Y-124783994D01*
X147083225Y-124794834D01*
X147083225Y-124794835D01*
X147237538Y-124848832D01*
X147413884Y-124868702D01*
X147413361Y-124873341D01*
X147455267Y-124880615D01*
X147506719Y-124927885D01*
X147524499Y-124991865D01*
X147524499Y-125222289D01*
X147504814Y-125289328D01*
X147452010Y-125335083D01*
X147441458Y-125339329D01*
X147433225Y-125342209D01*
X147294795Y-125429192D01*
X147179193Y-125544794D01*
X147092209Y-125683227D01*
X147038213Y-125837538D01*
X147019908Y-126000000D01*
X147038213Y-126162461D01*
X147092209Y-126316772D01*
X147179193Y-126455205D01*
X147304675Y-126580687D01*
X147303956Y-126581405D01*
X147340608Y-126622843D01*
X147351255Y-126691897D01*
X147322879Y-126755745D01*
X147264488Y-126794115D01*
X147228344Y-126799500D01*
X127324500Y-126799500D01*
X127257461Y-126779815D01*
X127211706Y-126727011D01*
X127200500Y-126675500D01*
X127200500Y-120000000D01*
X130784564Y-120000000D01*
X130784828Y-120004027D01*
X130784828Y-120004043D01*
X130800594Y-120244579D01*
X130804287Y-120300920D01*
X130805077Y-120304891D01*
X130805078Y-120304899D01*
X130862327Y-120592707D01*
X130862329Y-120592714D01*
X130863120Y-120596691D01*
X130960055Y-120882252D01*
X130961850Y-120885893D01*
X130961851Y-120885894D01*
X131090293Y-121146350D01*
X131093434Y-121152718D01*
X131260975Y-121403461D01*
X131459811Y-121630189D01*
X131686539Y-121829025D01*
X131937282Y-121996566D01*
X132207748Y-122129945D01*
X132493309Y-122226880D01*
X132789080Y-122285713D01*
X133090000Y-122305436D01*
X133390920Y-122285713D01*
X133686691Y-122226880D01*
X133972252Y-122129945D01*
X134242718Y-121996566D01*
X134493461Y-121829025D01*
X134621023Y-121717156D01*
X138237065Y-121717156D01*
X138255370Y-121879618D01*
X138309366Y-122033929D01*
X138309368Y-122033932D01*
X138396349Y-122172361D01*
X138511953Y-122287965D01*
X138650382Y-122374946D01*
X138760451Y-122413461D01*
X138817227Y-122454182D01*
X138836537Y-122489546D01*
X138875053Y-122599615D01*
X138875054Y-122599618D01*
X138962035Y-122738047D01*
X139077639Y-122853651D01*
X139216068Y-122940632D01*
X139216070Y-122940633D01*
X139370381Y-122994629D01*
X139532842Y-123012934D01*
X139532842Y-123012933D01*
X139532843Y-123012934D01*
X139695304Y-122994629D01*
X139849618Y-122940632D01*
X139988047Y-122853651D01*
X140103651Y-122738047D01*
X140190632Y-122599618D01*
X140244629Y-122445304D01*
X140262934Y-122282843D01*
X140256629Y-122226880D01*
X140244629Y-122120381D01*
X140190633Y-121966070D01*
X140190632Y-121966068D01*
X140103651Y-121827639D01*
X139988047Y-121712035D01*
X139849618Y-121625054D01*
X139849617Y-121625053D01*
X139849616Y-121625053D01*
X139739546Y-121586537D01*
X139682771Y-121545815D01*
X139663461Y-121510453D01*
X139624946Y-121400382D01*
X139537965Y-121261953D01*
X139422361Y-121146349D01*
X139283932Y-121059368D01*
X139283929Y-121059366D01*
X139129618Y-121005370D01*
X138967157Y-120987065D01*
X138804695Y-121005370D01*
X138650384Y-121059366D01*
X138511951Y-121146350D01*
X138396350Y-121261951D01*
X138309366Y-121400384D01*
X138255370Y-121554695D01*
X138237065Y-121717156D01*
X134621023Y-121717156D01*
X134720189Y-121630189D01*
X134919025Y-121403461D01*
X135086566Y-121152718D01*
X135219945Y-120882252D01*
X135316880Y-120596691D01*
X135375713Y-120300920D01*
X135395436Y-120000000D01*
X135375713Y-119699080D01*
X135336113Y-119500000D01*
X140049785Y-119500000D01*
X140068602Y-119703083D01*
X140124418Y-119899251D01*
X140215324Y-120081818D01*
X140338236Y-120244580D01*
X140488958Y-120381981D01*
X140662361Y-120489347D01*
X140662363Y-120489348D01*
X140852544Y-120563024D01*
X141053024Y-120600500D01*
X141053026Y-120600500D01*
X141256974Y-120600500D01*
X141256976Y-120600500D01*
X141457456Y-120563024D01*
X141647637Y-120489348D01*
X141821041Y-120381981D01*
X141971764Y-120244579D01*
X142094673Y-120081821D01*
X142094673Y-120081819D01*
X142094675Y-120081818D01*
X142140313Y-119990161D01*
X142185582Y-119899250D01*
X142241397Y-119703083D01*
X142260215Y-119500000D01*
X142241397Y-119296917D01*
X142237959Y-119284835D01*
X142219200Y-119218904D01*
X142185582Y-119100750D01*
X142185209Y-119100001D01*
X142094675Y-118918181D01*
X141971763Y-118755419D01*
X141821041Y-118618018D01*
X141647638Y-118510652D01*
X141457457Y-118436976D01*
X141390629Y-118424483D01*
X141256976Y-118399500D01*
X141053024Y-118399500D01*
X140952783Y-118418238D01*
X140852542Y-118436976D01*
X140662361Y-118510652D01*
X140488958Y-118618018D01*
X140338236Y-118755419D01*
X140215324Y-118918181D01*
X140124418Y-119100748D01*
X140068602Y-119296916D01*
X140049785Y-119500000D01*
X135336113Y-119500000D01*
X135316880Y-119403309D01*
X135219945Y-119117748D01*
X135086566Y-118847282D01*
X135025186Y-118755421D01*
X134981140Y-118689501D01*
X134919025Y-118596539D01*
X134720189Y-118369811D01*
X134493461Y-118170975D01*
X134462299Y-118150153D01*
X134259309Y-118014519D01*
X141995617Y-118014519D01*
X142011212Y-118102958D01*
X142026489Y-118189599D01*
X142062581Y-118273269D01*
X142096904Y-118352838D01*
X142203067Y-118495439D01*
X142339251Y-118609712D01*
X142339252Y-118609712D01*
X142339254Y-118609714D01*
X142498123Y-118689501D01*
X142498124Y-118689501D01*
X142498126Y-118689502D01*
X142671108Y-118730500D01*
X142671110Y-118730500D01*
X142800694Y-118730500D01*
X142804292Y-118730500D01*
X142936577Y-118715038D01*
X143103635Y-118654234D01*
X143252168Y-118556543D01*
X143374167Y-118427231D01*
X143463057Y-118273269D01*
X143514045Y-118102958D01*
X143524382Y-117925480D01*
X143493511Y-117750401D01*
X143423096Y-117587162D01*
X143316933Y-117444561D01*
X143244114Y-117383458D01*
X143180748Y-117330287D01*
X143021873Y-117250497D01*
X142848892Y-117209500D01*
X142848890Y-117209500D01*
X142715708Y-117209500D01*
X142712142Y-117209916D01*
X142712138Y-117209917D01*
X142583420Y-117224962D01*
X142416366Y-117285765D01*
X142267830Y-117383458D01*
X142145833Y-117512768D01*
X142056943Y-117666730D01*
X142042469Y-117715078D01*
X142025330Y-117772327D01*
X142005955Y-117837043D01*
X141995617Y-118014519D01*
X134259309Y-118014519D01*
X134246092Y-118005688D01*
X134246087Y-118005685D01*
X134242718Y-118003434D01*
X134239082Y-118001641D01*
X134239077Y-118001638D01*
X133975894Y-117871851D01*
X133975893Y-117871850D01*
X133972252Y-117870055D01*
X133686691Y-117773120D01*
X133682714Y-117772329D01*
X133682707Y-117772327D01*
X133394899Y-117715078D01*
X133394891Y-117715077D01*
X133390920Y-117714287D01*
X133090000Y-117694564D01*
X133085957Y-117694829D01*
X132793122Y-117714022D01*
X132793120Y-117714022D01*
X132789080Y-117714287D01*
X132785110Y-117715076D01*
X132785100Y-117715078D01*
X132497292Y-117772327D01*
X132497281Y-117772329D01*
X132493309Y-117773120D01*
X132489466Y-117774424D01*
X132489464Y-117774425D01*
X132211594Y-117868749D01*
X132211587Y-117868751D01*
X132207748Y-117870055D01*
X132204111Y-117871848D01*
X132204105Y-117871851D01*
X131940922Y-118001638D01*
X131940910Y-118001644D01*
X131937282Y-118003434D01*
X131933919Y-118005681D01*
X131933907Y-118005688D01*
X131689920Y-118168715D01*
X131689911Y-118168721D01*
X131686539Y-118170975D01*
X131683488Y-118173650D01*
X131683481Y-118173656D01*
X131462859Y-118367137D01*
X131462851Y-118367144D01*
X131459811Y-118369811D01*
X131457144Y-118372851D01*
X131457137Y-118372859D01*
X131263656Y-118593481D01*
X131263650Y-118593488D01*
X131260975Y-118596539D01*
X131258721Y-118599911D01*
X131258715Y-118599920D01*
X131095688Y-118843907D01*
X131095681Y-118843919D01*
X131093434Y-118847282D01*
X131091644Y-118850910D01*
X131091638Y-118850922D01*
X130961851Y-119114105D01*
X130961848Y-119114111D01*
X130960055Y-119117748D01*
X130958751Y-119121587D01*
X130958749Y-119121594D01*
X130864425Y-119399464D01*
X130863120Y-119403309D01*
X130862329Y-119407281D01*
X130862327Y-119407292D01*
X130805078Y-119695100D01*
X130805076Y-119695110D01*
X130804287Y-119699080D01*
X130804022Y-119703120D01*
X130804022Y-119703122D01*
X130784828Y-119995956D01*
X130784828Y-119995972D01*
X130784564Y-120000000D01*
X127200500Y-120000000D01*
X127200500Y-116217156D01*
X136987065Y-116217156D01*
X137005370Y-116379618D01*
X137059366Y-116533929D01*
X137059368Y-116533932D01*
X137146349Y-116672361D01*
X137261953Y-116787965D01*
X137400382Y-116874946D01*
X137510451Y-116913461D01*
X137567227Y-116954182D01*
X137586537Y-116989546D01*
X137625053Y-117099615D01*
X137625054Y-117099618D01*
X137712035Y-117238047D01*
X137827639Y-117353651D01*
X137966068Y-117440632D01*
X137966070Y-117440633D01*
X138120381Y-117494629D01*
X138282842Y-117512934D01*
X138282842Y-117512933D01*
X138282843Y-117512934D01*
X138445304Y-117494629D01*
X138599618Y-117440632D01*
X138738047Y-117353651D01*
X138853651Y-117238047D01*
X138940632Y-117099618D01*
X138994629Y-116945304D01*
X139012934Y-116782843D01*
X139004580Y-116708694D01*
X138994629Y-116620381D01*
X138940633Y-116466070D01*
X138922368Y-116437001D01*
X138853651Y-116327639D01*
X138738047Y-116212035D01*
X138599618Y-116125054D01*
X138599617Y-116125053D01*
X138599616Y-116125053D01*
X138489546Y-116086537D01*
X138432771Y-116045815D01*
X138413461Y-116010453D01*
X138374946Y-115900382D01*
X138287965Y-115761953D01*
X138172361Y-115646349D01*
X138033932Y-115559368D01*
X138033929Y-115559366D01*
X137879618Y-115505370D01*
X137717157Y-115487065D01*
X137554695Y-115505370D01*
X137400384Y-115559366D01*
X137261951Y-115646350D01*
X137146350Y-115761951D01*
X137059366Y-115900384D01*
X137005370Y-116054695D01*
X136987065Y-116217156D01*
X127200500Y-116217156D01*
X127200500Y-114015501D01*
X138348043Y-114015501D01*
X138366348Y-114177963D01*
X138420344Y-114332274D01*
X138431240Y-114349615D01*
X138507327Y-114470706D01*
X138622931Y-114586310D01*
X138761360Y-114673291D01*
X138871429Y-114711806D01*
X138928205Y-114752527D01*
X138947515Y-114787891D01*
X138986031Y-114897960D01*
X138986032Y-114897963D01*
X139073013Y-115036392D01*
X139188617Y-115151996D01*
X139327046Y-115238977D01*
X139327048Y-115238978D01*
X139481359Y-115292974D01*
X139643821Y-115311279D01*
X139806282Y-115292974D01*
X139960596Y-115238977D01*
X140099025Y-115151996D01*
X140214629Y-115036392D01*
X140301610Y-114897963D01*
X140355607Y-114743649D01*
X140373912Y-114581188D01*
X140355607Y-114418727D01*
X140348397Y-114398123D01*
X140301611Y-114264415D01*
X140295498Y-114254686D01*
X140214629Y-114125984D01*
X140121488Y-114032843D01*
X140737065Y-114032843D01*
X140755370Y-114195304D01*
X140809366Y-114349615D01*
X140809368Y-114349618D01*
X140896349Y-114488047D01*
X141011953Y-114603651D01*
X141150382Y-114690632D01*
X141150384Y-114690633D01*
X141304695Y-114744629D01*
X141467157Y-114762934D01*
X141629618Y-114744629D01*
X141783932Y-114690632D01*
X141922361Y-114603651D01*
X142037965Y-114488047D01*
X142124946Y-114349618D01*
X142163462Y-114239544D01*
X142204182Y-114182772D01*
X142239541Y-114163463D01*
X142349618Y-114124946D01*
X142488047Y-114037965D01*
X142603651Y-113922361D01*
X142690632Y-113783932D01*
X142744629Y-113629618D01*
X142748484Y-113595405D01*
X142757865Y-113512148D01*
X142784932Y-113447734D01*
X142815106Y-113421043D01*
X142922361Y-113353651D01*
X143037965Y-113238047D01*
X143124946Y-113099618D01*
X143163462Y-112989544D01*
X143204182Y-112932772D01*
X143239541Y-112913463D01*
X143349618Y-112874946D01*
X143488047Y-112787965D01*
X143603651Y-112672361D01*
X143690632Y-112533932D01*
X143744629Y-112379618D01*
X143762934Y-112217157D01*
X143754878Y-112145659D01*
X143744629Y-112054695D01*
X143690633Y-111900384D01*
X143690484Y-111900147D01*
X143603651Y-111761953D01*
X143488047Y-111646349D01*
X143349618Y-111559368D01*
X143349615Y-111559366D01*
X143195304Y-111505370D01*
X143032842Y-111487065D01*
X142870381Y-111505370D01*
X142716070Y-111559366D01*
X142577637Y-111646350D01*
X142462036Y-111761951D01*
X142375052Y-111900384D01*
X142336538Y-112010452D01*
X142295817Y-112067228D01*
X142260452Y-112086538D01*
X142150384Y-112125052D01*
X142011951Y-112212036D01*
X141896350Y-112327637D01*
X141809366Y-112466070D01*
X141755370Y-112620381D01*
X141742135Y-112737850D01*
X141715068Y-112802264D01*
X141684888Y-112828959D01*
X141577638Y-112896349D01*
X141462036Y-113011951D01*
X141375052Y-113150384D01*
X141336538Y-113260452D01*
X141295817Y-113317228D01*
X141260452Y-113336538D01*
X141150384Y-113375052D01*
X141011951Y-113462036D01*
X140896350Y-113577637D01*
X140809366Y-113716070D01*
X140755370Y-113870381D01*
X140737065Y-114032843D01*
X140121488Y-114032843D01*
X140099025Y-114010380D01*
X139960596Y-113923399D01*
X139960595Y-113923398D01*
X139960594Y-113923398D01*
X139850524Y-113884882D01*
X139793749Y-113844160D01*
X139774439Y-113808798D01*
X139735924Y-113698727D01*
X139648943Y-113560298D01*
X139533339Y-113444694D01*
X139394910Y-113357713D01*
X139394907Y-113357711D01*
X139240596Y-113303715D01*
X139078135Y-113285410D01*
X138915673Y-113303715D01*
X138761362Y-113357711D01*
X138622929Y-113444695D01*
X138507328Y-113560296D01*
X138420344Y-113698729D01*
X138366348Y-113853040D01*
X138348043Y-114015501D01*
X127200500Y-114015501D01*
X127200500Y-110789999D01*
X131644340Y-110789999D01*
X131664936Y-111025407D01*
X131698360Y-111150146D01*
X131726097Y-111253663D01*
X131825965Y-111467830D01*
X131961505Y-111661401D01*
X132128599Y-111828495D01*
X132322170Y-111964035D01*
X132536337Y-112063903D01*
X132764592Y-112125063D01*
X133000000Y-112145659D01*
X133235408Y-112125063D01*
X133463663Y-112063903D01*
X133677830Y-111964035D01*
X133871401Y-111828495D01*
X134038495Y-111661401D01*
X134174035Y-111467830D01*
X134273903Y-111253663D01*
X134335063Y-111025408D01*
X134355659Y-110790000D01*
X134335063Y-110554592D01*
X134273903Y-110326337D01*
X134174035Y-110112171D01*
X134038495Y-109918599D01*
X133916569Y-109796673D01*
X133883084Y-109735350D01*
X133888068Y-109665658D01*
X133929940Y-109609725D01*
X133960915Y-109592810D01*
X134092331Y-109543796D01*
X134207546Y-109457546D01*
X134293796Y-109342331D01*
X134344091Y-109207483D01*
X134350500Y-109147873D01*
X134350500Y-108682654D01*
X136948323Y-108682654D01*
X136966628Y-108845115D01*
X137020624Y-108999426D01*
X137029188Y-109013055D01*
X137107607Y-109137858D01*
X137223211Y-109253462D01*
X137361640Y-109340443D01*
X137471709Y-109378958D01*
X137528485Y-109419679D01*
X137547795Y-109455043D01*
X137578852Y-109543796D01*
X137586312Y-109565115D01*
X137673293Y-109703544D01*
X137788897Y-109819148D01*
X137927326Y-109906129D01*
X137927328Y-109906130D01*
X138081639Y-109960126D01*
X138244100Y-109978431D01*
X138244100Y-109978430D01*
X138244101Y-109978431D01*
X138406562Y-109960126D01*
X138560876Y-109906129D01*
X138699305Y-109819148D01*
X138814909Y-109703544D01*
X138901890Y-109565115D01*
X138955887Y-109410801D01*
X138974192Y-109248340D01*
X138973900Y-109245743D01*
X138955887Y-109085878D01*
X138901891Y-108931567D01*
X138896107Y-108922362D01*
X138814909Y-108793136D01*
X138699305Y-108677532D01*
X138560876Y-108590551D01*
X138560875Y-108590550D01*
X138560874Y-108590550D01*
X138450804Y-108552034D01*
X138394029Y-108511312D01*
X138374719Y-108475950D01*
X138336204Y-108365879D01*
X138249223Y-108227450D01*
X138133619Y-108111846D01*
X137995190Y-108024865D01*
X137995187Y-108024863D01*
X137840876Y-107970867D01*
X137678415Y-107952562D01*
X137515953Y-107970867D01*
X137361642Y-108024863D01*
X137223209Y-108111847D01*
X137107608Y-108227448D01*
X137020624Y-108365881D01*
X136966628Y-108520192D01*
X136948323Y-108682654D01*
X134350500Y-108682654D01*
X134350499Y-107352128D01*
X134344091Y-107292517D01*
X134293796Y-107157669D01*
X134207546Y-107042454D01*
X134092331Y-106956204D01*
X133957483Y-106905909D01*
X133897873Y-106899500D01*
X133894550Y-106899500D01*
X132105439Y-106899500D01*
X132105420Y-106899500D01*
X132102128Y-106899501D01*
X132098848Y-106899853D01*
X132098840Y-106899854D01*
X132042515Y-106905909D01*
X131907669Y-106956204D01*
X131792454Y-107042454D01*
X131706204Y-107157668D01*
X131655910Y-107292515D01*
X131655909Y-107292517D01*
X131649500Y-107352127D01*
X131649500Y-107355448D01*
X131649500Y-107355449D01*
X131649500Y-109144560D01*
X131649500Y-109144578D01*
X131649501Y-109147872D01*
X131649853Y-109151152D01*
X131649854Y-109151159D01*
X131655909Y-109207484D01*
X131661542Y-109222586D01*
X131706204Y-109342331D01*
X131792454Y-109457546D01*
X131907669Y-109543796D01*
X132019907Y-109585658D01*
X132039082Y-109592810D01*
X132095016Y-109634681D01*
X132119433Y-109700146D01*
X132104581Y-109768419D01*
X132083431Y-109796673D01*
X131961503Y-109918601D01*
X131825965Y-110112170D01*
X131726097Y-110326336D01*
X131664936Y-110554592D01*
X131644340Y-110789999D01*
X127200500Y-110789999D01*
X127200500Y-106032843D01*
X138237065Y-106032843D01*
X138255370Y-106195304D01*
X138309366Y-106349615D01*
X138309368Y-106349618D01*
X138396349Y-106488047D01*
X138511953Y-106603651D01*
X138650382Y-106690632D01*
X138650384Y-106690633D01*
X138804695Y-106744629D01*
X138967157Y-106762934D01*
X139129618Y-106744629D01*
X139283932Y-106690632D01*
X139422361Y-106603651D01*
X139537965Y-106488047D01*
X139624946Y-106349618D01*
X139663462Y-106239544D01*
X139704182Y-106182772D01*
X139739541Y-106163463D01*
X139849618Y-106124946D01*
X139988047Y-106037965D01*
X140103651Y-105922361D01*
X140190632Y-105783932D01*
X140244629Y-105629618D01*
X140262934Y-105467157D01*
X140259201Y-105434026D01*
X140244629Y-105304695D01*
X140190633Y-105150384D01*
X140189213Y-105148124D01*
X140103651Y-105011953D01*
X139988047Y-104896349D01*
X139849618Y-104809368D01*
X139849615Y-104809366D01*
X139695304Y-104755370D01*
X139532843Y-104737065D01*
X139370381Y-104755370D01*
X139216070Y-104809366D01*
X139077637Y-104896350D01*
X138962036Y-105011951D01*
X138875052Y-105150384D01*
X138836538Y-105260452D01*
X138795817Y-105317228D01*
X138760452Y-105336538D01*
X138650384Y-105375052D01*
X138511951Y-105462036D01*
X138396350Y-105577637D01*
X138309366Y-105716070D01*
X138255370Y-105870381D01*
X138237065Y-106032843D01*
X127200500Y-106032843D01*
X127200500Y-99000000D01*
X130784564Y-99000000D01*
X130784828Y-99004027D01*
X130784828Y-99004043D01*
X130791167Y-99100748D01*
X130804287Y-99300920D01*
X130805077Y-99304891D01*
X130805078Y-99304899D01*
X130862327Y-99592707D01*
X130862329Y-99592714D01*
X130863120Y-99596691D01*
X130960055Y-99882252D01*
X130961850Y-99885893D01*
X130961851Y-99885894D01*
X131086290Y-100138233D01*
X131093434Y-100152718D01*
X131095685Y-100156087D01*
X131095688Y-100156092D01*
X131258715Y-100400079D01*
X131260975Y-100403461D01*
X131459811Y-100630189D01*
X131686539Y-100829025D01*
X131689921Y-100831284D01*
X131689920Y-100831284D01*
X131920690Y-100985480D01*
X131937282Y-100996566D01*
X132207748Y-101129945D01*
X132493309Y-101226880D01*
X132789080Y-101285713D01*
X133090000Y-101305436D01*
X133390920Y-101285713D01*
X133686691Y-101226880D01*
X133972252Y-101129945D01*
X134242718Y-100996566D01*
X134493461Y-100829025D01*
X134720189Y-100630189D01*
X134919025Y-100403461D01*
X135086566Y-100152718D01*
X135219945Y-99882252D01*
X135316880Y-99596691D01*
X135336113Y-99500000D01*
X140049785Y-99500000D01*
X140068602Y-99703083D01*
X140124418Y-99899251D01*
X140215324Y-100081818D01*
X140338236Y-100244580D01*
X140488958Y-100381981D01*
X140618790Y-100462369D01*
X140662363Y-100489348D01*
X140852544Y-100563024D01*
X141053024Y-100600500D01*
X141053026Y-100600500D01*
X141256974Y-100600500D01*
X141256976Y-100600500D01*
X141457456Y-100563024D01*
X141647637Y-100489348D01*
X141821041Y-100381981D01*
X141899455Y-100310497D01*
X141971763Y-100244580D01*
X141986111Y-100225580D01*
X142094673Y-100081821D01*
X142094673Y-100081819D01*
X142094675Y-100081818D01*
X142158978Y-99952678D01*
X142185582Y-99899250D01*
X142241397Y-99703083D01*
X142260215Y-99500000D01*
X142241397Y-99296917D01*
X142185582Y-99100750D01*
X142135415Y-99000000D01*
X142094675Y-98918181D01*
X141971763Y-98755419D01*
X141821041Y-98618018D01*
X141647638Y-98510652D01*
X141457457Y-98436976D01*
X141390629Y-98424484D01*
X141256976Y-98399500D01*
X141053024Y-98399500D01*
X140952783Y-98418238D01*
X140852542Y-98436976D01*
X140662361Y-98510652D01*
X140488958Y-98618018D01*
X140338236Y-98755419D01*
X140215324Y-98918181D01*
X140124418Y-99100748D01*
X140068602Y-99296916D01*
X140049785Y-99500000D01*
X135336113Y-99500000D01*
X135375713Y-99300920D01*
X135395436Y-99000000D01*
X135375713Y-98699080D01*
X135316880Y-98403309D01*
X135219945Y-98117748D01*
X135086566Y-97847282D01*
X134919025Y-97596539D01*
X134720189Y-97369811D01*
X134493461Y-97170975D01*
X134490079Y-97168715D01*
X134246092Y-97005688D01*
X134246087Y-97005685D01*
X134242718Y-97003434D01*
X134239082Y-97001641D01*
X134239077Y-97001638D01*
X133975894Y-96871851D01*
X133975893Y-96871850D01*
X133972252Y-96870055D01*
X133686691Y-96773120D01*
X133682714Y-96772329D01*
X133682707Y-96772327D01*
X133394899Y-96715078D01*
X133394891Y-96715077D01*
X133390920Y-96714287D01*
X133090000Y-96694564D01*
X133085957Y-96694829D01*
X132793122Y-96714022D01*
X132793120Y-96714022D01*
X132789080Y-96714287D01*
X132785110Y-96715076D01*
X132785100Y-96715078D01*
X132497292Y-96772327D01*
X132497281Y-96772329D01*
X132493309Y-96773120D01*
X132489466Y-96774424D01*
X132489464Y-96774425D01*
X132211594Y-96868749D01*
X132211587Y-96868751D01*
X132207748Y-96870055D01*
X132204111Y-96871848D01*
X132204105Y-96871851D01*
X131940922Y-97001638D01*
X131940910Y-97001644D01*
X131937282Y-97003434D01*
X131933919Y-97005681D01*
X131933907Y-97005688D01*
X131689920Y-97168715D01*
X131689911Y-97168721D01*
X131686539Y-97170975D01*
X131683488Y-97173650D01*
X131683481Y-97173656D01*
X131462859Y-97367137D01*
X131462851Y-97367144D01*
X131459811Y-97369811D01*
X131457144Y-97372851D01*
X131457137Y-97372859D01*
X131263656Y-97593481D01*
X131263650Y-97593488D01*
X131260975Y-97596539D01*
X131258721Y-97599911D01*
X131258715Y-97599920D01*
X131095688Y-97843907D01*
X131095681Y-97843919D01*
X131093434Y-97847282D01*
X131091644Y-97850910D01*
X131091638Y-97850922D01*
X130961851Y-98114105D01*
X130961848Y-98114111D01*
X130960055Y-98117748D01*
X130958751Y-98121587D01*
X130958749Y-98121594D01*
X130924468Y-98222584D01*
X130863120Y-98403309D01*
X130862329Y-98407281D01*
X130862327Y-98407292D01*
X130805078Y-98695100D01*
X130805076Y-98695110D01*
X130804287Y-98699080D01*
X130804022Y-98703120D01*
X130804022Y-98703122D01*
X130784828Y-98995956D01*
X130784828Y-98995972D01*
X130784564Y-99000000D01*
X127200500Y-99000000D01*
X127200500Y-92324500D01*
X127220185Y-92257461D01*
X127272989Y-92211706D01*
X127324500Y-92200500D01*
X145228344Y-92200500D01*
X145295383Y-92220185D01*
G37*
%TD.AperFunction*%
%TA.AperFunction,Conductor*%
G36*
X156065972Y-115646948D02*
G01*
X156083224Y-115657789D01*
X156083225Y-115657789D01*
X156237538Y-115711786D01*
X156334942Y-115722761D01*
X156399356Y-115749828D01*
X156438099Y-115805024D01*
X156442210Y-115816774D01*
X156485701Y-115885989D01*
X156529192Y-115955204D01*
X156644796Y-116070808D01*
X156783225Y-116157789D01*
X156783227Y-116157790D01*
X156937538Y-116211786D01*
X157099999Y-116230091D01*
X157099999Y-116230090D01*
X157100000Y-116230091D01*
X157191767Y-116219751D01*
X157260588Y-116231805D01*
X157311968Y-116279153D01*
X157329593Y-116346764D01*
X157307867Y-116413170D01*
X157293332Y-116430652D01*
X155225476Y-118498508D01*
X155213284Y-118509201D01*
X155189548Y-118527414D01*
X155166390Y-118557595D01*
X155166387Y-118557599D01*
X155097019Y-118647999D01*
X155095743Y-118651392D01*
X155039312Y-118787629D01*
X155024499Y-118900147D01*
X155024499Y-118900153D01*
X155019533Y-118937866D01*
X155023438Y-118967520D01*
X155024499Y-118983706D01*
X155024499Y-125222289D01*
X155004814Y-125289328D01*
X154952010Y-125335083D01*
X154941458Y-125339329D01*
X154933225Y-125342209D01*
X154794795Y-125429192D01*
X154679193Y-125544794D01*
X154592209Y-125683227D01*
X154538213Y-125837538D01*
X154519908Y-126000000D01*
X154538213Y-126162461D01*
X154592209Y-126316772D01*
X154679193Y-126455205D01*
X154804675Y-126580687D01*
X154803956Y-126581405D01*
X154840608Y-126622843D01*
X154851255Y-126691897D01*
X154822879Y-126755745D01*
X154764488Y-126794115D01*
X154728344Y-126799500D01*
X151271656Y-126799500D01*
X151204617Y-126779815D01*
X151158862Y-126727011D01*
X151148918Y-126657853D01*
X151177943Y-126594297D01*
X151204431Y-126571580D01*
X151205201Y-126570809D01*
X151205204Y-126570808D01*
X151320808Y-126455204D01*
X151407789Y-126316775D01*
X151461786Y-126162461D01*
X151480091Y-126000000D01*
X151461786Y-125837539D01*
X151407789Y-125683225D01*
X151320808Y-125544796D01*
X151205204Y-125429192D01*
X151184028Y-125415886D01*
X151066774Y-125342209D01*
X151058542Y-125339329D01*
X151001768Y-125298605D01*
X150976023Y-125233652D01*
X150975501Y-125222289D01*
X150975501Y-118101874D01*
X150995186Y-118034835D01*
X151011815Y-118014198D01*
X153242365Y-115783647D01*
X153303686Y-115750164D01*
X153373378Y-115755148D01*
X153429311Y-115797020D01*
X153435038Y-115805358D01*
X153442210Y-115816772D01*
X153442211Y-115816775D01*
X153529192Y-115955204D01*
X153644796Y-116070808D01*
X153783225Y-116157789D01*
X153783227Y-116157790D01*
X153937538Y-116211786D01*
X154100000Y-116230091D01*
X154262461Y-116211786D01*
X154416775Y-116157789D01*
X154434027Y-116146948D01*
X154501262Y-116127947D01*
X154565972Y-116146948D01*
X154583224Y-116157789D01*
X154583225Y-116157789D01*
X154737538Y-116211786D01*
X154900000Y-116230091D01*
X155062461Y-116211786D01*
X155216775Y-116157789D01*
X155355204Y-116070808D01*
X155470808Y-115955204D01*
X155557789Y-115816775D01*
X155561899Y-115805027D01*
X155602619Y-115748252D01*
X155665057Y-115722761D01*
X155762461Y-115711786D01*
X155775601Y-115707188D01*
X155916775Y-115657789D01*
X155934027Y-115646948D01*
X156001262Y-115627947D01*
X156065972Y-115646948D01*
G37*
%TD.AperFunction*%
%TA.AperFunction,Conductor*%
G36*
X152795383Y-92220185D02*
G01*
X152841138Y-92272989D01*
X152851082Y-92342147D01*
X152822057Y-92405703D01*
X152795568Y-92428419D01*
X152679193Y-92544794D01*
X152592209Y-92683227D01*
X152538213Y-92837538D01*
X152519908Y-93000000D01*
X152538213Y-93162461D01*
X152592209Y-93316772D01*
X152592211Y-93316775D01*
X152679192Y-93455204D01*
X152794796Y-93570808D01*
X152933225Y-93657789D01*
X152941452Y-93660668D01*
X152998227Y-93701386D01*
X153023977Y-93766338D01*
X153024499Y-93777709D01*
X153024499Y-100898124D01*
X153004814Y-100965163D01*
X152988180Y-100985805D01*
X150757636Y-103216348D01*
X150696313Y-103249833D01*
X150626621Y-103244849D01*
X150570688Y-103202977D01*
X150564962Y-103194639D01*
X150470808Y-103044796D01*
X150355205Y-102929193D01*
X150355204Y-102929192D01*
X150234030Y-102853053D01*
X150216772Y-102842209D01*
X150062461Y-102788213D01*
X149900000Y-102769908D01*
X149737538Y-102788213D01*
X149583226Y-102842210D01*
X149565969Y-102853053D01*
X149498732Y-102872051D01*
X149434031Y-102853053D01*
X149416773Y-102842210D01*
X149262461Y-102788213D01*
X149100000Y-102769908D01*
X148937538Y-102788213D01*
X148783227Y-102842209D01*
X148644794Y-102929193D01*
X148529193Y-103044794D01*
X148442209Y-103183228D01*
X148438678Y-103193319D01*
X148397955Y-103250094D01*
X148335522Y-103275581D01*
X148237539Y-103286621D01*
X148083226Y-103340618D01*
X148065969Y-103351461D01*
X147998732Y-103370459D01*
X147934031Y-103351461D01*
X147916773Y-103340618D01*
X147762461Y-103286621D01*
X147665057Y-103275647D01*
X147600643Y-103248581D01*
X147561899Y-103193380D01*
X147561878Y-103193319D01*
X147557789Y-103181633D01*
X147470808Y-103043204D01*
X147355204Y-102927600D01*
X147219307Y-102842210D01*
X147216772Y-102840617D01*
X147062461Y-102786621D01*
X147027974Y-102782736D01*
X146963560Y-102755669D01*
X146924005Y-102698075D01*
X146921868Y-102628238D01*
X146954175Y-102571837D01*
X148774529Y-100751483D01*
X148786707Y-100740803D01*
X148810452Y-100722584D01*
X148821111Y-100708693D01*
X148833611Y-100692402D01*
X148833613Y-100692401D01*
X148902699Y-100602366D01*
X148960688Y-100462369D01*
X148968443Y-100403461D01*
X148975501Y-100349853D01*
X148975501Y-100349847D01*
X148980466Y-100312133D01*
X148976561Y-100282477D01*
X148975501Y-100266293D01*
X148975501Y-93777709D01*
X148995186Y-93710670D01*
X149047990Y-93664915D01*
X149058530Y-93660673D01*
X149066775Y-93657789D01*
X149205204Y-93570808D01*
X149320808Y-93455204D01*
X149407789Y-93316775D01*
X149461786Y-93162461D01*
X149480091Y-93000000D01*
X149461786Y-92837539D01*
X149407789Y-92683225D01*
X149320808Y-92544796D01*
X149205204Y-92429192D01*
X149195325Y-92419313D01*
X149196043Y-92418594D01*
X149159392Y-92377157D01*
X149148745Y-92308103D01*
X149177121Y-92244255D01*
X149235512Y-92205885D01*
X149271656Y-92200500D01*
X152728344Y-92200500D01*
X152795383Y-92220185D01*
G37*
%TD.AperFunction*%
%TA.AperFunction,Conductor*%
G36*
X176742539Y-92220185D02*
G01*
X176788294Y-92272989D01*
X176799500Y-92324500D01*
X176799500Y-126675500D01*
X176779815Y-126742539D01*
X176727011Y-126788294D01*
X176675500Y-126799500D01*
X158771656Y-126799500D01*
X158704617Y-126779815D01*
X158658862Y-126727011D01*
X158648918Y-126657853D01*
X158677943Y-126594297D01*
X158704431Y-126571580D01*
X158705201Y-126570809D01*
X158705204Y-126570808D01*
X158820808Y-126455204D01*
X158907789Y-126316775D01*
X158961786Y-126162461D01*
X158980091Y-126000000D01*
X158961786Y-125837539D01*
X158907789Y-125683225D01*
X158820808Y-125544796D01*
X158705204Y-125429192D01*
X158566775Y-125342211D01*
X158566772Y-125342209D01*
X158558541Y-125339329D01*
X158501767Y-125298605D01*
X158476022Y-125233652D01*
X158475500Y-125222289D01*
X158475500Y-119499999D01*
X161739785Y-119499999D01*
X161758602Y-119703083D01*
X161814418Y-119899251D01*
X161905324Y-120081818D01*
X162028236Y-120244580D01*
X162178958Y-120381981D01*
X162352361Y-120489347D01*
X162352363Y-120489348D01*
X162542544Y-120563024D01*
X162743024Y-120600500D01*
X162743026Y-120600500D01*
X162946974Y-120600500D01*
X162946976Y-120600500D01*
X163147456Y-120563024D01*
X163337637Y-120489348D01*
X163511041Y-120381981D01*
X163661764Y-120244579D01*
X163784673Y-120081821D01*
X163784673Y-120081819D01*
X163784675Y-120081818D01*
X163825414Y-120000000D01*
X168604564Y-120000000D01*
X168624287Y-120300920D01*
X168625077Y-120304891D01*
X168625078Y-120304899D01*
X168682327Y-120592707D01*
X168682329Y-120592714D01*
X168683120Y-120596691D01*
X168780055Y-120882252D01*
X168781850Y-120885893D01*
X168781851Y-120885894D01*
X168910293Y-121146350D01*
X168913434Y-121152718D01*
X169080975Y-121403461D01*
X169279811Y-121630189D01*
X169506539Y-121829025D01*
X169757282Y-121996566D01*
X170027748Y-122129945D01*
X170313309Y-122226880D01*
X170609080Y-122285713D01*
X170910000Y-122305436D01*
X171210920Y-122285713D01*
X171506691Y-122226880D01*
X171792252Y-122129945D01*
X172062718Y-121996566D01*
X172313461Y-121829025D01*
X172540189Y-121630189D01*
X172739025Y-121403461D01*
X172906566Y-121152718D01*
X173039945Y-120882252D01*
X173136880Y-120596691D01*
X173195713Y-120300920D01*
X173215436Y-120000000D01*
X173195713Y-119699080D01*
X173136880Y-119403309D01*
X173039945Y-119117748D01*
X172906566Y-118847282D01*
X172845186Y-118755421D01*
X172801140Y-118689501D01*
X172739025Y-118596539D01*
X172540189Y-118369811D01*
X172313461Y-118170975D01*
X172282299Y-118150153D01*
X172066092Y-118005688D01*
X172066087Y-118005685D01*
X172062718Y-118003434D01*
X172059082Y-118001641D01*
X172059077Y-118001638D01*
X171795894Y-117871851D01*
X171795893Y-117871850D01*
X171792252Y-117870055D01*
X171506691Y-117773120D01*
X171502714Y-117772329D01*
X171502707Y-117772327D01*
X171214899Y-117715078D01*
X171214891Y-117715077D01*
X171210920Y-117714287D01*
X170910000Y-117694564D01*
X170905957Y-117694829D01*
X170613122Y-117714022D01*
X170613120Y-117714022D01*
X170609080Y-117714287D01*
X170605110Y-117715076D01*
X170605100Y-117715078D01*
X170317292Y-117772327D01*
X170317281Y-117772329D01*
X170313309Y-117773120D01*
X170309466Y-117774424D01*
X170309464Y-117774425D01*
X170031594Y-117868749D01*
X170031587Y-117868751D01*
X170027748Y-117870055D01*
X170024111Y-117871848D01*
X170024105Y-117871851D01*
X169760922Y-118001638D01*
X169760910Y-118001644D01*
X169757282Y-118003434D01*
X169753919Y-118005681D01*
X169753907Y-118005688D01*
X169509920Y-118168715D01*
X169509911Y-118168721D01*
X169506539Y-118170975D01*
X169503488Y-118173650D01*
X169503481Y-118173656D01*
X169282859Y-118367137D01*
X169282851Y-118367144D01*
X169279811Y-118369811D01*
X169277144Y-118372851D01*
X169277137Y-118372859D01*
X169083656Y-118593481D01*
X169083650Y-118593488D01*
X169080975Y-118596539D01*
X169078721Y-118599911D01*
X169078715Y-118599920D01*
X168915688Y-118843907D01*
X168915681Y-118843919D01*
X168913434Y-118847282D01*
X168911644Y-118850910D01*
X168911638Y-118850922D01*
X168781851Y-119114105D01*
X168781848Y-119114111D01*
X168780055Y-119117748D01*
X168778751Y-119121587D01*
X168778749Y-119121594D01*
X168684425Y-119399464D01*
X168683120Y-119403309D01*
X168682329Y-119407281D01*
X168682327Y-119407292D01*
X168625078Y-119695100D01*
X168625076Y-119695110D01*
X168624287Y-119699080D01*
X168604564Y-120000000D01*
X163825414Y-120000000D01*
X163830313Y-119990161D01*
X163875582Y-119899250D01*
X163931397Y-119703083D01*
X163950215Y-119500000D01*
X163931397Y-119296917D01*
X163927959Y-119284835D01*
X163909200Y-119218904D01*
X163875582Y-119100750D01*
X163875209Y-119100001D01*
X163784675Y-118918181D01*
X163661763Y-118755419D01*
X163511041Y-118618018D01*
X163337638Y-118510652D01*
X163147457Y-118436976D01*
X163080629Y-118424483D01*
X162946976Y-118399500D01*
X162743024Y-118399500D01*
X162642783Y-118418238D01*
X162542542Y-118436976D01*
X162352361Y-118510652D01*
X162178958Y-118618018D01*
X162028236Y-118755419D01*
X161905324Y-118918181D01*
X161814418Y-119100748D01*
X161758602Y-119296916D01*
X161739785Y-119499999D01*
X158475500Y-119499999D01*
X158475500Y-119351875D01*
X158495185Y-119284836D01*
X158511814Y-119264199D01*
X159761494Y-118014519D01*
X160475617Y-118014519D01*
X160491212Y-118102958D01*
X160506489Y-118189599D01*
X160542581Y-118273269D01*
X160576904Y-118352838D01*
X160683067Y-118495439D01*
X160819251Y-118609712D01*
X160819252Y-118609712D01*
X160819254Y-118609714D01*
X160978123Y-118689501D01*
X160978124Y-118689501D01*
X160978126Y-118689502D01*
X161151108Y-118730500D01*
X161151110Y-118730500D01*
X161280694Y-118730500D01*
X161284292Y-118730500D01*
X161416577Y-118715038D01*
X161583635Y-118654234D01*
X161732168Y-118556543D01*
X161854167Y-118427231D01*
X161943057Y-118273269D01*
X161994045Y-118102958D01*
X162004382Y-117925480D01*
X161973511Y-117750401D01*
X161903096Y-117587162D01*
X161796933Y-117444561D01*
X161724114Y-117383458D01*
X161660748Y-117330287D01*
X161501873Y-117250497D01*
X161328892Y-117209500D01*
X161328890Y-117209500D01*
X161195708Y-117209500D01*
X161192142Y-117209916D01*
X161192138Y-117209917D01*
X161063420Y-117224962D01*
X160896366Y-117285765D01*
X160747830Y-117383458D01*
X160625833Y-117512768D01*
X160536943Y-117666730D01*
X160522469Y-117715078D01*
X160505330Y-117772327D01*
X160485955Y-117837043D01*
X160475617Y-118014519D01*
X159761494Y-118014519D01*
X161024528Y-116751484D01*
X161036706Y-116740804D01*
X161060451Y-116722585D01*
X161071110Y-116708694D01*
X161083610Y-116692403D01*
X161083612Y-116692402D01*
X161152698Y-116602367D01*
X161210687Y-116462370D01*
X161222476Y-116372821D01*
X161225500Y-116349854D01*
X161225500Y-116349848D01*
X161230465Y-116312134D01*
X161226560Y-116282478D01*
X161225500Y-116266294D01*
X161225500Y-114500000D01*
X169604340Y-114500000D01*
X169624936Y-114735407D01*
X169653554Y-114842210D01*
X169686097Y-114963663D01*
X169785965Y-115177830D01*
X169921505Y-115371401D01*
X170088599Y-115538495D01*
X170282170Y-115674035D01*
X170496337Y-115773903D01*
X170724592Y-115835063D01*
X170960000Y-115855659D01*
X171195408Y-115835063D01*
X171423663Y-115773903D01*
X171637830Y-115674035D01*
X171831401Y-115538495D01*
X171953717Y-115416178D01*
X172015036Y-115382696D01*
X172084728Y-115387680D01*
X172140662Y-115429551D01*
X172157577Y-115460528D01*
X172206647Y-115592088D01*
X172292811Y-115707188D01*
X172407910Y-115793352D01*
X172542628Y-115843599D01*
X172598867Y-115849645D01*
X172605482Y-115850000D01*
X173250000Y-115850000D01*
X173250000Y-114935501D01*
X173357685Y-114984680D01*
X173464237Y-115000000D01*
X173535763Y-115000000D01*
X173642315Y-114984680D01*
X173750000Y-114935501D01*
X173750000Y-115850000D01*
X174394518Y-115850000D01*
X174401132Y-115849645D01*
X174457371Y-115843599D01*
X174592089Y-115793352D01*
X174707188Y-115707188D01*
X174793352Y-115592089D01*
X174843599Y-115457371D01*
X174849645Y-115401132D01*
X174850000Y-115394518D01*
X174850000Y-114750000D01*
X173933686Y-114750000D01*
X173959493Y-114709844D01*
X174000000Y-114571889D01*
X174000000Y-114428111D01*
X173959493Y-114290156D01*
X173933686Y-114250000D01*
X174850000Y-114250000D01*
X174850000Y-113605481D01*
X174849645Y-113598867D01*
X174843599Y-113542628D01*
X174793352Y-113407910D01*
X174707188Y-113292811D01*
X174592089Y-113206647D01*
X174457371Y-113156400D01*
X174401132Y-113150354D01*
X174394518Y-113150000D01*
X173750000Y-113150000D01*
X173750000Y-114064498D01*
X173642315Y-114015320D01*
X173535763Y-114000000D01*
X173464237Y-114000000D01*
X173357685Y-114015320D01*
X173250000Y-114064498D01*
X173250000Y-113150000D01*
X172605482Y-113150000D01*
X172598867Y-113150354D01*
X172542628Y-113156400D01*
X172407910Y-113206647D01*
X172292811Y-113292811D01*
X172206646Y-113407913D01*
X172157576Y-113539472D01*
X172115705Y-113595405D01*
X172050240Y-113619821D01*
X171981967Y-113604969D01*
X171953714Y-113583818D01*
X171831404Y-113461508D01*
X171831404Y-113461507D01*
X171831401Y-113461505D01*
X171637830Y-113325965D01*
X171423663Y-113226097D01*
X171351074Y-113206647D01*
X171195407Y-113164936D01*
X170959999Y-113144340D01*
X170724592Y-113164936D01*
X170496336Y-113226097D01*
X170282170Y-113325965D01*
X170088598Y-113461505D01*
X169921505Y-113628598D01*
X169785965Y-113822170D01*
X169686097Y-114036336D01*
X169624936Y-114264592D01*
X169604340Y-114500000D01*
X161225500Y-114500000D01*
X161225500Y-110837918D01*
X161245185Y-110770879D01*
X161297989Y-110725124D01*
X161363384Y-110714698D01*
X161500000Y-110730091D01*
X161662461Y-110711786D01*
X161816772Y-110657790D01*
X161816771Y-110657790D01*
X161816775Y-110657789D01*
X161955204Y-110570808D01*
X162070808Y-110455204D01*
X162157789Y-110316775D01*
X162211786Y-110162461D01*
X162230091Y-110000000D01*
X162211786Y-109837539D01*
X162197486Y-109796673D01*
X162157790Y-109683227D01*
X162127286Y-109634681D01*
X162084112Y-109565970D01*
X162065113Y-109498734D01*
X162084114Y-109434027D01*
X162157789Y-109316775D01*
X162211786Y-109162461D01*
X162230091Y-109000000D01*
X162211786Y-108837539D01*
X162202896Y-108812134D01*
X162157790Y-108683227D01*
X162105255Y-108599618D01*
X162070808Y-108544796D01*
X161955204Y-108429192D01*
X161816775Y-108342211D01*
X161816772Y-108342209D01*
X161662461Y-108288213D01*
X161500000Y-108269908D01*
X161337538Y-108288213D01*
X161183227Y-108342209D01*
X161044794Y-108429193D01*
X160929193Y-108544794D01*
X160842209Y-108683227D01*
X160788213Y-108837538D01*
X160769908Y-109000000D01*
X160788213Y-109162461D01*
X160842209Y-109316772D01*
X160842210Y-109316773D01*
X160842211Y-109316775D01*
X160891011Y-109394440D01*
X160915886Y-109434027D01*
X160934886Y-109501263D01*
X160915886Y-109565971D01*
X160873626Y-109633228D01*
X160821292Y-109679519D01*
X160752238Y-109690168D01*
X160688390Y-109661793D01*
X160680951Y-109654937D01*
X158498598Y-107472584D01*
X157026015Y-106000000D01*
X160769908Y-106000000D01*
X160788213Y-106162461D01*
X160842209Y-106316772D01*
X160842211Y-106316775D01*
X160929192Y-106455204D01*
X161044796Y-106570808D01*
X161183225Y-106657789D01*
X161183227Y-106657790D01*
X161337538Y-106711786D01*
X161500000Y-106730091D01*
X161662461Y-106711786D01*
X161816775Y-106657789D01*
X161955204Y-106570808D01*
X162070808Y-106455204D01*
X162157789Y-106316775D01*
X162211786Y-106162461D01*
X162230091Y-106000000D01*
X162215487Y-105870382D01*
X162211786Y-105837538D01*
X162157790Y-105683227D01*
X162084113Y-105565971D01*
X162065113Y-105498734D01*
X162084113Y-105434029D01*
X162157789Y-105316775D01*
X162211786Y-105162461D01*
X162230091Y-105000000D01*
X162211786Y-104837539D01*
X162176628Y-104737065D01*
X162157790Y-104683227D01*
X162118015Y-104619926D01*
X162070808Y-104544796D01*
X161955204Y-104429192D01*
X161816775Y-104342211D01*
X161816772Y-104342209D01*
X161662461Y-104288213D01*
X161500000Y-104269908D01*
X161337538Y-104288213D01*
X161183227Y-104342209D01*
X161044794Y-104429193D01*
X160929193Y-104544794D01*
X160842209Y-104683227D01*
X160788213Y-104837538D01*
X160769908Y-105000000D01*
X160788213Y-105162461D01*
X160842209Y-105316772D01*
X160915886Y-105434028D01*
X160934886Y-105501265D01*
X160915886Y-105565972D01*
X160842209Y-105683227D01*
X160788213Y-105837538D01*
X160769908Y-106000000D01*
X157026015Y-106000000D01*
X156261820Y-105235805D01*
X156228335Y-105174482D01*
X156225501Y-105148124D01*
X156225501Y-104219246D01*
X156245186Y-104152207D01*
X156283527Y-104114253D01*
X156355204Y-104069216D01*
X156470808Y-103953612D01*
X156557789Y-103815183D01*
X156611786Y-103660869D01*
X156630091Y-103498408D01*
X156630091Y-103498407D01*
X156611786Y-103335946D01*
X156557790Y-103181635D01*
X156471808Y-103044796D01*
X156470808Y-103043204D01*
X156355204Y-102927600D01*
X156219307Y-102842210D01*
X156216772Y-102840617D01*
X156062461Y-102786621D01*
X155900000Y-102768316D01*
X155737538Y-102786621D01*
X155583225Y-102840618D01*
X155565965Y-102851463D01*
X155498727Y-102870458D01*
X155434028Y-102851460D01*
X155416772Y-102840617D01*
X155262461Y-102786621D01*
X155099999Y-102768316D01*
X155066372Y-102772105D01*
X154997550Y-102760050D01*
X154946171Y-102712701D01*
X154928547Y-102645091D01*
X154950274Y-102578685D01*
X154964803Y-102561209D01*
X156115824Y-101410188D01*
X156177145Y-101376705D01*
X156246837Y-101381689D01*
X156269470Y-101392875D01*
X156283225Y-101401518D01*
X156283228Y-101401519D01*
X156437538Y-101455515D01*
X156600000Y-101473820D01*
X156762461Y-101455515D01*
X156916775Y-101401518D01*
X156934027Y-101390677D01*
X157001262Y-101371676D01*
X157065972Y-101390677D01*
X157083225Y-101401518D01*
X157237538Y-101455515D01*
X157400000Y-101473820D01*
X157562461Y-101455515D01*
X157716775Y-101401518D01*
X157855204Y-101314537D01*
X157970808Y-101198933D01*
X158048983Y-101074519D01*
X160475617Y-101074519D01*
X160491212Y-101162958D01*
X160506489Y-101249599D01*
X160572021Y-101401518D01*
X160576904Y-101412838D01*
X160683067Y-101555439D01*
X160819251Y-101669712D01*
X160819252Y-101669712D01*
X160819254Y-101669714D01*
X160978123Y-101749501D01*
X160978124Y-101749501D01*
X160978126Y-101749502D01*
X161151108Y-101790500D01*
X161151110Y-101790500D01*
X161280694Y-101790500D01*
X161284292Y-101790500D01*
X161416577Y-101775038D01*
X161583635Y-101714234D01*
X161732168Y-101616543D01*
X161854167Y-101487231D01*
X161943057Y-101333269D01*
X161994045Y-101162958D01*
X162004382Y-100985480D01*
X161973511Y-100810401D01*
X161903096Y-100647162D01*
X161796933Y-100504561D01*
X161724114Y-100443458D01*
X161660748Y-100390287D01*
X161501873Y-100310497D01*
X161328892Y-100269500D01*
X161328890Y-100269500D01*
X161195708Y-100269500D01*
X161192142Y-100269916D01*
X161192138Y-100269917D01*
X161063420Y-100284962D01*
X160896366Y-100345765D01*
X160747830Y-100443458D01*
X160625833Y-100572768D01*
X160536943Y-100726730D01*
X160485955Y-100897043D01*
X160475617Y-101074519D01*
X158048983Y-101074519D01*
X158057789Y-101060504D01*
X158111786Y-100906190D01*
X158130091Y-100743729D01*
X158124308Y-100692401D01*
X158111786Y-100581267D01*
X158057790Y-100426956D01*
X158043027Y-100403461D01*
X157970808Y-100288525D01*
X157855204Y-100172921D01*
X157716775Y-100085940D01*
X157716772Y-100085938D01*
X157562461Y-100031942D01*
X157400000Y-100013637D01*
X157237538Y-100031942D01*
X157083226Y-100085939D01*
X157065969Y-100096782D01*
X156998732Y-100115780D01*
X156934031Y-100096782D01*
X156916773Y-100085939D01*
X156762461Y-100031942D01*
X156586116Y-100012073D01*
X156586637Y-100007447D01*
X156544513Y-100000050D01*
X156493155Y-99952678D01*
X156475501Y-99888909D01*
X156475501Y-99499999D01*
X161739785Y-99499999D01*
X161758602Y-99703083D01*
X161814418Y-99899251D01*
X161905324Y-100081818D01*
X162028236Y-100244580D01*
X162178958Y-100381981D01*
X162308790Y-100462369D01*
X162352363Y-100489348D01*
X162542544Y-100563024D01*
X162743024Y-100600500D01*
X162743026Y-100600500D01*
X162946974Y-100600500D01*
X162946976Y-100600500D01*
X163147456Y-100563024D01*
X163337637Y-100489348D01*
X163511041Y-100381981D01*
X163589455Y-100310497D01*
X163661763Y-100244580D01*
X163676111Y-100225580D01*
X163784673Y-100081821D01*
X163784673Y-100081819D01*
X163784675Y-100081818D01*
X163848978Y-99952678D01*
X163875582Y-99899250D01*
X163931397Y-99703083D01*
X163950215Y-99500000D01*
X163931397Y-99296917D01*
X163875582Y-99100750D01*
X163825415Y-99000000D01*
X168604564Y-99000000D01*
X168624287Y-99300920D01*
X168625077Y-99304891D01*
X168625078Y-99304899D01*
X168682327Y-99592707D01*
X168682329Y-99592714D01*
X168683120Y-99596691D01*
X168780055Y-99882252D01*
X168781850Y-99885893D01*
X168781851Y-99885894D01*
X168906290Y-100138233D01*
X168913434Y-100152718D01*
X168915685Y-100156087D01*
X168915688Y-100156092D01*
X169078715Y-100400079D01*
X169080975Y-100403461D01*
X169279811Y-100630189D01*
X169506539Y-100829025D01*
X169509921Y-100831284D01*
X169509920Y-100831284D01*
X169740690Y-100985480D01*
X169757282Y-100996566D01*
X170027748Y-101129945D01*
X170313309Y-101226880D01*
X170609080Y-101285713D01*
X170910000Y-101305436D01*
X171210920Y-101285713D01*
X171506691Y-101226880D01*
X171792252Y-101129945D01*
X172062718Y-100996566D01*
X172313461Y-100829025D01*
X172540189Y-100630189D01*
X172739025Y-100403461D01*
X172906566Y-100152718D01*
X173039945Y-99882252D01*
X173136880Y-99596691D01*
X173195713Y-99300920D01*
X173215436Y-99000000D01*
X173195713Y-98699080D01*
X173136880Y-98403309D01*
X173039945Y-98117748D01*
X172906566Y-97847282D01*
X172739025Y-97596539D01*
X172540189Y-97369811D01*
X172313461Y-97170975D01*
X172310079Y-97168715D01*
X172066092Y-97005688D01*
X172066087Y-97005685D01*
X172062718Y-97003434D01*
X172059082Y-97001641D01*
X172059077Y-97001638D01*
X171795894Y-96871851D01*
X171795893Y-96871850D01*
X171792252Y-96870055D01*
X171506691Y-96773120D01*
X171502714Y-96772329D01*
X171502707Y-96772327D01*
X171214899Y-96715078D01*
X171214891Y-96715077D01*
X171210920Y-96714287D01*
X170910000Y-96694564D01*
X170905957Y-96694829D01*
X170613122Y-96714022D01*
X170613120Y-96714022D01*
X170609080Y-96714287D01*
X170605110Y-96715076D01*
X170605100Y-96715078D01*
X170317292Y-96772327D01*
X170317281Y-96772329D01*
X170313309Y-96773120D01*
X170309466Y-96774424D01*
X170309464Y-96774425D01*
X170031594Y-96868749D01*
X170031587Y-96868751D01*
X170027748Y-96870055D01*
X170024111Y-96871848D01*
X170024105Y-96871851D01*
X169760922Y-97001638D01*
X169760910Y-97001644D01*
X169757282Y-97003434D01*
X169753919Y-97005681D01*
X169753907Y-97005688D01*
X169509920Y-97168715D01*
X169509911Y-97168721D01*
X169506539Y-97170975D01*
X169503488Y-97173650D01*
X169503481Y-97173656D01*
X169282859Y-97367137D01*
X169282851Y-97367144D01*
X169279811Y-97369811D01*
X169277144Y-97372851D01*
X169277137Y-97372859D01*
X169083656Y-97593481D01*
X169083650Y-97593488D01*
X169080975Y-97596539D01*
X169078721Y-97599911D01*
X169078715Y-97599920D01*
X168915688Y-97843907D01*
X168915681Y-97843919D01*
X168913434Y-97847282D01*
X168911644Y-97850910D01*
X168911638Y-97850922D01*
X168781851Y-98114105D01*
X168781848Y-98114111D01*
X168780055Y-98117748D01*
X168778751Y-98121587D01*
X168778749Y-98121594D01*
X168744468Y-98222584D01*
X168683120Y-98403309D01*
X168682329Y-98407281D01*
X168682327Y-98407292D01*
X168625078Y-98695100D01*
X168625076Y-98695110D01*
X168624287Y-98699080D01*
X168604564Y-99000000D01*
X163825415Y-99000000D01*
X163784675Y-98918181D01*
X163661763Y-98755419D01*
X163511041Y-98618018D01*
X163337638Y-98510652D01*
X163147457Y-98436976D01*
X163080629Y-98424484D01*
X162946976Y-98399500D01*
X162743024Y-98399500D01*
X162642783Y-98418238D01*
X162542542Y-98436976D01*
X162352361Y-98510652D01*
X162178958Y-98618018D01*
X162028236Y-98755419D01*
X161905324Y-98918181D01*
X161814418Y-99100748D01*
X161758602Y-99296916D01*
X161739785Y-99499999D01*
X156475501Y-99499999D01*
X156475501Y-95671059D01*
X156495186Y-95604020D01*
X156547990Y-95558265D01*
X156586594Y-95552140D01*
X156586116Y-95547896D01*
X156762461Y-95528026D01*
X156762461Y-95528025D01*
X156916775Y-95474029D01*
X156934027Y-95463188D01*
X157001262Y-95444187D01*
X157065972Y-95463188D01*
X157083225Y-95474029D01*
X157237538Y-95528026D01*
X157400000Y-95546331D01*
X157562461Y-95528026D01*
X157716775Y-95474029D01*
X157855204Y-95387048D01*
X157970808Y-95271444D01*
X158057789Y-95133015D01*
X158111786Y-94978701D01*
X158130091Y-94816240D01*
X158111786Y-94653779D01*
X158057789Y-94499465D01*
X157970808Y-94361036D01*
X157855204Y-94245432D01*
X157716775Y-94158451D01*
X157716772Y-94158449D01*
X157562461Y-94104453D01*
X157400000Y-94086148D01*
X157237538Y-94104453D01*
X157083226Y-94158450D01*
X157065969Y-94169293D01*
X156998732Y-94188291D01*
X156934031Y-94169293D01*
X156916773Y-94158450D01*
X156762461Y-94104453D01*
X156586116Y-94084584D01*
X156586637Y-94079958D01*
X156544513Y-94072561D01*
X156493155Y-94025189D01*
X156475501Y-93961420D01*
X156475501Y-93777709D01*
X156495186Y-93710670D01*
X156547990Y-93664915D01*
X156558530Y-93660673D01*
X156566775Y-93657789D01*
X156705204Y-93570808D01*
X156820808Y-93455204D01*
X156907789Y-93316775D01*
X156961786Y-93162461D01*
X156980091Y-93000000D01*
X156961786Y-92837539D01*
X156907789Y-92683225D01*
X156820808Y-92544796D01*
X156705204Y-92429192D01*
X156705204Y-92429191D01*
X156695325Y-92419313D01*
X156696043Y-92418594D01*
X156659392Y-92377157D01*
X156648745Y-92308103D01*
X156677121Y-92244255D01*
X156735512Y-92205885D01*
X156771656Y-92200500D01*
X176675500Y-92200500D01*
X176742539Y-92220185D01*
G37*
%TD.AperFunction*%
%TA.AperFunction,Conductor*%
G36*
X149443833Y-118184694D02*
G01*
X149499766Y-118226566D01*
X149524183Y-118292030D01*
X149524499Y-118300876D01*
X149524499Y-125222289D01*
X149504814Y-125289328D01*
X149452010Y-125335083D01*
X149441458Y-125339329D01*
X149433226Y-125342209D01*
X149315972Y-125415886D01*
X149248736Y-125434886D01*
X149184028Y-125415886D01*
X149066773Y-125342209D01*
X149058542Y-125339329D01*
X149001768Y-125298605D01*
X148976023Y-125233652D01*
X148975501Y-125222289D01*
X148975501Y-118601874D01*
X148995186Y-118534835D01*
X149011820Y-118514193D01*
X149233983Y-118292030D01*
X149312819Y-118213194D01*
X149374141Y-118179710D01*
X149443833Y-118184694D01*
G37*
%TD.AperFunction*%
%TA.AperFunction,Conductor*%
G36*
X156943834Y-118934693D02*
G01*
X156999767Y-118976565D01*
X157024184Y-119042029D01*
X157024500Y-119050875D01*
X157024500Y-125222289D01*
X157004815Y-125289328D01*
X156952011Y-125335083D01*
X156941459Y-125339329D01*
X156933227Y-125342209D01*
X156815972Y-125415886D01*
X156748735Y-125434886D01*
X156684028Y-125415886D01*
X156566773Y-125342209D01*
X156558542Y-125339329D01*
X156501768Y-125298605D01*
X156476023Y-125233652D01*
X156475501Y-125222289D01*
X156475501Y-119351874D01*
X156495186Y-119284835D01*
X156511816Y-119264197D01*
X156812819Y-118963193D01*
X156874142Y-118929709D01*
X156943834Y-118934693D01*
G37*
%TD.AperFunction*%
%TA.AperFunction,Conductor*%
G36*
X154180703Y-111457163D02*
G01*
X154187181Y-111463195D01*
X155238181Y-112514195D01*
X155271666Y-112575518D01*
X155274500Y-112601876D01*
X155274500Y-114279160D01*
X155254815Y-114346199D01*
X155216474Y-114384153D01*
X155144794Y-114429193D01*
X155029193Y-114544794D01*
X154942210Y-114683225D01*
X154938099Y-114694976D01*
X154897376Y-114751751D01*
X154834942Y-114777239D01*
X154737538Y-114788213D01*
X154583226Y-114842210D01*
X154565969Y-114853053D01*
X154498732Y-114872051D01*
X154434031Y-114853053D01*
X154416773Y-114842210D01*
X154262461Y-114788213D01*
X154086116Y-114768344D01*
X154086636Y-114763720D01*
X154044488Y-114756309D01*
X153993140Y-114708926D01*
X153975500Y-114645180D01*
X153975500Y-111550876D01*
X153995185Y-111483837D01*
X154047989Y-111438082D01*
X154117147Y-111428138D01*
X154180703Y-111457163D01*
G37*
%TD.AperFunction*%
%TA.AperFunction,Conductor*%
G36*
X152403957Y-111683546D02*
G01*
X152423362Y-111699376D01*
X152488181Y-111764195D01*
X152521666Y-111825518D01*
X152524500Y-111851876D01*
X152524500Y-114398123D01*
X152504815Y-114465162D01*
X152488182Y-114485803D01*
X152437182Y-114536804D01*
X152375859Y-114570290D01*
X152306168Y-114565306D01*
X152250234Y-114523435D01*
X152225816Y-114457971D01*
X152225500Y-114449124D01*
X152225500Y-111983705D01*
X152226561Y-111967519D01*
X152230465Y-111937865D01*
X152225500Y-111900152D01*
X152225500Y-111900147D01*
X152212742Y-111803243D01*
X152223507Y-111734207D01*
X152269887Y-111681951D01*
X152337156Y-111663066D01*
X152403957Y-111683546D01*
G37*
%TD.AperFunction*%
%TA.AperFunction,Conductor*%
G36*
X147315969Y-93584112D02*
G01*
X147433225Y-93657789D01*
X147441452Y-93660668D01*
X147498227Y-93701386D01*
X147523977Y-93766338D01*
X147524499Y-93777709D01*
X147524499Y-99898124D01*
X147504814Y-99965163D01*
X147488180Y-99985805D01*
X144687181Y-102786804D01*
X144625858Y-102820289D01*
X144556166Y-102815305D01*
X144500233Y-102773433D01*
X144475816Y-102707969D01*
X144475500Y-102699123D01*
X144475500Y-100601875D01*
X144495185Y-100534836D01*
X144511814Y-100514199D01*
X146774529Y-98251483D01*
X146786707Y-98240803D01*
X146810452Y-98222584D01*
X146821111Y-98208693D01*
X146833611Y-98192402D01*
X146833613Y-98192401D01*
X146902699Y-98102366D01*
X146960688Y-97962369D01*
X146960688Y-97962368D01*
X146960688Y-97962366D01*
X146961320Y-97960841D01*
X146961749Y-97954307D01*
X146975501Y-97849852D01*
X146975501Y-97849847D01*
X146980466Y-97812132D01*
X146976562Y-97782478D01*
X146975501Y-97766293D01*
X146975501Y-93777709D01*
X146995186Y-93710670D01*
X147047990Y-93664915D01*
X147058530Y-93660673D01*
X147066775Y-93657789D01*
X147184030Y-93584112D01*
X147251264Y-93565113D01*
X147315969Y-93584112D01*
G37*
%TD.AperFunction*%
%TA.AperFunction,Conductor*%
G36*
X154815969Y-93584112D02*
G01*
X154933225Y-93657789D01*
X154941452Y-93660668D01*
X154998227Y-93701386D01*
X155023977Y-93766338D01*
X155024499Y-93777709D01*
X155024499Y-100398125D01*
X155004814Y-100465164D01*
X154988180Y-100485806D01*
X154687182Y-100786804D01*
X154625859Y-100820289D01*
X154556167Y-100815305D01*
X154500234Y-100773433D01*
X154475817Y-100707969D01*
X154475501Y-100699123D01*
X154475501Y-93777709D01*
X154495186Y-93710670D01*
X154547990Y-93664915D01*
X154558530Y-93660673D01*
X154566775Y-93657789D01*
X154684030Y-93584112D01*
X154751264Y-93565113D01*
X154815969Y-93584112D01*
G37*
%TD.AperFunction*%
%TD*%
M02*
