%TF.GenerationSoftware,KiCad,Pcbnew,7.0.2-0*%
%TF.CreationDate,2023-05-03T13:11:08-04:00*%
%TF.ProjectId,szg-c2c-txr4,737a672d-6332-4632-9d74-7872342e6b69,A*%
%TF.SameCoordinates,Original*%
%TF.FileFunction,Legend,Top*%
%TF.FilePolarity,Positive*%
%FSLAX46Y46*%
G04 Gerber Fmt 4.6, Leading zero omitted, Abs format (unit mm)*
G04 Created by KiCad (PCBNEW 7.0.2-0) date 2023-05-03 13:11:08*
%MOMM*%
%LPD*%
G01*
G04 APERTURE LIST*
%ADD10C,0.150000*%
%ADD11C,0.200000*%
%ADD12C,0.010000*%
%ADD13C,0.254000*%
G04 APERTURE END LIST*
D10*
X141976189Y-96402619D02*
X141642856Y-95926428D01*
X141404761Y-96402619D02*
X141404761Y-95402619D01*
X141404761Y-95402619D02*
X141785713Y-95402619D01*
X141785713Y-95402619D02*
X141880951Y-95450238D01*
X141880951Y-95450238D02*
X141928570Y-95497857D01*
X141928570Y-95497857D02*
X141976189Y-95593095D01*
X141976189Y-95593095D02*
X141976189Y-95735952D01*
X141976189Y-95735952D02*
X141928570Y-95831190D01*
X141928570Y-95831190D02*
X141880951Y-95878809D01*
X141880951Y-95878809D02*
X141785713Y-95926428D01*
X141785713Y-95926428D02*
X141404761Y-95926428D01*
X142404761Y-95878809D02*
X142738094Y-95878809D01*
X142880951Y-96402619D02*
X142404761Y-96402619D01*
X142404761Y-96402619D02*
X142404761Y-95402619D01*
X142404761Y-95402619D02*
X142880951Y-95402619D01*
X143642856Y-95878809D02*
X143309523Y-95878809D01*
X143309523Y-96402619D02*
X143309523Y-95402619D01*
X143309523Y-95402619D02*
X143785713Y-95402619D01*
X144738094Y-96307380D02*
X144690475Y-96355000D01*
X144690475Y-96355000D02*
X144547618Y-96402619D01*
X144547618Y-96402619D02*
X144452380Y-96402619D01*
X144452380Y-96402619D02*
X144309523Y-96355000D01*
X144309523Y-96355000D02*
X144214285Y-96259761D01*
X144214285Y-96259761D02*
X144166666Y-96164523D01*
X144166666Y-96164523D02*
X144119047Y-95974047D01*
X144119047Y-95974047D02*
X144119047Y-95831190D01*
X144119047Y-95831190D02*
X144166666Y-95640714D01*
X144166666Y-95640714D02*
X144214285Y-95545476D01*
X144214285Y-95545476D02*
X144309523Y-95450238D01*
X144309523Y-95450238D02*
X144452380Y-95402619D01*
X144452380Y-95402619D02*
X144547618Y-95402619D01*
X144547618Y-95402619D02*
X144690475Y-95450238D01*
X144690475Y-95450238D02*
X144738094Y-95497857D01*
X145642856Y-96402619D02*
X145166666Y-96402619D01*
X145166666Y-96402619D02*
X145166666Y-95402619D01*
X145976190Y-96402619D02*
X145976190Y-95402619D01*
X146547618Y-96402619D02*
X146119047Y-95831190D01*
X146547618Y-95402619D02*
X145976190Y-95974047D01*
X147738095Y-96402619D02*
X147738095Y-95402619D01*
X147738095Y-95402619D02*
X148119047Y-95402619D01*
X148119047Y-95402619D02*
X148214285Y-95450238D01*
X148214285Y-95450238D02*
X148261904Y-95497857D01*
X148261904Y-95497857D02*
X148309523Y-95593095D01*
X148309523Y-95593095D02*
X148309523Y-95735952D01*
X148309523Y-95735952D02*
X148261904Y-95831190D01*
X148261904Y-95831190D02*
X148214285Y-95878809D01*
X148214285Y-95878809D02*
X148119047Y-95926428D01*
X148119047Y-95926428D02*
X147738095Y-95926428D01*
X148928571Y-95402619D02*
X149119047Y-95402619D01*
X149119047Y-95402619D02*
X149214285Y-95450238D01*
X149214285Y-95450238D02*
X149309523Y-95545476D01*
X149309523Y-95545476D02*
X149357142Y-95735952D01*
X149357142Y-95735952D02*
X149357142Y-96069285D01*
X149357142Y-96069285D02*
X149309523Y-96259761D01*
X149309523Y-96259761D02*
X149214285Y-96355000D01*
X149214285Y-96355000D02*
X149119047Y-96402619D01*
X149119047Y-96402619D02*
X148928571Y-96402619D01*
X148928571Y-96402619D02*
X148833333Y-96355000D01*
X148833333Y-96355000D02*
X148738095Y-96259761D01*
X148738095Y-96259761D02*
X148690476Y-96069285D01*
X148690476Y-96069285D02*
X148690476Y-95735952D01*
X148690476Y-95735952D02*
X148738095Y-95545476D01*
X148738095Y-95545476D02*
X148833333Y-95450238D01*
X148833333Y-95450238D02*
X148928571Y-95402619D01*
X149690476Y-95402619D02*
X149928571Y-96402619D01*
X149928571Y-96402619D02*
X150119047Y-95688333D01*
X150119047Y-95688333D02*
X150309523Y-96402619D01*
X150309523Y-96402619D02*
X150547619Y-95402619D01*
X150928571Y-95878809D02*
X151261904Y-95878809D01*
X151404761Y-96402619D02*
X150928571Y-96402619D01*
X150928571Y-96402619D02*
X150928571Y-95402619D01*
X150928571Y-95402619D02*
X151404761Y-95402619D01*
X152404761Y-96402619D02*
X152071428Y-95926428D01*
X151833333Y-96402619D02*
X151833333Y-95402619D01*
X151833333Y-95402619D02*
X152214285Y-95402619D01*
X152214285Y-95402619D02*
X152309523Y-95450238D01*
X152309523Y-95450238D02*
X152357142Y-95497857D01*
X152357142Y-95497857D02*
X152404761Y-95593095D01*
X152404761Y-95593095D02*
X152404761Y-95735952D01*
X152404761Y-95735952D02*
X152357142Y-95831190D01*
X152357142Y-95831190D02*
X152309523Y-95878809D01*
X152309523Y-95878809D02*
X152214285Y-95926428D01*
X152214285Y-95926428D02*
X151833333Y-95926428D01*
X152833333Y-95878809D02*
X153166666Y-95878809D01*
X153309523Y-96402619D02*
X152833333Y-96402619D01*
X152833333Y-96402619D02*
X152833333Y-95402619D01*
X152833333Y-95402619D02*
X153309523Y-95402619D01*
X153738095Y-96402619D02*
X153738095Y-95402619D01*
X153738095Y-95402619D02*
X153976190Y-95402619D01*
X153976190Y-95402619D02*
X154119047Y-95450238D01*
X154119047Y-95450238D02*
X154214285Y-95545476D01*
X154214285Y-95545476D02*
X154261904Y-95640714D01*
X154261904Y-95640714D02*
X154309523Y-95831190D01*
X154309523Y-95831190D02*
X154309523Y-95974047D01*
X154309523Y-95974047D02*
X154261904Y-96164523D01*
X154261904Y-96164523D02*
X154214285Y-96259761D01*
X154214285Y-96259761D02*
X154119047Y-96355000D01*
X154119047Y-96355000D02*
X153976190Y-96402619D01*
X153976190Y-96402619D02*
X153738095Y-96402619D01*
X155833333Y-95878809D02*
X155500000Y-95878809D01*
X155500000Y-96402619D02*
X155500000Y-95402619D01*
X155500000Y-95402619D02*
X155976190Y-95402619D01*
X156928571Y-96402619D02*
X156595238Y-95926428D01*
X156357143Y-96402619D02*
X156357143Y-95402619D01*
X156357143Y-95402619D02*
X156738095Y-95402619D01*
X156738095Y-95402619D02*
X156833333Y-95450238D01*
X156833333Y-95450238D02*
X156880952Y-95497857D01*
X156880952Y-95497857D02*
X156928571Y-95593095D01*
X156928571Y-95593095D02*
X156928571Y-95735952D01*
X156928571Y-95735952D02*
X156880952Y-95831190D01*
X156880952Y-95831190D02*
X156833333Y-95878809D01*
X156833333Y-95878809D02*
X156738095Y-95926428D01*
X156738095Y-95926428D02*
X156357143Y-95926428D01*
X157547619Y-95402619D02*
X157738095Y-95402619D01*
X157738095Y-95402619D02*
X157833333Y-95450238D01*
X157833333Y-95450238D02*
X157928571Y-95545476D01*
X157928571Y-95545476D02*
X157976190Y-95735952D01*
X157976190Y-95735952D02*
X157976190Y-96069285D01*
X157976190Y-96069285D02*
X157928571Y-96259761D01*
X157928571Y-96259761D02*
X157833333Y-96355000D01*
X157833333Y-96355000D02*
X157738095Y-96402619D01*
X157738095Y-96402619D02*
X157547619Y-96402619D01*
X157547619Y-96402619D02*
X157452381Y-96355000D01*
X157452381Y-96355000D02*
X157357143Y-96259761D01*
X157357143Y-96259761D02*
X157309524Y-96069285D01*
X157309524Y-96069285D02*
X157309524Y-95735952D01*
X157309524Y-95735952D02*
X157357143Y-95545476D01*
X157357143Y-95545476D02*
X157452381Y-95450238D01*
X157452381Y-95450238D02*
X157547619Y-95402619D01*
X158404762Y-96402619D02*
X158404762Y-95402619D01*
X158404762Y-95402619D02*
X158738095Y-96116904D01*
X158738095Y-96116904D02*
X159071428Y-95402619D01*
X159071428Y-95402619D02*
X159071428Y-96402619D01*
X160214286Y-95402619D02*
X160833333Y-95402619D01*
X160833333Y-95402619D02*
X160500000Y-95783571D01*
X160500000Y-95783571D02*
X160642857Y-95783571D01*
X160642857Y-95783571D02*
X160738095Y-95831190D01*
X160738095Y-95831190D02*
X160785714Y-95878809D01*
X160785714Y-95878809D02*
X160833333Y-95974047D01*
X160833333Y-95974047D02*
X160833333Y-96212142D01*
X160833333Y-96212142D02*
X160785714Y-96307380D01*
X160785714Y-96307380D02*
X160738095Y-96355000D01*
X160738095Y-96355000D02*
X160642857Y-96402619D01*
X160642857Y-96402619D02*
X160357143Y-96402619D01*
X160357143Y-96402619D02*
X160261905Y-96355000D01*
X160261905Y-96355000D02*
X160214286Y-96307380D01*
X161119048Y-95402619D02*
X161452381Y-96402619D01*
X161452381Y-96402619D02*
X161785714Y-95402619D01*
X162023810Y-95402619D02*
X162642857Y-95402619D01*
X162642857Y-95402619D02*
X162309524Y-95783571D01*
X162309524Y-95783571D02*
X162452381Y-95783571D01*
X162452381Y-95783571D02*
X162547619Y-95831190D01*
X162547619Y-95831190D02*
X162595238Y-95878809D01*
X162595238Y-95878809D02*
X162642857Y-95974047D01*
X162642857Y-95974047D02*
X162642857Y-96212142D01*
X162642857Y-96212142D02*
X162595238Y-96307380D01*
X162595238Y-96307380D02*
X162547619Y-96355000D01*
X162547619Y-96355000D02*
X162452381Y-96402619D01*
X162452381Y-96402619D02*
X162166667Y-96402619D01*
X162166667Y-96402619D02*
X162071429Y-96355000D01*
X162071429Y-96355000D02*
X162023810Y-96307380D01*
X141357142Y-98022619D02*
X141357142Y-97260714D01*
X141166666Y-97451190D02*
X141357142Y-97260714D01*
X141357142Y-97260714D02*
X141547618Y-97451190D01*
X143166666Y-97022619D02*
X143357142Y-97022619D01*
X143357142Y-97022619D02*
X143452380Y-97070238D01*
X143452380Y-97070238D02*
X143547618Y-97165476D01*
X143547618Y-97165476D02*
X143595237Y-97355952D01*
X143595237Y-97355952D02*
X143595237Y-97689285D01*
X143595237Y-97689285D02*
X143547618Y-97879761D01*
X143547618Y-97879761D02*
X143452380Y-97975000D01*
X143452380Y-97975000D02*
X143357142Y-98022619D01*
X143357142Y-98022619D02*
X143166666Y-98022619D01*
X143166666Y-98022619D02*
X143071428Y-97975000D01*
X143071428Y-97975000D02*
X142976190Y-97879761D01*
X142976190Y-97879761D02*
X142928571Y-97689285D01*
X142928571Y-97689285D02*
X142928571Y-97355952D01*
X142928571Y-97355952D02*
X142976190Y-97165476D01*
X142976190Y-97165476D02*
X143071428Y-97070238D01*
X143071428Y-97070238D02*
X143166666Y-97022619D01*
X144023809Y-98022619D02*
X144023809Y-97022619D01*
X144023809Y-97022619D02*
X144595237Y-98022619D01*
X144595237Y-98022619D02*
X144595237Y-97022619D01*
X145690476Y-97022619D02*
X146261904Y-97022619D01*
X145976190Y-98022619D02*
X145976190Y-97022619D01*
X146595238Y-98022619D02*
X146595238Y-97022619D01*
X146595238Y-97498809D02*
X147166666Y-97498809D01*
X147166666Y-98022619D02*
X147166666Y-97022619D01*
X147642857Y-98022619D02*
X147642857Y-97022619D01*
X148071428Y-97975000D02*
X148214285Y-98022619D01*
X148214285Y-98022619D02*
X148452380Y-98022619D01*
X148452380Y-98022619D02*
X148547618Y-97975000D01*
X148547618Y-97975000D02*
X148595237Y-97927380D01*
X148595237Y-97927380D02*
X148642856Y-97832142D01*
X148642856Y-97832142D02*
X148642856Y-97736904D01*
X148642856Y-97736904D02*
X148595237Y-97641666D01*
X148595237Y-97641666D02*
X148547618Y-97594047D01*
X148547618Y-97594047D02*
X148452380Y-97546428D01*
X148452380Y-97546428D02*
X148261904Y-97498809D01*
X148261904Y-97498809D02*
X148166666Y-97451190D01*
X148166666Y-97451190D02*
X148119047Y-97403571D01*
X148119047Y-97403571D02*
X148071428Y-97308333D01*
X148071428Y-97308333D02*
X148071428Y-97213095D01*
X148071428Y-97213095D02*
X148119047Y-97117857D01*
X148119047Y-97117857D02*
X148166666Y-97070238D01*
X148166666Y-97070238D02*
X148261904Y-97022619D01*
X148261904Y-97022619D02*
X148499999Y-97022619D01*
X148499999Y-97022619D02*
X148642856Y-97070238D01*
X149785714Y-97975000D02*
X149928571Y-98022619D01*
X149928571Y-98022619D02*
X150166666Y-98022619D01*
X150166666Y-98022619D02*
X150261904Y-97975000D01*
X150261904Y-97975000D02*
X150309523Y-97927380D01*
X150309523Y-97927380D02*
X150357142Y-97832142D01*
X150357142Y-97832142D02*
X150357142Y-97736904D01*
X150357142Y-97736904D02*
X150309523Y-97641666D01*
X150309523Y-97641666D02*
X150261904Y-97594047D01*
X150261904Y-97594047D02*
X150166666Y-97546428D01*
X150166666Y-97546428D02*
X149976190Y-97498809D01*
X149976190Y-97498809D02*
X149880952Y-97451190D01*
X149880952Y-97451190D02*
X149833333Y-97403571D01*
X149833333Y-97403571D02*
X149785714Y-97308333D01*
X149785714Y-97308333D02*
X149785714Y-97213095D01*
X149785714Y-97213095D02*
X149833333Y-97117857D01*
X149833333Y-97117857D02*
X149880952Y-97070238D01*
X149880952Y-97070238D02*
X149976190Y-97022619D01*
X149976190Y-97022619D02*
X150214285Y-97022619D01*
X150214285Y-97022619D02*
X150357142Y-97070238D01*
X150785714Y-98022619D02*
X150785714Y-97022619D01*
X151261904Y-98022619D02*
X151261904Y-97022619D01*
X151261904Y-97022619D02*
X151499999Y-97022619D01*
X151499999Y-97022619D02*
X151642856Y-97070238D01*
X151642856Y-97070238D02*
X151738094Y-97165476D01*
X151738094Y-97165476D02*
X151785713Y-97260714D01*
X151785713Y-97260714D02*
X151833332Y-97451190D01*
X151833332Y-97451190D02*
X151833332Y-97594047D01*
X151833332Y-97594047D02*
X151785713Y-97784523D01*
X151785713Y-97784523D02*
X151738094Y-97879761D01*
X151738094Y-97879761D02*
X151642856Y-97975000D01*
X151642856Y-97975000D02*
X151499999Y-98022619D01*
X151499999Y-98022619D02*
X151261904Y-98022619D01*
X152261904Y-97498809D02*
X152595237Y-97498809D01*
X152738094Y-98022619D02*
X152261904Y-98022619D01*
X152261904Y-98022619D02*
X152261904Y-97022619D01*
X152261904Y-97022619D02*
X152738094Y-97022619D01*
X154119047Y-97022619D02*
X154309523Y-97022619D01*
X154309523Y-97022619D02*
X154404761Y-97070238D01*
X154404761Y-97070238D02*
X154499999Y-97165476D01*
X154499999Y-97165476D02*
X154547618Y-97355952D01*
X154547618Y-97355952D02*
X154547618Y-97689285D01*
X154547618Y-97689285D02*
X154499999Y-97879761D01*
X154499999Y-97879761D02*
X154404761Y-97975000D01*
X154404761Y-97975000D02*
X154309523Y-98022619D01*
X154309523Y-98022619D02*
X154119047Y-98022619D01*
X154119047Y-98022619D02*
X154023809Y-97975000D01*
X154023809Y-97975000D02*
X153928571Y-97879761D01*
X153928571Y-97879761D02*
X153880952Y-97689285D01*
X153880952Y-97689285D02*
X153880952Y-97355952D01*
X153880952Y-97355952D02*
X153928571Y-97165476D01*
X153928571Y-97165476D02*
X154023809Y-97070238D01*
X154023809Y-97070238D02*
X154119047Y-97022619D01*
X155309523Y-97498809D02*
X154976190Y-97498809D01*
X154976190Y-98022619D02*
X154976190Y-97022619D01*
X154976190Y-97022619D02*
X155452380Y-97022619D01*
X156928571Y-97498809D02*
X157071428Y-97546428D01*
X157071428Y-97546428D02*
X157119047Y-97594047D01*
X157119047Y-97594047D02*
X157166666Y-97689285D01*
X157166666Y-97689285D02*
X157166666Y-97832142D01*
X157166666Y-97832142D02*
X157119047Y-97927380D01*
X157119047Y-97927380D02*
X157071428Y-97975000D01*
X157071428Y-97975000D02*
X156976190Y-98022619D01*
X156976190Y-98022619D02*
X156595238Y-98022619D01*
X156595238Y-98022619D02*
X156595238Y-97022619D01*
X156595238Y-97022619D02*
X156928571Y-97022619D01*
X156928571Y-97022619D02*
X157023809Y-97070238D01*
X157023809Y-97070238D02*
X157071428Y-97117857D01*
X157071428Y-97117857D02*
X157119047Y-97213095D01*
X157119047Y-97213095D02*
X157119047Y-97308333D01*
X157119047Y-97308333D02*
X157071428Y-97403571D01*
X157071428Y-97403571D02*
X157023809Y-97451190D01*
X157023809Y-97451190D02*
X156928571Y-97498809D01*
X156928571Y-97498809D02*
X156595238Y-97498809D01*
X157785714Y-97022619D02*
X157976190Y-97022619D01*
X157976190Y-97022619D02*
X158071428Y-97070238D01*
X158071428Y-97070238D02*
X158166666Y-97165476D01*
X158166666Y-97165476D02*
X158214285Y-97355952D01*
X158214285Y-97355952D02*
X158214285Y-97689285D01*
X158214285Y-97689285D02*
X158166666Y-97879761D01*
X158166666Y-97879761D02*
X158071428Y-97975000D01*
X158071428Y-97975000D02*
X157976190Y-98022619D01*
X157976190Y-98022619D02*
X157785714Y-98022619D01*
X157785714Y-98022619D02*
X157690476Y-97975000D01*
X157690476Y-97975000D02*
X157595238Y-97879761D01*
X157595238Y-97879761D02*
X157547619Y-97689285D01*
X157547619Y-97689285D02*
X157547619Y-97355952D01*
X157547619Y-97355952D02*
X157595238Y-97165476D01*
X157595238Y-97165476D02*
X157690476Y-97070238D01*
X157690476Y-97070238D02*
X157785714Y-97022619D01*
X158595238Y-97736904D02*
X159071428Y-97736904D01*
X158500000Y-98022619D02*
X158833333Y-97022619D01*
X158833333Y-97022619D02*
X159166666Y-98022619D01*
X160071428Y-98022619D02*
X159738095Y-97546428D01*
X159500000Y-98022619D02*
X159500000Y-97022619D01*
X159500000Y-97022619D02*
X159880952Y-97022619D01*
X159880952Y-97022619D02*
X159976190Y-97070238D01*
X159976190Y-97070238D02*
X160023809Y-97117857D01*
X160023809Y-97117857D02*
X160071428Y-97213095D01*
X160071428Y-97213095D02*
X160071428Y-97355952D01*
X160071428Y-97355952D02*
X160023809Y-97451190D01*
X160023809Y-97451190D02*
X159976190Y-97498809D01*
X159976190Y-97498809D02*
X159880952Y-97546428D01*
X159880952Y-97546428D02*
X159500000Y-97546428D01*
X160500000Y-98022619D02*
X160500000Y-97022619D01*
X160500000Y-97022619D02*
X160738095Y-97022619D01*
X160738095Y-97022619D02*
X160880952Y-97070238D01*
X160880952Y-97070238D02*
X160976190Y-97165476D01*
X160976190Y-97165476D02*
X161023809Y-97260714D01*
X161023809Y-97260714D02*
X161071428Y-97451190D01*
X161071428Y-97451190D02*
X161071428Y-97594047D01*
X161071428Y-97594047D02*
X161023809Y-97784523D01*
X161023809Y-97784523D02*
X160976190Y-97879761D01*
X160976190Y-97879761D02*
X160880952Y-97975000D01*
X160880952Y-97975000D02*
X160738095Y-98022619D01*
X160738095Y-98022619D02*
X160500000Y-98022619D01*
X162642857Y-98022619D02*
X162642857Y-97260714D01*
X162452381Y-97451190D02*
X162642857Y-97260714D01*
X162642857Y-97260714D02*
X162833333Y-97451190D01*
X143761905Y-121605000D02*
X143904762Y-121652619D01*
X143904762Y-121652619D02*
X144142857Y-121652619D01*
X144142857Y-121652619D02*
X144238095Y-121605000D01*
X144238095Y-121605000D02*
X144285714Y-121557380D01*
X144285714Y-121557380D02*
X144333333Y-121462142D01*
X144333333Y-121462142D02*
X144333333Y-121366904D01*
X144333333Y-121366904D02*
X144285714Y-121271666D01*
X144285714Y-121271666D02*
X144238095Y-121224047D01*
X144238095Y-121224047D02*
X144142857Y-121176428D01*
X144142857Y-121176428D02*
X143952381Y-121128809D01*
X143952381Y-121128809D02*
X143857143Y-121081190D01*
X143857143Y-121081190D02*
X143809524Y-121033571D01*
X143809524Y-121033571D02*
X143761905Y-120938333D01*
X143761905Y-120938333D02*
X143761905Y-120843095D01*
X143761905Y-120843095D02*
X143809524Y-120747857D01*
X143809524Y-120747857D02*
X143857143Y-120700238D01*
X143857143Y-120700238D02*
X143952381Y-120652619D01*
X143952381Y-120652619D02*
X144190476Y-120652619D01*
X144190476Y-120652619D02*
X144333333Y-120700238D01*
X144666667Y-120652619D02*
X145333333Y-120652619D01*
X145333333Y-120652619D02*
X144666667Y-121652619D01*
X144666667Y-121652619D02*
X145333333Y-121652619D01*
X146238095Y-120700238D02*
X146142857Y-120652619D01*
X146142857Y-120652619D02*
X146000000Y-120652619D01*
X146000000Y-120652619D02*
X145857143Y-120700238D01*
X145857143Y-120700238D02*
X145761905Y-120795476D01*
X145761905Y-120795476D02*
X145714286Y-120890714D01*
X145714286Y-120890714D02*
X145666667Y-121081190D01*
X145666667Y-121081190D02*
X145666667Y-121224047D01*
X145666667Y-121224047D02*
X145714286Y-121414523D01*
X145714286Y-121414523D02*
X145761905Y-121509761D01*
X145761905Y-121509761D02*
X145857143Y-121605000D01*
X145857143Y-121605000D02*
X146000000Y-121652619D01*
X146000000Y-121652619D02*
X146095238Y-121652619D01*
X146095238Y-121652619D02*
X146238095Y-121605000D01*
X146238095Y-121605000D02*
X146285714Y-121557380D01*
X146285714Y-121557380D02*
X146285714Y-121224047D01*
X146285714Y-121224047D02*
X146095238Y-121224047D01*
X146714286Y-121271666D02*
X147476191Y-121271666D01*
X148523809Y-121557380D02*
X148476190Y-121605000D01*
X148476190Y-121605000D02*
X148333333Y-121652619D01*
X148333333Y-121652619D02*
X148238095Y-121652619D01*
X148238095Y-121652619D02*
X148095238Y-121605000D01*
X148095238Y-121605000D02*
X148000000Y-121509761D01*
X148000000Y-121509761D02*
X147952381Y-121414523D01*
X147952381Y-121414523D02*
X147904762Y-121224047D01*
X147904762Y-121224047D02*
X147904762Y-121081190D01*
X147904762Y-121081190D02*
X147952381Y-120890714D01*
X147952381Y-120890714D02*
X148000000Y-120795476D01*
X148000000Y-120795476D02*
X148095238Y-120700238D01*
X148095238Y-120700238D02*
X148238095Y-120652619D01*
X148238095Y-120652619D02*
X148333333Y-120652619D01*
X148333333Y-120652619D02*
X148476190Y-120700238D01*
X148476190Y-120700238D02*
X148523809Y-120747857D01*
X148904762Y-120747857D02*
X148952381Y-120700238D01*
X148952381Y-120700238D02*
X149047619Y-120652619D01*
X149047619Y-120652619D02*
X149285714Y-120652619D01*
X149285714Y-120652619D02*
X149380952Y-120700238D01*
X149380952Y-120700238D02*
X149428571Y-120747857D01*
X149428571Y-120747857D02*
X149476190Y-120843095D01*
X149476190Y-120843095D02*
X149476190Y-120938333D01*
X149476190Y-120938333D02*
X149428571Y-121081190D01*
X149428571Y-121081190D02*
X148857143Y-121652619D01*
X148857143Y-121652619D02*
X149476190Y-121652619D01*
X150476190Y-121557380D02*
X150428571Y-121605000D01*
X150428571Y-121605000D02*
X150285714Y-121652619D01*
X150285714Y-121652619D02*
X150190476Y-121652619D01*
X150190476Y-121652619D02*
X150047619Y-121605000D01*
X150047619Y-121605000D02*
X149952381Y-121509761D01*
X149952381Y-121509761D02*
X149904762Y-121414523D01*
X149904762Y-121414523D02*
X149857143Y-121224047D01*
X149857143Y-121224047D02*
X149857143Y-121081190D01*
X149857143Y-121081190D02*
X149904762Y-120890714D01*
X149904762Y-120890714D02*
X149952381Y-120795476D01*
X149952381Y-120795476D02*
X150047619Y-120700238D01*
X150047619Y-120700238D02*
X150190476Y-120652619D01*
X150190476Y-120652619D02*
X150285714Y-120652619D01*
X150285714Y-120652619D02*
X150428571Y-120700238D01*
X150428571Y-120700238D02*
X150476190Y-120747857D01*
X150904762Y-121271666D02*
X151666667Y-121271666D01*
X152000000Y-120652619D02*
X152571428Y-120652619D01*
X152285714Y-121652619D02*
X152285714Y-120652619D01*
X152809524Y-120652619D02*
X153476190Y-121652619D01*
X153476190Y-120652619D02*
X152809524Y-121652619D01*
X154428571Y-121652619D02*
X154095238Y-121176428D01*
X153857143Y-121652619D02*
X153857143Y-120652619D01*
X153857143Y-120652619D02*
X154238095Y-120652619D01*
X154238095Y-120652619D02*
X154333333Y-120700238D01*
X154333333Y-120700238D02*
X154380952Y-120747857D01*
X154380952Y-120747857D02*
X154428571Y-120843095D01*
X154428571Y-120843095D02*
X154428571Y-120985952D01*
X154428571Y-120985952D02*
X154380952Y-121081190D01*
X154380952Y-121081190D02*
X154333333Y-121128809D01*
X154333333Y-121128809D02*
X154238095Y-121176428D01*
X154238095Y-121176428D02*
X153857143Y-121176428D01*
X155285714Y-120985952D02*
X155285714Y-121652619D01*
X155047619Y-120605000D02*
X154809524Y-121319285D01*
X154809524Y-121319285D02*
X155428571Y-121319285D01*
X157142857Y-121652619D02*
X156809524Y-121176428D01*
X156571429Y-121652619D02*
X156571429Y-120652619D01*
X156571429Y-120652619D02*
X156952381Y-120652619D01*
X156952381Y-120652619D02*
X157047619Y-120700238D01*
X157047619Y-120700238D02*
X157095238Y-120747857D01*
X157095238Y-120747857D02*
X157142857Y-120843095D01*
X157142857Y-120843095D02*
X157142857Y-120985952D01*
X157142857Y-120985952D02*
X157095238Y-121081190D01*
X157095238Y-121081190D02*
X157047619Y-121128809D01*
X157047619Y-121128809D02*
X156952381Y-121176428D01*
X156952381Y-121176428D02*
X156571429Y-121176428D01*
X157571429Y-121128809D02*
X157904762Y-121128809D01*
X158047619Y-121652619D02*
X157571429Y-121652619D01*
X157571429Y-121652619D02*
X157571429Y-120652619D01*
X157571429Y-120652619D02*
X158047619Y-120652619D01*
X158333334Y-120652619D02*
X158666667Y-121652619D01*
X158666667Y-121652619D02*
X159000000Y-120652619D01*
X159333334Y-121557380D02*
X159380953Y-121605000D01*
X159380953Y-121605000D02*
X159333334Y-121652619D01*
X159333334Y-121652619D02*
X159285715Y-121605000D01*
X159285715Y-121605000D02*
X159333334Y-121557380D01*
X159333334Y-121557380D02*
X159333334Y-121652619D01*
X159761905Y-121366904D02*
X160238095Y-121366904D01*
X159666667Y-121652619D02*
X160000000Y-120652619D01*
X160000000Y-120652619D02*
X160333333Y-121652619D01*
X145595238Y-122510714D02*
X145499999Y-122463095D01*
X145499999Y-122463095D02*
X145309523Y-122463095D01*
X145309523Y-122463095D02*
X145214285Y-122510714D01*
X145214285Y-122510714D02*
X145119047Y-122605952D01*
X145119047Y-122605952D02*
X145071428Y-122701190D01*
X145071428Y-122701190D02*
X145071428Y-122891666D01*
X145071428Y-122891666D02*
X145119047Y-122986904D01*
X145119047Y-122986904D02*
X145214285Y-123082142D01*
X145214285Y-123082142D02*
X145309523Y-123129761D01*
X145309523Y-123129761D02*
X145499999Y-123129761D01*
X145499999Y-123129761D02*
X145595238Y-123082142D01*
X145404761Y-122129761D02*
X145166666Y-122177380D01*
X145166666Y-122177380D02*
X144928571Y-122320238D01*
X144928571Y-122320238D02*
X144785714Y-122558333D01*
X144785714Y-122558333D02*
X144738095Y-122796428D01*
X144738095Y-122796428D02*
X144785714Y-123034523D01*
X144785714Y-123034523D02*
X144928571Y-123272619D01*
X144928571Y-123272619D02*
X145166666Y-123415476D01*
X145166666Y-123415476D02*
X145404761Y-123463095D01*
X145404761Y-123463095D02*
X145642857Y-123415476D01*
X145642857Y-123415476D02*
X145880952Y-123272619D01*
X145880952Y-123272619D02*
X146023809Y-123034523D01*
X146023809Y-123034523D02*
X146071428Y-122796428D01*
X146071428Y-122796428D02*
X146023809Y-122558333D01*
X146023809Y-122558333D02*
X145880952Y-122320238D01*
X145880952Y-122320238D02*
X145642857Y-122177380D01*
X145642857Y-122177380D02*
X145404761Y-122129761D01*
X147261905Y-123272619D02*
X147261905Y-122272619D01*
X147261905Y-122272619D02*
X147595238Y-122986904D01*
X147595238Y-122986904D02*
X147928571Y-122272619D01*
X147928571Y-122272619D02*
X147928571Y-123272619D01*
X148309524Y-122272619D02*
X148976190Y-123272619D01*
X148976190Y-122272619D02*
X148309524Y-123272619D01*
X149309524Y-123225000D02*
X149452381Y-123272619D01*
X149452381Y-123272619D02*
X149690476Y-123272619D01*
X149690476Y-123272619D02*
X149785714Y-123225000D01*
X149785714Y-123225000D02*
X149833333Y-123177380D01*
X149833333Y-123177380D02*
X149880952Y-123082142D01*
X149880952Y-123082142D02*
X149880952Y-122986904D01*
X149880952Y-122986904D02*
X149833333Y-122891666D01*
X149833333Y-122891666D02*
X149785714Y-122844047D01*
X149785714Y-122844047D02*
X149690476Y-122796428D01*
X149690476Y-122796428D02*
X149500000Y-122748809D01*
X149500000Y-122748809D02*
X149404762Y-122701190D01*
X149404762Y-122701190D02*
X149357143Y-122653571D01*
X149357143Y-122653571D02*
X149309524Y-122558333D01*
X149309524Y-122558333D02*
X149309524Y-122463095D01*
X149309524Y-122463095D02*
X149357143Y-122367857D01*
X149357143Y-122367857D02*
X149404762Y-122320238D01*
X149404762Y-122320238D02*
X149500000Y-122272619D01*
X149500000Y-122272619D02*
X149738095Y-122272619D01*
X149738095Y-122272619D02*
X149880952Y-122320238D01*
X150309524Y-123272619D02*
X150309524Y-122272619D01*
X150309524Y-122272619D02*
X150690476Y-122272619D01*
X150690476Y-122272619D02*
X150785714Y-122320238D01*
X150785714Y-122320238D02*
X150833333Y-122367857D01*
X150833333Y-122367857D02*
X150880952Y-122463095D01*
X150880952Y-122463095D02*
X150880952Y-122605952D01*
X150880952Y-122605952D02*
X150833333Y-122701190D01*
X150833333Y-122701190D02*
X150785714Y-122748809D01*
X150785714Y-122748809D02*
X150690476Y-122796428D01*
X150690476Y-122796428D02*
X150309524Y-122796428D01*
X151261905Y-122986904D02*
X151738095Y-122986904D01*
X151166667Y-123272619D02*
X151500000Y-122272619D01*
X151500000Y-122272619D02*
X151833333Y-123272619D01*
X152738095Y-123272619D02*
X152404762Y-122796428D01*
X152166667Y-123272619D02*
X152166667Y-122272619D01*
X152166667Y-122272619D02*
X152547619Y-122272619D01*
X152547619Y-122272619D02*
X152642857Y-122320238D01*
X152642857Y-122320238D02*
X152690476Y-122367857D01*
X152690476Y-122367857D02*
X152738095Y-122463095D01*
X152738095Y-122463095D02*
X152738095Y-122605952D01*
X152738095Y-122605952D02*
X152690476Y-122701190D01*
X152690476Y-122701190D02*
X152642857Y-122748809D01*
X152642857Y-122748809D02*
X152547619Y-122796428D01*
X152547619Y-122796428D02*
X152166667Y-122796428D01*
X153166667Y-123272619D02*
X153166667Y-122272619D01*
X153738095Y-123272619D02*
X153309524Y-122701190D01*
X153738095Y-122272619D02*
X153166667Y-122844047D01*
X154119048Y-123225000D02*
X154261905Y-123272619D01*
X154261905Y-123272619D02*
X154500000Y-123272619D01*
X154500000Y-123272619D02*
X154595238Y-123225000D01*
X154595238Y-123225000D02*
X154642857Y-123177380D01*
X154642857Y-123177380D02*
X154690476Y-123082142D01*
X154690476Y-123082142D02*
X154690476Y-122986904D01*
X154690476Y-122986904D02*
X154642857Y-122891666D01*
X154642857Y-122891666D02*
X154595238Y-122844047D01*
X154595238Y-122844047D02*
X154500000Y-122796428D01*
X154500000Y-122796428D02*
X154309524Y-122748809D01*
X154309524Y-122748809D02*
X154214286Y-122701190D01*
X154214286Y-122701190D02*
X154166667Y-122653571D01*
X154166667Y-122653571D02*
X154119048Y-122558333D01*
X154119048Y-122558333D02*
X154119048Y-122463095D01*
X154119048Y-122463095D02*
X154166667Y-122367857D01*
X154166667Y-122367857D02*
X154214286Y-122320238D01*
X154214286Y-122320238D02*
X154309524Y-122272619D01*
X154309524Y-122272619D02*
X154547619Y-122272619D01*
X154547619Y-122272619D02*
X154690476Y-122320238D01*
X155833334Y-122367857D02*
X155880953Y-122320238D01*
X155880953Y-122320238D02*
X155976191Y-122272619D01*
X155976191Y-122272619D02*
X156214286Y-122272619D01*
X156214286Y-122272619D02*
X156309524Y-122320238D01*
X156309524Y-122320238D02*
X156357143Y-122367857D01*
X156357143Y-122367857D02*
X156404762Y-122463095D01*
X156404762Y-122463095D02*
X156404762Y-122558333D01*
X156404762Y-122558333D02*
X156357143Y-122701190D01*
X156357143Y-122701190D02*
X155785715Y-123272619D01*
X155785715Y-123272619D02*
X156404762Y-123272619D01*
X157023810Y-122272619D02*
X157119048Y-122272619D01*
X157119048Y-122272619D02*
X157214286Y-122320238D01*
X157214286Y-122320238D02*
X157261905Y-122367857D01*
X157261905Y-122367857D02*
X157309524Y-122463095D01*
X157309524Y-122463095D02*
X157357143Y-122653571D01*
X157357143Y-122653571D02*
X157357143Y-122891666D01*
X157357143Y-122891666D02*
X157309524Y-123082142D01*
X157309524Y-123082142D02*
X157261905Y-123177380D01*
X157261905Y-123177380D02*
X157214286Y-123225000D01*
X157214286Y-123225000D02*
X157119048Y-123272619D01*
X157119048Y-123272619D02*
X157023810Y-123272619D01*
X157023810Y-123272619D02*
X156928572Y-123225000D01*
X156928572Y-123225000D02*
X156880953Y-123177380D01*
X156880953Y-123177380D02*
X156833334Y-123082142D01*
X156833334Y-123082142D02*
X156785715Y-122891666D01*
X156785715Y-122891666D02*
X156785715Y-122653571D01*
X156785715Y-122653571D02*
X156833334Y-122463095D01*
X156833334Y-122463095D02*
X156880953Y-122367857D01*
X156880953Y-122367857D02*
X156928572Y-122320238D01*
X156928572Y-122320238D02*
X157023810Y-122272619D01*
X157738096Y-122367857D02*
X157785715Y-122320238D01*
X157785715Y-122320238D02*
X157880953Y-122272619D01*
X157880953Y-122272619D02*
X158119048Y-122272619D01*
X158119048Y-122272619D02*
X158214286Y-122320238D01*
X158214286Y-122320238D02*
X158261905Y-122367857D01*
X158261905Y-122367857D02*
X158309524Y-122463095D01*
X158309524Y-122463095D02*
X158309524Y-122558333D01*
X158309524Y-122558333D02*
X158261905Y-122701190D01*
X158261905Y-122701190D02*
X157690477Y-123272619D01*
X157690477Y-123272619D02*
X158309524Y-123272619D01*
X158642858Y-122272619D02*
X159261905Y-122272619D01*
X159261905Y-122272619D02*
X158928572Y-122653571D01*
X158928572Y-122653571D02*
X159071429Y-122653571D01*
X159071429Y-122653571D02*
X159166667Y-122701190D01*
X159166667Y-122701190D02*
X159214286Y-122748809D01*
X159214286Y-122748809D02*
X159261905Y-122844047D01*
X159261905Y-122844047D02*
X159261905Y-123082142D01*
X159261905Y-123082142D02*
X159214286Y-123177380D01*
X159214286Y-123177380D02*
X159166667Y-123225000D01*
X159166667Y-123225000D02*
X159071429Y-123272619D01*
X159071429Y-123272619D02*
X158785715Y-123272619D01*
X158785715Y-123272619D02*
X158690477Y-123225000D01*
X158690477Y-123225000D02*
X158642858Y-123177380D01*
D11*
%TO.C,G\u002A\u002A*%
X135794403Y-93197583D02*
X136451546Y-93197583D01*
X136122975Y-94497583D02*
X136122975Y-93197583D01*
X136725355Y-93197583D02*
X137492022Y-94497583D01*
X137492022Y-93197583D02*
X136725355Y-94497583D01*
X138587260Y-94497583D02*
X138203927Y-93878536D01*
X137930117Y-94497583D02*
X137930117Y-93197583D01*
X137930117Y-93197583D02*
X138368212Y-93197583D01*
X138368212Y-93197583D02*
X138477736Y-93259488D01*
X138477736Y-93259488D02*
X138532498Y-93321393D01*
X138532498Y-93321393D02*
X138587260Y-93445202D01*
X138587260Y-93445202D02*
X138587260Y-93630917D01*
X138587260Y-93630917D02*
X138532498Y-93754726D01*
X138532498Y-93754726D02*
X138477736Y-93816631D01*
X138477736Y-93816631D02*
X138368212Y-93878536D01*
X138368212Y-93878536D02*
X137930117Y-93878536D01*
X139572974Y-93630917D02*
X139572974Y-94497583D01*
X139299165Y-93135679D02*
X139025355Y-94064250D01*
X139025355Y-94064250D02*
X139737260Y-94064250D01*
D10*
X160515625Y-103530565D02*
X160251042Y-103706936D01*
X160912500Y-103717969D02*
X160251042Y-104147917D01*
X161342448Y-103883334D02*
X160251042Y-104610938D01*
X161573959Y-107455209D02*
X162896875Y-107455209D01*
X161970834Y-106000000D02*
X160796745Y-104247136D01*
X162235417Y-106000000D02*
X162235417Y-108116667D01*
X162500000Y-106000000D02*
X164087500Y-103618751D01*
X163029167Y-106000000D02*
X161441667Y-106000000D01*
X164087500Y-103618751D02*
X163128386Y-103883334D01*
X164219792Y-104610938D02*
X164087500Y-103618751D01*
X163558625Y-105470565D02*
G75*
G03*
X163558625Y-105470565I-1323000J0D01*
G01*
G36*
X161772396Y-105239323D02*
G01*
X161342448Y-105536980D01*
X161210157Y-104858985D01*
X161772396Y-105239323D01*
G37*
%TO.C,G\u002A\u002A\u002A*%
D12*
X147513294Y-110341878D02*
X147600714Y-110383196D01*
X147656562Y-110448970D01*
X147677738Y-110528861D01*
X147661142Y-110612529D01*
X147614504Y-110679413D01*
X147538884Y-110732990D01*
X147459734Y-110741842D01*
X147379233Y-110712281D01*
X147311946Y-110652367D01*
X147278583Y-110571681D01*
X147284284Y-110484231D01*
X147289906Y-110468729D01*
X147338231Y-110400473D01*
X147409379Y-110353885D01*
X147487059Y-110338217D01*
X147513294Y-110341878D01*
G36*
X147513294Y-110341878D02*
G01*
X147600714Y-110383196D01*
X147656562Y-110448970D01*
X147677738Y-110528861D01*
X147661142Y-110612529D01*
X147614504Y-110679413D01*
X147538884Y-110732990D01*
X147459734Y-110741842D01*
X147379233Y-110712281D01*
X147311946Y-110652367D01*
X147278583Y-110571681D01*
X147284284Y-110484231D01*
X147289906Y-110468729D01*
X147338231Y-110400473D01*
X147409379Y-110353885D01*
X147487059Y-110338217D01*
X147513294Y-110341878D01*
G37*
X148765665Y-108336671D02*
X148799857Y-108370317D01*
X148850432Y-108457181D01*
X148854999Y-108542039D01*
X148813594Y-108623666D01*
X148792140Y-108647413D01*
X148715822Y-108701641D01*
X148639925Y-108709840D01*
X148562268Y-108672041D01*
X148537947Y-108651409D01*
X148476643Y-108570996D01*
X148460914Y-108487904D01*
X148490870Y-108405317D01*
X148527967Y-108360149D01*
X148606503Y-108307794D01*
X148688029Y-108300054D01*
X148765665Y-108336671D01*
G36*
X148765665Y-108336671D02*
G01*
X148799857Y-108370317D01*
X148850432Y-108457181D01*
X148854999Y-108542039D01*
X148813594Y-108623666D01*
X148792140Y-108647413D01*
X148715822Y-108701641D01*
X148639925Y-108709840D01*
X148562268Y-108672041D01*
X148537947Y-108651409D01*
X148476643Y-108570996D01*
X148460914Y-108487904D01*
X148490870Y-108405317D01*
X148527967Y-108360149D01*
X148606503Y-108307794D01*
X148688029Y-108300054D01*
X148765665Y-108336671D01*
G37*
X146393672Y-108329340D02*
X146457979Y-108393724D01*
X146481739Y-108438944D01*
X146494378Y-108524419D01*
X146467235Y-108606084D01*
X146405650Y-108670301D01*
X146386804Y-108681362D01*
X146317449Y-108709476D01*
X146261867Y-108708228D01*
X146215728Y-108688108D01*
X146135288Y-108623839D01*
X146096418Y-108546398D01*
X146100396Y-108462534D01*
X146148497Y-108378995D01*
X146155719Y-108370987D01*
X146233011Y-108315985D01*
X146315505Y-108302764D01*
X146393672Y-108329340D01*
G36*
X146393672Y-108329340D02*
G01*
X146457979Y-108393724D01*
X146481739Y-108438944D01*
X146494378Y-108524419D01*
X146467235Y-108606084D01*
X146405650Y-108670301D01*
X146386804Y-108681362D01*
X146317449Y-108709476D01*
X146261867Y-108708228D01*
X146215728Y-108688108D01*
X146135288Y-108623839D01*
X146096418Y-108546398D01*
X146100396Y-108462534D01*
X146148497Y-108378995D01*
X146155719Y-108370987D01*
X146233011Y-108315985D01*
X146315505Y-108302764D01*
X146393672Y-108329340D01*
G37*
X156955766Y-108734187D02*
X157009727Y-108784375D01*
X157045254Y-108865085D01*
X157056569Y-108957941D01*
X157059601Y-109003315D01*
X157072381Y-109043100D01*
X157101003Y-109086698D01*
X157151557Y-109143514D01*
X157224879Y-109217732D01*
X157392849Y-109384580D01*
X157559697Y-109216611D01*
X157635155Y-109139523D01*
X157683583Y-109084771D01*
X157710959Y-109042387D01*
X157723260Y-109002407D01*
X157726465Y-108954865D01*
X157726546Y-108938453D01*
X157733230Y-108857420D01*
X157757845Y-108801079D01*
X157783223Y-108771587D01*
X157840798Y-108726192D01*
X157892597Y-108720302D01*
X157953387Y-108753203D01*
X157965886Y-108762767D01*
X157996270Y-108790090D01*
X158014412Y-108821020D01*
X158023439Y-108867596D01*
X158026477Y-108941858D01*
X158026728Y-108997127D01*
X158026728Y-109183629D01*
X157541818Y-109675711D01*
X157541818Y-110021445D01*
X157540709Y-110166442D01*
X157536995Y-110272058D01*
X157530094Y-110345046D01*
X157519424Y-110392164D01*
X157507888Y-110415621D01*
X157449058Y-110466871D01*
X157378231Y-110479165D01*
X157357091Y-110474592D01*
X157315336Y-110458688D01*
X157285042Y-110436333D01*
X157264387Y-110400577D01*
X157251546Y-110344468D01*
X157244696Y-110261056D01*
X157242013Y-110143388D01*
X157241637Y-110034549D01*
X157241637Y-109675711D01*
X156999182Y-109429670D01*
X156756728Y-109183629D01*
X156756728Y-108984438D01*
X156757601Y-108887357D01*
X156762052Y-108825463D01*
X156772826Y-108787765D01*
X156792670Y-108763275D01*
X156816244Y-108746250D01*
X156889298Y-108719739D01*
X156955766Y-108734187D01*
G36*
X156955766Y-108734187D02*
G01*
X157009727Y-108784375D01*
X157045254Y-108865085D01*
X157056569Y-108957941D01*
X157059601Y-109003315D01*
X157072381Y-109043100D01*
X157101003Y-109086698D01*
X157151557Y-109143514D01*
X157224879Y-109217732D01*
X157392849Y-109384580D01*
X157559697Y-109216611D01*
X157635155Y-109139523D01*
X157683583Y-109084771D01*
X157710959Y-109042387D01*
X157723260Y-109002407D01*
X157726465Y-108954865D01*
X157726546Y-108938453D01*
X157733230Y-108857420D01*
X157757845Y-108801079D01*
X157783223Y-108771587D01*
X157840798Y-108726192D01*
X157892597Y-108720302D01*
X157953387Y-108753203D01*
X157965886Y-108762767D01*
X157996270Y-108790090D01*
X158014412Y-108821020D01*
X158023439Y-108867596D01*
X158026477Y-108941858D01*
X158026728Y-108997127D01*
X158026728Y-109183629D01*
X157541818Y-109675711D01*
X157541818Y-110021445D01*
X157540709Y-110166442D01*
X157536995Y-110272058D01*
X157530094Y-110345046D01*
X157519424Y-110392164D01*
X157507888Y-110415621D01*
X157449058Y-110466871D01*
X157378231Y-110479165D01*
X157357091Y-110474592D01*
X157315336Y-110458688D01*
X157285042Y-110436333D01*
X157264387Y-110400577D01*
X157251546Y-110344468D01*
X157244696Y-110261056D01*
X157242013Y-110143388D01*
X157241637Y-110034549D01*
X157241637Y-109675711D01*
X156999182Y-109429670D01*
X156756728Y-109183629D01*
X156756728Y-108984438D01*
X156757601Y-108887357D01*
X156762052Y-108825463D01*
X156772826Y-108787765D01*
X156792670Y-108763275D01*
X156816244Y-108746250D01*
X156889298Y-108719739D01*
X156955766Y-108734187D01*
G37*
X154023347Y-108739100D02*
X154081037Y-108785267D01*
X154114748Y-108870426D01*
X154124364Y-108978169D01*
X154126732Y-109026003D01*
X154138013Y-109065761D01*
X154164476Y-109107264D01*
X154212390Y-109160332D01*
X154288021Y-109234784D01*
X154288371Y-109235123D01*
X154452379Y-109393459D01*
X154623190Y-109218732D01*
X154699538Y-109139500D01*
X154748936Y-109083109D01*
X154777227Y-109039888D01*
X154790259Y-109000166D01*
X154793876Y-108954270D01*
X154794000Y-108936135D01*
X154808514Y-108839061D01*
X154847150Y-108769596D01*
X154902555Y-108731914D01*
X154967373Y-108730187D01*
X155034248Y-108768590D01*
X155053773Y-108788746D01*
X155076594Y-108828499D01*
X155089331Y-108889172D01*
X155094025Y-108981920D01*
X155094182Y-109009554D01*
X155094182Y-109183629D01*
X154851728Y-109429670D01*
X154609273Y-109675711D01*
X154609273Y-110027632D01*
X154608987Y-110162403D01*
X154607393Y-110258966D01*
X154603383Y-110325294D01*
X154595853Y-110369361D01*
X154583696Y-110399139D01*
X154565806Y-110422602D01*
X154552595Y-110436231D01*
X154482475Y-110484435D01*
X154414450Y-110486558D01*
X154372271Y-110464045D01*
X154339610Y-110429383D01*
X154315868Y-110377975D01*
X154299868Y-110303230D01*
X154290431Y-110198557D01*
X154286380Y-110057365D01*
X154286000Y-109981315D01*
X154286000Y-109657455D01*
X154086129Y-109457500D01*
X153980501Y-109349751D01*
X153904389Y-109265443D01*
X153853103Y-109196992D01*
X153821951Y-109136812D01*
X153806243Y-109077316D01*
X153801290Y-109010919D01*
X153801177Y-108996626D01*
X153813342Y-108876095D01*
X153848291Y-108788984D01*
X153903421Y-108738313D01*
X153976129Y-108727099D01*
X154023347Y-108739100D01*
G36*
X154023347Y-108739100D02*
G01*
X154081037Y-108785267D01*
X154114748Y-108870426D01*
X154124364Y-108978169D01*
X154126732Y-109026003D01*
X154138013Y-109065761D01*
X154164476Y-109107264D01*
X154212390Y-109160332D01*
X154288021Y-109234784D01*
X154288371Y-109235123D01*
X154452379Y-109393459D01*
X154623190Y-109218732D01*
X154699538Y-109139500D01*
X154748936Y-109083109D01*
X154777227Y-109039888D01*
X154790259Y-109000166D01*
X154793876Y-108954270D01*
X154794000Y-108936135D01*
X154808514Y-108839061D01*
X154847150Y-108769596D01*
X154902555Y-108731914D01*
X154967373Y-108730187D01*
X155034248Y-108768590D01*
X155053773Y-108788746D01*
X155076594Y-108828499D01*
X155089331Y-108889172D01*
X155094025Y-108981920D01*
X155094182Y-109009554D01*
X155094182Y-109183629D01*
X154851728Y-109429670D01*
X154609273Y-109675711D01*
X154609273Y-110027632D01*
X154608987Y-110162403D01*
X154607393Y-110258966D01*
X154603383Y-110325294D01*
X154595853Y-110369361D01*
X154583696Y-110399139D01*
X154565806Y-110422602D01*
X154552595Y-110436231D01*
X154482475Y-110484435D01*
X154414450Y-110486558D01*
X154372271Y-110464045D01*
X154339610Y-110429383D01*
X154315868Y-110377975D01*
X154299868Y-110303230D01*
X154290431Y-110198557D01*
X154286380Y-110057365D01*
X154286000Y-109981315D01*
X154286000Y-109657455D01*
X154086129Y-109457500D01*
X153980501Y-109349751D01*
X153904389Y-109265443D01*
X153853103Y-109196992D01*
X153821951Y-109136812D01*
X153806243Y-109077316D01*
X153801290Y-109010919D01*
X153801177Y-108996626D01*
X153813342Y-108876095D01*
X153848291Y-108788984D01*
X153903421Y-108738313D01*
X153976129Y-108727099D01*
X154023347Y-108739100D01*
G37*
X152044454Y-108727231D02*
X152104959Y-108771587D01*
X152135236Y-108807608D01*
X152152405Y-108848951D01*
X152160018Y-108909581D01*
X152161637Y-108994401D01*
X152161637Y-109160538D01*
X151919182Y-109406579D01*
X151676728Y-109652620D01*
X151676728Y-109993093D01*
X151674675Y-110154422D01*
X151667541Y-110275625D01*
X151653858Y-110362615D01*
X151632159Y-110421306D01*
X151600977Y-110457612D01*
X151558846Y-110477448D01*
X151556425Y-110478113D01*
X151500543Y-110490086D01*
X151463710Y-110482687D01*
X151423520Y-110449499D01*
X151410132Y-110436231D01*
X151388715Y-110413112D01*
X151373510Y-110388286D01*
X151363454Y-110353914D01*
X151357484Y-110302157D01*
X151354537Y-110225178D01*
X151353550Y-110115136D01*
X151353455Y-110018420D01*
X151353455Y-109657286D01*
X151137676Y-109445870D01*
X151054124Y-109362195D01*
X150981252Y-109285844D01*
X150926350Y-109224694D01*
X150896712Y-109186619D01*
X150895222Y-109184018D01*
X150881282Y-109135006D01*
X150871628Y-109057763D01*
X150868546Y-108980923D01*
X150871015Y-108893400D01*
X150881135Y-108836883D01*
X150902979Y-108796334D01*
X150925223Y-108771587D01*
X150982798Y-108726192D01*
X151034597Y-108720302D01*
X151095387Y-108753203D01*
X151107886Y-108762767D01*
X151145682Y-108800292D01*
X151163757Y-108846321D01*
X151168701Y-108918679D01*
X151168728Y-108927315D01*
X151170098Y-108980670D01*
X151178075Y-109022501D01*
X151198456Y-109062700D01*
X151237038Y-109111157D01*
X151299621Y-109177766D01*
X151339538Y-109218732D01*
X151510349Y-109393459D01*
X151671667Y-109237719D01*
X151745930Y-109165080D01*
X151793443Y-109113031D01*
X151820784Y-109070195D01*
X151834534Y-109025195D01*
X151841273Y-108966655D01*
X151843169Y-108941191D01*
X151853419Y-108853543D01*
X151871699Y-108797953D01*
X151902816Y-108760413D01*
X151906144Y-108757656D01*
X151977096Y-108719865D01*
X152044454Y-108727231D01*
G36*
X152044454Y-108727231D02*
G01*
X152104959Y-108771587D01*
X152135236Y-108807608D01*
X152152405Y-108848951D01*
X152160018Y-108909581D01*
X152161637Y-108994401D01*
X152161637Y-109160538D01*
X151919182Y-109406579D01*
X151676728Y-109652620D01*
X151676728Y-109993093D01*
X151674675Y-110154422D01*
X151667541Y-110275625D01*
X151653858Y-110362615D01*
X151632159Y-110421306D01*
X151600977Y-110457612D01*
X151558846Y-110477448D01*
X151556425Y-110478113D01*
X151500543Y-110490086D01*
X151463710Y-110482687D01*
X151423520Y-110449499D01*
X151410132Y-110436231D01*
X151388715Y-110413112D01*
X151373510Y-110388286D01*
X151363454Y-110353914D01*
X151357484Y-110302157D01*
X151354537Y-110225178D01*
X151353550Y-110115136D01*
X151353455Y-110018420D01*
X151353455Y-109657286D01*
X151137676Y-109445870D01*
X151054124Y-109362195D01*
X150981252Y-109285844D01*
X150926350Y-109224694D01*
X150896712Y-109186619D01*
X150895222Y-109184018D01*
X150881282Y-109135006D01*
X150871628Y-109057763D01*
X150868546Y-108980923D01*
X150871015Y-108893400D01*
X150881135Y-108836883D01*
X150902979Y-108796334D01*
X150925223Y-108771587D01*
X150982798Y-108726192D01*
X151034597Y-108720302D01*
X151095387Y-108753203D01*
X151107886Y-108762767D01*
X151145682Y-108800292D01*
X151163757Y-108846321D01*
X151168701Y-108918679D01*
X151168728Y-108927315D01*
X151170098Y-108980670D01*
X151178075Y-109022501D01*
X151198456Y-109062700D01*
X151237038Y-109111157D01*
X151299621Y-109177766D01*
X151339538Y-109218732D01*
X151510349Y-109393459D01*
X151671667Y-109237719D01*
X151745930Y-109165080D01*
X151793443Y-109113031D01*
X151820784Y-109070195D01*
X151834534Y-109025195D01*
X151841273Y-108966655D01*
X151843169Y-108941191D01*
X151853419Y-108853543D01*
X151871699Y-108797953D01*
X151902816Y-108760413D01*
X151906144Y-108757656D01*
X151977096Y-108719865D01*
X152044454Y-108727231D01*
G37*
X146783492Y-108563003D02*
X146820035Y-108572917D01*
X146869393Y-108594197D01*
X146937848Y-108629657D01*
X147031683Y-108682109D01*
X147157178Y-108754368D01*
X147200962Y-108779761D01*
X147298696Y-108834874D01*
X147384230Y-108880126D01*
X147448524Y-108910934D01*
X147482537Y-108922716D01*
X147483014Y-108922727D01*
X147516510Y-108911237D01*
X147579310Y-108880151D01*
X147661680Y-108834549D01*
X147733143Y-108792235D01*
X147889850Y-108699193D01*
X148014494Y-108631743D01*
X148112595Y-108588639D01*
X148189672Y-108568634D01*
X148251246Y-108570482D01*
X148302834Y-108592935D01*
X148349958Y-108634748D01*
X148363250Y-108649928D01*
X148405819Y-108714061D01*
X148419021Y-108774830D01*
X148400344Y-108835930D01*
X148347277Y-108901057D01*
X148257309Y-108973906D01*
X148127929Y-109058172D01*
X148057290Y-109100156D01*
X147953529Y-109160325D01*
X147860825Y-109213621D01*
X147788188Y-109254894D01*
X147744631Y-109278995D01*
X147740275Y-109281265D01*
X147723494Y-109292627D01*
X147710919Y-109311656D01*
X147701650Y-109344986D01*
X147694784Y-109399246D01*
X147689421Y-109481068D01*
X147684660Y-109597085D01*
X147680646Y-109719992D01*
X147676283Y-109853164D01*
X147672053Y-109969295D01*
X147668260Y-110060953D01*
X147665211Y-110120707D01*
X147663328Y-110141112D01*
X147636699Y-110161605D01*
X147587418Y-110190917D01*
X147533673Y-110219132D01*
X147493657Y-110236335D01*
X147485728Y-110237919D01*
X147450272Y-110228780D01*
X147394927Y-110207623D01*
X147389409Y-110205248D01*
X147331368Y-110169869D01*
X147292066Y-110128286D01*
X147291273Y-110126852D01*
X147281762Y-110085462D01*
X147274220Y-110004311D01*
X147269018Y-109889792D01*
X147266528Y-109748298D01*
X147266364Y-109698080D01*
X147266364Y-109315852D01*
X147179773Y-109261505D01*
X147104221Y-109215664D01*
X147018014Y-109165520D01*
X146989273Y-109149328D01*
X146844956Y-109068392D01*
X146736266Y-109005000D01*
X146658173Y-108954792D01*
X146605649Y-108913405D01*
X146573664Y-108876478D01*
X146557192Y-108839649D01*
X146551201Y-108798555D01*
X146550546Y-108768786D01*
X146571718Y-108684706D01*
X146627558Y-108614045D01*
X146706552Y-108570283D01*
X146723728Y-108566021D01*
X146753484Y-108561643D01*
X146783492Y-108563003D01*
G36*
X146783492Y-108563003D02*
G01*
X146820035Y-108572917D01*
X146869393Y-108594197D01*
X146937848Y-108629657D01*
X147031683Y-108682109D01*
X147157178Y-108754368D01*
X147200962Y-108779761D01*
X147298696Y-108834874D01*
X147384230Y-108880126D01*
X147448524Y-108910934D01*
X147482537Y-108922716D01*
X147483014Y-108922727D01*
X147516510Y-108911237D01*
X147579310Y-108880151D01*
X147661680Y-108834549D01*
X147733143Y-108792235D01*
X147889850Y-108699193D01*
X148014494Y-108631743D01*
X148112595Y-108588639D01*
X148189672Y-108568634D01*
X148251246Y-108570482D01*
X148302834Y-108592935D01*
X148349958Y-108634748D01*
X148363250Y-108649928D01*
X148405819Y-108714061D01*
X148419021Y-108774830D01*
X148400344Y-108835930D01*
X148347277Y-108901057D01*
X148257309Y-108973906D01*
X148127929Y-109058172D01*
X148057290Y-109100156D01*
X147953529Y-109160325D01*
X147860825Y-109213621D01*
X147788188Y-109254894D01*
X147744631Y-109278995D01*
X147740275Y-109281265D01*
X147723494Y-109292627D01*
X147710919Y-109311656D01*
X147701650Y-109344986D01*
X147694784Y-109399246D01*
X147689421Y-109481068D01*
X147684660Y-109597085D01*
X147680646Y-109719992D01*
X147676283Y-109853164D01*
X147672053Y-109969295D01*
X147668260Y-110060953D01*
X147665211Y-110120707D01*
X147663328Y-110141112D01*
X147636699Y-110161605D01*
X147587418Y-110190917D01*
X147533673Y-110219132D01*
X147493657Y-110236335D01*
X147485728Y-110237919D01*
X147450272Y-110228780D01*
X147394927Y-110207623D01*
X147389409Y-110205248D01*
X147331368Y-110169869D01*
X147292066Y-110128286D01*
X147291273Y-110126852D01*
X147281762Y-110085462D01*
X147274220Y-110004311D01*
X147269018Y-109889792D01*
X147266528Y-109748298D01*
X147266364Y-109698080D01*
X147266364Y-109315852D01*
X147179773Y-109261505D01*
X147104221Y-109215664D01*
X147018014Y-109165520D01*
X146989273Y-109149328D01*
X146844956Y-109068392D01*
X146736266Y-109005000D01*
X146658173Y-108954792D01*
X146605649Y-108913405D01*
X146573664Y-108876478D01*
X146557192Y-108839649D01*
X146551201Y-108798555D01*
X146550546Y-108768786D01*
X146571718Y-108684706D01*
X146627558Y-108614045D01*
X146706552Y-108570283D01*
X146723728Y-108566021D01*
X146753484Y-108561643D01*
X146783492Y-108563003D01*
G37*
X153122718Y-108715898D02*
X153261265Y-108718664D01*
X153379391Y-108722904D01*
X153469419Y-108728318D01*
X153523672Y-108734602D01*
X153532879Y-108736986D01*
X153581873Y-108778703D01*
X153616826Y-108855524D01*
X153634794Y-108957724D01*
X153633466Y-109069293D01*
X153629680Y-109101963D01*
X153622807Y-109131646D01*
X153609319Y-109162590D01*
X153585689Y-109199043D01*
X153548389Y-109245255D01*
X153493891Y-109305473D01*
X153418666Y-109383946D01*
X153319188Y-109484921D01*
X153191929Y-109612647D01*
X153134612Y-109670022D01*
X153011931Y-109793354D01*
X152900551Y-109906385D01*
X152804491Y-110004949D01*
X152727772Y-110084885D01*
X152674411Y-110142029D01*
X152648429Y-110172216D01*
X152646546Y-110175606D01*
X152668464Y-110180892D01*
X152729535Y-110185516D01*
X152822729Y-110189207D01*
X152941018Y-110191697D01*
X153077374Y-110192716D01*
X153093240Y-110192727D01*
X153249081Y-110193087D01*
X153365292Y-110194547D01*
X153448421Y-110197678D01*
X153505017Y-110203049D01*
X153541627Y-110211231D01*
X153564801Y-110222795D01*
X153578149Y-110234955D01*
X153611607Y-110302943D01*
X153608649Y-110379805D01*
X153570182Y-110446727D01*
X153553100Y-110461405D01*
X153531015Y-110472600D01*
X153497948Y-110480782D01*
X153447915Y-110486419D01*
X153374936Y-110489981D01*
X153273027Y-110491937D01*
X153136209Y-110492756D01*
X152981364Y-110492909D01*
X152808695Y-110492704D01*
X152676225Y-110491778D01*
X152577974Y-110489660D01*
X152507958Y-110485881D01*
X152460196Y-110479973D01*
X152428706Y-110471467D01*
X152407508Y-110459892D01*
X152392546Y-110446727D01*
X152368809Y-110415521D01*
X152354728Y-110372767D01*
X152348012Y-110306777D01*
X152346364Y-110211273D01*
X152346364Y-110022000D01*
X152834906Y-109531527D01*
X153323447Y-109041054D01*
X152883450Y-109033845D01*
X152728359Y-109030903D01*
X152612683Y-109027405D01*
X152529655Y-109022643D01*
X152472509Y-109015907D01*
X152434477Y-109006488D01*
X152408793Y-108993677D01*
X152394908Y-108982648D01*
X152352852Y-108917790D01*
X152351366Y-108845371D01*
X152389716Y-108778491D01*
X152407205Y-108762767D01*
X152429688Y-108747031D01*
X152456023Y-108735175D01*
X152492648Y-108726652D01*
X152546001Y-108720916D01*
X152622519Y-108717422D01*
X152728638Y-108715624D01*
X152870798Y-108714974D01*
X152971429Y-108714909D01*
X153122718Y-108715898D01*
G36*
X153122718Y-108715898D02*
G01*
X153261265Y-108718664D01*
X153379391Y-108722904D01*
X153469419Y-108728318D01*
X153523672Y-108734602D01*
X153532879Y-108736986D01*
X153581873Y-108778703D01*
X153616826Y-108855524D01*
X153634794Y-108957724D01*
X153633466Y-109069293D01*
X153629680Y-109101963D01*
X153622807Y-109131646D01*
X153609319Y-109162590D01*
X153585689Y-109199043D01*
X153548389Y-109245255D01*
X153493891Y-109305473D01*
X153418666Y-109383946D01*
X153319188Y-109484921D01*
X153191929Y-109612647D01*
X153134612Y-109670022D01*
X153011931Y-109793354D01*
X152900551Y-109906385D01*
X152804491Y-110004949D01*
X152727772Y-110084885D01*
X152674411Y-110142029D01*
X152648429Y-110172216D01*
X152646546Y-110175606D01*
X152668464Y-110180892D01*
X152729535Y-110185516D01*
X152822729Y-110189207D01*
X152941018Y-110191697D01*
X153077374Y-110192716D01*
X153093240Y-110192727D01*
X153249081Y-110193087D01*
X153365292Y-110194547D01*
X153448421Y-110197678D01*
X153505017Y-110203049D01*
X153541627Y-110211231D01*
X153564801Y-110222795D01*
X153578149Y-110234955D01*
X153611607Y-110302943D01*
X153608649Y-110379805D01*
X153570182Y-110446727D01*
X153553100Y-110461405D01*
X153531015Y-110472600D01*
X153497948Y-110480782D01*
X153447915Y-110486419D01*
X153374936Y-110489981D01*
X153273027Y-110491937D01*
X153136209Y-110492756D01*
X152981364Y-110492909D01*
X152808695Y-110492704D01*
X152676225Y-110491778D01*
X152577974Y-110489660D01*
X152507958Y-110485881D01*
X152460196Y-110479973D01*
X152428706Y-110471467D01*
X152407508Y-110459892D01*
X152392546Y-110446727D01*
X152368809Y-110415521D01*
X152354728Y-110372767D01*
X152348012Y-110306777D01*
X152346364Y-110211273D01*
X152346364Y-110022000D01*
X152834906Y-109531527D01*
X153323447Y-109041054D01*
X152883450Y-109033845D01*
X152728359Y-109030903D01*
X152612683Y-109027405D01*
X152529655Y-109022643D01*
X152472509Y-109015907D01*
X152434477Y-109006488D01*
X152408793Y-108993677D01*
X152394908Y-108982648D01*
X152352852Y-108917790D01*
X152351366Y-108845371D01*
X152389716Y-108778491D01*
X152407205Y-108762767D01*
X152429688Y-108747031D01*
X152456023Y-108735175D01*
X152492648Y-108726652D01*
X152546001Y-108720916D01*
X152622519Y-108717422D01*
X152728638Y-108715624D01*
X152870798Y-108714974D01*
X152971429Y-108714909D01*
X153122718Y-108715898D01*
G37*
X150062174Y-108716870D02*
X150117120Y-108718518D01*
X150362930Y-108726455D01*
X150526223Y-108894053D01*
X150600500Y-108971648D01*
X150647134Y-109025763D01*
X150671514Y-109065193D01*
X150679030Y-109098732D01*
X150675070Y-109135174D01*
X150674810Y-109136507D01*
X150643734Y-109219412D01*
X150592574Y-109261818D01*
X150523667Y-109263604D01*
X150439351Y-109224643D01*
X150351160Y-109153636D01*
X150229083Y-109038182D01*
X150036305Y-109038182D01*
X149939468Y-109039402D01*
X149876031Y-109045113D01*
X149833234Y-109058389D01*
X149798319Y-109082303D01*
X149778764Y-109100229D01*
X149724059Y-109176638D01*
X149715267Y-109256095D01*
X149752329Y-109337213D01*
X149790145Y-109380016D01*
X149825727Y-109413032D01*
X149857814Y-109434358D01*
X149897340Y-109446547D01*
X149955241Y-109452155D01*
X150042451Y-109453738D01*
X150105969Y-109453818D01*
X150345648Y-109453818D01*
X150688852Y-109797022D01*
X150680393Y-109983284D01*
X150671935Y-110169547D01*
X150516092Y-110325455D01*
X150360249Y-110481364D01*
X150065988Y-110488044D01*
X149940104Y-110490058D01*
X149850940Y-110488770D01*
X149789093Y-110483224D01*
X149745161Y-110472465D01*
X149709743Y-110455534D01*
X149702455Y-110451073D01*
X149650403Y-110411126D01*
X149583473Y-110350320D01*
X149523500Y-110289518D01*
X149447302Y-110190815D01*
X149412023Y-110103771D01*
X149418102Y-110030744D01*
X149465138Y-109974673D01*
X149515546Y-109947463D01*
X149563618Y-109944420D01*
X149618529Y-109968616D01*
X149689459Y-110023123D01*
X149737091Y-110065727D01*
X149875235Y-110192727D01*
X150046974Y-110192727D01*
X150137052Y-110191376D01*
X150195951Y-110184266D01*
X150238659Y-110166810D01*
X150280164Y-110134425D01*
X150301174Y-110114955D01*
X150364909Y-110038498D01*
X150383810Y-109967895D01*
X150357797Y-109897625D01*
X150297046Y-109831105D01*
X150256763Y-109796560D01*
X150221777Y-109774275D01*
X150180751Y-109761563D01*
X150122352Y-109755735D01*
X150035245Y-109754102D01*
X149972059Y-109754018D01*
X149733663Y-109754000D01*
X149593680Y-109621227D01*
X149497423Y-109521400D01*
X149435433Y-109433324D01*
X149401852Y-109345895D01*
X149390817Y-109248007D01*
X149390728Y-109236699D01*
X149396902Y-109144682D01*
X149419627Y-109067731D01*
X149465207Y-108993544D01*
X149539946Y-108909818D01*
X149576972Y-108873263D01*
X149645449Y-108809973D01*
X149705251Y-108765477D01*
X149766600Y-108736849D01*
X149839721Y-108721157D01*
X149934837Y-108715474D01*
X150062174Y-108716870D01*
G36*
X150062174Y-108716870D02*
G01*
X150117120Y-108718518D01*
X150362930Y-108726455D01*
X150526223Y-108894053D01*
X150600500Y-108971648D01*
X150647134Y-109025763D01*
X150671514Y-109065193D01*
X150679030Y-109098732D01*
X150675070Y-109135174D01*
X150674810Y-109136507D01*
X150643734Y-109219412D01*
X150592574Y-109261818D01*
X150523667Y-109263604D01*
X150439351Y-109224643D01*
X150351160Y-109153636D01*
X150229083Y-109038182D01*
X150036305Y-109038182D01*
X149939468Y-109039402D01*
X149876031Y-109045113D01*
X149833234Y-109058389D01*
X149798319Y-109082303D01*
X149778764Y-109100229D01*
X149724059Y-109176638D01*
X149715267Y-109256095D01*
X149752329Y-109337213D01*
X149790145Y-109380016D01*
X149825727Y-109413032D01*
X149857814Y-109434358D01*
X149897340Y-109446547D01*
X149955241Y-109452155D01*
X150042451Y-109453738D01*
X150105969Y-109453818D01*
X150345648Y-109453818D01*
X150688852Y-109797022D01*
X150680393Y-109983284D01*
X150671935Y-110169547D01*
X150516092Y-110325455D01*
X150360249Y-110481364D01*
X150065988Y-110488044D01*
X149940104Y-110490058D01*
X149850940Y-110488770D01*
X149789093Y-110483224D01*
X149745161Y-110472465D01*
X149709743Y-110455534D01*
X149702455Y-110451073D01*
X149650403Y-110411126D01*
X149583473Y-110350320D01*
X149523500Y-110289518D01*
X149447302Y-110190815D01*
X149412023Y-110103771D01*
X149418102Y-110030744D01*
X149465138Y-109974673D01*
X149515546Y-109947463D01*
X149563618Y-109944420D01*
X149618529Y-109968616D01*
X149689459Y-110023123D01*
X149737091Y-110065727D01*
X149875235Y-110192727D01*
X150046974Y-110192727D01*
X150137052Y-110191376D01*
X150195951Y-110184266D01*
X150238659Y-110166810D01*
X150280164Y-110134425D01*
X150301174Y-110114955D01*
X150364909Y-110038498D01*
X150383810Y-109967895D01*
X150357797Y-109897625D01*
X150297046Y-109831105D01*
X150256763Y-109796560D01*
X150221777Y-109774275D01*
X150180751Y-109761563D01*
X150122352Y-109755735D01*
X150035245Y-109754102D01*
X149972059Y-109754018D01*
X149733663Y-109754000D01*
X149593680Y-109621227D01*
X149497423Y-109521400D01*
X149435433Y-109433324D01*
X149401852Y-109345895D01*
X149390817Y-109248007D01*
X149390728Y-109236699D01*
X149396902Y-109144682D01*
X149419627Y-109067731D01*
X149465207Y-108993544D01*
X149539946Y-108909818D01*
X149576972Y-108873263D01*
X149645449Y-108809973D01*
X149705251Y-108765477D01*
X149766600Y-108736849D01*
X149839721Y-108721157D01*
X149934837Y-108715474D01*
X150062174Y-108716870D01*
G37*
X156386649Y-108887472D02*
X156464988Y-108967970D01*
X156514192Y-109026821D01*
X156540151Y-109072482D01*
X156548750Y-109113411D01*
X156548909Y-109120575D01*
X156535271Y-109186470D01*
X156506682Y-109230876D01*
X156448073Y-109265366D01*
X156384884Y-109262619D01*
X156311729Y-109221092D01*
X156237182Y-109153636D01*
X156123464Y-109038182D01*
X155925080Y-109038182D01*
X155828313Y-109038973D01*
X155765097Y-109043701D01*
X155722802Y-109055900D01*
X155688798Y-109079103D01*
X155652894Y-109114327D01*
X155579091Y-109190471D01*
X155579091Y-110021718D01*
X155666656Y-110107223D01*
X155713455Y-110150730D01*
X155752868Y-110176226D01*
X155799675Y-110188520D01*
X155868654Y-110192418D01*
X155929514Y-110192727D01*
X156104808Y-110192727D01*
X156189473Y-110099013D01*
X156239130Y-110039522D01*
X156263112Y-109991048D01*
X156269049Y-109932619D01*
X156267206Y-109885422D01*
X156260273Y-109765545D01*
X156061030Y-109758915D01*
X155939282Y-109749921D01*
X155856837Y-109730109D01*
X155807385Y-109695904D01*
X155784618Y-109643729D01*
X155781137Y-109600297D01*
X155788381Y-109545542D01*
X155813991Y-109505843D01*
X155863782Y-109479018D01*
X155943569Y-109462886D01*
X156059167Y-109455263D01*
X156171517Y-109453818D01*
X156291845Y-109454300D01*
X156375149Y-109456752D01*
X156430585Y-109462684D01*
X156467308Y-109473604D01*
X156494474Y-109491023D01*
X156515323Y-109510496D01*
X156539710Y-109537601D01*
X156555878Y-109567213D01*
X156565507Y-109608952D01*
X156570278Y-109672436D01*
X156571870Y-109767286D01*
X156572000Y-109834915D01*
X156569303Y-109978926D01*
X156560893Y-110081851D01*
X156546294Y-110148490D01*
X156539175Y-110165010D01*
X156500287Y-110219990D01*
X156437581Y-110290278D01*
X156363944Y-110363158D01*
X156292266Y-110425915D01*
X156235435Y-110465834D01*
X156232927Y-110467149D01*
X156188460Y-110477656D01*
X156110036Y-110485188D01*
X156009786Y-110489679D01*
X155899842Y-110491064D01*
X155792338Y-110489278D01*
X155699404Y-110484258D01*
X155633174Y-110475936D01*
X155613728Y-110470460D01*
X155576720Y-110445431D01*
X155518819Y-110395984D01*
X155450698Y-110331415D01*
X155429000Y-110309604D01*
X155290455Y-110168270D01*
X155283426Y-109645676D01*
X155281948Y-109438855D01*
X155283639Y-109275532D01*
X155288475Y-109156437D01*
X155296435Y-109082301D01*
X155301947Y-109061401D01*
X155330172Y-109016396D01*
X155382230Y-108952101D01*
X155448113Y-108880647D01*
X155465570Y-108863087D01*
X155603643Y-108726455D01*
X156224388Y-108726455D01*
X156386649Y-108887472D01*
G36*
X156386649Y-108887472D02*
G01*
X156464988Y-108967970D01*
X156514192Y-109026821D01*
X156540151Y-109072482D01*
X156548750Y-109113411D01*
X156548909Y-109120575D01*
X156535271Y-109186470D01*
X156506682Y-109230876D01*
X156448073Y-109265366D01*
X156384884Y-109262619D01*
X156311729Y-109221092D01*
X156237182Y-109153636D01*
X156123464Y-109038182D01*
X155925080Y-109038182D01*
X155828313Y-109038973D01*
X155765097Y-109043701D01*
X155722802Y-109055900D01*
X155688798Y-109079103D01*
X155652894Y-109114327D01*
X155579091Y-109190471D01*
X155579091Y-110021718D01*
X155666656Y-110107223D01*
X155713455Y-110150730D01*
X155752868Y-110176226D01*
X155799675Y-110188520D01*
X155868654Y-110192418D01*
X155929514Y-110192727D01*
X156104808Y-110192727D01*
X156189473Y-110099013D01*
X156239130Y-110039522D01*
X156263112Y-109991048D01*
X156269049Y-109932619D01*
X156267206Y-109885422D01*
X156260273Y-109765545D01*
X156061030Y-109758915D01*
X155939282Y-109749921D01*
X155856837Y-109730109D01*
X155807385Y-109695904D01*
X155784618Y-109643729D01*
X155781137Y-109600297D01*
X155788381Y-109545542D01*
X155813991Y-109505843D01*
X155863782Y-109479018D01*
X155943569Y-109462886D01*
X156059167Y-109455263D01*
X156171517Y-109453818D01*
X156291845Y-109454300D01*
X156375149Y-109456752D01*
X156430585Y-109462684D01*
X156467308Y-109473604D01*
X156494474Y-109491023D01*
X156515323Y-109510496D01*
X156539710Y-109537601D01*
X156555878Y-109567213D01*
X156565507Y-109608952D01*
X156570278Y-109672436D01*
X156571870Y-109767286D01*
X156572000Y-109834915D01*
X156569303Y-109978926D01*
X156560893Y-110081851D01*
X156546294Y-110148490D01*
X156539175Y-110165010D01*
X156500287Y-110219990D01*
X156437581Y-110290278D01*
X156363944Y-110363158D01*
X156292266Y-110425915D01*
X156235435Y-110465834D01*
X156232927Y-110467149D01*
X156188460Y-110477656D01*
X156110036Y-110485188D01*
X156009786Y-110489679D01*
X155899842Y-110491064D01*
X155792338Y-110489278D01*
X155699404Y-110484258D01*
X155633174Y-110475936D01*
X155613728Y-110470460D01*
X155576720Y-110445431D01*
X155518819Y-110395984D01*
X155450698Y-110331415D01*
X155429000Y-110309604D01*
X155290455Y-110168270D01*
X155283426Y-109645676D01*
X155281948Y-109438855D01*
X155283639Y-109275532D01*
X155288475Y-109156437D01*
X155296435Y-109082301D01*
X155301947Y-109061401D01*
X155330172Y-109016396D01*
X155382230Y-108952101D01*
X155448113Y-108880647D01*
X155465570Y-108863087D01*
X155603643Y-108726455D01*
X156224388Y-108726455D01*
X156386649Y-108887472D01*
G37*
D13*
%TO.C,G\u002A\u002A*%
X134550000Y-92700000D02*
X134550000Y-95000000D01*
X134550000Y-92700000D02*
X140750000Y-92700000D01*
X134550000Y-95000000D02*
X140750000Y-95000000D01*
X135650000Y-92700000D02*
X134550000Y-93800000D01*
X139650000Y-92700000D02*
X140750000Y-93800000D01*
X140750000Y-92700000D02*
X140750000Y-95000000D01*
D10*
X134550000Y-93800000D02*
X134550000Y-92700000D01*
X135650000Y-92700000D01*
X134550000Y-93800000D01*
G36*
X134550000Y-93800000D02*
G01*
X134550000Y-92700000D01*
X135650000Y-92700000D01*
X134550000Y-93800000D01*
G37*
X140750000Y-93800000D02*
X139650000Y-92700000D01*
X140750000Y-92700000D01*
X140750000Y-93800000D01*
G36*
X140750000Y-93800000D02*
G01*
X139650000Y-92700000D01*
X140750000Y-92700000D01*
X140750000Y-93800000D01*
G37*
%TD*%
M02*
