M48
; DRILL file {KiCad 7.0.2-0} date 2023 May 25, Thursday 20:58:02
; FORMAT={-:-/ absolute / metric / decimal}
; #@! TF.CreationDate,2023-05-25T20:58:02-04:00
; #@! TF.GenerationSoftware,Kicad,Pcbnew,7.0.2-0
; #@! TF.FileFunction,Plated,1,6,PTH
FMAT,2
METRIC
; #@! TA.AperFunction,Plated,PTH,ViaDrill
T1C0.300
; #@! TA.AperFunction,Plated,PTH,ComponentDrill
T2C0.800
; #@! TA.AperFunction,Plated,PTH,ComponentDrill
T3C1.000
; #@! TA.AperFunction,Plated,PTH,ComponentDrill
T4C3.200
%
G90
G05
T1
X137.678Y-108.683
X137.717Y-116.217
X138.244Y-109.248
X138.283Y-116.783
X138.967Y-106.033
X138.967Y-121.717
X139.078Y-114.016
X139.533Y-105.467
X139.533Y-122.283
X139.644Y-114.581
X140.217Y-107.717
X140.783Y-108.283
X141.467Y-109.033
X141.467Y-114.033
X142.033Y-108.467
X142.033Y-113.467
X142.447Y-107.274
X142.467Y-112.783
X142.75Y-99.0
X142.75Y-120.0
X143.013Y-106.708
X143.033Y-112.217
X144.25Y-120.0
X144.75Y-93.0
X145.75Y-93.0
X146.1Y-103.498
X146.5Y-119.5
X146.6Y-115.0
X146.6Y-124.137
X146.75Y-93.0
X146.75Y-126.0
X146.9Y-103.498
X147.25Y-99.5
X147.25Y-105.5
X147.25Y-106.75
X147.4Y-115.0
X147.4Y-124.137
X147.6Y-103.998
X147.75Y-93.0
X147.75Y-126.0
X148.1Y-115.5
X148.4Y-103.998
X148.75Y-93.0
X148.75Y-126.0
X148.9Y-115.5
X149.0Y-99.5
X149.1Y-103.5
X149.25Y-120.0
X149.6Y-115.0
X149.75Y-93.0
X149.75Y-126.0
X149.9Y-103.5
X150.4Y-115.0
X150.75Y-126.0
X151.75Y-126.0
X152.25Y-93.0
X152.5Y-113.25
X152.75Y-99.5
X153.25Y-93.0
X153.25Y-120.0
X153.6Y-103.998
X154.1Y-115.5
X154.25Y-93.0
X154.25Y-126.0
X154.4Y-103.998
X154.5Y-114.25
X154.75Y-99.5
X154.75Y-120.0
X154.9Y-115.5
X155.1Y-103.498
X155.25Y-93.0
X155.25Y-126.0
X155.6Y-115.0
X155.9Y-103.498
X156.25Y-93.0
X156.25Y-126.0
X156.4Y-115.0
X156.6Y-94.816
X156.6Y-100.744
X156.75Y-120.0
X157.1Y-115.5
X157.25Y-93.0
X157.25Y-126.0
X157.4Y-94.816
X157.4Y-100.744
X157.5Y-98.75
X157.9Y-115.5
X158.25Y-112.25
X158.25Y-126.0
X159.25Y-126.0
X159.5Y-120.0
X159.75Y-99.0
X159.75Y-113.25
X161.25Y-99.0
X161.25Y-120.0
X161.5Y-104.0
X161.5Y-105.0
X161.5Y-106.0
X161.5Y-107.0
X161.5Y-108.0
X161.5Y-109.0
X161.5Y-110.0
X163.5Y-107.5
X163.5Y-112.01
X164.5Y-104.0
X172.5Y-106.0
X172.5Y-109.0
X174.0Y-106.25
X175.75Y-108.5
T2
X141.155Y-99.5
X141.155Y-119.5
X162.845Y-99.5
X162.845Y-119.5
T3
X133.0Y-108.25
X133.0Y-110.79
X170.96Y-114.5
X173.5Y-114.5
T4
X133.09Y-99.0
X133.09Y-120.0
X170.91Y-99.0
X170.91Y-120.0
T0
M30
