%TF.GenerationSoftware,KiCad,Pcbnew,7.0.2-0*%
%TF.CreationDate,2023-05-03T13:11:08-04:00*%
%TF.ProjectId,szg-c2c-txr4,737a672d-6332-4632-9d74-7872342e6b69,A*%
%TF.SameCoordinates,Original*%
%TF.FileFunction,Soldermask,Bot*%
%TF.FilePolarity,Negative*%
%FSLAX46Y46*%
G04 Gerber Fmt 4.6, Leading zero omitted, Abs format (unit mm)*
G04 Created by KiCad (PCBNEW 7.0.2-0) date 2023-05-03 13:11:08*
%MOMM*%
%LPD*%
G01*
G04 APERTURE LIST*
G04 Aperture macros list*
%AMRoundRect*
0 Rectangle with rounded corners*
0 $1 Rounding radius*
0 $2 $3 $4 $5 $6 $7 $8 $9 X,Y pos of 4 corners*
0 Add a 4 corners polygon primitive as box body*
4,1,4,$2,$3,$4,$5,$6,$7,$8,$9,$2,$3,0*
0 Add four circle primitives for the rounded corners*
1,1,$1+$1,$2,$3*
1,1,$1+$1,$4,$5*
1,1,$1+$1,$6,$7*
1,1,$1+$1,$8,$9*
0 Add four rect primitives between the rounded corners*
20,1,$1+$1,$2,$3,$4,$5,0*
20,1,$1+$1,$4,$5,$6,$7,0*
20,1,$1+$1,$6,$7,$8,$9,0*
20,1,$1+$1,$8,$9,$2,$3,0*%
%AMFreePoly0*
4,1,21,-0.725000,0.712500,-0.709930,0.815934,-0.657520,0.923140,-0.573140,1.007520,-0.465934,1.059930,-0.362500,1.075000,0.362500,1.075000,0.465934,1.059930,0.573140,1.007520,0.657520,0.923140,0.709930,0.815934,0.725000,0.712500,0.725000,-0.712500,0.709930,-0.815934,0.657520,-0.923140,0.573140,-1.007520,0.465934,-1.059930,0.362500,-1.075000,-0.362500,-1.075000,-0.725000,-0.712500,
-0.725000,0.712500,-0.725000,0.712500,$1*%
G04 Aperture macros list end*
%ADD10C,3.600000*%
%ADD11C,6.500000*%
%ADD12C,2.000000*%
%ADD13RoundRect,0.140000X0.170000X-0.140000X0.170000X0.140000X-0.170000X0.140000X-0.170000X-0.140000X0*%
%ADD14RoundRect,0.140000X0.140000X0.170000X-0.140000X0.170000X-0.140000X-0.170000X0.140000X-0.170000X0*%
%ADD15RoundRect,0.140000X-0.170000X0.140000X-0.170000X-0.140000X0.170000X-0.140000X0.170000X0.140000X0*%
%ADD16FreePoly0,180.000000*%
%ADD17RoundRect,0.075000X0.275000X0.075000X-0.275000X0.075000X-0.275000X-0.075000X0.275000X-0.075000X0*%
%ADD18RoundRect,0.075000X0.075000X-0.275000X0.075000X0.275000X-0.075000X0.275000X-0.075000X-0.275000X0*%
%ADD19RoundRect,0.075000X-0.275000X-0.075000X0.275000X-0.075000X0.275000X0.075000X-0.275000X0.075000X0*%
%ADD20RoundRect,0.075000X-0.075000X0.275000X-0.075000X-0.275000X0.075000X-0.275000X0.075000X0.275000X0*%
%ADD21C,1.301600*%
%ADD22RoundRect,0.050800X0.150000X0.725000X-0.150000X0.725000X-0.150000X-0.725000X0.150000X-0.725000X0*%
%ADD23RoundRect,0.050800X1.270000X0.320000X-1.270000X0.320000X-1.270000X-0.320000X1.270000X-0.320000X0*%
%ADD24RoundRect,0.050800X2.350000X0.320000X-2.350000X0.320000X-2.350000X-0.320000X2.350000X-0.320000X0*%
%ADD25C,1.020000*%
%ADD26RoundRect,0.050800X-1.270000X-0.320000X1.270000X-0.320000X1.270000X0.320000X-1.270000X0.320000X0*%
%ADD27RoundRect,0.050800X-2.350000X-0.320000X2.350000X-0.320000X2.350000X0.320000X-2.350000X0.320000X0*%
%ADD28RoundRect,0.050800X-0.150000X-0.725000X0.150000X-0.725000X0.150000X0.725000X-0.150000X0.725000X0*%
%ADD29R,1.700000X1.700000*%
%ADD30O,1.700000X1.700000*%
%ADD31C,0.450000*%
G04 APERTURE END LIST*
D10*
%TO.C,H1*%
X133090000Y-99000000D03*
D11*
X133090000Y-99000000D03*
%TD*%
D10*
%TO.C,H2*%
X170910000Y-99000000D03*
D11*
X170910000Y-99000000D03*
%TD*%
D10*
%TO.C,H4*%
X170910000Y-120000000D03*
D11*
X170910000Y-120000000D03*
%TD*%
D10*
%TO.C,H3*%
X133090000Y-120000000D03*
D11*
X133090000Y-120000000D03*
%TD*%
D12*
%TO.C,FID7*%
X174500000Y-94500000D03*
%TD*%
%TO.C,FID8*%
X129500000Y-94500000D03*
%TD*%
D13*
%TO.C,C2*%
X146750000Y-93980000D03*
X146750000Y-93020000D03*
%TD*%
D14*
%TO.C,C20*%
X166730000Y-110000000D03*
X165770000Y-110000000D03*
%TD*%
%TO.C,C17*%
X174210000Y-108250000D03*
X173250000Y-108250000D03*
%TD*%
D15*
%TO.C,C9*%
X158250000Y-125040000D03*
X158250000Y-126000000D03*
%TD*%
D13*
%TO.C,C5*%
X153250000Y-93980000D03*
X153250000Y-93020000D03*
%TD*%
%TO.C,C1*%
X145750000Y-93980000D03*
X145750000Y-93020000D03*
%TD*%
%TO.C,C8*%
X156250000Y-93980000D03*
X156250000Y-93020000D03*
%TD*%
D16*
%TO.C,U1*%
X170750000Y-109500000D03*
D17*
X172050000Y-108750000D03*
X172050000Y-109250000D03*
X172050000Y-109750000D03*
X172050000Y-110250000D03*
D18*
X171250000Y-111150000D03*
X170750000Y-111150000D03*
X170250000Y-111150000D03*
D19*
X169450000Y-110250000D03*
X169450000Y-109750000D03*
X169450000Y-109250000D03*
X169450000Y-108750000D03*
D20*
X170250000Y-107850000D03*
X170750000Y-107850000D03*
X171250000Y-107850000D03*
%TD*%
D12*
%TO.C,FID1*%
X174500000Y-124500000D03*
%TD*%
D15*
%TO.C,C10*%
X157250000Y-125040000D03*
X157250000Y-126000000D03*
%TD*%
D14*
%TO.C,C19*%
X166730000Y-109000000D03*
X165770000Y-109000000D03*
%TD*%
D15*
%TO.C,C12*%
X155250000Y-125040000D03*
X155250000Y-126000000D03*
%TD*%
%TO.C,C14*%
X149750000Y-125040000D03*
X149750000Y-126000000D03*
%TD*%
D21*
%TO.C,J1*%
X162845000Y-99500000D03*
X141155000Y-99500000D03*
D22*
X158750000Y-95910000D03*
X158750000Y-102090000D03*
X158250000Y-95910000D03*
X158250000Y-102090000D03*
X157250000Y-95910000D03*
X157250000Y-102090000D03*
X156750000Y-95910000D03*
X156750000Y-102090000D03*
X155750000Y-95910000D03*
X155750000Y-102090000D03*
X155250010Y-95910000D03*
X155250010Y-102090000D03*
X154250000Y-95910000D03*
X154250000Y-102090000D03*
X153750000Y-95910000D03*
X153750000Y-102090000D03*
X152750000Y-95910000D03*
X152750000Y-102090000D03*
X152250000Y-95910000D03*
X152250000Y-102090000D03*
X151250000Y-95910000D03*
X151250000Y-102090000D03*
X150750000Y-95910000D03*
X150750000Y-102090000D03*
X149750000Y-95910000D03*
X149750000Y-102090000D03*
X149250000Y-95910000D03*
X149250000Y-102090000D03*
X148250000Y-95910000D03*
X148250000Y-102090000D03*
X147750000Y-95910000D03*
X147750000Y-102090000D03*
X146750000Y-95910000D03*
X146750000Y-102090000D03*
X146250010Y-95910000D03*
X146250010Y-102090000D03*
X145250000Y-95910000D03*
X145250000Y-102090000D03*
X144750000Y-95910000D03*
X144750000Y-102090000D03*
D23*
X160440000Y-99000000D03*
D24*
X155180000Y-99000000D03*
X148830000Y-99000000D03*
D23*
X143560000Y-99000000D03*
D25*
X161240000Y-101030000D03*
X142760000Y-101030000D03*
%TD*%
D13*
%TO.C,C7*%
X155250000Y-93980000D03*
X155250000Y-93020000D03*
%TD*%
D25*
%TO.C,J2*%
X161240000Y-117970000D03*
X142760000Y-117970000D03*
D26*
X160440000Y-120000000D03*
D27*
X155170000Y-120000000D03*
X148820000Y-120000000D03*
D26*
X143560000Y-120000000D03*
D28*
X159250000Y-116910000D03*
X159250000Y-123090000D03*
X158750000Y-116910000D03*
X158750000Y-123090000D03*
X157749990Y-116910000D03*
X157749990Y-123090000D03*
X157250000Y-116910000D03*
X157250000Y-123090000D03*
X156250000Y-116910000D03*
X156250000Y-123090000D03*
X155750000Y-116910000D03*
X155750000Y-123090000D03*
X154750000Y-116910000D03*
X154750000Y-123090000D03*
X154250000Y-116910000D03*
X154250000Y-123090000D03*
X153250000Y-116910000D03*
X153250000Y-123090000D03*
X152750000Y-116910000D03*
X152750000Y-123090000D03*
X151750000Y-116910000D03*
X151750000Y-123090000D03*
X151250000Y-116910000D03*
X151250000Y-123090000D03*
X150250000Y-116910000D03*
X150250000Y-123090000D03*
X149750000Y-116910000D03*
X149750000Y-123090000D03*
X148749990Y-116910000D03*
X148749990Y-123090000D03*
X148250000Y-116910000D03*
X148250000Y-123090000D03*
X147250000Y-116910000D03*
X147250000Y-123090000D03*
X146750000Y-116910000D03*
X146750000Y-123090000D03*
X145750000Y-116910000D03*
X145750000Y-123090000D03*
X145250000Y-116910000D03*
X145250000Y-123090000D03*
D21*
X162845000Y-119500000D03*
X141155000Y-119500000D03*
%TD*%
D15*
%TO.C,C16*%
X147750000Y-125040000D03*
X147750000Y-126000000D03*
%TD*%
D13*
%TO.C,C4*%
X148750000Y-93980000D03*
X148750000Y-93020000D03*
%TD*%
%TO.C,C6*%
X154250000Y-93980000D03*
X154250000Y-93020000D03*
%TD*%
D29*
%TO.C,J3*%
X133000000Y-108250000D03*
D30*
X133000000Y-110790000D03*
%TD*%
D12*
%TO.C,FID2*%
X129500000Y-124500000D03*
%TD*%
D13*
%TO.C,C3*%
X147750000Y-93980000D03*
X147750000Y-93020000D03*
%TD*%
D14*
%TO.C,C21*%
X166730000Y-111000000D03*
X165770000Y-111000000D03*
%TD*%
D15*
%TO.C,C13*%
X150750000Y-125040000D03*
X150750000Y-126000000D03*
%TD*%
%TO.C,C15*%
X148750000Y-125040000D03*
X148750000Y-126000000D03*
%TD*%
%TO.C,C11*%
X156250000Y-125020000D03*
X156250000Y-125980000D03*
%TD*%
D14*
%TO.C,C18*%
X166730000Y-108000000D03*
X165770000Y-108000000D03*
%TD*%
D31*
X159500000Y-120000000D03*
X153250000Y-120000000D03*
X147250000Y-99500000D03*
X152500000Y-113250000D03*
X146500000Y-119500000D03*
X154250000Y-126000000D03*
X149250000Y-120000000D03*
X161250000Y-120000000D03*
X159750000Y-99000000D03*
X152750000Y-99500000D03*
X154500000Y-114250000D03*
X161250000Y-99000000D03*
X144750000Y-93000000D03*
X144250000Y-120000000D03*
X157250000Y-93000000D03*
X154750000Y-120000000D03*
X154750000Y-99500000D03*
X150000000Y-99500000D03*
X151750000Y-126000000D03*
X159250000Y-126000000D03*
X142750000Y-120000000D03*
X157500000Y-98750000D03*
X146750000Y-126000000D03*
X142750000Y-99000000D03*
X156750000Y-120000000D03*
X149000000Y-99500000D03*
X156400000Y-115000000D03*
X154250000Y-93000000D03*
X155600000Y-115000000D03*
X153250000Y-93000000D03*
X150400000Y-115000000D03*
X148750000Y-93000000D03*
X147750000Y-93000000D03*
X149600000Y-115000000D03*
X146750000Y-93000000D03*
X148900000Y-115500000D03*
X148100000Y-115500000D03*
X145750000Y-93000000D03*
X147750000Y-126000000D03*
X146100000Y-103498408D03*
X146900000Y-103498408D03*
X148750000Y-126000000D03*
X149750000Y-126000000D03*
X147600000Y-103998408D03*
X148400000Y-103998408D03*
X150750000Y-126000000D03*
X153600000Y-103998408D03*
X155250000Y-126000000D03*
X156250000Y-126000000D03*
X154400000Y-103998408D03*
X157250000Y-126000000D03*
X155100000Y-103498408D03*
X158250000Y-126000000D03*
X155900000Y-103498408D03*
X154900000Y-115500000D03*
X165750000Y-110000000D03*
X154100000Y-115500000D03*
X165750000Y-111000000D03*
X149900000Y-103498408D03*
X165750000Y-108000000D03*
X165750000Y-109000000D03*
X149100000Y-103498408D03*
X156250000Y-93000000D03*
X157900000Y-115500000D03*
X157100000Y-115500000D03*
X155250000Y-93000000D03*
X147250000Y-106750000D03*
X159750000Y-113250000D03*
X158250000Y-112250000D03*
X147250000Y-105500000D03*
X138967157Y-106032843D03*
X139078135Y-114015502D03*
X139643821Y-114581188D03*
X139532843Y-105467157D03*
X143013040Y-106707916D03*
X143032843Y-112217157D03*
X137678415Y-108682654D03*
X137717157Y-116217157D03*
X142447354Y-107273602D03*
X142467157Y-112782843D03*
X138282843Y-116782843D03*
X138244101Y-109248340D03*
X142032843Y-108467157D03*
X142032843Y-113467157D03*
X138967157Y-121717157D03*
X140217157Y-107717157D03*
X141467157Y-109032843D03*
X141467157Y-114032843D03*
X139532843Y-122282843D03*
X140782843Y-108282843D03*
X147400000Y-124137046D03*
X156600000Y-100743729D03*
X147400000Y-115000000D03*
X156600000Y-94816240D03*
X146600000Y-124137046D03*
X157400000Y-100743729D03*
X157400000Y-94816240D03*
X146600000Y-115000000D03*
M02*
