%TF.GenerationSoftware,KiCad,Pcbnew,7.0.2-0*%
%TF.CreationDate,2023-05-25T20:57:36-04:00*%
%TF.ProjectId,szg-c2c-txr4,737a672d-6332-4632-9d74-7872342e6b69,A*%
%TF.SameCoordinates,Original*%
%TF.FileFunction,Legend,Bot*%
%TF.FilePolarity,Positive*%
%FSLAX46Y46*%
G04 Gerber Fmt 4.6, Leading zero omitted, Abs format (unit mm)*
G04 Created by KiCad (PCBNEW 7.0.2-0) date 2023-05-25 20:57:36*
%MOMM*%
%LPD*%
G01*
G04 APERTURE LIST*
%ADD10C,0.150000*%
%ADD11C,0.120000*%
G04 APERTURE END LIST*
D10*
X168809523Y-114105000D02*
X168666666Y-114152619D01*
X168666666Y-114152619D02*
X168428571Y-114152619D01*
X168428571Y-114152619D02*
X168333333Y-114105000D01*
X168333333Y-114105000D02*
X168285714Y-114057380D01*
X168285714Y-114057380D02*
X168238095Y-113962142D01*
X168238095Y-113962142D02*
X168238095Y-113866904D01*
X168238095Y-113866904D02*
X168285714Y-113771666D01*
X168285714Y-113771666D02*
X168333333Y-113724047D01*
X168333333Y-113724047D02*
X168428571Y-113676428D01*
X168428571Y-113676428D02*
X168619047Y-113628809D01*
X168619047Y-113628809D02*
X168714285Y-113581190D01*
X168714285Y-113581190D02*
X168761904Y-113533571D01*
X168761904Y-113533571D02*
X168809523Y-113438333D01*
X168809523Y-113438333D02*
X168809523Y-113343095D01*
X168809523Y-113343095D02*
X168761904Y-113247857D01*
X168761904Y-113247857D02*
X168714285Y-113200238D01*
X168714285Y-113200238D02*
X168619047Y-113152619D01*
X168619047Y-113152619D02*
X168380952Y-113152619D01*
X168380952Y-113152619D02*
X168238095Y-113200238D01*
X167857142Y-114105000D02*
X167714285Y-114152619D01*
X167714285Y-114152619D02*
X167476190Y-114152619D01*
X167476190Y-114152619D02*
X167380952Y-114105000D01*
X167380952Y-114105000D02*
X167333333Y-114057380D01*
X167333333Y-114057380D02*
X167285714Y-113962142D01*
X167285714Y-113962142D02*
X167285714Y-113866904D01*
X167285714Y-113866904D02*
X167333333Y-113771666D01*
X167333333Y-113771666D02*
X167380952Y-113724047D01*
X167380952Y-113724047D02*
X167476190Y-113676428D01*
X167476190Y-113676428D02*
X167666666Y-113628809D01*
X167666666Y-113628809D02*
X167761904Y-113581190D01*
X167761904Y-113581190D02*
X167809523Y-113533571D01*
X167809523Y-113533571D02*
X167857142Y-113438333D01*
X167857142Y-113438333D02*
X167857142Y-113343095D01*
X167857142Y-113343095D02*
X167809523Y-113247857D01*
X167809523Y-113247857D02*
X167761904Y-113200238D01*
X167761904Y-113200238D02*
X167666666Y-113152619D01*
X167666666Y-113152619D02*
X167428571Y-113152619D01*
X167428571Y-113152619D02*
X167285714Y-113200238D01*
X166285714Y-114057380D02*
X166333333Y-114105000D01*
X166333333Y-114105000D02*
X166476190Y-114152619D01*
X166476190Y-114152619D02*
X166571428Y-114152619D01*
X166571428Y-114152619D02*
X166714285Y-114105000D01*
X166714285Y-114105000D02*
X166809523Y-114009761D01*
X166809523Y-114009761D02*
X166857142Y-113914523D01*
X166857142Y-113914523D02*
X166904761Y-113724047D01*
X166904761Y-113724047D02*
X166904761Y-113581190D01*
X166904761Y-113581190D02*
X166857142Y-113390714D01*
X166857142Y-113390714D02*
X166809523Y-113295476D01*
X166809523Y-113295476D02*
X166714285Y-113200238D01*
X166714285Y-113200238D02*
X166571428Y-113152619D01*
X166571428Y-113152619D02*
X166476190Y-113152619D01*
X166476190Y-113152619D02*
X166333333Y-113200238D01*
X166333333Y-113200238D02*
X166285714Y-113247857D01*
X168761904Y-115248809D02*
X168428571Y-115248809D01*
X168285714Y-115772619D02*
X168761904Y-115772619D01*
X168761904Y-115772619D02*
X168761904Y-114772619D01*
X168761904Y-114772619D02*
X168285714Y-114772619D01*
X167857142Y-115772619D02*
X167857142Y-114772619D01*
X167857142Y-114772619D02*
X167285714Y-115772619D01*
X167285714Y-115772619D02*
X167285714Y-114772619D01*
X130761904Y-107961666D02*
X130000000Y-107961666D01*
X130380952Y-108342619D02*
X130380952Y-107580714D01*
X129047619Y-107342619D02*
X129523809Y-107342619D01*
X129523809Y-107342619D02*
X129571428Y-107818809D01*
X129571428Y-107818809D02*
X129523809Y-107771190D01*
X129523809Y-107771190D02*
X129428571Y-107723571D01*
X129428571Y-107723571D02*
X129190476Y-107723571D01*
X129190476Y-107723571D02*
X129095238Y-107771190D01*
X129095238Y-107771190D02*
X129047619Y-107818809D01*
X129047619Y-107818809D02*
X129000000Y-107914047D01*
X129000000Y-107914047D02*
X129000000Y-108152142D01*
X129000000Y-108152142D02*
X129047619Y-108247380D01*
X129047619Y-108247380D02*
X129095238Y-108295000D01*
X129095238Y-108295000D02*
X129190476Y-108342619D01*
X129190476Y-108342619D02*
X129428571Y-108342619D01*
X129428571Y-108342619D02*
X129523809Y-108295000D01*
X129523809Y-108295000D02*
X129571428Y-108247380D01*
X128714285Y-107342619D02*
X128380952Y-108342619D01*
X128380952Y-108342619D02*
X128047619Y-107342619D01*
X130761904Y-109962619D02*
X130761904Y-108962619D01*
X130761904Y-108962619D02*
X130380952Y-108962619D01*
X130380952Y-108962619D02*
X130285714Y-109010238D01*
X130285714Y-109010238D02*
X130238095Y-109057857D01*
X130238095Y-109057857D02*
X130190476Y-109153095D01*
X130190476Y-109153095D02*
X130190476Y-109295952D01*
X130190476Y-109295952D02*
X130238095Y-109391190D01*
X130238095Y-109391190D02*
X130285714Y-109438809D01*
X130285714Y-109438809D02*
X130380952Y-109486428D01*
X130380952Y-109486428D02*
X130761904Y-109486428D01*
X129809523Y-109676904D02*
X129333333Y-109676904D01*
X129904761Y-109962619D02*
X129571428Y-108962619D01*
X129571428Y-108962619D02*
X129238095Y-109962619D01*
X128952380Y-109915000D02*
X128809523Y-109962619D01*
X128809523Y-109962619D02*
X128571428Y-109962619D01*
X128571428Y-109962619D02*
X128476190Y-109915000D01*
X128476190Y-109915000D02*
X128428571Y-109867380D01*
X128428571Y-109867380D02*
X128380952Y-109772142D01*
X128380952Y-109772142D02*
X128380952Y-109676904D01*
X128380952Y-109676904D02*
X128428571Y-109581666D01*
X128428571Y-109581666D02*
X128476190Y-109534047D01*
X128476190Y-109534047D02*
X128571428Y-109486428D01*
X128571428Y-109486428D02*
X128761904Y-109438809D01*
X128761904Y-109438809D02*
X128857142Y-109391190D01*
X128857142Y-109391190D02*
X128904761Y-109343571D01*
X128904761Y-109343571D02*
X128952380Y-109248333D01*
X128952380Y-109248333D02*
X128952380Y-109153095D01*
X128952380Y-109153095D02*
X128904761Y-109057857D01*
X128904761Y-109057857D02*
X128857142Y-109010238D01*
X128857142Y-109010238D02*
X128761904Y-108962619D01*
X128761904Y-108962619D02*
X128523809Y-108962619D01*
X128523809Y-108962619D02*
X128380952Y-109010238D01*
X127999999Y-109915000D02*
X127857142Y-109962619D01*
X127857142Y-109962619D02*
X127619047Y-109962619D01*
X127619047Y-109962619D02*
X127523809Y-109915000D01*
X127523809Y-109915000D02*
X127476190Y-109867380D01*
X127476190Y-109867380D02*
X127428571Y-109772142D01*
X127428571Y-109772142D02*
X127428571Y-109676904D01*
X127428571Y-109676904D02*
X127476190Y-109581666D01*
X127476190Y-109581666D02*
X127523809Y-109534047D01*
X127523809Y-109534047D02*
X127619047Y-109486428D01*
X127619047Y-109486428D02*
X127809523Y-109438809D01*
X127809523Y-109438809D02*
X127904761Y-109391190D01*
X127904761Y-109391190D02*
X127952380Y-109343571D01*
X127952380Y-109343571D02*
X127999999Y-109248333D01*
X127999999Y-109248333D02*
X127999999Y-109153095D01*
X127999999Y-109153095D02*
X127952380Y-109057857D01*
X127952380Y-109057857D02*
X127904761Y-109010238D01*
X127904761Y-109010238D02*
X127809523Y-108962619D01*
X127809523Y-108962619D02*
X127571428Y-108962619D01*
X127571428Y-108962619D02*
X127428571Y-109010238D01*
X130904761Y-110582619D02*
X130333333Y-110582619D01*
X130619047Y-111582619D02*
X130619047Y-110582619D01*
X129999999Y-111582619D02*
X129999999Y-110582619D01*
X129999999Y-111058809D02*
X129428571Y-111058809D01*
X129428571Y-111582619D02*
X129428571Y-110582619D01*
X128380952Y-111582619D02*
X128714285Y-111106428D01*
X128952380Y-111582619D02*
X128952380Y-110582619D01*
X128952380Y-110582619D02*
X128571428Y-110582619D01*
X128571428Y-110582619D02*
X128476190Y-110630238D01*
X128476190Y-110630238D02*
X128428571Y-110677857D01*
X128428571Y-110677857D02*
X128380952Y-110773095D01*
X128380952Y-110773095D02*
X128380952Y-110915952D01*
X128380952Y-110915952D02*
X128428571Y-111011190D01*
X128428571Y-111011190D02*
X128476190Y-111058809D01*
X128476190Y-111058809D02*
X128571428Y-111106428D01*
X128571428Y-111106428D02*
X128952380Y-111106428D01*
X127952380Y-110582619D02*
X127952380Y-111392142D01*
X127952380Y-111392142D02*
X127904761Y-111487380D01*
X127904761Y-111487380D02*
X127857142Y-111535000D01*
X127857142Y-111535000D02*
X127761904Y-111582619D01*
X127761904Y-111582619D02*
X127571428Y-111582619D01*
X127571428Y-111582619D02*
X127476190Y-111535000D01*
X127476190Y-111535000D02*
X127428571Y-111487380D01*
X127428571Y-111487380D02*
X127380952Y-111392142D01*
X127380952Y-111392142D02*
X127380952Y-110582619D01*
%TO.C,J4*%
X175292619Y-114166666D02*
X176006904Y-114166666D01*
X176006904Y-114166666D02*
X176149761Y-114119047D01*
X176149761Y-114119047D02*
X176245000Y-114023809D01*
X176245000Y-114023809D02*
X176292619Y-113880952D01*
X176292619Y-113880952D02*
X176292619Y-113785714D01*
X175625952Y-115071428D02*
X176292619Y-115071428D01*
X175245000Y-114833333D02*
X175959285Y-114595238D01*
X175959285Y-114595238D02*
X175959285Y-115214285D01*
%TO.C,C2*%
X141117380Y-93333333D02*
X141165000Y-93285714D01*
X141165000Y-93285714D02*
X141212619Y-93142857D01*
X141212619Y-93142857D02*
X141212619Y-93047619D01*
X141212619Y-93047619D02*
X141165000Y-92904762D01*
X141165000Y-92904762D02*
X141069761Y-92809524D01*
X141069761Y-92809524D02*
X140974523Y-92761905D01*
X140974523Y-92761905D02*
X140784047Y-92714286D01*
X140784047Y-92714286D02*
X140641190Y-92714286D01*
X140641190Y-92714286D02*
X140450714Y-92761905D01*
X140450714Y-92761905D02*
X140355476Y-92809524D01*
X140355476Y-92809524D02*
X140260238Y-92904762D01*
X140260238Y-92904762D02*
X140212619Y-93047619D01*
X140212619Y-93047619D02*
X140212619Y-93142857D01*
X140212619Y-93142857D02*
X140260238Y-93285714D01*
X140260238Y-93285714D02*
X140307857Y-93333333D01*
X140307857Y-93714286D02*
X140260238Y-93761905D01*
X140260238Y-93761905D02*
X140212619Y-93857143D01*
X140212619Y-93857143D02*
X140212619Y-94095238D01*
X140212619Y-94095238D02*
X140260238Y-94190476D01*
X140260238Y-94190476D02*
X140307857Y-94238095D01*
X140307857Y-94238095D02*
X140403095Y-94285714D01*
X140403095Y-94285714D02*
X140498333Y-94285714D01*
X140498333Y-94285714D02*
X140641190Y-94238095D01*
X140641190Y-94238095D02*
X141212619Y-93666667D01*
X141212619Y-93666667D02*
X141212619Y-94285714D01*
%TO.C,C20*%
X158392857Y-111867380D02*
X158440476Y-111915000D01*
X158440476Y-111915000D02*
X158583333Y-111962619D01*
X158583333Y-111962619D02*
X158678571Y-111962619D01*
X158678571Y-111962619D02*
X158821428Y-111915000D01*
X158821428Y-111915000D02*
X158916666Y-111819761D01*
X158916666Y-111819761D02*
X158964285Y-111724523D01*
X158964285Y-111724523D02*
X159011904Y-111534047D01*
X159011904Y-111534047D02*
X159011904Y-111391190D01*
X159011904Y-111391190D02*
X158964285Y-111200714D01*
X158964285Y-111200714D02*
X158916666Y-111105476D01*
X158916666Y-111105476D02*
X158821428Y-111010238D01*
X158821428Y-111010238D02*
X158678571Y-110962619D01*
X158678571Y-110962619D02*
X158583333Y-110962619D01*
X158583333Y-110962619D02*
X158440476Y-111010238D01*
X158440476Y-111010238D02*
X158392857Y-111057857D01*
X158011904Y-111057857D02*
X157964285Y-111010238D01*
X157964285Y-111010238D02*
X157869047Y-110962619D01*
X157869047Y-110962619D02*
X157630952Y-110962619D01*
X157630952Y-110962619D02*
X157535714Y-111010238D01*
X157535714Y-111010238D02*
X157488095Y-111057857D01*
X157488095Y-111057857D02*
X157440476Y-111153095D01*
X157440476Y-111153095D02*
X157440476Y-111248333D01*
X157440476Y-111248333D02*
X157488095Y-111391190D01*
X157488095Y-111391190D02*
X158059523Y-111962619D01*
X158059523Y-111962619D02*
X157440476Y-111962619D01*
X156821428Y-110962619D02*
X156726190Y-110962619D01*
X156726190Y-110962619D02*
X156630952Y-111010238D01*
X156630952Y-111010238D02*
X156583333Y-111057857D01*
X156583333Y-111057857D02*
X156535714Y-111153095D01*
X156535714Y-111153095D02*
X156488095Y-111343571D01*
X156488095Y-111343571D02*
X156488095Y-111581666D01*
X156488095Y-111581666D02*
X156535714Y-111772142D01*
X156535714Y-111772142D02*
X156583333Y-111867380D01*
X156583333Y-111867380D02*
X156630952Y-111915000D01*
X156630952Y-111915000D02*
X156726190Y-111962619D01*
X156726190Y-111962619D02*
X156821428Y-111962619D01*
X156821428Y-111962619D02*
X156916666Y-111915000D01*
X156916666Y-111915000D02*
X156964285Y-111867380D01*
X156964285Y-111867380D02*
X157011904Y-111772142D01*
X157011904Y-111772142D02*
X157059523Y-111581666D01*
X157059523Y-111581666D02*
X157059523Y-111343571D01*
X157059523Y-111343571D02*
X157011904Y-111153095D01*
X157011904Y-111153095D02*
X156964285Y-111057857D01*
X156964285Y-111057857D02*
X156916666Y-111010238D01*
X156916666Y-111010238D02*
X156821428Y-110962619D01*
%TO.C,R6*%
X157916666Y-114962619D02*
X158249999Y-114486428D01*
X158488094Y-114962619D02*
X158488094Y-113962619D01*
X158488094Y-113962619D02*
X158107142Y-113962619D01*
X158107142Y-113962619D02*
X158011904Y-114010238D01*
X158011904Y-114010238D02*
X157964285Y-114057857D01*
X157964285Y-114057857D02*
X157916666Y-114153095D01*
X157916666Y-114153095D02*
X157916666Y-114295952D01*
X157916666Y-114295952D02*
X157964285Y-114391190D01*
X157964285Y-114391190D02*
X158011904Y-114438809D01*
X158011904Y-114438809D02*
X158107142Y-114486428D01*
X158107142Y-114486428D02*
X158488094Y-114486428D01*
X157059523Y-113962619D02*
X157249999Y-113962619D01*
X157249999Y-113962619D02*
X157345237Y-114010238D01*
X157345237Y-114010238D02*
X157392856Y-114057857D01*
X157392856Y-114057857D02*
X157488094Y-114200714D01*
X157488094Y-114200714D02*
X157535713Y-114391190D01*
X157535713Y-114391190D02*
X157535713Y-114772142D01*
X157535713Y-114772142D02*
X157488094Y-114867380D01*
X157488094Y-114867380D02*
X157440475Y-114915000D01*
X157440475Y-114915000D02*
X157345237Y-114962619D01*
X157345237Y-114962619D02*
X157154761Y-114962619D01*
X157154761Y-114962619D02*
X157059523Y-114915000D01*
X157059523Y-114915000D02*
X157011904Y-114867380D01*
X157011904Y-114867380D02*
X156964285Y-114772142D01*
X156964285Y-114772142D02*
X156964285Y-114534047D01*
X156964285Y-114534047D02*
X157011904Y-114438809D01*
X157011904Y-114438809D02*
X157059523Y-114391190D01*
X157059523Y-114391190D02*
X157154761Y-114343571D01*
X157154761Y-114343571D02*
X157345237Y-114343571D01*
X157345237Y-114343571D02*
X157440475Y-114391190D01*
X157440475Y-114391190D02*
X157488094Y-114438809D01*
X157488094Y-114438809D02*
X157535713Y-114534047D01*
%TO.C,C17*%
X166142857Y-103117380D02*
X166190476Y-103165000D01*
X166190476Y-103165000D02*
X166333333Y-103212619D01*
X166333333Y-103212619D02*
X166428571Y-103212619D01*
X166428571Y-103212619D02*
X166571428Y-103165000D01*
X166571428Y-103165000D02*
X166666666Y-103069761D01*
X166666666Y-103069761D02*
X166714285Y-102974523D01*
X166714285Y-102974523D02*
X166761904Y-102784047D01*
X166761904Y-102784047D02*
X166761904Y-102641190D01*
X166761904Y-102641190D02*
X166714285Y-102450714D01*
X166714285Y-102450714D02*
X166666666Y-102355476D01*
X166666666Y-102355476D02*
X166571428Y-102260238D01*
X166571428Y-102260238D02*
X166428571Y-102212619D01*
X166428571Y-102212619D02*
X166333333Y-102212619D01*
X166333333Y-102212619D02*
X166190476Y-102260238D01*
X166190476Y-102260238D02*
X166142857Y-102307857D01*
X165190476Y-103212619D02*
X165761904Y-103212619D01*
X165476190Y-103212619D02*
X165476190Y-102212619D01*
X165476190Y-102212619D02*
X165571428Y-102355476D01*
X165571428Y-102355476D02*
X165666666Y-102450714D01*
X165666666Y-102450714D02*
X165761904Y-102498333D01*
X164857142Y-102212619D02*
X164190476Y-102212619D01*
X164190476Y-102212619D02*
X164619047Y-103212619D01*
%TO.C,C9*%
X165367380Y-125333333D02*
X165415000Y-125285714D01*
X165415000Y-125285714D02*
X165462619Y-125142857D01*
X165462619Y-125142857D02*
X165462619Y-125047619D01*
X165462619Y-125047619D02*
X165415000Y-124904762D01*
X165415000Y-124904762D02*
X165319761Y-124809524D01*
X165319761Y-124809524D02*
X165224523Y-124761905D01*
X165224523Y-124761905D02*
X165034047Y-124714286D01*
X165034047Y-124714286D02*
X164891190Y-124714286D01*
X164891190Y-124714286D02*
X164700714Y-124761905D01*
X164700714Y-124761905D02*
X164605476Y-124809524D01*
X164605476Y-124809524D02*
X164510238Y-124904762D01*
X164510238Y-124904762D02*
X164462619Y-125047619D01*
X164462619Y-125047619D02*
X164462619Y-125142857D01*
X164462619Y-125142857D02*
X164510238Y-125285714D01*
X164510238Y-125285714D02*
X164557857Y-125333333D01*
X165462619Y-125809524D02*
X165462619Y-126000000D01*
X165462619Y-126000000D02*
X165415000Y-126095238D01*
X165415000Y-126095238D02*
X165367380Y-126142857D01*
X165367380Y-126142857D02*
X165224523Y-126238095D01*
X165224523Y-126238095D02*
X165034047Y-126285714D01*
X165034047Y-126285714D02*
X164653095Y-126285714D01*
X164653095Y-126285714D02*
X164557857Y-126238095D01*
X164557857Y-126238095D02*
X164510238Y-126190476D01*
X164510238Y-126190476D02*
X164462619Y-126095238D01*
X164462619Y-126095238D02*
X164462619Y-125904762D01*
X164462619Y-125904762D02*
X164510238Y-125809524D01*
X164510238Y-125809524D02*
X164557857Y-125761905D01*
X164557857Y-125761905D02*
X164653095Y-125714286D01*
X164653095Y-125714286D02*
X164891190Y-125714286D01*
X164891190Y-125714286D02*
X164986428Y-125761905D01*
X164986428Y-125761905D02*
X165034047Y-125809524D01*
X165034047Y-125809524D02*
X165081666Y-125904762D01*
X165081666Y-125904762D02*
X165081666Y-126095238D01*
X165081666Y-126095238D02*
X165034047Y-126190476D01*
X165034047Y-126190476D02*
X164986428Y-126238095D01*
X164986428Y-126238095D02*
X164891190Y-126285714D01*
%TO.C,R3*%
X157916666Y-108962619D02*
X158249999Y-108486428D01*
X158488094Y-108962619D02*
X158488094Y-107962619D01*
X158488094Y-107962619D02*
X158107142Y-107962619D01*
X158107142Y-107962619D02*
X158011904Y-108010238D01*
X158011904Y-108010238D02*
X157964285Y-108057857D01*
X157964285Y-108057857D02*
X157916666Y-108153095D01*
X157916666Y-108153095D02*
X157916666Y-108295952D01*
X157916666Y-108295952D02*
X157964285Y-108391190D01*
X157964285Y-108391190D02*
X158011904Y-108438809D01*
X158011904Y-108438809D02*
X158107142Y-108486428D01*
X158107142Y-108486428D02*
X158488094Y-108486428D01*
X157583332Y-107962619D02*
X156964285Y-107962619D01*
X156964285Y-107962619D02*
X157297618Y-108343571D01*
X157297618Y-108343571D02*
X157154761Y-108343571D01*
X157154761Y-108343571D02*
X157059523Y-108391190D01*
X157059523Y-108391190D02*
X157011904Y-108438809D01*
X157011904Y-108438809D02*
X156964285Y-108534047D01*
X156964285Y-108534047D02*
X156964285Y-108772142D01*
X156964285Y-108772142D02*
X157011904Y-108867380D01*
X157011904Y-108867380D02*
X157059523Y-108915000D01*
X157059523Y-108915000D02*
X157154761Y-108962619D01*
X157154761Y-108962619D02*
X157440475Y-108962619D01*
X157440475Y-108962619D02*
X157535713Y-108915000D01*
X157535713Y-108915000D02*
X157583332Y-108867380D01*
%TO.C,C5*%
X159117380Y-93333333D02*
X159165000Y-93285714D01*
X159165000Y-93285714D02*
X159212619Y-93142857D01*
X159212619Y-93142857D02*
X159212619Y-93047619D01*
X159212619Y-93047619D02*
X159165000Y-92904762D01*
X159165000Y-92904762D02*
X159069761Y-92809524D01*
X159069761Y-92809524D02*
X158974523Y-92761905D01*
X158974523Y-92761905D02*
X158784047Y-92714286D01*
X158784047Y-92714286D02*
X158641190Y-92714286D01*
X158641190Y-92714286D02*
X158450714Y-92761905D01*
X158450714Y-92761905D02*
X158355476Y-92809524D01*
X158355476Y-92809524D02*
X158260238Y-92904762D01*
X158260238Y-92904762D02*
X158212619Y-93047619D01*
X158212619Y-93047619D02*
X158212619Y-93142857D01*
X158212619Y-93142857D02*
X158260238Y-93285714D01*
X158260238Y-93285714D02*
X158307857Y-93333333D01*
X158212619Y-94238095D02*
X158212619Y-93761905D01*
X158212619Y-93761905D02*
X158688809Y-93714286D01*
X158688809Y-93714286D02*
X158641190Y-93761905D01*
X158641190Y-93761905D02*
X158593571Y-93857143D01*
X158593571Y-93857143D02*
X158593571Y-94095238D01*
X158593571Y-94095238D02*
X158641190Y-94190476D01*
X158641190Y-94190476D02*
X158688809Y-94238095D01*
X158688809Y-94238095D02*
X158784047Y-94285714D01*
X158784047Y-94285714D02*
X159022142Y-94285714D01*
X159022142Y-94285714D02*
X159117380Y-94238095D01*
X159117380Y-94238095D02*
X159165000Y-94190476D01*
X159165000Y-94190476D02*
X159212619Y-94095238D01*
X159212619Y-94095238D02*
X159212619Y-93857143D01*
X159212619Y-93857143D02*
X159165000Y-93761905D01*
X159165000Y-93761905D02*
X159117380Y-93714286D01*
%TO.C,C1*%
X139617380Y-93333333D02*
X139665000Y-93285714D01*
X139665000Y-93285714D02*
X139712619Y-93142857D01*
X139712619Y-93142857D02*
X139712619Y-93047619D01*
X139712619Y-93047619D02*
X139665000Y-92904762D01*
X139665000Y-92904762D02*
X139569761Y-92809524D01*
X139569761Y-92809524D02*
X139474523Y-92761905D01*
X139474523Y-92761905D02*
X139284047Y-92714286D01*
X139284047Y-92714286D02*
X139141190Y-92714286D01*
X139141190Y-92714286D02*
X138950714Y-92761905D01*
X138950714Y-92761905D02*
X138855476Y-92809524D01*
X138855476Y-92809524D02*
X138760238Y-92904762D01*
X138760238Y-92904762D02*
X138712619Y-93047619D01*
X138712619Y-93047619D02*
X138712619Y-93142857D01*
X138712619Y-93142857D02*
X138760238Y-93285714D01*
X138760238Y-93285714D02*
X138807857Y-93333333D01*
X139712619Y-94285714D02*
X139712619Y-93714286D01*
X139712619Y-94000000D02*
X138712619Y-94000000D01*
X138712619Y-94000000D02*
X138855476Y-93904762D01*
X138855476Y-93904762D02*
X138950714Y-93809524D01*
X138950714Y-93809524D02*
X138998333Y-93714286D01*
%TO.C,C8*%
X163617380Y-93333333D02*
X163665000Y-93285714D01*
X163665000Y-93285714D02*
X163712619Y-93142857D01*
X163712619Y-93142857D02*
X163712619Y-93047619D01*
X163712619Y-93047619D02*
X163665000Y-92904762D01*
X163665000Y-92904762D02*
X163569761Y-92809524D01*
X163569761Y-92809524D02*
X163474523Y-92761905D01*
X163474523Y-92761905D02*
X163284047Y-92714286D01*
X163284047Y-92714286D02*
X163141190Y-92714286D01*
X163141190Y-92714286D02*
X162950714Y-92761905D01*
X162950714Y-92761905D02*
X162855476Y-92809524D01*
X162855476Y-92809524D02*
X162760238Y-92904762D01*
X162760238Y-92904762D02*
X162712619Y-93047619D01*
X162712619Y-93047619D02*
X162712619Y-93142857D01*
X162712619Y-93142857D02*
X162760238Y-93285714D01*
X162760238Y-93285714D02*
X162807857Y-93333333D01*
X163141190Y-93904762D02*
X163093571Y-93809524D01*
X163093571Y-93809524D02*
X163045952Y-93761905D01*
X163045952Y-93761905D02*
X162950714Y-93714286D01*
X162950714Y-93714286D02*
X162903095Y-93714286D01*
X162903095Y-93714286D02*
X162807857Y-93761905D01*
X162807857Y-93761905D02*
X162760238Y-93809524D01*
X162760238Y-93809524D02*
X162712619Y-93904762D01*
X162712619Y-93904762D02*
X162712619Y-94095238D01*
X162712619Y-94095238D02*
X162760238Y-94190476D01*
X162760238Y-94190476D02*
X162807857Y-94238095D01*
X162807857Y-94238095D02*
X162903095Y-94285714D01*
X162903095Y-94285714D02*
X162950714Y-94285714D01*
X162950714Y-94285714D02*
X163045952Y-94238095D01*
X163045952Y-94238095D02*
X163093571Y-94190476D01*
X163093571Y-94190476D02*
X163141190Y-94095238D01*
X163141190Y-94095238D02*
X163141190Y-93904762D01*
X163141190Y-93904762D02*
X163188809Y-93809524D01*
X163188809Y-93809524D02*
X163236428Y-93761905D01*
X163236428Y-93761905D02*
X163331666Y-93714286D01*
X163331666Y-93714286D02*
X163522142Y-93714286D01*
X163522142Y-93714286D02*
X163617380Y-93761905D01*
X163617380Y-93761905D02*
X163665000Y-93809524D01*
X163665000Y-93809524D02*
X163712619Y-93904762D01*
X163712619Y-93904762D02*
X163712619Y-94095238D01*
X163712619Y-94095238D02*
X163665000Y-94190476D01*
X163665000Y-94190476D02*
X163617380Y-94238095D01*
X163617380Y-94238095D02*
X163522142Y-94285714D01*
X163522142Y-94285714D02*
X163331666Y-94285714D01*
X163331666Y-94285714D02*
X163236428Y-94238095D01*
X163236428Y-94238095D02*
X163188809Y-94190476D01*
X163188809Y-94190476D02*
X163141190Y-94095238D01*
%TO.C,U1*%
X168761904Y-103212619D02*
X168761904Y-104022142D01*
X168761904Y-104022142D02*
X168714285Y-104117380D01*
X168714285Y-104117380D02*
X168666666Y-104165000D01*
X168666666Y-104165000D02*
X168571428Y-104212619D01*
X168571428Y-104212619D02*
X168380952Y-104212619D01*
X168380952Y-104212619D02*
X168285714Y-104165000D01*
X168285714Y-104165000D02*
X168238095Y-104117380D01*
X168238095Y-104117380D02*
X168190476Y-104022142D01*
X168190476Y-104022142D02*
X168190476Y-103212619D01*
X167190476Y-104212619D02*
X167761904Y-104212619D01*
X167476190Y-104212619D02*
X167476190Y-103212619D01*
X167476190Y-103212619D02*
X167571428Y-103355476D01*
X167571428Y-103355476D02*
X167666666Y-103450714D01*
X167666666Y-103450714D02*
X167761904Y-103498333D01*
%TO.C,C10*%
X163867380Y-124857142D02*
X163915000Y-124809523D01*
X163915000Y-124809523D02*
X163962619Y-124666666D01*
X163962619Y-124666666D02*
X163962619Y-124571428D01*
X163962619Y-124571428D02*
X163915000Y-124428571D01*
X163915000Y-124428571D02*
X163819761Y-124333333D01*
X163819761Y-124333333D02*
X163724523Y-124285714D01*
X163724523Y-124285714D02*
X163534047Y-124238095D01*
X163534047Y-124238095D02*
X163391190Y-124238095D01*
X163391190Y-124238095D02*
X163200714Y-124285714D01*
X163200714Y-124285714D02*
X163105476Y-124333333D01*
X163105476Y-124333333D02*
X163010238Y-124428571D01*
X163010238Y-124428571D02*
X162962619Y-124571428D01*
X162962619Y-124571428D02*
X162962619Y-124666666D01*
X162962619Y-124666666D02*
X163010238Y-124809523D01*
X163010238Y-124809523D02*
X163057857Y-124857142D01*
X163962619Y-125809523D02*
X163962619Y-125238095D01*
X163962619Y-125523809D02*
X162962619Y-125523809D01*
X162962619Y-125523809D02*
X163105476Y-125428571D01*
X163105476Y-125428571D02*
X163200714Y-125333333D01*
X163200714Y-125333333D02*
X163248333Y-125238095D01*
X162962619Y-126428571D02*
X162962619Y-126523809D01*
X162962619Y-126523809D02*
X163010238Y-126619047D01*
X163010238Y-126619047D02*
X163057857Y-126666666D01*
X163057857Y-126666666D02*
X163153095Y-126714285D01*
X163153095Y-126714285D02*
X163343571Y-126761904D01*
X163343571Y-126761904D02*
X163581666Y-126761904D01*
X163581666Y-126761904D02*
X163772142Y-126714285D01*
X163772142Y-126714285D02*
X163867380Y-126666666D01*
X163867380Y-126666666D02*
X163915000Y-126619047D01*
X163915000Y-126619047D02*
X163962619Y-126523809D01*
X163962619Y-126523809D02*
X163962619Y-126428571D01*
X163962619Y-126428571D02*
X163915000Y-126333333D01*
X163915000Y-126333333D02*
X163867380Y-126285714D01*
X163867380Y-126285714D02*
X163772142Y-126238095D01*
X163772142Y-126238095D02*
X163581666Y-126190476D01*
X163581666Y-126190476D02*
X163343571Y-126190476D01*
X163343571Y-126190476D02*
X163153095Y-126238095D01*
X163153095Y-126238095D02*
X163057857Y-126285714D01*
X163057857Y-126285714D02*
X163010238Y-126333333D01*
X163010238Y-126333333D02*
X162962619Y-126428571D01*
%TO.C,C19*%
X158392857Y-107367380D02*
X158440476Y-107415000D01*
X158440476Y-107415000D02*
X158583333Y-107462619D01*
X158583333Y-107462619D02*
X158678571Y-107462619D01*
X158678571Y-107462619D02*
X158821428Y-107415000D01*
X158821428Y-107415000D02*
X158916666Y-107319761D01*
X158916666Y-107319761D02*
X158964285Y-107224523D01*
X158964285Y-107224523D02*
X159011904Y-107034047D01*
X159011904Y-107034047D02*
X159011904Y-106891190D01*
X159011904Y-106891190D02*
X158964285Y-106700714D01*
X158964285Y-106700714D02*
X158916666Y-106605476D01*
X158916666Y-106605476D02*
X158821428Y-106510238D01*
X158821428Y-106510238D02*
X158678571Y-106462619D01*
X158678571Y-106462619D02*
X158583333Y-106462619D01*
X158583333Y-106462619D02*
X158440476Y-106510238D01*
X158440476Y-106510238D02*
X158392857Y-106557857D01*
X157440476Y-107462619D02*
X158011904Y-107462619D01*
X157726190Y-107462619D02*
X157726190Y-106462619D01*
X157726190Y-106462619D02*
X157821428Y-106605476D01*
X157821428Y-106605476D02*
X157916666Y-106700714D01*
X157916666Y-106700714D02*
X158011904Y-106748333D01*
X156964285Y-107462619D02*
X156773809Y-107462619D01*
X156773809Y-107462619D02*
X156678571Y-107415000D01*
X156678571Y-107415000D02*
X156630952Y-107367380D01*
X156630952Y-107367380D02*
X156535714Y-107224523D01*
X156535714Y-107224523D02*
X156488095Y-107034047D01*
X156488095Y-107034047D02*
X156488095Y-106653095D01*
X156488095Y-106653095D02*
X156535714Y-106557857D01*
X156535714Y-106557857D02*
X156583333Y-106510238D01*
X156583333Y-106510238D02*
X156678571Y-106462619D01*
X156678571Y-106462619D02*
X156869047Y-106462619D01*
X156869047Y-106462619D02*
X156964285Y-106510238D01*
X156964285Y-106510238D02*
X157011904Y-106557857D01*
X157011904Y-106557857D02*
X157059523Y-106653095D01*
X157059523Y-106653095D02*
X157059523Y-106891190D01*
X157059523Y-106891190D02*
X157011904Y-106986428D01*
X157011904Y-106986428D02*
X156964285Y-107034047D01*
X156964285Y-107034047D02*
X156869047Y-107081666D01*
X156869047Y-107081666D02*
X156678571Y-107081666D01*
X156678571Y-107081666D02*
X156583333Y-107034047D01*
X156583333Y-107034047D02*
X156535714Y-106986428D01*
X156535714Y-106986428D02*
X156488095Y-106891190D01*
%TO.C,C12*%
X160867380Y-124857142D02*
X160915000Y-124809523D01*
X160915000Y-124809523D02*
X160962619Y-124666666D01*
X160962619Y-124666666D02*
X160962619Y-124571428D01*
X160962619Y-124571428D02*
X160915000Y-124428571D01*
X160915000Y-124428571D02*
X160819761Y-124333333D01*
X160819761Y-124333333D02*
X160724523Y-124285714D01*
X160724523Y-124285714D02*
X160534047Y-124238095D01*
X160534047Y-124238095D02*
X160391190Y-124238095D01*
X160391190Y-124238095D02*
X160200714Y-124285714D01*
X160200714Y-124285714D02*
X160105476Y-124333333D01*
X160105476Y-124333333D02*
X160010238Y-124428571D01*
X160010238Y-124428571D02*
X159962619Y-124571428D01*
X159962619Y-124571428D02*
X159962619Y-124666666D01*
X159962619Y-124666666D02*
X160010238Y-124809523D01*
X160010238Y-124809523D02*
X160057857Y-124857142D01*
X160962619Y-125809523D02*
X160962619Y-125238095D01*
X160962619Y-125523809D02*
X159962619Y-125523809D01*
X159962619Y-125523809D02*
X160105476Y-125428571D01*
X160105476Y-125428571D02*
X160200714Y-125333333D01*
X160200714Y-125333333D02*
X160248333Y-125238095D01*
X160057857Y-126190476D02*
X160010238Y-126238095D01*
X160010238Y-126238095D02*
X159962619Y-126333333D01*
X159962619Y-126333333D02*
X159962619Y-126571428D01*
X159962619Y-126571428D02*
X160010238Y-126666666D01*
X160010238Y-126666666D02*
X160057857Y-126714285D01*
X160057857Y-126714285D02*
X160153095Y-126761904D01*
X160153095Y-126761904D02*
X160248333Y-126761904D01*
X160248333Y-126761904D02*
X160391190Y-126714285D01*
X160391190Y-126714285D02*
X160962619Y-126142857D01*
X160962619Y-126142857D02*
X160962619Y-126761904D01*
%TO.C,C14*%
X144117380Y-124857142D02*
X144165000Y-124809523D01*
X144165000Y-124809523D02*
X144212619Y-124666666D01*
X144212619Y-124666666D02*
X144212619Y-124571428D01*
X144212619Y-124571428D02*
X144165000Y-124428571D01*
X144165000Y-124428571D02*
X144069761Y-124333333D01*
X144069761Y-124333333D02*
X143974523Y-124285714D01*
X143974523Y-124285714D02*
X143784047Y-124238095D01*
X143784047Y-124238095D02*
X143641190Y-124238095D01*
X143641190Y-124238095D02*
X143450714Y-124285714D01*
X143450714Y-124285714D02*
X143355476Y-124333333D01*
X143355476Y-124333333D02*
X143260238Y-124428571D01*
X143260238Y-124428571D02*
X143212619Y-124571428D01*
X143212619Y-124571428D02*
X143212619Y-124666666D01*
X143212619Y-124666666D02*
X143260238Y-124809523D01*
X143260238Y-124809523D02*
X143307857Y-124857142D01*
X144212619Y-125809523D02*
X144212619Y-125238095D01*
X144212619Y-125523809D02*
X143212619Y-125523809D01*
X143212619Y-125523809D02*
X143355476Y-125428571D01*
X143355476Y-125428571D02*
X143450714Y-125333333D01*
X143450714Y-125333333D02*
X143498333Y-125238095D01*
X143545952Y-126666666D02*
X144212619Y-126666666D01*
X143165000Y-126428571D02*
X143879285Y-126190476D01*
X143879285Y-126190476D02*
X143879285Y-126809523D01*
%TO.C,J1*%
X141333333Y-102462619D02*
X141333333Y-103176904D01*
X141333333Y-103176904D02*
X141380952Y-103319761D01*
X141380952Y-103319761D02*
X141476190Y-103415000D01*
X141476190Y-103415000D02*
X141619047Y-103462619D01*
X141619047Y-103462619D02*
X141714285Y-103462619D01*
X140333333Y-103462619D02*
X140904761Y-103462619D01*
X140619047Y-103462619D02*
X140619047Y-102462619D01*
X140619047Y-102462619D02*
X140714285Y-102605476D01*
X140714285Y-102605476D02*
X140809523Y-102700714D01*
X140809523Y-102700714D02*
X140904761Y-102748333D01*
%TO.C,C23*%
X172867380Y-110357142D02*
X172915000Y-110309523D01*
X172915000Y-110309523D02*
X172962619Y-110166666D01*
X172962619Y-110166666D02*
X172962619Y-110071428D01*
X172962619Y-110071428D02*
X172915000Y-109928571D01*
X172915000Y-109928571D02*
X172819761Y-109833333D01*
X172819761Y-109833333D02*
X172724523Y-109785714D01*
X172724523Y-109785714D02*
X172534047Y-109738095D01*
X172534047Y-109738095D02*
X172391190Y-109738095D01*
X172391190Y-109738095D02*
X172200714Y-109785714D01*
X172200714Y-109785714D02*
X172105476Y-109833333D01*
X172105476Y-109833333D02*
X172010238Y-109928571D01*
X172010238Y-109928571D02*
X171962619Y-110071428D01*
X171962619Y-110071428D02*
X171962619Y-110166666D01*
X171962619Y-110166666D02*
X172010238Y-110309523D01*
X172010238Y-110309523D02*
X172057857Y-110357142D01*
X172057857Y-110738095D02*
X172010238Y-110785714D01*
X172010238Y-110785714D02*
X171962619Y-110880952D01*
X171962619Y-110880952D02*
X171962619Y-111119047D01*
X171962619Y-111119047D02*
X172010238Y-111214285D01*
X172010238Y-111214285D02*
X172057857Y-111261904D01*
X172057857Y-111261904D02*
X172153095Y-111309523D01*
X172153095Y-111309523D02*
X172248333Y-111309523D01*
X172248333Y-111309523D02*
X172391190Y-111261904D01*
X172391190Y-111261904D02*
X172962619Y-110690476D01*
X172962619Y-110690476D02*
X172962619Y-111309523D01*
X171962619Y-111642857D02*
X171962619Y-112261904D01*
X171962619Y-112261904D02*
X172343571Y-111928571D01*
X172343571Y-111928571D02*
X172343571Y-112071428D01*
X172343571Y-112071428D02*
X172391190Y-112166666D01*
X172391190Y-112166666D02*
X172438809Y-112214285D01*
X172438809Y-112214285D02*
X172534047Y-112261904D01*
X172534047Y-112261904D02*
X172772142Y-112261904D01*
X172772142Y-112261904D02*
X172867380Y-112214285D01*
X172867380Y-112214285D02*
X172915000Y-112166666D01*
X172915000Y-112166666D02*
X172962619Y-112071428D01*
X172962619Y-112071428D02*
X172962619Y-111785714D01*
X172962619Y-111785714D02*
X172915000Y-111690476D01*
X172915000Y-111690476D02*
X172867380Y-111642857D01*
%TO.C,C7*%
X162117380Y-93333333D02*
X162165000Y-93285714D01*
X162165000Y-93285714D02*
X162212619Y-93142857D01*
X162212619Y-93142857D02*
X162212619Y-93047619D01*
X162212619Y-93047619D02*
X162165000Y-92904762D01*
X162165000Y-92904762D02*
X162069761Y-92809524D01*
X162069761Y-92809524D02*
X161974523Y-92761905D01*
X161974523Y-92761905D02*
X161784047Y-92714286D01*
X161784047Y-92714286D02*
X161641190Y-92714286D01*
X161641190Y-92714286D02*
X161450714Y-92761905D01*
X161450714Y-92761905D02*
X161355476Y-92809524D01*
X161355476Y-92809524D02*
X161260238Y-92904762D01*
X161260238Y-92904762D02*
X161212619Y-93047619D01*
X161212619Y-93047619D02*
X161212619Y-93142857D01*
X161212619Y-93142857D02*
X161260238Y-93285714D01*
X161260238Y-93285714D02*
X161307857Y-93333333D01*
X161212619Y-93666667D02*
X161212619Y-94333333D01*
X161212619Y-94333333D02*
X162212619Y-93904762D01*
%TO.C,J2*%
X162833333Y-115462619D02*
X162833333Y-116176904D01*
X162833333Y-116176904D02*
X162880952Y-116319761D01*
X162880952Y-116319761D02*
X162976190Y-116415000D01*
X162976190Y-116415000D02*
X163119047Y-116462619D01*
X163119047Y-116462619D02*
X163214285Y-116462619D01*
X162404761Y-115557857D02*
X162357142Y-115510238D01*
X162357142Y-115510238D02*
X162261904Y-115462619D01*
X162261904Y-115462619D02*
X162023809Y-115462619D01*
X162023809Y-115462619D02*
X161928571Y-115510238D01*
X161928571Y-115510238D02*
X161880952Y-115557857D01*
X161880952Y-115557857D02*
X161833333Y-115653095D01*
X161833333Y-115653095D02*
X161833333Y-115748333D01*
X161833333Y-115748333D02*
X161880952Y-115891190D01*
X161880952Y-115891190D02*
X162452380Y-116462619D01*
X162452380Y-116462619D02*
X161833333Y-116462619D01*
%TO.C,C16*%
X141117380Y-124857142D02*
X141165000Y-124809523D01*
X141165000Y-124809523D02*
X141212619Y-124666666D01*
X141212619Y-124666666D02*
X141212619Y-124571428D01*
X141212619Y-124571428D02*
X141165000Y-124428571D01*
X141165000Y-124428571D02*
X141069761Y-124333333D01*
X141069761Y-124333333D02*
X140974523Y-124285714D01*
X140974523Y-124285714D02*
X140784047Y-124238095D01*
X140784047Y-124238095D02*
X140641190Y-124238095D01*
X140641190Y-124238095D02*
X140450714Y-124285714D01*
X140450714Y-124285714D02*
X140355476Y-124333333D01*
X140355476Y-124333333D02*
X140260238Y-124428571D01*
X140260238Y-124428571D02*
X140212619Y-124571428D01*
X140212619Y-124571428D02*
X140212619Y-124666666D01*
X140212619Y-124666666D02*
X140260238Y-124809523D01*
X140260238Y-124809523D02*
X140307857Y-124857142D01*
X141212619Y-125809523D02*
X141212619Y-125238095D01*
X141212619Y-125523809D02*
X140212619Y-125523809D01*
X140212619Y-125523809D02*
X140355476Y-125428571D01*
X140355476Y-125428571D02*
X140450714Y-125333333D01*
X140450714Y-125333333D02*
X140498333Y-125238095D01*
X140212619Y-126666666D02*
X140212619Y-126476190D01*
X140212619Y-126476190D02*
X140260238Y-126380952D01*
X140260238Y-126380952D02*
X140307857Y-126333333D01*
X140307857Y-126333333D02*
X140450714Y-126238095D01*
X140450714Y-126238095D02*
X140641190Y-126190476D01*
X140641190Y-126190476D02*
X141022142Y-126190476D01*
X141022142Y-126190476D02*
X141117380Y-126238095D01*
X141117380Y-126238095D02*
X141165000Y-126285714D01*
X141165000Y-126285714D02*
X141212619Y-126380952D01*
X141212619Y-126380952D02*
X141212619Y-126571428D01*
X141212619Y-126571428D02*
X141165000Y-126666666D01*
X141165000Y-126666666D02*
X141117380Y-126714285D01*
X141117380Y-126714285D02*
X141022142Y-126761904D01*
X141022142Y-126761904D02*
X140784047Y-126761904D01*
X140784047Y-126761904D02*
X140688809Y-126714285D01*
X140688809Y-126714285D02*
X140641190Y-126666666D01*
X140641190Y-126666666D02*
X140593571Y-126571428D01*
X140593571Y-126571428D02*
X140593571Y-126380952D01*
X140593571Y-126380952D02*
X140641190Y-126285714D01*
X140641190Y-126285714D02*
X140688809Y-126238095D01*
X140688809Y-126238095D02*
X140784047Y-126190476D01*
%TO.C,C4*%
X144117380Y-93333333D02*
X144165000Y-93285714D01*
X144165000Y-93285714D02*
X144212619Y-93142857D01*
X144212619Y-93142857D02*
X144212619Y-93047619D01*
X144212619Y-93047619D02*
X144165000Y-92904762D01*
X144165000Y-92904762D02*
X144069761Y-92809524D01*
X144069761Y-92809524D02*
X143974523Y-92761905D01*
X143974523Y-92761905D02*
X143784047Y-92714286D01*
X143784047Y-92714286D02*
X143641190Y-92714286D01*
X143641190Y-92714286D02*
X143450714Y-92761905D01*
X143450714Y-92761905D02*
X143355476Y-92809524D01*
X143355476Y-92809524D02*
X143260238Y-92904762D01*
X143260238Y-92904762D02*
X143212619Y-93047619D01*
X143212619Y-93047619D02*
X143212619Y-93142857D01*
X143212619Y-93142857D02*
X143260238Y-93285714D01*
X143260238Y-93285714D02*
X143307857Y-93333333D01*
X143545952Y-94190476D02*
X144212619Y-94190476D01*
X143165000Y-93952381D02*
X143879285Y-93714286D01*
X143879285Y-93714286D02*
X143879285Y-94333333D01*
%TO.C,C6*%
X160617380Y-93333333D02*
X160665000Y-93285714D01*
X160665000Y-93285714D02*
X160712619Y-93142857D01*
X160712619Y-93142857D02*
X160712619Y-93047619D01*
X160712619Y-93047619D02*
X160665000Y-92904762D01*
X160665000Y-92904762D02*
X160569761Y-92809524D01*
X160569761Y-92809524D02*
X160474523Y-92761905D01*
X160474523Y-92761905D02*
X160284047Y-92714286D01*
X160284047Y-92714286D02*
X160141190Y-92714286D01*
X160141190Y-92714286D02*
X159950714Y-92761905D01*
X159950714Y-92761905D02*
X159855476Y-92809524D01*
X159855476Y-92809524D02*
X159760238Y-92904762D01*
X159760238Y-92904762D02*
X159712619Y-93047619D01*
X159712619Y-93047619D02*
X159712619Y-93142857D01*
X159712619Y-93142857D02*
X159760238Y-93285714D01*
X159760238Y-93285714D02*
X159807857Y-93333333D01*
X159712619Y-94190476D02*
X159712619Y-94000000D01*
X159712619Y-94000000D02*
X159760238Y-93904762D01*
X159760238Y-93904762D02*
X159807857Y-93857143D01*
X159807857Y-93857143D02*
X159950714Y-93761905D01*
X159950714Y-93761905D02*
X160141190Y-93714286D01*
X160141190Y-93714286D02*
X160522142Y-93714286D01*
X160522142Y-93714286D02*
X160617380Y-93761905D01*
X160617380Y-93761905D02*
X160665000Y-93809524D01*
X160665000Y-93809524D02*
X160712619Y-93904762D01*
X160712619Y-93904762D02*
X160712619Y-94095238D01*
X160712619Y-94095238D02*
X160665000Y-94190476D01*
X160665000Y-94190476D02*
X160617380Y-94238095D01*
X160617380Y-94238095D02*
X160522142Y-94285714D01*
X160522142Y-94285714D02*
X160284047Y-94285714D01*
X160284047Y-94285714D02*
X160188809Y-94238095D01*
X160188809Y-94238095D02*
X160141190Y-94190476D01*
X160141190Y-94190476D02*
X160093571Y-94095238D01*
X160093571Y-94095238D02*
X160093571Y-93904762D01*
X160093571Y-93904762D02*
X160141190Y-93809524D01*
X160141190Y-93809524D02*
X160188809Y-93761905D01*
X160188809Y-93761905D02*
X160284047Y-93714286D01*
%TO.C,R7*%
X165462619Y-111333333D02*
X164986428Y-111000000D01*
X165462619Y-110761905D02*
X164462619Y-110761905D01*
X164462619Y-110761905D02*
X164462619Y-111142857D01*
X164462619Y-111142857D02*
X164510238Y-111238095D01*
X164510238Y-111238095D02*
X164557857Y-111285714D01*
X164557857Y-111285714D02*
X164653095Y-111333333D01*
X164653095Y-111333333D02*
X164795952Y-111333333D01*
X164795952Y-111333333D02*
X164891190Y-111285714D01*
X164891190Y-111285714D02*
X164938809Y-111238095D01*
X164938809Y-111238095D02*
X164986428Y-111142857D01*
X164986428Y-111142857D02*
X164986428Y-110761905D01*
X164462619Y-111666667D02*
X164462619Y-112333333D01*
X164462619Y-112333333D02*
X165462619Y-111904762D01*
%TO.C,J3*%
X133333333Y-105382619D02*
X133333333Y-106096904D01*
X133333333Y-106096904D02*
X133380952Y-106239761D01*
X133380952Y-106239761D02*
X133476190Y-106335000D01*
X133476190Y-106335000D02*
X133619047Y-106382619D01*
X133619047Y-106382619D02*
X133714285Y-106382619D01*
X132952380Y-105382619D02*
X132333333Y-105382619D01*
X132333333Y-105382619D02*
X132666666Y-105763571D01*
X132666666Y-105763571D02*
X132523809Y-105763571D01*
X132523809Y-105763571D02*
X132428571Y-105811190D01*
X132428571Y-105811190D02*
X132380952Y-105858809D01*
X132380952Y-105858809D02*
X132333333Y-105954047D01*
X132333333Y-105954047D02*
X132333333Y-106192142D01*
X132333333Y-106192142D02*
X132380952Y-106287380D01*
X132380952Y-106287380D02*
X132428571Y-106335000D01*
X132428571Y-106335000D02*
X132523809Y-106382619D01*
X132523809Y-106382619D02*
X132809523Y-106382619D01*
X132809523Y-106382619D02*
X132904761Y-106335000D01*
X132904761Y-106335000D02*
X132952380Y-106287380D01*
%TO.C,R5*%
X157916666Y-110462619D02*
X158249999Y-109986428D01*
X158488094Y-110462619D02*
X158488094Y-109462619D01*
X158488094Y-109462619D02*
X158107142Y-109462619D01*
X158107142Y-109462619D02*
X158011904Y-109510238D01*
X158011904Y-109510238D02*
X157964285Y-109557857D01*
X157964285Y-109557857D02*
X157916666Y-109653095D01*
X157916666Y-109653095D02*
X157916666Y-109795952D01*
X157916666Y-109795952D02*
X157964285Y-109891190D01*
X157964285Y-109891190D02*
X158011904Y-109938809D01*
X158011904Y-109938809D02*
X158107142Y-109986428D01*
X158107142Y-109986428D02*
X158488094Y-109986428D01*
X157011904Y-109462619D02*
X157488094Y-109462619D01*
X157488094Y-109462619D02*
X157535713Y-109938809D01*
X157535713Y-109938809D02*
X157488094Y-109891190D01*
X157488094Y-109891190D02*
X157392856Y-109843571D01*
X157392856Y-109843571D02*
X157154761Y-109843571D01*
X157154761Y-109843571D02*
X157059523Y-109891190D01*
X157059523Y-109891190D02*
X157011904Y-109938809D01*
X157011904Y-109938809D02*
X156964285Y-110034047D01*
X156964285Y-110034047D02*
X156964285Y-110272142D01*
X156964285Y-110272142D02*
X157011904Y-110367380D01*
X157011904Y-110367380D02*
X157059523Y-110415000D01*
X157059523Y-110415000D02*
X157154761Y-110462619D01*
X157154761Y-110462619D02*
X157392856Y-110462619D01*
X157392856Y-110462619D02*
X157488094Y-110415000D01*
X157488094Y-110415000D02*
X157535713Y-110367380D01*
%TO.C,C3*%
X142617380Y-93333333D02*
X142665000Y-93285714D01*
X142665000Y-93285714D02*
X142712619Y-93142857D01*
X142712619Y-93142857D02*
X142712619Y-93047619D01*
X142712619Y-93047619D02*
X142665000Y-92904762D01*
X142665000Y-92904762D02*
X142569761Y-92809524D01*
X142569761Y-92809524D02*
X142474523Y-92761905D01*
X142474523Y-92761905D02*
X142284047Y-92714286D01*
X142284047Y-92714286D02*
X142141190Y-92714286D01*
X142141190Y-92714286D02*
X141950714Y-92761905D01*
X141950714Y-92761905D02*
X141855476Y-92809524D01*
X141855476Y-92809524D02*
X141760238Y-92904762D01*
X141760238Y-92904762D02*
X141712619Y-93047619D01*
X141712619Y-93047619D02*
X141712619Y-93142857D01*
X141712619Y-93142857D02*
X141760238Y-93285714D01*
X141760238Y-93285714D02*
X141807857Y-93333333D01*
X141712619Y-93666667D02*
X141712619Y-94285714D01*
X141712619Y-94285714D02*
X142093571Y-93952381D01*
X142093571Y-93952381D02*
X142093571Y-94095238D01*
X142093571Y-94095238D02*
X142141190Y-94190476D01*
X142141190Y-94190476D02*
X142188809Y-94238095D01*
X142188809Y-94238095D02*
X142284047Y-94285714D01*
X142284047Y-94285714D02*
X142522142Y-94285714D01*
X142522142Y-94285714D02*
X142617380Y-94238095D01*
X142617380Y-94238095D02*
X142665000Y-94190476D01*
X142665000Y-94190476D02*
X142712619Y-94095238D01*
X142712619Y-94095238D02*
X142712619Y-93809524D01*
X142712619Y-93809524D02*
X142665000Y-93714286D01*
X142665000Y-93714286D02*
X142617380Y-93666667D01*
%TO.C,C21*%
X158392857Y-113367380D02*
X158440476Y-113415000D01*
X158440476Y-113415000D02*
X158583333Y-113462619D01*
X158583333Y-113462619D02*
X158678571Y-113462619D01*
X158678571Y-113462619D02*
X158821428Y-113415000D01*
X158821428Y-113415000D02*
X158916666Y-113319761D01*
X158916666Y-113319761D02*
X158964285Y-113224523D01*
X158964285Y-113224523D02*
X159011904Y-113034047D01*
X159011904Y-113034047D02*
X159011904Y-112891190D01*
X159011904Y-112891190D02*
X158964285Y-112700714D01*
X158964285Y-112700714D02*
X158916666Y-112605476D01*
X158916666Y-112605476D02*
X158821428Y-112510238D01*
X158821428Y-112510238D02*
X158678571Y-112462619D01*
X158678571Y-112462619D02*
X158583333Y-112462619D01*
X158583333Y-112462619D02*
X158440476Y-112510238D01*
X158440476Y-112510238D02*
X158392857Y-112557857D01*
X158011904Y-112557857D02*
X157964285Y-112510238D01*
X157964285Y-112510238D02*
X157869047Y-112462619D01*
X157869047Y-112462619D02*
X157630952Y-112462619D01*
X157630952Y-112462619D02*
X157535714Y-112510238D01*
X157535714Y-112510238D02*
X157488095Y-112557857D01*
X157488095Y-112557857D02*
X157440476Y-112653095D01*
X157440476Y-112653095D02*
X157440476Y-112748333D01*
X157440476Y-112748333D02*
X157488095Y-112891190D01*
X157488095Y-112891190D02*
X158059523Y-113462619D01*
X158059523Y-113462619D02*
X157440476Y-113462619D01*
X156488095Y-113462619D02*
X157059523Y-113462619D01*
X156773809Y-113462619D02*
X156773809Y-112462619D01*
X156773809Y-112462619D02*
X156869047Y-112605476D01*
X156869047Y-112605476D02*
X156964285Y-112700714D01*
X156964285Y-112700714D02*
X157059523Y-112748333D01*
%TO.C,C13*%
X145617380Y-124857142D02*
X145665000Y-124809523D01*
X145665000Y-124809523D02*
X145712619Y-124666666D01*
X145712619Y-124666666D02*
X145712619Y-124571428D01*
X145712619Y-124571428D02*
X145665000Y-124428571D01*
X145665000Y-124428571D02*
X145569761Y-124333333D01*
X145569761Y-124333333D02*
X145474523Y-124285714D01*
X145474523Y-124285714D02*
X145284047Y-124238095D01*
X145284047Y-124238095D02*
X145141190Y-124238095D01*
X145141190Y-124238095D02*
X144950714Y-124285714D01*
X144950714Y-124285714D02*
X144855476Y-124333333D01*
X144855476Y-124333333D02*
X144760238Y-124428571D01*
X144760238Y-124428571D02*
X144712619Y-124571428D01*
X144712619Y-124571428D02*
X144712619Y-124666666D01*
X144712619Y-124666666D02*
X144760238Y-124809523D01*
X144760238Y-124809523D02*
X144807857Y-124857142D01*
X145712619Y-125809523D02*
X145712619Y-125238095D01*
X145712619Y-125523809D02*
X144712619Y-125523809D01*
X144712619Y-125523809D02*
X144855476Y-125428571D01*
X144855476Y-125428571D02*
X144950714Y-125333333D01*
X144950714Y-125333333D02*
X144998333Y-125238095D01*
X144712619Y-126142857D02*
X144712619Y-126761904D01*
X144712619Y-126761904D02*
X145093571Y-126428571D01*
X145093571Y-126428571D02*
X145093571Y-126571428D01*
X145093571Y-126571428D02*
X145141190Y-126666666D01*
X145141190Y-126666666D02*
X145188809Y-126714285D01*
X145188809Y-126714285D02*
X145284047Y-126761904D01*
X145284047Y-126761904D02*
X145522142Y-126761904D01*
X145522142Y-126761904D02*
X145617380Y-126714285D01*
X145617380Y-126714285D02*
X145665000Y-126666666D01*
X145665000Y-126666666D02*
X145712619Y-126571428D01*
X145712619Y-126571428D02*
X145712619Y-126285714D01*
X145712619Y-126285714D02*
X145665000Y-126190476D01*
X145665000Y-126190476D02*
X145617380Y-126142857D01*
%TO.C,C15*%
X142617380Y-124857142D02*
X142665000Y-124809523D01*
X142665000Y-124809523D02*
X142712619Y-124666666D01*
X142712619Y-124666666D02*
X142712619Y-124571428D01*
X142712619Y-124571428D02*
X142665000Y-124428571D01*
X142665000Y-124428571D02*
X142569761Y-124333333D01*
X142569761Y-124333333D02*
X142474523Y-124285714D01*
X142474523Y-124285714D02*
X142284047Y-124238095D01*
X142284047Y-124238095D02*
X142141190Y-124238095D01*
X142141190Y-124238095D02*
X141950714Y-124285714D01*
X141950714Y-124285714D02*
X141855476Y-124333333D01*
X141855476Y-124333333D02*
X141760238Y-124428571D01*
X141760238Y-124428571D02*
X141712619Y-124571428D01*
X141712619Y-124571428D02*
X141712619Y-124666666D01*
X141712619Y-124666666D02*
X141760238Y-124809523D01*
X141760238Y-124809523D02*
X141807857Y-124857142D01*
X142712619Y-125809523D02*
X142712619Y-125238095D01*
X142712619Y-125523809D02*
X141712619Y-125523809D01*
X141712619Y-125523809D02*
X141855476Y-125428571D01*
X141855476Y-125428571D02*
X141950714Y-125333333D01*
X141950714Y-125333333D02*
X141998333Y-125238095D01*
X141712619Y-126714285D02*
X141712619Y-126238095D01*
X141712619Y-126238095D02*
X142188809Y-126190476D01*
X142188809Y-126190476D02*
X142141190Y-126238095D01*
X142141190Y-126238095D02*
X142093571Y-126333333D01*
X142093571Y-126333333D02*
X142093571Y-126571428D01*
X142093571Y-126571428D02*
X142141190Y-126666666D01*
X142141190Y-126666666D02*
X142188809Y-126714285D01*
X142188809Y-126714285D02*
X142284047Y-126761904D01*
X142284047Y-126761904D02*
X142522142Y-126761904D01*
X142522142Y-126761904D02*
X142617380Y-126714285D01*
X142617380Y-126714285D02*
X142665000Y-126666666D01*
X142665000Y-126666666D02*
X142712619Y-126571428D01*
X142712619Y-126571428D02*
X142712619Y-126333333D01*
X142712619Y-126333333D02*
X142665000Y-126238095D01*
X142665000Y-126238095D02*
X142617380Y-126190476D01*
%TO.C,R2*%
X157916666Y-104462619D02*
X158249999Y-103986428D01*
X158488094Y-104462619D02*
X158488094Y-103462619D01*
X158488094Y-103462619D02*
X158107142Y-103462619D01*
X158107142Y-103462619D02*
X158011904Y-103510238D01*
X158011904Y-103510238D02*
X157964285Y-103557857D01*
X157964285Y-103557857D02*
X157916666Y-103653095D01*
X157916666Y-103653095D02*
X157916666Y-103795952D01*
X157916666Y-103795952D02*
X157964285Y-103891190D01*
X157964285Y-103891190D02*
X158011904Y-103938809D01*
X158011904Y-103938809D02*
X158107142Y-103986428D01*
X158107142Y-103986428D02*
X158488094Y-103986428D01*
X157535713Y-103557857D02*
X157488094Y-103510238D01*
X157488094Y-103510238D02*
X157392856Y-103462619D01*
X157392856Y-103462619D02*
X157154761Y-103462619D01*
X157154761Y-103462619D02*
X157059523Y-103510238D01*
X157059523Y-103510238D02*
X157011904Y-103557857D01*
X157011904Y-103557857D02*
X156964285Y-103653095D01*
X156964285Y-103653095D02*
X156964285Y-103748333D01*
X156964285Y-103748333D02*
X157011904Y-103891190D01*
X157011904Y-103891190D02*
X157583332Y-104462619D01*
X157583332Y-104462619D02*
X156964285Y-104462619D01*
%TO.C,Y1*%
X175476190Y-110486428D02*
X175476190Y-110962619D01*
X175809523Y-109962619D02*
X175476190Y-110486428D01*
X175476190Y-110486428D02*
X175142857Y-109962619D01*
X174285714Y-110962619D02*
X174857142Y-110962619D01*
X174571428Y-110962619D02*
X174571428Y-109962619D01*
X174571428Y-109962619D02*
X174666666Y-110105476D01*
X174666666Y-110105476D02*
X174761904Y-110200714D01*
X174761904Y-110200714D02*
X174857142Y-110248333D01*
%TO.C,C11*%
X162367380Y-124857142D02*
X162415000Y-124809523D01*
X162415000Y-124809523D02*
X162462619Y-124666666D01*
X162462619Y-124666666D02*
X162462619Y-124571428D01*
X162462619Y-124571428D02*
X162415000Y-124428571D01*
X162415000Y-124428571D02*
X162319761Y-124333333D01*
X162319761Y-124333333D02*
X162224523Y-124285714D01*
X162224523Y-124285714D02*
X162034047Y-124238095D01*
X162034047Y-124238095D02*
X161891190Y-124238095D01*
X161891190Y-124238095D02*
X161700714Y-124285714D01*
X161700714Y-124285714D02*
X161605476Y-124333333D01*
X161605476Y-124333333D02*
X161510238Y-124428571D01*
X161510238Y-124428571D02*
X161462619Y-124571428D01*
X161462619Y-124571428D02*
X161462619Y-124666666D01*
X161462619Y-124666666D02*
X161510238Y-124809523D01*
X161510238Y-124809523D02*
X161557857Y-124857142D01*
X162462619Y-125809523D02*
X162462619Y-125238095D01*
X162462619Y-125523809D02*
X161462619Y-125523809D01*
X161462619Y-125523809D02*
X161605476Y-125428571D01*
X161605476Y-125428571D02*
X161700714Y-125333333D01*
X161700714Y-125333333D02*
X161748333Y-125238095D01*
X162462619Y-126761904D02*
X162462619Y-126190476D01*
X162462619Y-126476190D02*
X161462619Y-126476190D01*
X161462619Y-126476190D02*
X161605476Y-126380952D01*
X161605476Y-126380952D02*
X161700714Y-126285714D01*
X161700714Y-126285714D02*
X161748333Y-126190476D01*
%TO.C,R1*%
X160462619Y-105583333D02*
X159986428Y-105250000D01*
X160462619Y-105011905D02*
X159462619Y-105011905D01*
X159462619Y-105011905D02*
X159462619Y-105392857D01*
X159462619Y-105392857D02*
X159510238Y-105488095D01*
X159510238Y-105488095D02*
X159557857Y-105535714D01*
X159557857Y-105535714D02*
X159653095Y-105583333D01*
X159653095Y-105583333D02*
X159795952Y-105583333D01*
X159795952Y-105583333D02*
X159891190Y-105535714D01*
X159891190Y-105535714D02*
X159938809Y-105488095D01*
X159938809Y-105488095D02*
X159986428Y-105392857D01*
X159986428Y-105392857D02*
X159986428Y-105011905D01*
X160462619Y-106535714D02*
X160462619Y-105964286D01*
X160462619Y-106250000D02*
X159462619Y-106250000D01*
X159462619Y-106250000D02*
X159605476Y-106154762D01*
X159605476Y-106154762D02*
X159700714Y-106059524D01*
X159700714Y-106059524D02*
X159748333Y-105964286D01*
%TO.C,C22*%
X172867380Y-103357142D02*
X172915000Y-103309523D01*
X172915000Y-103309523D02*
X172962619Y-103166666D01*
X172962619Y-103166666D02*
X172962619Y-103071428D01*
X172962619Y-103071428D02*
X172915000Y-102928571D01*
X172915000Y-102928571D02*
X172819761Y-102833333D01*
X172819761Y-102833333D02*
X172724523Y-102785714D01*
X172724523Y-102785714D02*
X172534047Y-102738095D01*
X172534047Y-102738095D02*
X172391190Y-102738095D01*
X172391190Y-102738095D02*
X172200714Y-102785714D01*
X172200714Y-102785714D02*
X172105476Y-102833333D01*
X172105476Y-102833333D02*
X172010238Y-102928571D01*
X172010238Y-102928571D02*
X171962619Y-103071428D01*
X171962619Y-103071428D02*
X171962619Y-103166666D01*
X171962619Y-103166666D02*
X172010238Y-103309523D01*
X172010238Y-103309523D02*
X172057857Y-103357142D01*
X172057857Y-103738095D02*
X172010238Y-103785714D01*
X172010238Y-103785714D02*
X171962619Y-103880952D01*
X171962619Y-103880952D02*
X171962619Y-104119047D01*
X171962619Y-104119047D02*
X172010238Y-104214285D01*
X172010238Y-104214285D02*
X172057857Y-104261904D01*
X172057857Y-104261904D02*
X172153095Y-104309523D01*
X172153095Y-104309523D02*
X172248333Y-104309523D01*
X172248333Y-104309523D02*
X172391190Y-104261904D01*
X172391190Y-104261904D02*
X172962619Y-103690476D01*
X172962619Y-103690476D02*
X172962619Y-104309523D01*
X172057857Y-104690476D02*
X172010238Y-104738095D01*
X172010238Y-104738095D02*
X171962619Y-104833333D01*
X171962619Y-104833333D02*
X171962619Y-105071428D01*
X171962619Y-105071428D02*
X172010238Y-105166666D01*
X172010238Y-105166666D02*
X172057857Y-105214285D01*
X172057857Y-105214285D02*
X172153095Y-105261904D01*
X172153095Y-105261904D02*
X172248333Y-105261904D01*
X172248333Y-105261904D02*
X172391190Y-105214285D01*
X172391190Y-105214285D02*
X172962619Y-104642857D01*
X172962619Y-104642857D02*
X172962619Y-105261904D01*
%TO.C,R4*%
X160462619Y-109333333D02*
X159986428Y-109000000D01*
X160462619Y-108761905D02*
X159462619Y-108761905D01*
X159462619Y-108761905D02*
X159462619Y-109142857D01*
X159462619Y-109142857D02*
X159510238Y-109238095D01*
X159510238Y-109238095D02*
X159557857Y-109285714D01*
X159557857Y-109285714D02*
X159653095Y-109333333D01*
X159653095Y-109333333D02*
X159795952Y-109333333D01*
X159795952Y-109333333D02*
X159891190Y-109285714D01*
X159891190Y-109285714D02*
X159938809Y-109238095D01*
X159938809Y-109238095D02*
X159986428Y-109142857D01*
X159986428Y-109142857D02*
X159986428Y-108761905D01*
X159795952Y-110190476D02*
X160462619Y-110190476D01*
X159415000Y-109952381D02*
X160129285Y-109714286D01*
X160129285Y-109714286D02*
X160129285Y-110333333D01*
%TO.C,C18*%
X158392857Y-105867380D02*
X158440476Y-105915000D01*
X158440476Y-105915000D02*
X158583333Y-105962619D01*
X158583333Y-105962619D02*
X158678571Y-105962619D01*
X158678571Y-105962619D02*
X158821428Y-105915000D01*
X158821428Y-105915000D02*
X158916666Y-105819761D01*
X158916666Y-105819761D02*
X158964285Y-105724523D01*
X158964285Y-105724523D02*
X159011904Y-105534047D01*
X159011904Y-105534047D02*
X159011904Y-105391190D01*
X159011904Y-105391190D02*
X158964285Y-105200714D01*
X158964285Y-105200714D02*
X158916666Y-105105476D01*
X158916666Y-105105476D02*
X158821428Y-105010238D01*
X158821428Y-105010238D02*
X158678571Y-104962619D01*
X158678571Y-104962619D02*
X158583333Y-104962619D01*
X158583333Y-104962619D02*
X158440476Y-105010238D01*
X158440476Y-105010238D02*
X158392857Y-105057857D01*
X157440476Y-105962619D02*
X158011904Y-105962619D01*
X157726190Y-105962619D02*
X157726190Y-104962619D01*
X157726190Y-104962619D02*
X157821428Y-105105476D01*
X157821428Y-105105476D02*
X157916666Y-105200714D01*
X157916666Y-105200714D02*
X158011904Y-105248333D01*
X156869047Y-105391190D02*
X156964285Y-105343571D01*
X156964285Y-105343571D02*
X157011904Y-105295952D01*
X157011904Y-105295952D02*
X157059523Y-105200714D01*
X157059523Y-105200714D02*
X157059523Y-105153095D01*
X157059523Y-105153095D02*
X157011904Y-105057857D01*
X157011904Y-105057857D02*
X156964285Y-105010238D01*
X156964285Y-105010238D02*
X156869047Y-104962619D01*
X156869047Y-104962619D02*
X156678571Y-104962619D01*
X156678571Y-104962619D02*
X156583333Y-105010238D01*
X156583333Y-105010238D02*
X156535714Y-105057857D01*
X156535714Y-105057857D02*
X156488095Y-105153095D01*
X156488095Y-105153095D02*
X156488095Y-105200714D01*
X156488095Y-105200714D02*
X156535714Y-105295952D01*
X156535714Y-105295952D02*
X156583333Y-105343571D01*
X156583333Y-105343571D02*
X156678571Y-105391190D01*
X156678571Y-105391190D02*
X156869047Y-105391190D01*
X156869047Y-105391190D02*
X156964285Y-105438809D01*
X156964285Y-105438809D02*
X157011904Y-105486428D01*
X157011904Y-105486428D02*
X157059523Y-105581666D01*
X157059523Y-105581666D02*
X157059523Y-105772142D01*
X157059523Y-105772142D02*
X157011904Y-105867380D01*
X157011904Y-105867380D02*
X156964285Y-105915000D01*
X156964285Y-105915000D02*
X156869047Y-105962619D01*
X156869047Y-105962619D02*
X156678571Y-105962619D01*
X156678571Y-105962619D02*
X156583333Y-105915000D01*
X156583333Y-105915000D02*
X156535714Y-105867380D01*
X156535714Y-105867380D02*
X156488095Y-105772142D01*
X156488095Y-105772142D02*
X156488095Y-105581666D01*
X156488095Y-105581666D02*
X156535714Y-105486428D01*
X156535714Y-105486428D02*
X156583333Y-105438809D01*
X156583333Y-105438809D02*
X156678571Y-105391190D01*
D11*
%TO.C,J4*%
X173500000Y-115830000D02*
X174830000Y-115830000D01*
X169630000Y-115830000D02*
X169630000Y-113170000D01*
X172230000Y-115830000D02*
X169630000Y-115830000D01*
X172230000Y-115830000D02*
X172230000Y-113170000D01*
X174830000Y-115830000D02*
X174830000Y-114500000D01*
X172230000Y-113170000D02*
X169630000Y-113170000D01*
%TO.C,C2*%
X146390000Y-93607836D02*
X146390000Y-93392164D01*
X147110000Y-93607836D02*
X147110000Y-93392164D01*
%TO.C,C20*%
X162107836Y-109360000D02*
X161892164Y-109360000D01*
X162107836Y-108640000D02*
X161892164Y-108640000D01*
%TO.C,R6*%
X162153641Y-111380000D02*
X161846359Y-111380000D01*
X162153641Y-110620000D02*
X161846359Y-110620000D01*
%TO.C,C17*%
X164892164Y-103640000D02*
X165107836Y-103640000D01*
X164892164Y-104360000D02*
X165107836Y-104360000D01*
%TO.C,C9*%
X158610000Y-125412164D02*
X158610000Y-125627836D01*
X157890000Y-125412164D02*
X157890000Y-125627836D01*
%TO.C,R3*%
X162153641Y-107380000D02*
X161846359Y-107380000D01*
X162153641Y-106620000D02*
X161846359Y-106620000D01*
%TO.C,C5*%
X152890000Y-93607836D02*
X152890000Y-93392164D01*
X153610000Y-93607836D02*
X153610000Y-93392164D01*
%TO.C,C1*%
X145390000Y-93607836D02*
X145390000Y-93392164D01*
X146110000Y-93607836D02*
X146110000Y-93392164D01*
%TO.C,C8*%
X155890000Y-93607836D02*
X155890000Y-93392164D01*
X156610000Y-93607836D02*
X156610000Y-93392164D01*
%TO.C,U1*%
X168000000Y-110235000D02*
X170200000Y-110235000D01*
X168000000Y-110235000D02*
X165800000Y-110235000D01*
X168000000Y-104765000D02*
X171600000Y-104765000D01*
X168000000Y-104765000D02*
X165800000Y-104765000D01*
%TO.C,C10*%
X157610000Y-125412164D02*
X157610000Y-125627836D01*
X156890000Y-125412164D02*
X156890000Y-125627836D01*
%TO.C,C19*%
X162107836Y-106360000D02*
X161892164Y-106360000D01*
X162107836Y-105640000D02*
X161892164Y-105640000D01*
%TO.C,C12*%
X155610000Y-125412164D02*
X155610000Y-125627836D01*
X154890000Y-125412164D02*
X154890000Y-125627836D01*
%TO.C,C14*%
X150110000Y-125412164D02*
X150110000Y-125627836D01*
X149390000Y-125412164D02*
X149390000Y-125627836D01*
%TO.C,J1*%
X140450000Y-97450000D02*
X140450000Y-99000000D01*
X140450000Y-100016000D02*
X140450000Y-101032000D01*
X140450000Y-101032000D02*
X140450000Y-102048000D01*
X140450000Y-102048000D02*
X144329200Y-102048000D01*
X141941600Y-95952000D02*
X140450000Y-97450000D01*
X144303800Y-95952000D02*
X141941600Y-95952000D01*
X159213600Y-95952000D02*
X162033000Y-95952000D01*
X162033000Y-95952000D02*
X163550000Y-97450000D01*
X163550000Y-97450000D02*
X163550000Y-99000000D01*
X163550000Y-100016000D02*
X163550000Y-101032000D01*
X163550000Y-101032000D02*
X163550000Y-102048000D01*
X163550000Y-102048000D02*
X159200000Y-102048000D01*
%TO.C,C23*%
X172860000Y-108392164D02*
X172860000Y-108607836D01*
X172140000Y-108392164D02*
X172140000Y-108607836D01*
%TO.C,C7*%
X154890000Y-93607836D02*
X154890000Y-93392164D01*
X155610000Y-93607836D02*
X155610000Y-93392164D01*
%TO.C,J2*%
X163550000Y-121550000D02*
X163550000Y-120000000D01*
X163550000Y-118984000D02*
X163550000Y-117968000D01*
X163550000Y-117968000D02*
X163550000Y-116952000D01*
X163550000Y-116952000D02*
X159670800Y-116952000D01*
X162058400Y-123048000D02*
X163550000Y-121550000D01*
X159696200Y-123048000D02*
X162058400Y-123048000D01*
X144786400Y-123048000D02*
X141967000Y-123048000D01*
X141967000Y-123048000D02*
X140450000Y-121550000D01*
X140450000Y-121550000D02*
X140450000Y-120000000D01*
X140450000Y-118984000D02*
X140450000Y-117968000D01*
X140450000Y-117968000D02*
X140450000Y-116952000D01*
X140450000Y-116952000D02*
X144800000Y-116952000D01*
%TO.C,C16*%
X148110000Y-125412164D02*
X148110000Y-125627836D01*
X147390000Y-125412164D02*
X147390000Y-125627836D01*
%TO.C,C4*%
X148390000Y-93607836D02*
X148390000Y-93392164D01*
X149110000Y-93607836D02*
X149110000Y-93392164D01*
%TO.C,C6*%
X153890000Y-93607836D02*
X153890000Y-93392164D01*
X154610000Y-93607836D02*
X154610000Y-93392164D01*
%TO.C,R7*%
X163880000Y-111346359D02*
X163880000Y-111653641D01*
X163120000Y-111346359D02*
X163120000Y-111653641D01*
%TO.C,J3*%
X134330000Y-112120000D02*
X131670000Y-112120000D01*
X134330000Y-109520000D02*
X134330000Y-112120000D01*
X134330000Y-109520000D02*
X131670000Y-109520000D01*
X134330000Y-108250000D02*
X134330000Y-106920000D01*
X134330000Y-106920000D02*
X133000000Y-106920000D01*
X131670000Y-109520000D02*
X131670000Y-112120000D01*
%TO.C,R5*%
X162153641Y-108380000D02*
X161846359Y-108380000D01*
X162153641Y-107620000D02*
X161846359Y-107620000D01*
%TO.C,C3*%
X147390000Y-93607836D02*
X147390000Y-93392164D01*
X148110000Y-93607836D02*
X148110000Y-93392164D01*
%TO.C,C21*%
X162107836Y-110360000D02*
X161892164Y-110360000D01*
X162107836Y-109640000D02*
X161892164Y-109640000D01*
%TO.C,C13*%
X151110000Y-125412164D02*
X151110000Y-125627836D01*
X150390000Y-125412164D02*
X150390000Y-125627836D01*
%TO.C,C15*%
X149110000Y-125412164D02*
X149110000Y-125627836D01*
X148390000Y-125412164D02*
X148390000Y-125627836D01*
%TO.C,R2*%
X162153641Y-104380000D02*
X161846359Y-104380000D01*
X162153641Y-103620000D02*
X161846359Y-103620000D01*
%TO.C,Y1*%
X173350000Y-109500000D02*
X173350000Y-105500000D01*
X176650000Y-109500000D02*
X173350000Y-109500000D01*
%TO.C,C11*%
X156610000Y-125392164D02*
X156610000Y-125607836D01*
X155890000Y-125392164D02*
X155890000Y-125607836D01*
%TO.C,R1*%
X163880000Y-105346359D02*
X163880000Y-105653641D01*
X163120000Y-105346359D02*
X163120000Y-105653641D01*
%TO.C,C22*%
X172140000Y-106607836D02*
X172140000Y-106392164D01*
X172860000Y-106607836D02*
X172860000Y-106392164D01*
%TO.C,R4*%
X163880000Y-109336359D02*
X163880000Y-109643641D01*
X163120000Y-109336359D02*
X163120000Y-109643641D01*
%TO.C,C18*%
X162107836Y-105360000D02*
X161892164Y-105360000D01*
X162107836Y-104640000D02*
X161892164Y-104640000D01*
%TD*%
M02*
