%TF.GenerationSoftware,KiCad,Pcbnew,7.0.2-0*%
%TF.CreationDate,2023-05-25T20:57:36-04:00*%
%TF.ProjectId,szg-c2c-txr4,737a672d-6332-4632-9d74-7872342e6b69,A*%
%TF.SameCoordinates,Original*%
%TF.FileFunction,Soldermask,Bot*%
%TF.FilePolarity,Negative*%
%FSLAX46Y46*%
G04 Gerber Fmt 4.6, Leading zero omitted, Abs format (unit mm)*
G04 Created by KiCad (PCBNEW 7.0.2-0) date 2023-05-25 20:57:36*
%MOMM*%
%LPD*%
G01*
G04 APERTURE LIST*
G04 Aperture macros list*
%AMRoundRect*
0 Rectangle with rounded corners*
0 $1 Rounding radius*
0 $2 $3 $4 $5 $6 $7 $8 $9 X,Y pos of 4 corners*
0 Add a 4 corners polygon primitive as box body*
4,1,4,$2,$3,$4,$5,$6,$7,$8,$9,$2,$3,0*
0 Add four circle primitives for the rounded corners*
1,1,$1+$1,$2,$3*
1,1,$1+$1,$4,$5*
1,1,$1+$1,$6,$7*
1,1,$1+$1,$8,$9*
0 Add four rect primitives between the rounded corners*
20,1,$1+$1,$2,$3,$4,$5,0*
20,1,$1+$1,$4,$5,$6,$7,0*
20,1,$1+$1,$6,$7,$8,$9,0*
20,1,$1+$1,$8,$9,$2,$3,0*%
G04 Aperture macros list end*
%ADD10R,1.700000X1.700000*%
%ADD11O,1.700000X1.700000*%
%ADD12C,3.600000*%
%ADD13C,6.500000*%
%ADD14C,2.000000*%
%ADD15RoundRect,0.140000X0.170000X-0.140000X0.170000X0.140000X-0.170000X0.140000X-0.170000X-0.140000X0*%
%ADD16RoundRect,0.140000X0.140000X0.170000X-0.140000X0.170000X-0.140000X-0.170000X0.140000X-0.170000X0*%
%ADD17RoundRect,0.135000X0.135000X0.185000X-0.135000X0.185000X-0.135000X-0.185000X0.135000X-0.185000X0*%
%ADD18RoundRect,0.140000X-0.140000X-0.170000X0.140000X-0.170000X0.140000X0.170000X-0.140000X0.170000X0*%
%ADD19RoundRect,0.140000X-0.170000X0.140000X-0.170000X-0.140000X0.170000X-0.140000X0.170000X0.140000X0*%
%ADD20RoundRect,0.100000X0.637500X0.100000X-0.637500X0.100000X-0.637500X-0.100000X0.637500X-0.100000X0*%
%ADD21C,1.020000*%
%ADD22RoundRect,0.050800X1.270000X0.320000X-1.270000X0.320000X-1.270000X-0.320000X1.270000X-0.320000X0*%
%ADD23RoundRect,0.050800X2.350000X0.320000X-2.350000X0.320000X-2.350000X-0.320000X2.350000X-0.320000X0*%
%ADD24RoundRect,0.050800X0.150000X0.725000X-0.150000X0.725000X-0.150000X-0.725000X0.150000X-0.725000X0*%
%ADD25C,1.301600*%
%ADD26RoundRect,0.050800X-1.270000X-0.320000X1.270000X-0.320000X1.270000X0.320000X-1.270000X0.320000X0*%
%ADD27RoundRect,0.050800X-2.350000X-0.320000X2.350000X-0.320000X2.350000X0.320000X-2.350000X0.320000X0*%
%ADD28RoundRect,0.050800X-0.150000X-0.725000X0.150000X-0.725000X0.150000X0.725000X-0.150000X0.725000X0*%
%ADD29RoundRect,0.135000X-0.185000X0.135000X-0.185000X-0.135000X0.185000X-0.135000X0.185000X0.135000X0*%
%ADD30R,1.200000X1.400000*%
%ADD31C,0.450000*%
G04 APERTURE END LIST*
D10*
%TO.C,J4*%
X173500000Y-114500000D03*
D11*
X170960000Y-114500000D03*
%TD*%
D12*
%TO.C,H1*%
X133090000Y-99000000D03*
D13*
X133090000Y-99000000D03*
%TD*%
D12*
%TO.C,H2*%
X170910000Y-99000000D03*
D13*
X170910000Y-99000000D03*
%TD*%
D12*
%TO.C,H4*%
X170910000Y-120000000D03*
D13*
X170910000Y-120000000D03*
%TD*%
D12*
%TO.C,H3*%
X133090000Y-120000000D03*
D13*
X133090000Y-120000000D03*
%TD*%
D14*
%TO.C,FID7*%
X174500000Y-94500000D03*
%TD*%
%TO.C,FID8*%
X129500000Y-94500000D03*
%TD*%
D15*
%TO.C,C2*%
X146750000Y-93980000D03*
X146750000Y-93020000D03*
%TD*%
D16*
%TO.C,C20*%
X162480000Y-109000000D03*
X161520000Y-109000000D03*
%TD*%
D17*
%TO.C,R6*%
X162510000Y-111000000D03*
X161490000Y-111000000D03*
%TD*%
D18*
%TO.C,C17*%
X164520000Y-104000000D03*
X165480000Y-104000000D03*
%TD*%
D19*
%TO.C,C9*%
X158250000Y-125040000D03*
X158250000Y-126000000D03*
%TD*%
D17*
%TO.C,R3*%
X162510000Y-107000000D03*
X161490000Y-107000000D03*
%TD*%
D15*
%TO.C,C5*%
X153250000Y-93980000D03*
X153250000Y-93020000D03*
%TD*%
%TO.C,C1*%
X145750000Y-93980000D03*
X145750000Y-93020000D03*
%TD*%
%TO.C,C8*%
X156250000Y-93980000D03*
X156250000Y-93020000D03*
%TD*%
D20*
%TO.C,U1*%
X170862500Y-105225000D03*
X170862500Y-105875000D03*
X170862500Y-106525000D03*
X170862500Y-107175000D03*
X170862500Y-107825000D03*
X170862500Y-108475000D03*
X170862500Y-109125000D03*
X170862500Y-109775000D03*
X165137500Y-109775000D03*
X165137500Y-109125000D03*
X165137500Y-108475000D03*
X165137500Y-107825000D03*
X165137500Y-107175000D03*
X165137500Y-106525000D03*
X165137500Y-105875000D03*
X165137500Y-105225000D03*
%TD*%
D14*
%TO.C,FID1*%
X174500000Y-124500000D03*
%TD*%
D19*
%TO.C,C10*%
X157250000Y-125040000D03*
X157250000Y-126000000D03*
%TD*%
D16*
%TO.C,C19*%
X162480000Y-106000000D03*
X161520000Y-106000000D03*
%TD*%
D19*
%TO.C,C12*%
X155250000Y-125040000D03*
X155250000Y-126000000D03*
%TD*%
%TO.C,C14*%
X149750000Y-125040000D03*
X149750000Y-126000000D03*
%TD*%
D21*
%TO.C,J1*%
X142760000Y-101030000D03*
X161240000Y-101030000D03*
D22*
X143560000Y-99000000D03*
D23*
X148830000Y-99000000D03*
X155180000Y-99000000D03*
D22*
X160440000Y-99000000D03*
D24*
X144750000Y-102090000D03*
X144750000Y-95910000D03*
X145250000Y-102090000D03*
X145250000Y-95910000D03*
X146250010Y-102090000D03*
X146250010Y-95910000D03*
X146750000Y-102090000D03*
X146750000Y-95910000D03*
X147750000Y-102090000D03*
X147750000Y-95910000D03*
X148250000Y-102090000D03*
X148250000Y-95910000D03*
X149250000Y-102090000D03*
X149250000Y-95910000D03*
X149750000Y-102090000D03*
X149750000Y-95910000D03*
X150750000Y-102090000D03*
X150750000Y-95910000D03*
X151250000Y-102090000D03*
X151250000Y-95910000D03*
X152250000Y-102090000D03*
X152250000Y-95910000D03*
X152750000Y-102090000D03*
X152750000Y-95910000D03*
X153750000Y-102090000D03*
X153750000Y-95910000D03*
X154250000Y-102090000D03*
X154250000Y-95910000D03*
X155250010Y-102090000D03*
X155250010Y-95910000D03*
X155750000Y-102090000D03*
X155750000Y-95910000D03*
X156750000Y-102090000D03*
X156750000Y-95910000D03*
X157250000Y-102090000D03*
X157250000Y-95910000D03*
X158250000Y-102090000D03*
X158250000Y-95910000D03*
X158750000Y-102090000D03*
X158750000Y-95910000D03*
D25*
X141155000Y-99500000D03*
X162845000Y-99500000D03*
%TD*%
D19*
%TO.C,C23*%
X172500000Y-108020000D03*
X172500000Y-108980000D03*
%TD*%
D15*
%TO.C,C7*%
X155250000Y-93980000D03*
X155250000Y-93020000D03*
%TD*%
D21*
%TO.C,J2*%
X161240000Y-117970000D03*
X142760000Y-117970000D03*
D26*
X160440000Y-120000000D03*
D27*
X155170000Y-120000000D03*
X148820000Y-120000000D03*
D26*
X143560000Y-120000000D03*
D28*
X159250000Y-116910000D03*
X159250000Y-123090000D03*
X158750000Y-116910000D03*
X158750000Y-123090000D03*
X157749990Y-116910000D03*
X157749990Y-123090000D03*
X157250000Y-116910000D03*
X157250000Y-123090000D03*
X156250000Y-116910000D03*
X156250000Y-123090000D03*
X155750000Y-116910000D03*
X155750000Y-123090000D03*
X154750000Y-116910000D03*
X154750000Y-123090000D03*
X154250000Y-116910000D03*
X154250000Y-123090000D03*
X153250000Y-116910000D03*
X153250000Y-123090000D03*
X152750000Y-116910000D03*
X152750000Y-123090000D03*
X151750000Y-116910000D03*
X151750000Y-123090000D03*
X151250000Y-116910000D03*
X151250000Y-123090000D03*
X150250000Y-116910000D03*
X150250000Y-123090000D03*
X149750000Y-116910000D03*
X149750000Y-123090000D03*
X148749990Y-116910000D03*
X148749990Y-123090000D03*
X148250000Y-116910000D03*
X148250000Y-123090000D03*
X147250000Y-116910000D03*
X147250000Y-123090000D03*
X146750000Y-116910000D03*
X146750000Y-123090000D03*
X145750000Y-116910000D03*
X145750000Y-123090000D03*
X145250000Y-116910000D03*
X145250000Y-123090000D03*
D25*
X162845000Y-119500000D03*
X141155000Y-119500000D03*
%TD*%
D19*
%TO.C,C16*%
X147750000Y-125040000D03*
X147750000Y-126000000D03*
%TD*%
D15*
%TO.C,C4*%
X148750000Y-93980000D03*
X148750000Y-93020000D03*
%TD*%
%TO.C,C6*%
X154250000Y-93980000D03*
X154250000Y-93020000D03*
%TD*%
D29*
%TO.C,R7*%
X163500000Y-110990000D03*
X163500000Y-112010000D03*
%TD*%
D10*
%TO.C,J3*%
X133000000Y-108250000D03*
D11*
X133000000Y-110790000D03*
%TD*%
D14*
%TO.C,FID2*%
X129500000Y-124500000D03*
%TD*%
D17*
%TO.C,R5*%
X162510000Y-108000000D03*
X161490000Y-108000000D03*
%TD*%
D15*
%TO.C,C3*%
X147750000Y-93980000D03*
X147750000Y-93020000D03*
%TD*%
D16*
%TO.C,C21*%
X162480000Y-110000000D03*
X161520000Y-110000000D03*
%TD*%
D19*
%TO.C,C13*%
X150750000Y-125040000D03*
X150750000Y-126000000D03*
%TD*%
%TO.C,C15*%
X148750000Y-125040000D03*
X148750000Y-126000000D03*
%TD*%
D17*
%TO.C,R2*%
X162510000Y-104000000D03*
X161490000Y-104000000D03*
%TD*%
D30*
%TO.C,Y1*%
X174150000Y-108600000D03*
X174150000Y-106400000D03*
X175850000Y-106400000D03*
X175850000Y-108600000D03*
%TD*%
D19*
%TO.C,C11*%
X156250000Y-125020000D03*
X156250000Y-125980000D03*
%TD*%
D29*
%TO.C,R1*%
X163500000Y-104990000D03*
X163500000Y-106010000D03*
%TD*%
D15*
%TO.C,C22*%
X172500000Y-106980000D03*
X172500000Y-106020000D03*
%TD*%
D29*
%TO.C,R4*%
X163500000Y-108980000D03*
X163500000Y-110000000D03*
%TD*%
D16*
%TO.C,C18*%
X162480000Y-105000000D03*
X161520000Y-105000000D03*
%TD*%
D31*
X163500000Y-107500000D03*
X152250000Y-93000000D03*
X149750000Y-93000000D03*
X161500000Y-107000000D03*
X159500000Y-120000000D03*
X153250000Y-120000000D03*
X147250000Y-99500000D03*
X152500000Y-113250000D03*
X146500000Y-119500000D03*
X154250000Y-126000000D03*
X149250000Y-120000000D03*
X161250000Y-120000000D03*
X164500000Y-104000000D03*
X159750000Y-99000000D03*
X152750000Y-99500000D03*
X154500000Y-114250000D03*
X161250000Y-99000000D03*
X144750000Y-93000000D03*
X144250000Y-120000000D03*
X172500000Y-109000000D03*
X157250000Y-93000000D03*
X161500000Y-108000000D03*
X154750000Y-120000000D03*
X154750000Y-99500000D03*
X151750000Y-126000000D03*
X159250000Y-126000000D03*
X142750000Y-120000000D03*
X157500000Y-98750000D03*
X172500000Y-106000000D03*
X161500000Y-104000000D03*
X175750000Y-108500000D03*
X163500000Y-112010000D03*
X174000000Y-106250000D03*
X146750000Y-126000000D03*
X142750000Y-99000000D03*
X156750000Y-120000000D03*
X149000000Y-99500000D03*
X156400000Y-115000000D03*
X154250000Y-93000000D03*
X155600000Y-115000000D03*
X153250000Y-93000000D03*
X150400000Y-115000000D03*
X148750000Y-93000000D03*
X147750000Y-93000000D03*
X149600000Y-115000000D03*
X146750000Y-93000000D03*
X148900000Y-115500000D03*
X148100000Y-115500000D03*
X145750000Y-93000000D03*
X147750000Y-126000000D03*
X146100000Y-103498408D03*
X146900000Y-103498408D03*
X148750000Y-126000000D03*
X149750000Y-126000000D03*
X147600000Y-103998408D03*
X148400000Y-103998408D03*
X150750000Y-126000000D03*
X153600000Y-103998408D03*
X155250000Y-126000000D03*
X156250000Y-126000000D03*
X154400000Y-103998408D03*
X157250000Y-126000000D03*
X155100000Y-103498408D03*
X158250000Y-126000000D03*
X155900000Y-103498408D03*
X154900000Y-115500000D03*
X161500000Y-109000000D03*
X161500000Y-110000000D03*
X154100000Y-115500000D03*
X149900000Y-103500000D03*
X161500000Y-106000000D03*
X149100000Y-103500000D03*
X161500000Y-105000000D03*
X156250000Y-93000000D03*
X157900000Y-115500000D03*
X157100000Y-115500000D03*
X155250000Y-93000000D03*
X147250000Y-106750000D03*
X159750000Y-113250000D03*
X158250000Y-112250000D03*
X147250000Y-105500000D03*
X138967157Y-106032843D03*
X139078135Y-114015502D03*
X139643821Y-114581188D03*
X139532843Y-105467157D03*
X143013040Y-106707916D03*
X143032843Y-112217157D03*
X137678415Y-108682654D03*
X137717157Y-116217157D03*
X142447354Y-107273602D03*
X142467157Y-112782843D03*
X138282843Y-116782843D03*
X138244101Y-109248340D03*
X142032843Y-108467157D03*
X142032843Y-113467157D03*
X138967157Y-121717157D03*
X140217157Y-107717157D03*
X141467157Y-109032843D03*
X141467157Y-114032843D03*
X139532843Y-122282843D03*
X140782843Y-108282843D03*
X147400000Y-124137046D03*
X156600000Y-100743729D03*
X147400000Y-115000000D03*
X156600000Y-94816240D03*
X146600000Y-124137046D03*
X157400000Y-100743729D03*
X157400000Y-94816240D03*
X146600000Y-115000000D03*
M02*
