%TF.GenerationSoftware,KiCad,Pcbnew,7.0.2-0*%
%TF.CreationDate,2023-05-03T13:11:08-04:00*%
%TF.ProjectId,szg-c2c-txr4,737a672d-6332-4632-9d74-7872342e6b69,A*%
%TF.SameCoordinates,Original*%
%TF.FileFunction,Paste,Bot*%
%TF.FilePolarity,Positive*%
%FSLAX46Y46*%
G04 Gerber Fmt 4.6, Leading zero omitted, Abs format (unit mm)*
G04 Created by KiCad (PCBNEW 7.0.2-0) date 2023-05-03 13:11:08*
%MOMM*%
%LPD*%
G01*
G04 APERTURE LIST*
G04 Aperture macros list*
%AMRoundRect*
0 Rectangle with rounded corners*
0 $1 Rounding radius*
0 $2 $3 $4 $5 $6 $7 $8 $9 X,Y pos of 4 corners*
0 Add a 4 corners polygon primitive as box body*
4,1,4,$2,$3,$4,$5,$6,$7,$8,$9,$2,$3,0*
0 Add four circle primitives for the rounded corners*
1,1,$1+$1,$2,$3*
1,1,$1+$1,$4,$5*
1,1,$1+$1,$6,$7*
1,1,$1+$1,$8,$9*
0 Add four rect primitives between the rounded corners*
20,1,$1+$1,$2,$3,$4,$5,0*
20,1,$1+$1,$4,$5,$6,$7,0*
20,1,$1+$1,$6,$7,$8,$9,0*
20,1,$1+$1,$8,$9,$2,$3,0*%
%AMFreePoly0*
4,1,21,-0.725000,0.712500,-0.709930,0.815934,-0.657520,0.923140,-0.573140,1.007520,-0.465934,1.059930,-0.362500,1.075000,0.362500,1.075000,0.465934,1.059930,0.573140,1.007520,0.657520,0.923140,0.709930,0.815934,0.725000,0.712500,0.725000,-0.712500,0.709930,-0.815934,0.657520,-0.923140,0.573140,-1.007520,0.465934,-1.059930,0.362500,-1.075000,-0.362500,-1.075000,-0.725000,-0.712500,
-0.725000,0.712500,-0.725000,0.712500,$1*%
G04 Aperture macros list end*
%ADD10RoundRect,0.140000X0.170000X-0.140000X0.170000X0.140000X-0.170000X0.140000X-0.170000X-0.140000X0*%
%ADD11RoundRect,0.140000X0.140000X0.170000X-0.140000X0.170000X-0.140000X-0.170000X0.140000X-0.170000X0*%
%ADD12RoundRect,0.140000X-0.170000X0.140000X-0.170000X-0.140000X0.170000X-0.140000X0.170000X0.140000X0*%
%ADD13FreePoly0,180.000000*%
%ADD14RoundRect,0.075000X0.275000X0.075000X-0.275000X0.075000X-0.275000X-0.075000X0.275000X-0.075000X0*%
%ADD15RoundRect,0.075000X0.075000X-0.275000X0.075000X0.275000X-0.075000X0.275000X-0.075000X-0.275000X0*%
%ADD16RoundRect,0.075000X-0.275000X-0.075000X0.275000X-0.075000X0.275000X0.075000X-0.275000X0.075000X0*%
%ADD17RoundRect,0.075000X-0.075000X0.275000X-0.075000X-0.275000X0.075000X-0.275000X0.075000X0.275000X0*%
%ADD18R,0.300000X1.450000*%
%ADD19R,2.540000X0.640000*%
%ADD20R,4.700000X0.640000*%
G04 APERTURE END LIST*
D10*
%TO.C,C2*%
X146750000Y-93980000D03*
X146750000Y-93020000D03*
%TD*%
D11*
%TO.C,C20*%
X166730000Y-110000000D03*
X165770000Y-110000000D03*
%TD*%
%TO.C,C17*%
X174210000Y-108250000D03*
X173250000Y-108250000D03*
%TD*%
D12*
%TO.C,C9*%
X158250000Y-125040000D03*
X158250000Y-126000000D03*
%TD*%
D10*
%TO.C,C5*%
X153250000Y-93980000D03*
X153250000Y-93020000D03*
%TD*%
%TO.C,C1*%
X145750000Y-93980000D03*
X145750000Y-93020000D03*
%TD*%
%TO.C,C8*%
X156250000Y-93980000D03*
X156250000Y-93020000D03*
%TD*%
D13*
%TO.C,U1*%
X170750000Y-109500000D03*
D14*
X172050000Y-108750000D03*
X172050000Y-109250000D03*
X172050000Y-109750000D03*
X172050000Y-110250000D03*
D15*
X171250000Y-111150000D03*
X170750000Y-111150000D03*
X170250000Y-111150000D03*
D16*
X169450000Y-110250000D03*
X169450000Y-109750000D03*
X169450000Y-109250000D03*
X169450000Y-108750000D03*
D17*
X170250000Y-107850000D03*
X170750000Y-107850000D03*
X171250000Y-107850000D03*
%TD*%
D12*
%TO.C,C10*%
X157250000Y-125040000D03*
X157250000Y-126000000D03*
%TD*%
D11*
%TO.C,C19*%
X166730000Y-109000000D03*
X165770000Y-109000000D03*
%TD*%
D12*
%TO.C,C12*%
X155250000Y-125040000D03*
X155250000Y-126000000D03*
%TD*%
%TO.C,C14*%
X149750000Y-125040000D03*
X149750000Y-126000000D03*
%TD*%
D18*
%TO.C,J1*%
X158750000Y-95910000D03*
X158750000Y-102090000D03*
X158250000Y-95910000D03*
X158250000Y-102090000D03*
X157250000Y-95910000D03*
X157250000Y-102090000D03*
X156750000Y-95910000D03*
X156750000Y-102090000D03*
X155750000Y-95910000D03*
X155750000Y-102090000D03*
X155250010Y-95910000D03*
X155250010Y-102090000D03*
X154250000Y-95910000D03*
X154250000Y-102090000D03*
X153750000Y-95910000D03*
X153750000Y-102090000D03*
X152750000Y-95910000D03*
X152750000Y-102090000D03*
X152250000Y-95910000D03*
X152250000Y-102090000D03*
X151250000Y-95910000D03*
X151250000Y-102090000D03*
X150750000Y-95910000D03*
X150750000Y-102090000D03*
X149750000Y-95910000D03*
X149750000Y-102090000D03*
X149250000Y-95910000D03*
X149250000Y-102090000D03*
X148250000Y-95910000D03*
X148250000Y-102090000D03*
X147750000Y-95910000D03*
X147750000Y-102090000D03*
X146750000Y-95910000D03*
X146750000Y-102090000D03*
X146250010Y-95910000D03*
X146250010Y-102090000D03*
X145250000Y-95910000D03*
X145250000Y-102090000D03*
X144750000Y-95910000D03*
X144750000Y-102090000D03*
D19*
X160440000Y-99000000D03*
D20*
X155180000Y-99000000D03*
X148830000Y-99000000D03*
D19*
X143560000Y-99000000D03*
%TD*%
D10*
%TO.C,C7*%
X155250000Y-93980000D03*
X155250000Y-93020000D03*
%TD*%
D19*
%TO.C,J2*%
X160440000Y-120000000D03*
D20*
X155170000Y-120000000D03*
X148820000Y-120000000D03*
D19*
X143560000Y-120000000D03*
D18*
X159250000Y-116910000D03*
X159250000Y-123090000D03*
X158750000Y-116910000D03*
X158750000Y-123090000D03*
X157749990Y-116910000D03*
X157749990Y-123090000D03*
X157250000Y-116910000D03*
X157250000Y-123090000D03*
X156250000Y-116910000D03*
X156250000Y-123090000D03*
X155750000Y-116910000D03*
X155750000Y-123090000D03*
X154750000Y-116910000D03*
X154750000Y-123090000D03*
X154250000Y-116910000D03*
X154250000Y-123090000D03*
X153250000Y-116910000D03*
X153250000Y-123090000D03*
X152750000Y-116910000D03*
X152750000Y-123090000D03*
X151750000Y-116910000D03*
X151750000Y-123090000D03*
X151250000Y-116910000D03*
X151250000Y-123090000D03*
X150250000Y-116910000D03*
X150250000Y-123090000D03*
X149750000Y-116910000D03*
X149750000Y-123090000D03*
X148749990Y-116910000D03*
X148749990Y-123090000D03*
X148250000Y-116910000D03*
X148250000Y-123090000D03*
X147250000Y-116910000D03*
X147250000Y-123090000D03*
X146750000Y-116910000D03*
X146750000Y-123090000D03*
X145750000Y-116910000D03*
X145750000Y-123090000D03*
X145250000Y-116910000D03*
X145250000Y-123090000D03*
%TD*%
D12*
%TO.C,C16*%
X147750000Y-125040000D03*
X147750000Y-126000000D03*
%TD*%
D10*
%TO.C,C4*%
X148750000Y-93980000D03*
X148750000Y-93020000D03*
%TD*%
%TO.C,C6*%
X154250000Y-93980000D03*
X154250000Y-93020000D03*
%TD*%
%TO.C,C3*%
X147750000Y-93980000D03*
X147750000Y-93020000D03*
%TD*%
D11*
%TO.C,C21*%
X166730000Y-111000000D03*
X165770000Y-111000000D03*
%TD*%
D12*
%TO.C,C13*%
X150750000Y-125040000D03*
X150750000Y-126000000D03*
%TD*%
%TO.C,C15*%
X148750000Y-125040000D03*
X148750000Y-126000000D03*
%TD*%
%TO.C,C11*%
X156250000Y-125020000D03*
X156250000Y-125980000D03*
%TD*%
D11*
%TO.C,C18*%
X166730000Y-108000000D03*
X165770000Y-108000000D03*
%TD*%
M02*
